<svg width="135" height="48" viewBox="0 0 135 48" fill="none" xmlns="http://www.w3.org/2000/svg">
<rect width="135" height="48" rx="24" fill="#FFEADB"/>
<path d="M33.3555 17.7773C33.3652 20.7559 36.7637 23.4023 39.7812 23.9688L39.0781 25.2578C36.4512 24.6523 33.6973 22.7871 32.5742 20.2383C31.4414 22.7871 28.6973 24.6426 26.0703 25.2578L25.3672 23.9688C28.375 23.3926 31.7441 20.7656 31.7539 17.7773V16.4492H33.3555V17.7773ZM24.7031 30.2188V28.9492H40.6016V30.2188H24.7031ZM56.3828 15.2188V32.6211H54.8594V23.0508H51.1875V21.7812H54.8594V15.2188H56.3828ZM42.7891 28.4219V16.8203H50.8945V18.0898H44.332V21.7031H50.1328V22.9531H44.332V27.1523C47.5156 27.1426 49.5664 27.0547 51.9492 26.625L52.125 27.8945C49.5957 28.3047 47.4766 28.4219 44.1172 28.4219H42.7891ZM73.5898 15.2188V32.6211H72.0469V15.2188H73.5898ZM60.4062 28.3047V16.8789H68.668V18.168H61.9492V26.9766C65.3281 26.9766 67.5449 26.8789 70.1523 26.4102L70.3086 27.6992C67.6133 28.1777 65.3281 28.2949 61.8125 28.3047H60.4062ZM85.5625 17.0352C85.5527 22.0449 83.8438 26.6348 77.5938 29.7109L76.7344 28.5391C79.9961 26.9473 81.959 24.9355 83.0137 22.6016L77.0664 23.168L76.8125 21.8203L83.4824 21.3711C83.7949 20.3945 83.9707 19.3691 84.0391 18.3047H77.6914V17.0352H85.5625ZM88.4727 32.582V15.2188H89.9961V22.2891H92.8086V23.5781H89.9961V32.582H88.4727ZM108.785 15.2188V32.582H107.301V15.2188H108.785ZM93.6484 26.9766C94.1855 26.9766 94.8105 26.9766 95.4844 26.9668V18.7148H94.0195V17.4453H102.008V18.7148H100.543V26.7617C101.197 26.7031 101.822 26.6445 102.398 26.5664L102.496 27.6992C99.752 28.207 96.1094 28.2949 93.8438 28.2852L93.6484 26.9766ZM96.8906 26.9375C97.6133 26.918 98.375 26.8887 99.1172 26.8496V18.7148H96.8906V26.9375ZM101.5 23.207V21.8203H103.922V15.6484H105.387V31.6641H103.922V23.207H101.5Z" fill="#FB7E23"/>
</svg>
