<svg width="83" height="48" viewBox="0 0 83 48" fill="none" xmlns="http://www.w3.org/2000/svg">
<rect width="83" height="48" rx="24" fill="#FFEADB"/>
<path d="M33.707 17.0352C33.6973 22.0449 31.9883 26.6348 25.7383 29.7109L24.8789 28.5391C28.1406 26.9473 30.1035 24.9355 31.1582 22.6016L25.2109 23.168L24.957 21.8203L31.627 21.3711C31.9395 20.3945 32.1152 19.3691 32.1836 18.3047H25.8359V17.0352H33.707ZM36.6172 32.582V15.2188H38.1406V22.2891H40.9531V23.5781H38.1406V32.582H36.6172ZM56.9297 15.2188V32.582H55.4453V15.2188H56.9297ZM41.793 26.9766C42.3301 26.9766 42.9551 26.9766 43.6289 26.9668V18.7148H42.1641V17.4453H50.1523V18.7148H48.6875V26.7617C49.3418 26.7031 49.9668 26.6445 50.543 26.5664L50.6406 27.6992C47.8965 28.207 44.2539 28.2949 41.9883 28.2852L41.793 26.9766ZM45.0352 26.9375C45.7578 26.918 46.5195 26.8887 47.2617 26.8496V18.7148H45.0352V26.9375ZM49.6445 23.207V21.8203H52.0664V15.6484H53.5312V31.6641H52.0664V23.207H49.6445Z" fill="#FB7E23"/>
</svg>
