<svg width="118" height="48" viewBox="0 0 118 48" fill="none" xmlns="http://www.w3.org/2000/svg">
<rect width="118" height="48" rx="24" fill="#FFEADB"/>
<path d="M33.3555 17.7773C33.3652 20.7559 36.7637 23.4023 39.7812 23.9688L39.0781 25.2578C36.4512 24.6523 33.6973 22.7871 32.5742 20.2383C31.4414 22.7871 28.6973 24.6426 26.0703 25.2578L25.3672 23.9688C28.375 23.3926 31.7441 20.7656 31.7539 17.7773V16.4492H33.3555V17.7773ZM24.7031 30.2188V28.9492H40.6016V30.2188H24.7031ZM56.3828 15.2188V32.6211H54.8594V23.0508H51.1875V21.7812H54.8594V15.2188H56.3828ZM42.7891 28.4219V16.8203H50.8945V18.0898H44.332V21.7031H50.1328V22.9531H44.332V27.1523C47.5156 27.1426 49.5664 27.0547 51.9492 26.625L52.125 27.8945C49.5957 28.3047 47.4766 28.4219 44.1172 28.4219H42.7891ZM73.5898 15.2188V32.6211H72.0469V15.2188H73.5898ZM60.4062 28.3047V16.8789H68.668V18.168H61.9492V26.9766C65.3281 26.9766 67.5449 26.8789 70.1523 26.4102L70.3086 27.6992C67.6133 28.1777 65.3281 28.2949 61.8125 28.3047H60.4062ZM92.4375 24.0469V25.2969H85.2305V27.1133H90.3867V32.3477H78.707V27.1133H83.7266V25.2969H76.5391V24.0469H92.4375ZM78.5508 16.8398V15.6484H90.3867V19.7109H80.1328V21.4492H90.7578V22.6797H78.6094V18.5781H88.8438V16.8398H78.5508ZM80.2109 31.0977H88.8828V28.3438H80.2109V31.0977Z" fill="#FB7E23"/>
</svg>
