<svg width="83" height="48" viewBox="0 0 83 48" fill="none" xmlns="http://www.w3.org/2000/svg">
<rect width="83" height="48" rx="24" fill="#FB7E23"/>
<path d="M33.8047 16.7227C33.7852 22.2109 32.457 26.7715 25.8164 30.1016L24.4492 28.2266C27.418 26.752 29.1855 25.1016 30.1914 23.1289L24.9375 23.6172L24.625 21.4883L30.9434 21.1074C31.1289 20.3555 31.2559 19.5547 31.3145 18.7148H25.5625V16.7227H33.8047ZM36.0508 32.7578V15.0234H38.5508V21.8398H41.0703V23.8906H38.5508V32.7578H36.0508ZM57.3594 15.0234V32.7969H54.957V15.0234H57.3594ZM41.6172 26.6836H43.1016V19.0469H41.9492V17.0352H50.0938V19.0469H48.9609V26.4395C49.459 26.3906 49.9375 26.3418 50.3867 26.2734L50.5625 28.0703C47.75 28.666 44.1172 28.7344 41.8906 28.7344L41.6172 26.6836ZM45.3086 26.6445C45.7676 26.6348 46.2266 26.6152 46.6953 26.5957V19.0469H45.3086V26.6445ZM49.6836 23.7148V21.4883H51.4023V15.375H53.7656V31.957H51.4023V23.7148H49.6836Z" fill="white"/>
</svg>
