<svg width="83" height="48" viewBox="0 0 83 48" fill="none" xmlns="http://www.w3.org/2000/svg">
<rect width="83" height="48" rx="24" fill="#FFEADB"/>
<path d="M30.8555 17.7383C30.8359 20.2676 32.6719 22.5234 35.25 23.4219L34.4688 24.6328C32.457 23.8906 30.8652 22.3965 30.084 20.4727C29.3223 22.5332 27.7207 24.1543 25.6797 24.9453L24.8789 23.7344C27.4766 22.7676 29.293 20.3652 29.293 17.7383V16.0781H30.8555V17.7383ZM27.3594 27.8164V26.5469H39.0391V32.582H37.5156V27.8164H27.3594ZM37.5156 25.6875V15.2188H39.0391V25.6875H37.5156ZM55.582 15.2188V19.75H58.1797V21.0391H55.582V25.5898H54.0391V15.2188H55.582ZM42.7891 24.1641V16.5469H50.5039V17.8164H44.293V22.9141C47.8086 22.8945 49.8301 22.7871 52.1641 22.3086L52.3203 23.5781C49.8887 24.0664 47.8086 24.1641 44.1367 24.1641H42.7891ZM44.2344 29.2227C44.2441 27.1426 46.4512 25.9316 49.9961 25.9219C53.541 25.9316 55.7188 27.1426 55.7188 29.2227C55.7188 31.332 53.541 32.543 49.9961 32.543C46.4512 32.543 44.2441 31.332 44.2344 29.2227ZM45.7383 29.2227C45.748 30.5117 47.3789 31.3027 49.9961 31.3125C52.5938 31.3027 54.2441 30.5117 54.2344 29.2227C54.2441 27.9434 52.5938 27.1719 49.9961 27.1914C47.3789 27.1719 45.748 27.9434 45.7383 29.2227Z" fill="#FB7E23"/>
</svg>
