<svg width="100" height="48" viewBox="0 0 100 48" fill="none" xmlns="http://www.w3.org/2000/svg">
<rect width="100" height="48" rx="24" fill="#FB7E23"/>
<path d="M39.0195 22.9727V24.9453H33.8633V28.7344H40.7969V30.7656H24.5273V28.7344H31.3828V24.9453H26.4414V16.2734H38.8828V18.2656H28.9414V22.9727H39.0195ZM48.5312 19.0469C48.541 22.3867 49.8887 25.6387 52.8477 26.918L51.3242 28.9102C49.3516 27.9531 48.0234 26.1758 47.2812 23.9785C46.5195 26.3125 45.1523 28.2266 43.1211 29.2227L41.5586 27.1914C44.6055 25.8145 45.9922 22.3867 46.0117 19.0469V16.3906H48.5312V19.0469ZM50.8555 22.6211V20.6094H54.3516V15.0234H56.8125V32.8359H54.3516V22.6211H50.8555ZM69.0586 16.3125V17.4258C69.0586 18.6562 69.0586 20.4336 68.6484 22.6406L66.207 22.4062C66.5293 20.707 66.6074 19.4082 66.627 18.3438H59.918V16.3125H69.0586ZM58.8633 23.9297C59.8594 23.9297 60.9824 23.9297 62.1641 23.9004V20.4141H64.6445V23.8223C66.4219 23.7441 68.2285 23.6074 69.8984 23.3633L70.0352 25.1602C66.334 25.8438 62.1738 25.9121 59.0781 25.9219L58.8633 23.9297ZM61.4805 32.4844V27.1328H63.9805V30.4922H73.9609V32.4844H61.4805ZM70.8555 28.3242V15.0234H73.4141V20.4336H75.5625V22.5234H73.4141V28.3242H70.8555Z" fill="white"/>
</svg>
