<svg width="100" height="48" viewBox="0 0 100 48" fill="none" xmlns="http://www.w3.org/2000/svg">
<rect width="100" height="48" rx="24" fill="#FFEADB"/>
<path d="M38.7266 23.3633V24.6133H33.3555V29.1055H40.6016V30.3945H24.7031V29.1055H31.8516V24.6133H26.7344V16.6445H38.5508V17.8945H28.2773V23.3633H38.7266ZM48.1016 19.8867C48.0918 23.0312 50.1133 26.1953 52.6328 27.3477L51.7148 28.5977C49.7422 27.582 48.1113 25.5117 47.3398 23.041C46.5684 25.6387 44.9375 27.8652 42.9648 28.9102L41.9688 27.6797C44.5176 26.4297 46.5293 23.0898 46.5391 19.8867V16.7227H48.1016V19.8867ZM50.7383 22.4062V21.1562H54.8594V15.2188H56.3828V32.6211H54.8594V22.4062H50.7383ZM68.9023 16.5664V17.4844C68.8926 18.627 68.8926 20.3555 68.4531 22.6211L66.9102 22.5039C67.3301 20.4336 67.3691 18.959 67.3887 17.8555H60.25V16.5664H68.9023ZM59.1758 24.2422C60.2988 24.2422 61.5684 24.2324 62.9062 24.1934V20.4141H64.4297V24.1445C66.3535 24.0664 68.3457 23.9297 70.1523 23.6758L70.25 24.8086C66.6074 25.4336 62.4277 25.502 59.332 25.5117L59.1758 24.2422ZM61.8516 32.2109V27.1133H63.3945V30.9219H73.4531V32.2109H61.8516ZM71.3242 28.2852V15.2188H72.8867V20.8828H75.4258V22.1914H72.8867V28.2852H71.3242Z" fill="#FB7E23"/>
</svg>
