<svg width="83" height="48" viewBox="0 0 83 48" fill="none" xmlns="http://www.w3.org/2000/svg">
<rect width="83" height="48" rx="24" fill="#FB7E23"/>
<path d="M31.3438 17.543C31.3242 19.7598 32.5938 21.918 35.5234 22.7969L34.2734 24.75C32.252 24.1055 30.8457 22.8359 30.0547 21.2148C29.2539 22.9629 27.8086 24.3496 25.7188 25.0234L24.4688 23.0703C27.4375 22.123 28.7461 19.8086 28.7461 17.543V15.8438H31.3438V17.543ZM27.1836 28.3828V26.3906H39.4102V32.7969H36.9102V28.3828H27.1836ZM36.9102 25.6289V15.0234H39.4102V25.6289H36.9102ZM55.9531 15.0234V19.2422H58.3164V21.2734H55.9531V25.3164H53.4141V15.0234H55.9531ZM42.4375 24.3594V16.2148H50.4258V18.207H44.918V22.3477C48.2188 22.3281 50.0254 22.2207 52.0078 21.8008L52.2227 23.793C50.0254 24.2715 47.9355 24.3496 43.9219 24.3594H42.4375ZM44 29.1836C43.9902 26.9473 46.373 25.6289 50.0938 25.6289C53.7461 25.6289 56.0801 26.9473 56.0898 29.1836C56.0801 31.4688 53.7461 32.8066 50.0938 32.7969C46.373 32.8066 43.9902 31.4688 44 29.1836ZM46.4609 29.1836C46.4512 30.2578 47.7598 30.8242 50.0938 30.8242C52.3496 30.8242 53.6582 30.2578 53.668 29.1836C53.6582 28.1387 52.3496 27.5918 50.0938 27.6016C47.7598 27.5918 46.4512 28.1387 46.4609 29.1836Z" fill="white"/>
</svg>
