<svg width="135" height="48" viewBox="0 0 135 48" fill="none" xmlns="http://www.w3.org/2000/svg">
<rect width="135" height="48" rx="24" fill="#FB7E23"/>
<path d="M33.8828 17.3672C33.873 19.9746 36.1875 22.7578 40.2109 23.4414L39.1172 25.5117C36.0117 24.8965 33.7168 23.1484 32.5645 20.873C31.3926 23.1289 29.0879 24.8867 26.0117 25.5117L24.9375 23.4414C28.8926 22.7383 31.207 19.9453 31.2266 17.3672V16.0781H33.8828V17.3672ZM24.5273 30.6094V28.5586H40.7969V30.6094H24.5273ZM56.8125 15.0234V32.8359H54.3516V23.3047H51.2266V21.293H54.3516V15.0234H56.8125ZM42.6328 28.8125V16.5078H50.9336V18.5195H45.1133V21.4688H50.2891V23.4219H45.1133V26.7812C47.584 26.7617 49.5566 26.6738 51.7539 26.332L52.0078 28.3242C49.4102 28.7148 47.0859 28.8027 44.0391 28.8125H42.6328ZM73.9805 15.0234V32.8359H71.4609V15.0234H73.9805ZM60.1719 28.5977V16.5859H68.8242V18.6172H62.6719V26.4883C65.8555 26.4883 67.8184 26.4004 70.0547 26L70.2891 28.0508C67.8281 28.5195 65.5625 28.5977 61.7148 28.5977H60.1719ZM85.6602 16.7227C85.6406 22.2109 84.3125 26.7715 77.6719 30.1016L76.3047 28.2266C79.2734 26.752 81.041 25.1016 82.0469 23.1289L76.793 23.6172L76.4805 21.4883L82.7988 21.1074C82.9844 20.3555 83.1113 19.5547 83.1699 18.7148H77.418V16.7227H85.6602ZM87.9062 32.7578V15.0234H90.4062V21.8398H92.9258V23.8906H90.4062V32.7578H87.9062ZM109.215 15.0234V32.7969H106.812V15.0234H109.215ZM93.4727 26.6836H94.957V19.0469H93.8047V17.0352H101.949V19.0469H100.816V26.4395C101.314 26.3906 101.793 26.3418 102.242 26.2734L102.418 28.0703C99.6055 28.666 95.9727 28.7344 93.7461 28.7344L93.4727 26.6836ZM97.1641 26.6445C97.623 26.6348 98.082 26.6152 98.5508 26.5957V19.0469H97.1641V26.6445ZM101.539 23.7148V21.4883H103.258V15.375H105.621V31.957H103.258V23.7148H101.539Z" fill="white"/>
</svg>
