<svg width="118" height="48" viewBox="0 0 118 48" fill="none" xmlns="http://www.w3.org/2000/svg">
<rect width="118" height="48" rx="24" fill="#FB7E23"/>
<path d="M33.8828 17.3672C33.873 19.9746 36.1875 22.7578 40.2109 23.4414L39.1172 25.5117C36.0117 24.8965 33.7168 23.1484 32.5645 20.873C31.3926 23.1289 29.0879 24.8867 26.0117 25.5117L24.9375 23.4414C28.8926 22.7383 31.207 19.9453 31.2266 17.3672V16.0781H33.8828V17.3672ZM24.5273 30.6094V28.5586H40.7969V30.6094H24.5273ZM56.8125 15.0234V32.8359H54.3516V23.3047H51.2266V21.293H54.3516V15.0234H56.8125ZM42.6328 28.8125V16.5078H50.9336V18.5195H45.1133V21.4688H50.2891V23.4219H45.1133V26.7812C47.584 26.7617 49.5566 26.6738 51.7539 26.332L52.0078 28.3242C49.4102 28.7148 47.0859 28.8027 44.0391 28.8125H42.6328ZM73.9805 15.0234V32.8359H71.4609V15.0234H73.9805ZM60.1719 28.5977V16.5859H68.8242V18.6172H62.6719V26.4883C65.8555 26.4883 67.8184 26.4004 70.0547 26L70.2891 28.0508C67.8281 28.5195 65.5625 28.5977 61.7148 28.5977H60.1719ZM92.6328 23.9102V25.8828H85.7383V27.1133H90.7383V32.6016H78.4531V27.1133H83.2578V25.8828H76.3633V23.9102H92.6328ZM78.3555 17.2305V15.3555H90.6602V20.0625H80.875V21.0781H90.9922V23.0312H78.3945V18.3047H88.1602V17.2305H78.3555ZM80.8945 30.6094H88.2578V29.0469H80.8945V30.6094Z" fill="white"/>
</svg>
