<svg width="228" height="128" viewBox="0 0 228 128" fill="none" xmlns="http://www.w3.org/2000/svg">
<g clip-path="url(#clip0_1863_6981)">
<mask id="mask0_1863_6981" style="mask-type:luminance" maskUnits="userSpaceOnUse" x="0" y="0" width="228" height="128">
<path d="M228 0H0V128H228V0Z" fill="white"/>
</mask>
<g mask="url(#mask0_1863_6981)">
<path d="M1.65234 13.2069V11.7839H17.6596V13.2069H10.4435V18.2095H8.81258V13.2069H1.65234ZM2.21087 4.58016C2.21087 3.1572 2.83642 2.00104 3.91995 1.30068C5.28272 0.377974 7.18173 0 9.67273 0C12.1637 0 14.0627 0.377974 15.4255 1.30068C16.4867 2.00104 17.1122 3.1572 17.1122 4.58016C17.1122 6.00315 16.4867 7.13703 15.4255 7.85965C14.0627 8.78236 12.1637 9.16033 9.67273 9.16033C7.18173 9.16033 5.29392 8.78236 3.91995 7.85965C2.83642 7.13703 2.21087 5.98091 2.21087 4.58016ZM3.81941 4.58016C3.81941 5.43618 4.1657 6.20323 4.82475 6.70349C5.78543 7.42611 7.39394 7.74847 9.67273 7.74847C11.9515 7.74847 13.56 7.42611 14.4984 6.70349C15.1574 6.20323 15.5037 5.44728 15.5037 4.58016C15.5037 3.71304 15.1574 2.9571 14.4984 2.45684C13.5489 1.712 11.9292 1.38961 9.67273 1.38961C7.41629 1.38961 5.79658 1.712 4.82475 2.45684C4.1657 2.9571 3.81941 3.70193 3.81941 4.58016Z" fill="white"/>
<path d="M29.6244 16.6531H21.6152V7.70399H28.217V1.72312H21.6152V0.32239H29.8032V9.10476H23.2014V15.2746H29.9037C31.7357 15.2746 33.3442 14.7966 34.2714 13.9295V0H35.9023V17.8982H34.2714V15.2746C33.3889 16.1751 31.6351 16.6531 29.6244 16.6531Z" fill="white"/>
<path d="M47.7542 4.10214V1.72312H40.7504V0.32239H49.3628V3.9465C49.3628 10.7945 46.626 15.2191 40.6387 16.7976V15.2969C45.442 13.8961 47.7542 10.0275 47.7542 4.11325V4.10214ZM54.7583 0V7.52615H57.696V8.92687H54.7583V17.9093H53.1497V0H54.7583Z" fill="white"/>
<path d="M65.6699 9.70506V0.200104H74.2936V9.70506H65.6699ZM68.3288 12.1285V16.6086H80.2589V17.9872H66.7201V12.1174H68.3288V12.1285ZM72.7188 1.60083H67.2674V8.34881H72.7188V1.60083ZM79.9235 0V5.0693H82.6827V6.49226H79.9235V12.4732H78.3153V0H79.9235Z" fill="white"/>
<path d="M92.7589 16.6531H85.2188V0.200104H86.8274V15.2746H93.0273C94.937 15.2746 96.6238 14.7521 97.6069 13.8183V0H99.2155V7.52615H102.153V8.92687H99.2155V17.9093H97.6069V15.1523C96.6798 16.0973 94.8477 16.6531 92.7589 16.6531Z" fill="white"/>
<path d="M103.908 10.4717V9.07094H120.116V10.4717H103.908ZM106.746 0.0996094V4.74647H119.011V6.14722H105.137V0.0996094H106.746ZM106.746 12.4727V16.6193H119.256V17.9978H105.137V12.4727H106.746Z" fill="white"/>
<path d="M129.61 0.32239H139.283V1.72312H135.24V7.37049C135.24 11.9507 137.307 14.1741 139.429 15.1968V16.6753C137.139 15.7749 135.206 13.8183 134.424 11.6505C133.676 13.8183 131.665 15.8193 129.42 16.6753V15.1968C131.475 14.2185 133.62 11.9507 133.62 7.37049V1.72312H129.621V0.32239H129.61ZM144.109 0V17.8982H142.478V0H144.109Z" fill="white"/>
<path d="M148.969 0.200104H158.096V1.60083H154.331V2.87928C154.331 5.90306 156.241 7.48167 158.408 7.98193V9.42712C156.241 8.97134 154.387 7.68176 153.56 6.00315C152.734 7.72623 150.89 9.24928 148.656 9.66059V8.21539C150.89 7.71514 152.722 5.93644 152.722 2.86816V1.58971H148.958V0.200104H148.969ZM150.097 18.1205V11.417H163.468V18.1205H150.097ZM161.86 12.7955H151.728V16.742H161.86V12.7955ZM163.468 9.97185H161.86V5.325H157.816V3.9465H161.86V0H163.468V9.97185Z" fill="white"/>
<path d="M228 108.935H218.092V118.795H228V108.935Z" fill="white"/>
<path d="M26.5405 90.6582H18.5312V111.914H26.5405V90.6582Z" fill="white"/>
<path d="M45.4414 110.824H0V118.795H41.487C43.6653 118.795 45.4414 117.038 45.4414 114.86V110.824Z" fill="white"/>
<path d="M76.6738 49.5484C80.919 49.5484 84.3703 52.9834 84.3703 57.2079V103.298C84.3703 107.523 80.919 110.958 76.6738 110.958C72.4291 110.958 68.9778 107.523 68.9778 103.298V57.2079C68.9778 52.9834 72.4291 49.5484 76.6738 49.5484ZM76.6738 41.7666C68.1062 41.7666 61.1582 48.6813 61.1582 57.2079V103.298C61.1582 111.825 68.1062 118.74 76.6738 118.74C85.242 118.74 92.1899 111.825 92.1899 103.298V57.2079C92.1899 48.6813 85.242 41.7666 76.6738 41.7666Z" fill="white"/>
<path d="M31.9139 49.6705C34.863 49.6705 37.2646 52.0608 37.2646 54.9953V81.6203C37.2646 84.5221 34.8853 86.8899 31.9698 86.8899H7.81929V49.6705H31.9139ZM31.9139 41.8887H0V94.6718H31.9698C39.2083 94.6718 45.0839 88.8244 45.0839 81.6203V54.9953C45.0839 47.7584 39.1859 41.8887 31.9139 41.8887Z" fill="white"/>
<path d="M104.344 41.8887H100.893V118.74H104.802C107.07 118.74 108.913 116.906 108.913 114.649V46.4244C108.913 43.9231 106.868 41.8887 104.355 41.8887H104.344Z" fill="white"/>
<path d="M166.552 42H162.709V94.3159H170.718V46.1577C170.718 43.8676 168.853 42.0111 166.552 42.0111V42Z" fill="white"/>
<path d="M134.101 42H126.092V94.583H134.101V42Z" fill="white"/>
<path d="M150.99 42H129.945V49.9708H154.275V45.2572C154.275 43.4563 152.811 42 151.002 42H150.99Z" fill="white"/>
<path d="M154.264 86.6123H134.102V94.5829H150.198C152.443 94.5829 154.264 92.7709 154.264 90.5366V86.6123Z" fill="white"/>
<path d="M182.873 86.6123H163.648V94.5829H179.745C181.99 94.5829 182.873 92.7709 182.873 90.5366V86.6123Z" fill="white"/>
<path d="M210.642 118.739L196.422 104.576V118.739H210.642Z" fill="white"/>
<path d="M200.665 118.773H163.289C157.056 118.717 152.934 116.861 150.32 114.516C147.695 117.161 144.043 118.773 140.066 118.773H126.092V110.991H140.066C143.004 110.991 145.562 109.079 146.332 106.322V104.521H154.152V106.5C154.331 107.323 155.537 110.913 163.334 110.98H200.665V118.762V118.773Z" fill="white"/>
</g>
</g>
<defs>
<clipPath id="clip0_1863_6981">
<rect width="228" height="128" fill="white"/>
</clipPath>
</defs>
</svg>
