<svg width="16" height="20" viewBox="0 0 16 20" fill="none" xmlns="http://www.w3.org/2000/svg">
<path fill-rule="evenodd" clip-rule="evenodd" d="M8 19.1673C8 19.1673 15.5 14.1673 15.5 8.33398C15.5 6.34486 14.7098 4.43721 13.3033 3.03068C11.8968 1.62416 9.98912 0.833984 8 0.833984C6.01088 0.833984 4.10322 1.62416 2.6967 3.03068C1.29018 4.43721 0.5 6.34486 0.5 8.33398C0.5 14.1673 8 19.1673 8 19.1673ZM10.5 8.33398C10.5 9.7147 9.38071 10.834 8 10.834C6.61929 10.834 5.5 9.7147 5.5 8.33398C5.5 6.95327 6.61929 5.83398 8 5.83398C9.38071 5.83398 10.5 6.95327 10.5 8.33398Z" fill="#DEDEDE"/>
</svg>
