<svg width="28" height="28" viewBox="0 0 28 28" fill="none" xmlns="http://www.w3.org/2000/svg">
<path d="M20 25V22C20 20.4087 19.4996 18.8826 18.6088 17.7574C17.718 16.6321 16.5098 16 15.25 16H5.75C4.49022 16 3.28204 16.6321 2.39124 17.7574C1.50045 18.8826 1 20.4087 1 22V25" fill="#DEDEDE"/>
<path d="M10.5007 12.8333C13.078 12.8333 15.1673 10.744 15.1673 8.16667C15.1673 5.58934 13.078 3.5 10.5007 3.5C7.92332 3.5 5.83398 5.58934 5.83398 8.16667C5.83398 10.744 7.92332 12.8333 10.5007 12.8333Z" fill="#DEDEDE"/>
<path d="M26 25V22.2743C25.9991 21.0664 25.6058 19.893 24.8818 18.9384C24.1578 17.9838 23.1442 17.302 22 17" stroke="#DEDEDE" stroke-width="2" stroke-linecap="round" stroke-linejoin="round"/>
<path d="M18 4C18.8582 4.22741 19.6188 4.74395 20.162 5.46819C20.7052 6.19243 21 7.08318 21 8C21 8.91682 20.7052 9.80757 20.162 10.5318C19.6188 11.256 18.8582 11.7726 18 12" stroke="#DEDEDE" stroke-width="2" stroke-linecap="round" stroke-linejoin="round"/>
</svg>
