<svg width="44" height="37" viewBox="0 0 44 37" fill="none" xmlns="http://www.w3.org/2000/svg">
<path d="M43.9633 14.4277C43.9372 14.3054 43.8988 14.1861 43.8487 14.0716L39.5198 3.87806C38.5218 1.52278 36.0938 0 33.3312 0H10.6689C7.90855 0 5.47824 1.52278 4.48137 3.87806L0.147827 14.0716C0.0493396 14.3015 -0.000984079 14.5495 1.45772e-05 14.8V35.15C1.45772e-05 35.6407 0.193169 36.1112 0.536986 36.4581C0.880802 36.8051 1.34712 37 1.83335 37H5.50001C5.98624 37 6.45256 36.8051 6.79637 36.4581C7.14019 36.1112 7.33335 35.6407 7.33335 35.15V33.3H36.6667V35.15C36.6667 35.6407 36.8598 36.1112 37.2036 36.4581C37.5475 36.8051 38.0138 37 38.5 37H42.1667C42.6529 37 43.1192 36.8051 43.463 36.4581C43.8068 36.1112 44 35.6407 44 35.15V14.8C44.0002 14.675 43.9879 14.5502 43.9633 14.4277ZM9.16668 25.9C8.44148 25.9 7.73257 25.683 7.12959 25.2764C6.52661 24.8699 6.05664 24.292 5.77912 23.6159C5.5016 22.9398 5.42899 22.1959 5.57047 21.4782C5.71195 20.7604 6.06116 20.1012 6.57395 19.5837C7.08675 19.0663 7.74008 18.7139 8.45135 18.5711C9.16261 18.4283 9.89985 18.5016 10.5698 18.7816C11.2398 19.0617 11.8125 19.5359 12.2154 20.1444C12.6183 20.7529 12.8333 21.4682 12.8333 22.2C12.8333 23.1813 12.447 24.1224 11.7594 24.8163C11.0718 25.5102 10.1391 25.9 9.16668 25.9ZM34.8333 25.9C34.1081 25.9 33.3992 25.683 32.7962 25.2764C32.1933 24.8699 31.7233 24.292 31.4458 23.6159C31.1683 22.9398 31.0956 22.1959 31.2371 21.4782C31.3786 20.7604 31.7278 20.1012 32.2406 19.5837C32.7534 19.0663 33.4067 18.7139 34.118 18.5711C34.8293 18.4283 35.5665 18.5016 36.2365 18.7816C36.9065 19.0617 37.4792 19.5359 37.8821 20.1444C38.285 20.7529 38.5 21.4682 38.5 22.2C38.5 23.1813 38.1137 24.1224 37.4261 24.8163C36.7384 25.5102 35.8058 25.9 34.8333 25.9ZM4.61314 12.95L7.84783 5.33609C8.26262 4.35791 9.39584 3.7 10.6689 3.7H33.3312C34.603 3.7 35.7374 4.35791 36.1522 5.33609L39.3869 12.95H4.61314Z" fill="#FFEADB"/>
</svg>
