<svg width="36" height="36" viewBox="0 0 36 36" fill="none" xmlns="http://www.w3.org/2000/svg">
<path fill-rule="evenodd" clip-rule="evenodd" d="M27.1667 1.25C27.719 1.25 28.1667 1.69772 28.1667 2.25V5.91667C28.1667 5.94473 28.1655 5.97252 28.1632 6H30.8333C32.8584 6 34.5 7.34315 34.5 9V30C34.5 31.6569 32.8584 33 30.8333 33H5.16667C3.14162 33 1.5 31.6569 1.5 30V9C1.5 7.34315 3.14162 6 5.16667 6H7.83676C7.83449 5.97252 7.83333 5.94473 7.83333 5.91667V2.25C7.83333 1.69772 8.28105 1.25 8.83333 1.25C9.38562 1.25 9.83333 1.69772 9.83333 2.25L9.83333 5.91667C9.83333 5.94473 9.83218 5.97252 9.82991 6H26.1701C26.1678 5.97252 26.1667 5.94473 26.1667 5.91667V2.25C26.1667 1.69772 26.6144 1.25 27.1667 1.25Z" fill="#FB7E23"/>
</svg>
