<svg width="36" height="36" viewBox="0 0 36 36" fill="none" xmlns="http://www.w3.org/2000/svg">
<path fill-rule="evenodd" clip-rule="evenodd" d="M18 34.5C18 34.5 31.5 25.5 31.5 15C31.5 11.4196 30.0777 7.9858 27.5459 5.45406C25.0142 2.92232 21.5804 1.5 18 1.5C14.4196 1.5 10.9858 2.92232 8.45406 5.45406C5.92232 7.9858 4.5 11.4196 4.5 15C4.5 25.5 18 34.5 18 34.5ZM23 13.5C23 15.9853 20.9853 18 18.5 18C16.0147 18 14 15.9853 14 13.5C14 11.0147 16.0147 9 18.5 9C20.9853 9 23 11.0147 23 13.5Z" fill="#FB7E23"/>
</svg>
