<svg width="39" height="48" viewBox="0 0 39 48" fill="none" xmlns="http://www.w3.org/2000/svg">
<path d="M34.125 22.7368H4.875V10.1053H34.125M30.4688 37.8947C29.4991 37.8947 28.5691 37.4955 27.8834 36.7848C27.1977 36.0742 26.8125 35.1103 26.8125 34.1053C26.8125 33.1002 27.1977 32.1364 27.8834 31.4257C28.5691 30.715 29.4991 30.3158 30.4688 30.3158C31.4384 30.3158 32.3684 30.715 33.0541 31.4257C33.7398 32.1364 34.125 33.1002 34.125 34.1053C34.125 35.1103 33.7398 36.0742 33.0541 36.7848C32.3684 37.4955 31.4384 37.8947 30.4688 37.8947ZM8.53125 37.8947C7.56155 37.8947 6.63157 37.4955 5.94589 36.7848C5.26021 36.0742 4.875 35.1103 4.875 34.1053C4.875 33.1002 5.26021 32.1364 5.94589 31.4257C6.63157 30.715 7.56155 30.3158 8.53125 30.3158C9.50095 30.3158 10.4309 30.715 11.1166 31.4257C11.8023 32.1364 12.1875 33.1002 12.1875 34.1053C12.1875 35.1103 11.8023 36.0742 11.1166 36.7848C10.4309 37.4955 9.50095 37.8947 8.53125 37.8947ZM0 35.3684C0 37.5916 0.950625 39.5874 2.4375 40.9768V45.4737C2.4375 46.1437 2.69431 46.7863 3.15143 47.2601C3.60855 47.7338 4.22853 48 4.875 48H7.3125C7.95896 48 8.57895 47.7338 9.03607 47.2601C9.49319 46.7863 9.75 46.1437 9.75 45.4737V42.9474H29.25V45.4737C29.25 46.1437 29.5068 46.7863 29.9639 47.2601C30.421 47.7338 31.041 48 31.6875 48H34.125C34.7715 48 35.3915 47.7338 35.8486 47.2601C36.3057 46.7863 36.5625 46.1437 36.5625 45.4737V40.9768C38.0494 39.5874 39 37.5916 39 35.3684V10.1053C39 1.26316 30.2737 0 19.5 0C8.72625 0 0 1.26316 0 10.1053V35.3684Z" fill="#FFEADB"/>
</svg>
