<svg width="70" height="70" viewBox="0 0 70 70" fill="none" xmlns="http://www.w3.org/2000/svg">
<circle cx="35" cy="35" r="35" fill="#FB7E23"/>
<path d="M52.9692 31.0881C52.9472 30.9856 52.9149 30.8856 52.8728 30.7897L49.2325 22.2492C48.3933 20.2758 46.3516 19 44.0285 19H24.9715C22.6504 19 20.6067 20.2758 19.7684 22.2492L16.1243 30.7897C16.0415 30.9823 15.9992 31.1901 16 31.4V48.45C16 48.8611 16.1624 49.2553 16.4516 49.546C16.7407 49.8367 17.1328 50 17.5417 50H20.625C21.0339 50 21.426 49.8367 21.7151 49.546C22.0043 49.2553 22.1667 48.8611 22.1667 48.45V46.9H46.8333V48.45C46.8333 48.8611 46.9958 49.2553 47.2849 49.546C47.574 49.8367 47.9661 50 48.375 50H51.4583C51.8672 50 52.2593 49.8367 52.5485 49.546C52.8376 49.2553 53 48.8611 53 48.45V31.4C53.0001 31.2952 52.9898 31.1907 52.9692 31.0881ZM23.7083 40.7C23.0985 40.7 22.5024 40.5182 21.9953 40.1776C21.4883 39.8369 21.0931 39.3528 20.8597 38.7863C20.6263 38.2199 20.5653 37.5966 20.6843 36.9952C20.8032 36.3939 21.0969 35.8415 21.5281 35.408C21.9593 34.9744 22.5087 34.6792 23.1068 34.5596C23.7049 34.44 24.3249 34.5013 24.8883 34.736C25.4517 34.9706 25.9332 35.3679 26.272 35.8777C26.6108 36.3875 26.7917 36.9869 26.7917 37.6C26.7917 38.4222 26.4668 39.2107 25.8886 39.792C25.3104 40.3734 24.5261 40.7 23.7083 40.7ZM45.2917 40.7C44.6818 40.7 44.0857 40.5182 43.5787 40.1776C43.0716 39.8369 42.6764 39.3528 42.443 38.7863C42.2097 38.2199 42.1486 37.5966 42.2676 36.9952C42.3866 36.3939 42.6802 35.8415 43.1114 35.408C43.5426 34.9744 44.092 34.6792 44.6901 34.5596C45.2882 34.44 45.9082 34.5013 46.4716 34.736C47.035 34.9706 47.5166 35.3679 47.8554 35.8777C48.1942 36.3875 48.375 36.9869 48.375 37.6C48.375 38.4222 48.0501 39.2107 47.4719 39.792C46.8937 40.3734 46.1094 40.7 45.2917 40.7ZM19.8792 29.85L22.5993 23.4708C22.9481 22.6512 23.9011 22.1 24.9715 22.1H44.0285C45.098 22.1 46.0519 22.6512 46.4007 23.4708L49.1208 29.85H19.8792Z" fill="white"/>
</svg>
