<svg width="70" height="70" viewBox="0 0 70 70" fill="none" xmlns="http://www.w3.org/2000/svg">
<circle cx="35" cy="35" r="35" fill="white"/>
<path d="M46.875 33.8947H22.125V22.8421H46.875M43.7812 47.1579C42.9607 47.1579 42.1738 46.8085 41.5936 46.1867C41.0134 45.5649 40.6875 44.7215 40.6875 43.8421C40.6875 42.9627 41.0134 42.1193 41.5936 41.4975C42.1738 40.8757 42.9607 40.5263 43.7812 40.5263C44.6018 40.5263 45.3887 40.8757 45.9689 41.4975C46.549 42.1193 46.875 42.9627 46.875 43.8421C46.875 44.7215 46.549 45.5649 45.9689 46.1867C45.3887 46.8085 44.6018 47.1579 43.7812 47.1579ZM25.2187 47.1579C24.3982 47.1579 23.6113 46.8085 23.0311 46.1867C22.4509 45.5649 22.125 44.7215 22.125 43.8421C22.125 42.9627 22.4509 42.1193 23.0311 41.4975C23.6113 40.8757 24.3982 40.5263 25.2187 40.5263C26.0393 40.5263 26.8262 40.8757 27.4064 41.4975C27.9866 42.1193 28.3125 42.9627 28.3125 43.8421C28.3125 44.7215 27.9866 45.5649 27.4064 46.1867C26.8262 46.8085 26.0393 47.1579 25.2187 47.1579ZM18 44.9474C18 46.8926 18.8044 48.6389 20.0625 49.8547V53.7895C20.0625 54.3757 20.2798 54.938 20.6666 55.3526C21.0534 55.7671 21.578 56 22.125 56H24.1875C24.7345 56 25.2591 55.7671 25.6459 55.3526C26.0327 54.938 26.25 54.3757 26.25 53.7895V51.5789H42.75V53.7895C42.75 54.3757 42.9673 54.938 43.3541 55.3526C43.7409 55.7671 44.2655 56 44.8125 56H46.875C47.422 56 47.9466 55.7671 48.3334 55.3526C48.7202 54.938 48.9375 54.3757 48.9375 53.7895V49.8547C50.1956 48.6389 51 46.8926 51 44.9474V22.8421C51 15.1053 43.6162 14 34.5 14C25.3837 14 18 15.1053 18 22.8421V44.9474Z" fill="#FB7E23"/>
</svg>
