<svg width="404" height="373"  viewBox="0 0 264 264" fill="none" xmlns="http://www.w3.org/2000/svg">
<rect width="264" height="264" fill="url(#paint0_linear_3416_9632)"/>
<g opacity="0.8">
<path d="M223.071 101.407C183.606 92.3224 158.684 119.866 151.157 134.773C142.777 139.876 134.243 145.569 167.141 127.519C200.038 109.469 222.807 115.169 230.079 120.275L223.071 101.407Z" fill="url(#paint1_linear_3416_9632)"/>
<g filter="url(#filter0_b_3416_9632)">
<path d="M117.659 50.5091C148.075 69.4202 156.001 103.231 156.162 117.772C146.808 131.841 127.428 160.159 124.734 160.878C122.04 161.596 88.4498 141.032 71.9914 130.66L117.659 50.5091Z" fill="white" fill-opacity="0.43"/>
</g>
<path fill-rule="evenodd" clip-rule="evenodd" d="M91.8429 67.0906C128.625 73.6746 148.511 100.459 153.991 113.226C154.17 113.491 155.111 114.283 157.445 115.341L157.435 115.355C162.096 117.519 165.212 117.17 167.299 116.305C168.875 114.913 170.815 113.979 172.932 113.696C188.613 111.598 216.598 111.089 231.847 122.508L176.978 190.989C167.257 185.134 140.836 176.895 112.722 190.6L112.382 191.052C105.315 194.588 100.373 190.505 98.7858 188.021L100.239 186.072L100.235 186.057L98.7858 188.021L98.7855 188.021C68.9045 156.879 40.2071 150.416 29.5936 151.077L91.8429 67.0906Z" fill="url(#paint2_linear_3416_9632)"/>
<path d="M32.4684 154.827L29.5899 151.095L32.2322 147.564L36.1093 150.145L32.4684 154.827Z" fill="#FC8C3C"/>
<path d="M231.197 127.012L231.858 122.472L228.422 125.312L231.197 127.012Z" fill="white"/>
<g filter="url(#filter1_b_3416_9632)">
<path d="M93.4998 71.8858C129.624 78.352 149.154 104.657 154.536 117.196C154.712 117.455 155.636 118.234 157.928 119.273L102.638 192.821L101.742 188.723L100.318 190.652C70.9719 160.067 42.7879 153.72 32.3642 154.369L93.4998 71.8858Z" fill="url(#paint3_linear_3416_9632)" fill-opacity="0.7"/>
<path d="M155.099 117.806C163.716 123.168 167.118 120.484 169.208 118.965L113.937 194.004C106.993 197.486 102.141 193.471 100.583 191.028L155.099 117.806Z" fill="url(#paint4_linear_3416_9632)" fill-opacity="0.8"/>
<path d="M166.775 121.356L113.961 193.902C141.665 180.288 167.748 188.41 177.326 194.173L231.19 127.022C216.253 115.848 189.432 115.112 174.118 116.915C171.149 117.264 168.534 118.939 166.775 121.356Z" fill="url(#paint5_linear_3416_9632)" fill-opacity="0.7"/>
</g>
</g>
<defs>
<filter id="filter0_b_3416_9632" x="66.8268" y="45.3434" width="94.4987" height="120.717" filterUnits="userSpaceOnUse" color-interpolation-filters="sRGB">
<feFlood flood-opacity="0" result="BackgroundImageFix"/>
<feGaussianBlur in="BackgroundImageFix" stdDeviation="2.58267"/>
<feComposite in2="SourceAlpha" operator="in" result="effect1_backgroundBlur_3416_9632"/>
<feBlend mode="normal" in="SourceGraphic" in2="effect1_backgroundBlur_3416_9632" result="shape"/>
</filter>
<filter id="filter1_b_3416_9632" x="28.4893" y="68.0117" width="206.576" height="131.228" filterUnits="userSpaceOnUse" color-interpolation-filters="sRGB">
<feFlood flood-opacity="0" result="BackgroundImageFix"/>
<feGaussianBlur in="BackgroundImageFix" stdDeviation="1.93701"/>
<feComposite in2="SourceAlpha" operator="in" result="effect1_backgroundBlur_3416_9632"/>
<feBlend mode="normal" in="SourceGraphic" in2="effect1_backgroundBlur_3416_9632" result="shape"/>
</filter>
<linearGradient id="paint0_linear_3416_9632" x1="-1.14329e-05" y1="-55" x2="175" y2="456.5" gradientUnits="userSpaceOnUse">
<stop stop-color="#FF9950"/>
<stop offset="0.75987" stop-color="#FFF8F2"/>
</linearGradient>
<linearGradient id="paint1_linear_3416_9632" x1="221.257" y1="107.13" x2="181.664" y2="147.557" gradientUnits="userSpaceOnUse">
<stop stop-color="white"/>
<stop offset="1" stop-color="#C45C10"/>
</linearGradient>
<linearGradient id="paint2_linear_3416_9632" x1="148.585" y1="84.1542" x2="39.3714" y2="176.896" gradientUnits="userSpaceOnUse">
<stop stop-color="white"/>
<stop offset="1" stop-color="#FB7E23"/>
</linearGradient>
<linearGradient id="paint3_linear_3416_9632" x1="138.642" y1="205.799" x2="57.1085" y2="139.64" gradientUnits="userSpaceOnUse">
<stop stop-color="#FB7E23"/>
<stop offset="1" stop-color="#FFAC6F"/>
</linearGradient>
<linearGradient id="paint4_linear_3416_9632" x1="90.3581" y1="202.316" x2="177.331" y2="122.607" gradientUnits="userSpaceOnUse">
<stop stop-color="#E46000"/>
<stop offset="1" stop-color="#FB7E23"/>
</linearGradient>
<linearGradient id="paint5_linear_3416_9632" x1="244.781" y1="119.498" x2="118.305" y2="207.613" gradientUnits="userSpaceOnUse">
<stop stop-color="#C66721"/>
<stop offset="1" stop-color="#FF7C1E"/>
</linearGradient>
</defs>
</svg>
