<svg width="404" height="373" viewBox="0 0 264 264" fill="none" xmlns="http://www.w3.org/2000/svg">
<rect width="264" height="264" fill="url(#paint0_linear_3416_9634)"/>
<g opacity="0.7">
<rect x="43.9375" y="73" width="165.962" height="111.161" rx="1.9969" fill="url(#paint1_linear_3416_9634)" fill-opacity="0.2"/>
<rect x="43" y="177.141" width="172.675" height="11.5116" rx="2.05834" fill="url(#paint2_linear_3416_9634)"/>
<g filter="url(#filter0_b_3416_9634)">
<rect x="49.6523" y="78.9736" width="167.49" height="112.325" rx="1.9969" fill="url(#paint3_linear_3416_9634)" fill-opacity="0.27"/>
</g>
<path d="M49.291 194.007L43.5352 187.983L43.5352 178.144L49.291 182.368V194.007Z" fill="#FDA361"/>
<path d="M159.959 178.767L60.3438 79.1514H99.7905L199.406 178.767H159.959Z" fill="url(#paint4_linear_3416_9634)"/>
<path opacity="0.6" d="M216.088 178.767L116.473 79.1514H127.384L227 178.767H216.088Z" fill="url(#paint5_linear_3416_9634)"/>
<rect x="48.9375" y="182.348" width="172.407" height="12.5825" rx="2.05834" fill="url(#paint6_linear_3416_9634)"/>
<path d="M208.862 73.2597L215.615 78.9736H207.953V73.2597L208.343 73.1299L208.862 73.2597Z" fill="#FFB47D"/>
</g>
<defs>
<filter id="filter0_b_3416_9634" x="45.7389" y="75.0602" width="175.315" height="120.152" filterUnits="userSpaceOnUse" color-interpolation-filters="sRGB">
<feFlood flood-opacity="0" result="BackgroundImageFix"/>
<feGaussianBlur in="BackgroundImageFix" stdDeviation="1.95674"/>
<feComposite in2="SourceAlpha" operator="in" result="effect1_backgroundBlur_3416_9634"/>
<feBlend mode="normal" in="SourceGraphic" in2="effect1_backgroundBlur_3416_9634" result="shape"/>
</filter>
<linearGradient id="paint0_linear_3416_9634" x1="-1.82384e-05" y1="-55" x2="412.5" y2="450" gradientUnits="userSpaceOnUse">
<stop stop-color="#FFF8F2"/>
<stop offset="1" stop-color="#FF9950"/>
</linearGradient>
<linearGradient id="paint1_linear_3416_9634" x1="179.252" y1="123.646" x2="29.7738" y2="54.2538" gradientUnits="userSpaceOnUse">
<stop stop-color="#FF8025"/>
<stop offset="1" stop-color="#FF9B53"/>
</linearGradient>
<linearGradient id="paint2_linear_3416_9634" x1="20.92" y1="182.977" x2="223.771" y2="180.228" gradientUnits="userSpaceOnUse">
<stop stop-color="#FB7E23"/>
<stop offset="1" stop-color="#FFC8A0" stop-opacity="0.41"/>
</linearGradient>
<linearGradient id="paint3_linear_3416_9634" x1="247.348" y1="174.019" x2="59.9595" y2="106.751" gradientUnits="userSpaceOnUse">
<stop stop-color="#FFA360"/>
<stop offset="1" stop-color="#FF7612"/>
</linearGradient>
<linearGradient id="paint4_linear_3416_9634" x1="26.7225" y1="65.0662" x2="127.896" y2="178.767" gradientUnits="userSpaceOnUse">
<stop stop-color="white"/>
<stop offset="1" stop-color="white" stop-opacity="0"/>
</linearGradient>
<linearGradient id="paint5_linear_3416_9634" x1="82.8514" y1="65.0662" x2="184.025" y2="178.767" gradientUnits="userSpaceOnUse">
<stop stop-color="white"/>
<stop offset="1" stop-color="white" stop-opacity="0"/>
</linearGradient>
<linearGradient id="paint6_linear_3416_9634" x1="28.0559" y1="139.38" x2="303.532" y2="253.024" gradientUnits="userSpaceOnUse">
<stop stop-color="#FB7E23"/>
<stop offset="1" stop-color="#FFBF90" stop-opacity="0.94"/>
</linearGradient>
</defs>
</svg>
