<svg width="823" height="192" viewBox="0 0 823 192" fill="none" xmlns="http://www.w3.org/2000/svg">
<g filter="url(#filter0_d_1735_6871)">
<rect x="72" y="53" width="86" height="48" rx="24" fill="white"/>
<path d="M106.305 68.3516V69.875H98.1719V72.4766H105.719V73.9531H98.1719V76.7188C102.602 76.7305 105.086 76.6367 108.016 76.1328L108.203 77.6328C105.168 78.1602 102.613 78.2305 98.0078 78.2188H96.3203V68.3516H106.305ZM98.7578 87.6172V80.5391H112.305V87.6172H98.7578ZM100.562 86.1172H110.5V82.0156H100.562V86.1172ZM110.477 79.5078V67.0859H112.305V79.5078H110.477ZM133.023 67.7188V69.1719H129.812V73.2031H132.953V74.6328H117.695V73.2031H120.836V69.1719H117.625V67.7188H133.023ZM115.844 77.8672V76.3906H134.828V77.8672H115.844ZM118.141 81.125V79.7422H132.391V84.2656H120.016V86.2578H133.023V87.6641H118.188V82.9297H130.586V81.125H118.141ZM122.664 73.2031H127.984V69.1719H122.664V73.2031Z" fill="#FB7E23"/>
</g>
<g filter="url(#filter1_d_1735_6871)">
<rect x="174" y="53" width="107" height="48" rx="24" fill="white"/>
<path d="M207.613 70.1328C207.625 73.707 211.703 76.8828 215.324 77.5625L214.48 79.1094C211.328 78.3828 208.023 76.1445 206.676 73.0859C205.316 76.1445 202.023 78.3711 198.871 79.1094L198.027 77.5625C201.637 76.8711 205.68 73.7188 205.691 70.1328V68.5391H207.613V70.1328ZM197.23 85.0625V83.5391H216.309V85.0625H197.23ZM235.246 67.0625V87.9453H233.418V76.4609H229.012V74.9375H233.418V67.0625H235.246ZM218.934 82.9062V68.9844H228.66V70.5078H220.785V74.8438H227.746V76.3438H220.785V81.3828C224.605 81.3711 227.066 81.2656 229.926 80.75L230.137 82.2734C227.102 82.7656 224.559 82.9062 220.527 82.9062H218.934ZM255.895 67.0625V87.9453H254.043V67.0625H255.895ZM240.074 82.7656V69.0547H249.988V70.6016H241.926V81.1719C245.98 81.1719 248.641 81.0547 251.77 80.4922L251.957 82.0391C248.723 82.6133 245.98 82.7539 241.762 82.7656H240.074Z" fill="#FB7E23"/>
</g>
<g filter="url(#filter2_d_1735_6871)">
<rect x="297" y="53" width="127" height="48" rx="24" fill="white"/>
<path d="M337.062 67.0859V82.4844H335.234V67.0859H337.062ZM320.281 78.5C323.41 77.4805 325.602 74.8672 325.602 71.9375V71.375H320.797V69.8984H325.602V67.1797H327.453V69.8984H332.211V71.375H327.43V71.9375C327.418 74.6914 329.656 77.1523 332.773 78.1016L331.859 79.5781C329.41 78.7812 327.477 77.1289 326.539 74.9727C325.625 77.293 323.691 79.0977 321.219 79.9531L320.281 78.5ZM323.609 87.4531V81.0547H325.438V85.9062H337.719V87.4531H323.609ZM357.172 67.9531V74.9844H351.008V77.6562H359.586V79.1562H340.602V77.6562H349.18V74.9844H343.062V67.9531H357.172ZM342.711 82.8125V81.3359H357.242V87.8984H355.391V82.8125H342.711ZM344.867 73.5078H355.344V69.4297H344.867V73.5078ZM380.422 83.6797V85.2266H361.344V83.6797H369.922V78.5938H363.594V68.8203H378.055V78.5938H371.727V83.6797H380.422ZM365.398 77.1172H376.273V70.2969H365.398V77.1172ZM399.289 67.0859V78.9922H397.461V67.0859H399.289ZM382.578 73.0625C382.566 70.1562 384.875 68.1875 388.039 68.1875C391.203 68.1875 393.488 70.1562 393.5 73.0625C393.488 75.9219 391.203 77.9141 388.039 77.9141C384.875 77.9141 382.566 75.9219 382.578 73.0625ZM384.383 73.0625C384.359 74.9961 385.895 76.3555 388.039 76.3438C390.16 76.3555 391.695 74.9961 391.695 73.0625C391.695 71.1172 390.16 69.7461 388.039 69.7578C385.895 69.7461 384.359 71.1172 384.383 73.0625ZM385.742 87.6172V80.1172H399.289V87.6172H385.742ZM387.547 86.1172H397.484V81.6172H387.547V86.1172Z" fill="#FB7E23"/>
</g>
<g filter="url(#filter3_d_1735_6871)">
<rect x="440" y="53" width="107" height="48" rx="24" fill="white"/>
<path d="M482.238 77.375V78.8516H463.23V77.375H471.832V74.9375H465.645V68.0469H479.871V69.5234H467.449V73.4375H480.012V74.9375H473.613V77.375H482.238ZM465.527 84.125C465.516 81.7461 468.223 80.3867 472.723 80.375C477.188 80.3867 479.871 81.7461 479.895 84.125C479.871 86.5273 477.188 87.875 472.723 87.8984C468.223 87.875 465.516 86.5273 465.527 84.125ZM467.402 84.125C467.379 85.5898 469.383 86.4336 472.723 86.4219C476.027 86.4336 478.031 85.5898 478.043 84.125C478.031 82.6836 476.027 81.8281 472.723 81.8281C469.383 81.8281 467.379 82.6836 467.402 84.125ZM501.973 70.1562V71.6797H484.91V70.1562H492.551V67.4141H494.355V70.1562H501.973ZM483.973 85.4609V83.9375H492.551V81.0078C488.836 80.8086 486.598 79.3672 486.621 77.0234C486.598 74.5508 489.211 73.0859 493.465 73.1094C497.66 73.0859 500.32 74.5508 500.309 77.0234C500.32 79.3672 498.035 80.8086 494.355 81.0078V83.9375H503.051V85.4609H483.973ZM488.473 77.0234C488.449 78.6055 490.359 79.5195 493.465 79.5312C496.535 79.5195 498.445 78.6055 498.434 77.0234C498.445 75.4766 496.535 74.5625 493.465 74.5625C490.359 74.5625 488.449 75.4766 488.473 77.0234ZM521.801 67.0625V87.8984H519.973V67.0625H521.801ZM504.832 82.3438C506.613 82.332 508.652 82.3203 510.762 82.25V79.9766C508.254 79.7188 506.637 78.2891 506.66 76.2031C506.637 73.8477 508.641 72.3242 511.652 72.3359C514.664 72.3242 516.703 73.8477 516.691 76.2031C516.703 78.2656 515.086 79.6953 512.613 79.9766V82.1797C514.629 82.0859 516.668 81.9453 518.59 81.6875L518.73 83.0938C514.078 83.8438 508.98 83.9141 505.113 83.9141L504.832 82.3438ZM505.277 71.1406V69.6406H510.762V67.0859H512.613V69.6406H518.051V71.1406H505.277ZM508.371 76.2031C508.359 77.6445 509.719 78.5938 511.652 78.5703C513.598 78.5938 514.945 77.6445 514.934 76.2031C514.945 74.75 513.598 73.7656 511.652 73.7656C509.719 73.7656 508.359 74.75 508.371 76.2031Z" fill="#FB7E23"/>
</g>
<g filter="url(#filter4_d_1735_6871)">
<rect x="563" y="53" width="181" height="48" rx="24" fill="white"/>
<path d="M602.523 69.2891V71.375C602.523 74 602.523 76.9648 601.75 81.5L599.875 81.3125C600.719 77.0469 600.719 73.9297 600.719 71.375V70.8125H588.156V69.2891H602.523ZM586.094 84.8281V83.3047H605.078V84.8281H586.094ZM619.68 68.4219C622.949 68.4453 625.27 70.4141 625.281 73.3203C625.27 75.9453 623.371 77.8086 620.594 78.1367V81.6875C622.656 81.582 624.766 81.4062 626.734 81.1016L626.875 82.4609C622.105 83.3516 616.984 83.3633 613.234 83.375L612.977 81.8281C614.676 81.8281 616.656 81.8281 618.742 81.7578V78.1367C615.953 77.7969 614.043 75.9453 614.055 73.3203C614.043 70.4141 616.387 68.4453 619.68 68.4219ZM615.859 73.3203C615.848 75.2539 617.453 76.6133 619.68 76.6016C621.883 76.6133 623.488 75.2539 623.477 73.3203C623.488 71.3633 621.883 70.0391 619.68 70.0391C617.453 70.0391 615.848 71.3633 615.859 73.3203ZM628.117 87.9453V67.0625H629.945V87.9453H628.117ZM655.914 67.0625V73.2734H659.078V74.8203H655.914V82.1562H654.086V67.0625H655.914ZM640.609 78.4531V68.8672H649.891V70.4141H642.438V76.9062C646.621 76.918 649 76.7891 651.789 76.2266L652.023 77.75C649.094 78.3125 646.609 78.4531 642.227 78.4531H640.609ZM642.883 87.4531V80.6328H644.688V85.9062H656.875V87.4531H642.883ZM666.461 73.4844C666.473 76.8359 668.172 80.2695 671.008 81.7812L669.953 83.1641C667.879 82.0273 666.379 79.8711 665.617 77.3633C664.879 80.0352 663.391 82.3789 661.305 83.6328L660.203 82.2266C663.039 80.5859 664.715 76.9297 664.727 73.4844V72.4531H660.766V70.9297H664.727V67.8359H666.484V70.9297H670.375V72.4531H666.461V73.4844ZM668.945 76.8594V75.2891H672.227V67.5781H673.961V86.8203H672.227V76.8594H668.945ZM676.422 87.8984V67.0625H678.18V87.8984H676.422ZM700.188 83.6797V85.2266H681.109V83.6797H689.688V78.5938H683.359V68.8203H697.82V78.5938H691.492V83.6797H700.188ZM685.164 77.1172H696.039V70.2969H685.164V77.1172ZM719.055 67.0859V78.9922H717.227V67.0859H719.055ZM702.344 73.0625C702.332 70.1562 704.641 68.1875 707.805 68.1875C710.969 68.1875 713.254 70.1562 713.266 73.0625C713.254 75.9219 710.969 77.9141 707.805 77.9141C704.641 77.9141 702.332 75.9219 702.344 73.0625ZM704.148 73.0625C704.125 74.9961 705.66 76.3555 707.805 76.3438C709.926 76.3555 711.461 74.9961 711.461 73.0625C711.461 71.1172 709.926 69.7461 707.805 69.7578C705.66 69.7461 704.125 71.1172 704.148 73.0625ZM705.508 87.6172V80.1172H719.055V87.6172H705.508ZM707.312 86.1172H717.25V81.6172H707.312V86.1172Z" fill="#FB7E23"/>
</g>
<path d="M782.969 76.9766V78.5234H763.961V76.9766H782.969ZM766.258 84.1016C766.246 81.7109 768.953 80.3516 773.453 80.3516C777.918 80.3516 780.602 81.7109 780.625 84.1016C780.602 86.5156 777.918 87.8516 773.453 87.8516C768.953 87.8516 766.246 86.5156 766.258 84.1016ZM766.375 74.9844V67.9062H780.602V69.4531H768.18V73.4844H780.742V74.9844H766.375ZM768.133 84.1016C768.109 85.5664 770.113 86.3984 773.453 86.3984C776.758 86.3984 778.762 85.5664 778.773 84.1016C778.762 82.6484 776.758 81.8047 773.453 81.7812C770.113 81.8047 768.109 82.6484 768.133 84.1016ZM803.711 76.9766V78.5234H784.703V76.9766H803.711ZM787 84.1016C786.988 81.7109 789.695 80.3516 794.195 80.3516C798.66 80.3516 801.344 81.7109 801.367 84.1016C801.344 86.5156 798.66 87.8516 794.195 87.8516C789.695 87.8516 786.988 86.5156 787 84.1016ZM787.117 74.9844V67.9062H801.344V69.4531H788.922V73.4844H801.484V74.9844H787.117ZM788.875 84.1016C788.852 85.5664 790.855 86.3984 794.195 86.3984C797.5 86.3984 799.504 85.5664 799.516 84.1016C799.504 82.6484 797.5 81.8047 794.195 81.7812C790.855 81.8047 788.852 82.6484 788.875 84.1016ZM807.648 86.1406C806.828 86.1289 806.125 85.4492 806.148 84.6172C806.125 83.7969 806.828 83.1172 807.648 83.1172C808.48 83.1172 809.16 83.7969 809.148 84.6172C809.16 85.4492 808.48 86.1289 807.648 86.1406ZM813.742 86.1406C812.922 86.1289 812.219 85.4492 812.242 84.6172C812.219 83.7969 812.922 83.1172 813.742 83.1172C814.574 83.1172 815.254 83.7969 815.242 84.6172C815.254 85.4492 814.574 86.1289 813.742 86.1406ZM819.836 86.1406C819.016 86.1289 818.312 85.4492 818.336 84.6172C818.312 83.7969 819.016 83.1172 819.836 83.1172C820.668 83.1172 821.348 83.7969 821.336 84.6172C821.348 85.4492 820.668 86.1289 819.836 86.1406Z" fill="#B0B0B0"/>
<defs>
<filter id="filter0_d_1735_6871" x="0" y="0" width="230" height="192" filterUnits="userSpaceOnUse" color-interpolation-filters="sRGB">
<feFlood flood-opacity="0" result="BackgroundImageFix"/>
<feColorMatrix in="SourceAlpha" type="matrix" values="0 0 0 0 0 0 0 0 0 0 0 0 0 0 0 0 0 0 127 0" result="hardAlpha"/>
<feMorphology radius="8" operator="dilate" in="SourceAlpha" result="effect1_dropShadow_1735_6871"/>
<feOffset dy="19"/>
<feGaussianBlur stdDeviation="32"/>
<feComposite in2="hardAlpha" operator="out"/>
<feColorMatrix type="matrix" values="0 0 0 0 0 0 0 0 0 0 0 0 0 0 0 0 0 0 0.04 0"/>
<feBlend mode="normal" in2="BackgroundImageFix" result="effect1_dropShadow_1735_6871"/>
<feBlend mode="normal" in="SourceGraphic" in2="effect1_dropShadow_1735_6871" result="shape"/>
</filter>
<filter id="filter1_d_1735_6871" x="102" y="0" width="251" height="192" filterUnits="userSpaceOnUse" color-interpolation-filters="sRGB">
<feFlood flood-opacity="0" result="BackgroundImageFix"/>
<feColorMatrix in="SourceAlpha" type="matrix" values="0 0 0 0 0 0 0 0 0 0 0 0 0 0 0 0 0 0 127 0" result="hardAlpha"/>
<feMorphology radius="8" operator="dilate" in="SourceAlpha" result="effect1_dropShadow_1735_6871"/>
<feOffset dy="19"/>
<feGaussianBlur stdDeviation="32"/>
<feComposite in2="hardAlpha" operator="out"/>
<feColorMatrix type="matrix" values="0 0 0 0 0 0 0 0 0 0 0 0 0 0 0 0 0 0 0.04 0"/>
<feBlend mode="normal" in2="BackgroundImageFix" result="effect1_dropShadow_1735_6871"/>
<feBlend mode="normal" in="SourceGraphic" in2="effect1_dropShadow_1735_6871" result="shape"/>
</filter>
<filter id="filter2_d_1735_6871" x="225" y="0" width="271" height="192" filterUnits="userSpaceOnUse" color-interpolation-filters="sRGB">
<feFlood flood-opacity="0" result="BackgroundImageFix"/>
<feColorMatrix in="SourceAlpha" type="matrix" values="0 0 0 0 0 0 0 0 0 0 0 0 0 0 0 0 0 0 127 0" result="hardAlpha"/>
<feMorphology radius="8" operator="dilate" in="SourceAlpha" result="effect1_dropShadow_1735_6871"/>
<feOffset dy="19"/>
<feGaussianBlur stdDeviation="32"/>
<feComposite in2="hardAlpha" operator="out"/>
<feColorMatrix type="matrix" values="0 0 0 0 0 0 0 0 0 0 0 0 0 0 0 0 0 0 0.04 0"/>
<feBlend mode="normal" in2="BackgroundImageFix" result="effect1_dropShadow_1735_6871"/>
<feBlend mode="normal" in="SourceGraphic" in2="effect1_dropShadow_1735_6871" result="shape"/>
</filter>
<filter id="filter3_d_1735_6871" x="368" y="0" width="251" height="192" filterUnits="userSpaceOnUse" color-interpolation-filters="sRGB">
<feFlood flood-opacity="0" result="BackgroundImageFix"/>
<feColorMatrix in="SourceAlpha" type="matrix" values="0 0 0 0 0 0 0 0 0 0 0 0 0 0 0 0 0 0 127 0" result="hardAlpha"/>
<feMorphology radius="8" operator="dilate" in="SourceAlpha" result="effect1_dropShadow_1735_6871"/>
<feOffset dy="19"/>
<feGaussianBlur stdDeviation="32"/>
<feComposite in2="hardAlpha" operator="out"/>
<feColorMatrix type="matrix" values="0 0 0 0 0 0 0 0 0 0 0 0 0 0 0 0 0 0 0.04 0"/>
<feBlend mode="normal" in2="BackgroundImageFix" result="effect1_dropShadow_1735_6871"/>
<feBlend mode="normal" in="SourceGraphic" in2="effect1_dropShadow_1735_6871" result="shape"/>
</filter>
<filter id="filter4_d_1735_6871" x="491" y="0" width="325" height="192" filterUnits="userSpaceOnUse" color-interpolation-filters="sRGB">
<feFlood flood-opacity="0" result="BackgroundImageFix"/>
<feColorMatrix in="SourceAlpha" type="matrix" values="0 0 0 0 0 0 0 0 0 0 0 0 0 0 0 0 0 0 127 0" result="hardAlpha"/>
<feMorphology radius="8" operator="dilate" in="SourceAlpha" result="effect1_dropShadow_1735_6871"/>
<feOffset dy="19"/>
<feGaussianBlur stdDeviation="32"/>
<feComposite in2="hardAlpha" operator="out"/>
<feColorMatrix type="matrix" values="0 0 0 0 0 0 0 0 0 0 0 0 0 0 0 0 0 0 0.04 0"/>
<feBlend mode="normal" in2="BackgroundImageFix" result="effect1_dropShadow_1735_6871"/>
<feBlend mode="normal" in="SourceGraphic" in2="effect1_dropShadow_1735_6871" result="shape"/>
</filter>
</defs>
</svg>
