<svg width="18" height="22" viewBox="0 0 18 22" fill="none" xmlns="http://www.w3.org/2000/svg">
<path fill-rule="evenodd" clip-rule="evenodd" d="M9 22C9 22 18 16 18 9C18 6.61305 17.0518 4.32387 15.364 2.63604C13.6761 0.948211 11.3869 0 9 0C6.61305 0 4.32387 0.948211 2.63604 2.63604C0.948211 4.32387 0 6.61305 0 9C0 16 9 22 9 22ZM12.3333 8C12.3333 9.65685 10.9902 11 9.33333 11C7.67648 11 6.33333 9.65685 6.33333 8C6.33333 6.34315 7.67648 5 9.33333 5C10.9902 5 12.3333 6.34315 12.3333 8Z" fill="#DEDEDE"/>
</svg>
