<svg width="40" height="40" viewBox="0 0 40 40" fill="none" xmlns="http://www.w3.org/2000/svg">
<path d="M28.5716 35.7146V31.4289C28.5716 29.1556 27.8566 26.9754 26.5841 25.3679C25.3115 23.7605 23.5855 22.8574 21.7859 22.8574H8.21443C6.41474 22.8574 4.68877 23.7605 3.4162 25.3679C2.14363 26.9754 1.42871 29.1556 1.42871 31.4289V35.7146" fill="#DEDEDE"/>
<path d="M14.9997 18.3333C18.6816 18.3333 21.6663 15.3486 21.6663 11.6667C21.6663 7.98477 18.6816 5 14.9997 5C11.3178 5 8.33301 7.98477 8.33301 11.6667C8.33301 15.3486 11.3178 18.3333 14.9997 18.3333Z" fill="#DEDEDE"/>
<path d="M37.143 35.7137V31.8198C37.1417 30.0943 36.5799 28.4181 35.5456 27.0543C34.5113 25.6906 33.0632 24.7165 31.4287 24.2852" stroke="#DEDEDE" stroke-width="2" stroke-linecap="round" stroke-linejoin="round"/>
<path d="M25.7139 5.71484C26.9398 6.03971 28.0264 6.77763 28.8024 7.81226C29.5784 8.84689 29.9996 10.1194 29.9996 11.4291C29.9996 12.7389 29.5784 14.0114 28.8024 15.046C28.0264 16.0806 26.9398 16.8185 25.7139 17.1434" stroke="#DEDEDE" stroke-width="2" stroke-linecap="round" stroke-linejoin="round"/>
</svg>
