<svg width="40" height="40" viewBox="0 0 40 40" fill="none" xmlns="http://www.w3.org/2000/svg">
<path d="M28.5716 35.7126V31.4269C28.5716 29.1536 27.8566 26.9734 26.5841 25.366C25.3115 23.7585 23.5855 22.8555 21.7859 22.8555H8.21443C6.41474 22.8555 4.68877 23.7585 3.4162 25.366C2.14363 26.9734 1.42871 29.1536 1.42871 31.4269V35.7126" fill="#FB7E23"/>
<path d="M15.0002 18.3333C18.6821 18.3333 21.6668 15.3486 21.6668 11.6667C21.6668 7.98477 18.6821 5 15.0002 5C11.3183 5 8.3335 7.98477 8.3335 11.6667C8.3335 15.3486 11.3183 18.3333 15.0002 18.3333Z" fill="#FB7E23"/>
<path d="M37.143 35.7137V31.8198C37.1417 30.0943 36.5799 28.4181 35.5456 27.0543C34.5113 25.6906 33.0632 24.7165 31.4287 24.2852" stroke="#FB7E23" stroke-width="2" stroke-linecap="round" stroke-linejoin="round"/>
<path d="M25.7144 5.71484C26.9403 6.03971 28.0269 6.77763 28.8029 7.81226C29.5789 8.84689 30.0001 10.1194 30.0001 11.4291C30.0001 12.7389 29.5789 14.0114 28.8029 15.046C28.0269 16.0806 26.9403 16.8185 25.7144 17.1434" stroke="#FB7E23" stroke-width="2" stroke-linecap="round" stroke-linejoin="round"/>
</svg>
