<svg width="500" height="399" viewBox="0 0 500 399" fill="none" xmlns="http://www.w3.org/2000/svg">
<path fill-rule="evenodd" clip-rule="evenodd" d="M291.751 280.624C287.346 273.832 277.876 271.245 270.934 275.408C252.394 286.529 230.694 292.923 207.5 292.923C179.443 292.923 153.572 283.567 132.835 267.805C125.053 261.89 111.901 265.262 106.245 273.235C95.646 288.174 78.2115 297.923 58.5 297.923C26.1913 297.923 0 271.732 0 239.423C0 207.114 26.1913 180.923 58.5 180.923C61.8199 180.923 65.0751 181.199 68.244 181.731C75.6888 182.979 84 176.971 84 169.423C84 101.216 139.293 45.9229 207.5 45.9229C267.931 45.9229 318.224 89.3266 328.907 146.66C330.39 154.621 338.606 160.006 346.614 158.805C350.492 158.224 354.461 157.923 358.5 157.923C402.407 157.923 438 193.516 438 237.423C438 281.329 402.407 316.923 358.5 316.923C330.522 316.923 305.919 302.47 291.751 280.624Z" fill="#FFEFE4"/>
<g filter="url(#filter0_b_876_3737)">
<path fill-rule="evenodd" clip-rule="evenodd" d="M227.962 233.099C226.619 232.731 226.26 230.931 227.217 229.92C229.36 227.656 230.993 224.846 231.874 221.628C234.732 211.187 228.585 200.405 218.143 197.546C207.701 194.688 196.919 200.836 194.061 211.278C193.18 214.495 193.154 217.745 193.846 220.785C194.155 222.142 192.928 223.509 191.586 223.141L162.705 215.236C161.372 214.871 159.995 215.656 159.63 216.989L134.083 310.315C133.718 311.648 134.503 313.025 135.836 313.39L164.801 321.318C164.802 321.319 164.802 321.318 164.802 321.318C164.803 321.317 164.803 321.317 164.803 321.317L165.377 321.474C165.835 321.6 166.253 321.164 166.129 320.705C165.217 317.316 165.167 313.646 166.161 310.017C169.141 299.13 180.382 292.721 191.268 295.701C202.154 298.681 208.563 309.922 205.583 320.808C204.59 324.436 202.68 327.566 200.171 330.017C199.83 330.351 199.968 330.943 200.429 331.069L201.006 331.227C201.007 331.228 201.007 331.228 201.007 331.228C201.007 331.229 201.007 331.229 201.007 331.229L229.163 338.937C230.496 339.302 231.872 338.517 232.237 337.184L239.596 310.299C239.953 308.996 241.665 308.611 242.685 309.499C244.837 311.372 247.434 312.802 250.37 313.606C260.812 316.464 271.594 310.316 274.452 299.875C277.311 289.433 271.163 278.651 260.721 275.792C257.785 274.989 254.822 274.897 252.015 275.413C250.686 275.657 249.409 274.454 249.765 273.151L257.784 243.857C258.149 242.524 257.364 241.148 256.031 240.783L227.962 233.099ZM180.476 335.124C180.366 335.093 180.257 335.063 180.148 335.031L180.806 335.211C180.696 335.183 180.586 335.154 180.476 335.124Z" fill="url(#paint0_linear_876_3737)" fill-opacity="0.5"/>
</g>
<g filter="url(#filter1_b_876_3737)">
<path fill-rule="evenodd" clip-rule="evenodd" d="M370.206 209.213C371.298 208.349 372.961 209.126 373.208 210.496C373.762 213.563 375.057 216.542 377.125 219.157C383.842 227.647 396.17 229.085 404.66 222.369C413.151 215.652 414.589 203.324 407.873 194.834C405.804 192.219 403.203 190.273 400.346 189.028C399.071 188.472 398.697 186.675 399.788 185.811L418.175 171.267C422.073 168.183 422.733 162.523 419.65 158.624L403.831 138.627C402.846 137.383 404.04 135.395 405.627 135.384C409.838 135.353 414.072 133.97 417.631 131.155C426.122 124.438 427.56 112.11 420.843 103.62C414.127 95.1292 401.799 93.691 393.308 100.408C389.749 103.223 387.429 107.025 386.43 111.116C386.053 112.658 383.844 113.362 382.86 112.117L367.681 92.9293C364.597 89.031 358.937 88.3707 355.039 91.4545L335.241 107.115C335.241 107.115 335.241 107.115 335.241 107.115L308.487 128.279C308.487 128.279 308.487 128.279 308.487 128.28L289.344 143.423C285.446 146.507 284.785 152.167 287.869 156.065L301.129 172.827C301.967 173.887 301.262 175.494 299.943 175.789C297.16 176.413 294.469 177.657 292.082 179.545C283.591 186.262 282.153 198.59 288.87 207.08C295.586 215.571 307.914 217.009 316.405 210.293C318.792 208.404 320.622 206.072 321.869 203.506C322.46 202.291 324.186 201.975 325.025 203.035L339.838 221.76C342.921 225.659 348.582 226.319 352.48 223.235L370.206 209.213ZM308.487 128.28L335.241 107.115C338.92 108.322 342.297 110.587 344.879 113.85C351.881 122.702 350.382 135.555 341.53 142.557C332.678 149.559 319.825 148.06 312.823 139.208C310.241 135.945 308.815 132.137 308.487 128.28Z" fill="url(#paint1_linear_876_3737)" fill-opacity="0.6"/>
</g>
<g filter="url(#filter2_b_876_3737)">
<path fill-rule="evenodd" clip-rule="evenodd" d="M237.645 107.281C236.303 106.913 235.943 105.112 236.9 104.102C239.044 101.837 240.677 99.0276 241.558 95.8101C244.416 85.3682 238.268 74.5863 227.827 71.7279C217.385 68.8696 206.603 75.0173 203.744 85.4592C202.864 88.6767 202.838 91.9265 203.53 94.9668C203.838 96.324 202.612 97.6906 201.269 97.3231L178.655 91.1328C173.861 89.8204 168.911 92.643 167.598 97.4372L145.482 178.23C144.17 183.024 146.992 187.974 151.787 189.287L174.485 195.5C174.485 195.5 174.486 195.5 174.486 195.5C174.486 195.499 174.487 195.499 174.487 195.499L175.061 195.656C175.519 195.781 175.936 195.345 175.813 194.887C174.901 191.497 174.851 187.828 175.844 184.198C178.824 173.312 190.065 166.903 200.951 169.883C211.838 172.863 218.247 184.103 215.267 194.99C214.274 198.617 212.364 201.748 209.855 204.199C209.513 204.533 209.651 205.125 210.112 205.251L210.69 205.409C210.69 205.409 210.69 205.41 210.69 205.41C210.69 205.41 210.69 205.411 210.691 205.411L232.579 211.403C237.373 212.715 242.324 209.892 243.636 205.098L249.28 184.481C249.637 183.177 251.349 182.793 252.368 183.68C254.521 185.553 257.117 186.984 260.054 187.787C270.496 190.646 281.278 184.498 284.136 174.056C286.994 163.614 280.847 152.832 270.405 149.974C267.468 149.17 264.505 149.079 261.699 149.594C260.37 149.839 259.092 148.636 259.449 147.332L265.752 124.306C267.065 119.511 264.242 114.561 259.448 113.249L237.645 107.281ZM190.16 209.305C190.05 209.275 189.94 209.244 189.831 209.212L190.49 209.393C190.38 209.364 190.27 209.335 190.16 209.305Z" fill="url(#paint2_linear_876_3737)" fill-opacity="0.6"/>
</g>
<g filter="url(#filter3_b_876_3737)">
<mask id="path-5-inside-1_876_3737" fill="white">
<path fill-rule="evenodd" clip-rule="evenodd" d="M374.505 206.188C375.596 205.325 377.26 206.102 377.507 207.472C378.061 210.538 379.356 213.517 381.424 216.132C388.141 224.623 400.469 226.061 408.959 219.344C417.45 212.628 418.888 200.3 412.171 191.809C410.103 189.194 407.502 187.248 404.645 186.004C403.37 185.448 402.996 183.65 404.088 182.787L422.472 168.244C426.37 165.16 427.03 159.5 423.947 155.602L408.127 135.603C407.142 134.359 408.336 132.371 409.923 132.359C414.135 132.329 418.37 130.947 421.93 128.13C430.421 121.414 431.859 109.086 425.142 100.595C418.426 92.1047 406.098 90.6666 397.607 97.3832C394.047 100.199 391.727 104.002 390.728 108.095C390.351 109.636 388.142 110.341 387.157 109.096L371.978 89.9069C368.894 86.0086 363.234 85.3483 359.336 88.4321L340.882 103.03C340.882 103.03 340.882 103.03 340.882 103.03C340.882 103.03 340.882 103.031 340.882 103.031L340.412 103.402C340.038 103.698 340.142 104.296 340.587 104.469C343.857 105.743 346.841 107.877 349.175 110.828C356.178 119.68 354.678 132.532 345.827 139.535C336.975 146.537 324.122 145.038 317.12 136.186C314.785 133.234 313.395 129.838 312.908 126.363C312.842 125.891 312.285 125.652 311.912 125.947L311.443 126.318C311.443 126.318 311.443 126.318 311.443 126.318C311.443 126.318 311.443 126.318 311.443 126.318L293.641 140.401C289.742 143.484 289.082 149.145 292.166 153.043L305.424 169.803C306.262 170.863 305.558 172.469 304.239 172.765C301.456 173.389 298.767 174.632 296.381 176.52C287.89 183.236 286.452 195.564 293.168 204.055C299.885 212.546 312.213 213.984 320.703 207.267C323.09 205.379 324.919 203.048 326.167 200.484C326.758 199.269 328.483 198.953 329.322 200.013L344.134 218.738C347.218 222.636 352.878 223.296 356.777 220.213L374.505 206.188ZM320.469 107.479L320.511 107.446L320.427 107.512L320.469 107.479Z"/>
</mask>
<path fill-rule="evenodd" clip-rule="evenodd" d="M374.505 206.188C375.596 205.325 377.26 206.102 377.507 207.472C378.061 210.538 379.356 213.517 381.424 216.132C388.141 224.623 400.469 226.061 408.959 219.344C417.45 212.628 418.888 200.3 412.171 191.809C410.103 189.194 407.502 187.248 404.645 186.004C403.37 185.448 402.996 183.65 404.088 182.787L422.472 168.244C426.37 165.16 427.03 159.5 423.947 155.602L408.127 135.603C407.142 134.359 408.336 132.371 409.923 132.359C414.135 132.329 418.37 130.947 421.93 128.13C430.421 121.414 431.859 109.086 425.142 100.595C418.426 92.1047 406.098 90.6666 397.607 97.3832C394.047 100.199 391.727 104.002 390.728 108.095C390.351 109.636 388.142 110.341 387.157 109.096L371.978 89.9069C368.894 86.0086 363.234 85.3483 359.336 88.4321L340.882 103.03C340.882 103.03 340.882 103.03 340.882 103.03C340.882 103.03 340.882 103.031 340.882 103.031L340.412 103.402C340.038 103.698 340.142 104.296 340.587 104.469C343.857 105.743 346.841 107.877 349.175 110.828C356.178 119.68 354.678 132.532 345.827 139.535C336.975 146.537 324.122 145.038 317.12 136.186C314.785 133.234 313.395 129.838 312.908 126.363C312.842 125.891 312.285 125.652 311.912 125.947L311.443 126.318C311.443 126.318 311.443 126.318 311.443 126.318C311.443 126.318 311.443 126.318 311.443 126.318L293.641 140.401C289.742 143.484 289.082 149.145 292.166 153.043L305.424 169.803C306.262 170.863 305.558 172.469 304.239 172.765C301.456 173.389 298.767 174.632 296.381 176.52C287.89 183.236 286.452 195.564 293.168 204.055C299.885 212.546 312.213 213.984 320.703 207.267C323.09 205.379 324.919 203.048 326.167 200.484C326.758 199.269 328.483 198.953 329.322 200.013L344.134 218.738C347.218 222.636 352.878 223.296 356.777 220.213L374.505 206.188ZM320.469 107.479L320.511 107.446L320.427 107.512L320.469 107.479Z" fill="url(#paint3_linear_876_3737)" fill-opacity="0.91"/>
<path d="M320.511 107.446L321.131 108.23L319.891 106.661L320.511 107.446ZM320.469 107.479L319.849 106.694L319.847 106.695L320.469 107.479ZM320.427 107.512L319.805 106.729L321.047 108.297L320.427 107.512ZM326.167 200.484L327.066 200.921L326.167 200.484ZM312.908 126.363L311.918 126.501L312.908 126.363ZM340.587 104.469L340.95 103.537L340.587 104.469ZM304.239 172.765L304.458 173.74L304.239 172.765ZM404.645 186.004L405.045 185.087L404.645 186.004ZM390.728 108.095L391.699 108.332L390.728 108.095ZM377.507 207.472L376.523 207.649L377.507 207.472ZM382.209 215.512C380.244 213.029 379.016 210.203 378.491 207.294L376.523 207.649C377.105 210.874 378.467 214.006 380.64 216.753L382.209 215.512ZM408.339 218.56C400.281 224.934 388.582 223.569 382.209 215.512L380.64 216.753C387.699 225.676 400.656 227.188 409.58 220.129L408.339 218.56ZM411.387 192.43C417.761 200.487 416.396 212.186 408.339 218.56L409.58 220.129C418.503 213.069 420.015 200.113 412.956 191.189L411.387 192.43ZM404.246 186.92C406.956 188.101 409.423 189.947 411.387 192.43L412.956 191.189C410.783 188.442 408.049 186.396 405.045 185.087L404.246 186.92ZM421.851 167.46L403.467 182.003L404.708 183.571L423.092 169.028L421.851 167.46ZM423.162 156.222C425.903 159.687 425.316 164.719 421.851 167.46L423.092 169.028C427.424 165.602 428.157 159.313 424.731 154.981L423.162 156.222ZM407.342 136.224L423.162 156.222L424.731 154.981L408.911 134.983L407.342 136.224ZM409.93 133.359C414.357 133.328 418.81 131.874 422.55 128.915L421.31 127.346C417.93 130.019 413.913 131.331 409.916 131.359L409.93 133.359ZM422.55 128.915C431.474 121.855 432.986 108.899 425.926 99.975L424.358 101.216C430.732 109.273 429.367 120.972 421.31 127.346L422.55 128.915ZM425.926 99.975C418.867 91.0512 405.91 89.5397 396.987 96.5989L398.228 98.1674C406.285 91.7935 417.984 93.1583 424.358 101.216L425.926 99.975ZM396.987 96.5989C393.246 99.5581 390.806 103.556 389.756 107.857L391.699 108.332C392.647 104.448 394.848 100.841 398.228 98.1674L396.987 96.5989ZM371.194 90.5273L386.373 109.716L387.942 108.475L372.762 89.2865L371.194 90.5273ZM359.956 89.2163C363.421 86.4752 368.452 87.0621 371.194 90.5273L372.762 89.2865C369.336 84.955 363.047 84.2213 358.715 87.6478L359.956 89.2163ZM341.502 103.815L359.956 89.2163L358.715 87.6478L340.261 102.246L341.502 103.815ZM341.033 104.186L341.502 103.815L340.261 102.246L339.792 102.618L341.033 104.186ZM349.96 110.208C347.512 107.114 344.381 104.874 340.95 103.537L340.224 105.401C343.332 106.612 346.17 108.641 348.391 111.448L349.96 110.208ZM346.447 140.319C355.732 132.974 357.305 119.493 349.96 110.208L348.391 111.448C355.051 119.867 353.625 132.091 345.206 138.75L346.447 140.319ZM316.335 136.806C323.681 146.091 337.162 147.664 346.447 140.319L345.206 138.75C336.787 145.41 324.564 143.984 317.904 135.565L316.335 136.806ZM311.918 126.501C312.429 130.148 313.888 133.712 316.335 136.806L317.904 135.565C315.683 132.757 314.362 129.528 313.899 126.224L311.918 126.501ZM312.063 127.103L312.532 126.732L311.291 125.163L310.823 125.534L312.063 127.103ZM294.261 141.185L312.063 127.103L310.822 125.534L293.02 139.616L294.261 141.185ZM292.95 152.422C290.209 148.957 290.796 143.926 294.261 141.185L293.02 139.616C288.689 143.043 287.955 149.332 291.382 153.663L292.95 152.422ZM306.208 169.182L292.95 152.422L291.382 153.663L304.64 170.423L306.208 169.182ZM297.001 177.304C299.267 175.512 301.819 174.332 304.458 173.74L304.02 171.789C301.094 172.445 298.267 173.753 295.76 175.736L297.001 177.304ZM293.953 203.435C287.579 195.377 288.944 183.678 297.001 177.304L295.76 175.736C286.836 182.795 285.325 195.752 292.384 204.675L293.953 203.435ZM320.083 206.483C312.026 212.857 300.327 211.492 293.953 203.435L292.384 204.675C299.443 213.599 312.4 215.111 321.324 208.051L320.083 206.483ZM325.267 200.046C324.084 202.479 322.349 204.69 320.083 206.483L321.324 208.051C323.83 206.069 325.754 203.618 327.066 200.921L325.267 200.046ZM344.919 218.117L330.106 199.392L328.537 200.633L343.35 219.358L344.919 218.117ZM356.156 219.428C352.691 222.17 347.66 221.583 344.919 218.117L343.35 219.358C346.777 223.69 353.066 224.423 357.397 220.997L356.156 219.428ZM373.885 205.404L356.156 219.428L357.397 220.997L375.125 206.973L373.885 205.404ZM319.891 106.661L319.849 106.694L321.088 108.264L321.13 108.231L319.891 106.661ZM321.047 108.297L321.131 108.23L319.89 106.662L319.806 106.728L321.047 108.297ZM319.847 106.695L319.805 106.729L321.048 108.296L321.09 108.263L319.847 106.695ZM327.066 200.921C327.206 200.633 327.492 200.434 327.811 200.383C328.12 200.333 328.377 200.43 328.537 200.633L330.106 199.392C329.428 198.536 328.403 198.261 327.492 198.408C326.59 198.554 325.718 199.12 325.267 200.046L327.066 200.921ZM310.823 125.534C311.256 125.191 311.885 125.265 312.227 125.698L310.659 126.939C311.001 127.372 311.63 127.445 312.063 127.103L310.823 125.534ZM313.899 126.224C313.732 125.033 312.307 124.36 311.291 125.163L312.532 126.732C312.404 126.833 312.244 126.834 312.137 126.789C312.034 126.746 311.938 126.643 311.918 126.501L313.899 126.224ZM339.792 102.618C338.775 103.422 339.103 104.964 340.224 105.401L340.95 103.537C341.083 103.589 341.16 103.706 341.179 103.816C341.198 103.93 341.16 104.085 341.033 104.186L339.792 102.618ZM408.911 134.983C408.738 134.765 408.698 134.418 408.928 134.015C409.162 133.606 409.561 133.362 409.93 133.359L409.916 131.359C408.698 131.368 407.706 132.123 407.192 133.023C406.675 133.928 406.53 135.197 407.342 136.224L408.911 134.983ZM304.64 170.423C304.8 170.626 304.836 170.898 304.716 171.188C304.593 171.486 304.334 171.719 304.02 171.789L304.458 173.74C305.463 173.515 306.215 172.797 306.564 171.953C306.917 171.1 306.886 170.039 306.208 169.182L304.64 170.423ZM340.261 102.246C339.828 102.589 339.755 103.218 340.097 103.651L341.666 102.41C342.009 102.843 341.935 103.472 341.502 103.815L340.261 102.246ZM340.097 103.651C339.755 103.218 339.828 102.589 340.261 102.246L341.502 103.815C341.935 103.472 342.009 102.843 341.666 102.41L340.097 103.651ZM405.045 185.087C404.742 184.955 404.524 184.663 404.462 184.328C404.401 184.002 404.501 183.735 404.708 183.571L403.467 182.003C402.583 182.702 402.323 183.765 402.496 184.693C402.666 185.612 403.273 186.496 404.246 186.92L405.045 185.087ZM312.227 125.698C311.88 125.26 311.25 125.195 310.822 125.534L312.063 127.103C311.635 127.441 311.005 127.377 310.659 126.939L312.227 125.698ZM389.756 107.857C389.669 108.216 389.339 108.548 388.888 108.681C388.443 108.812 388.114 108.694 387.942 108.475L386.373 109.716C387.185 110.743 388.454 110.894 389.454 110.599C390.447 110.306 391.411 109.515 391.699 108.332L389.756 107.857ZM378.491 207.294C378.302 206.25 377.581 205.456 376.727 205.078C375.863 204.697 374.769 204.705 373.885 205.404L375.125 206.973C375.333 206.809 375.615 206.774 375.918 206.908C376.23 207.045 376.464 207.325 376.523 207.649L378.491 207.294Z" fill="url(#paint4_linear_876_3737)" mask="url(#path-5-inside-1_876_3737)"/>
</g>
<g filter="url(#filter4_b_876_3737)">
<path fill-rule="evenodd" clip-rule="evenodd" d="M305.471 338.646C310.265 339.958 315.216 337.136 316.528 332.342L322.342 311.103C322.714 309.742 324.558 309.395 325.564 310.384C327.872 312.654 330.777 314.383 334.122 315.299C344.564 318.157 355.346 312.01 358.204 301.568C361.062 291.126 354.915 280.344 344.473 277.486C341.128 276.57 337.748 276.579 334.605 277.356C333.235 277.695 331.826 276.458 332.198 275.097L338.644 251.549C339.956 246.755 337.134 241.805 332.34 240.492L309.574 234.26C309.366 234.203 309.151 234.326 309.095 234.534C309.038 234.742 308.823 234.864 308.615 234.807L308.413 234.752C307.952 234.626 307.532 235.065 307.656 235.526C308.567 238.914 308.617 242.582 307.624 246.211C304.644 257.097 293.403 263.506 282.517 260.526C271.63 257.546 265.221 246.305 268.201 235.419C269.195 231.789 271.107 228.656 273.619 226.204C273.959 225.872 273.822 225.283 273.363 225.157L273.164 225.103C272.956 225.046 272.833 224.831 272.89 224.623C272.947 224.415 272.825 224.201 272.617 224.144L251.547 218.376C246.753 217.064 241.802 219.886 240.49 224.681L234.222 247.579C233.824 249.033 231.743 249.312 230.767 248.163C228.301 245.259 224.964 243.042 221.012 241.96C210.57 239.102 199.788 245.25 196.93 255.691C194.071 266.133 200.219 276.915 210.661 279.774C214.613 280.855 218.614 280.647 222.215 279.404C223.64 278.913 225.289 280.212 224.891 281.666L218.374 305.473C217.062 310.267 219.884 315.218 224.678 316.53L305.471 338.646ZM293.308 221.104L293.401 221.129L293.215 221.078L293.308 221.104Z" fill="#FFA05B" fill-opacity="0.6"/>
</g>
<g filter="url(#filter5_b_876_3737)">
<path fill-rule="evenodd" clip-rule="evenodd" d="M209.023 206.682C207.609 206.295 207.298 204.317 208.37 203.317C210.835 201.022 212.713 198.035 213.668 194.548C216.404 184.55 210.518 174.227 200.521 171.49C190.523 168.754 180.2 174.64 177.463 184.637C176.509 188.125 176.603 191.651 177.556 194.882C177.97 196.288 176.695 197.833 175.281 197.446L151.351 190.895C146.556 189.583 141.606 192.405 140.294 197.2L118.178 277.992C116.865 282.786 119.688 287.737 124.482 289.049L205.275 311.165C210.069 312.477 215.019 309.655 216.332 304.861L222.88 280.94C222.882 280.939 222.883 280.937 222.884 280.935L232.121 247.192C232.121 247.19 232.121 247.187 232.119 247.186L238.448 224.068C239.76 219.274 236.937 214.323 232.143 213.011L209.023 206.682ZM232.119 247.186L222.88 280.94C218.939 282.327 214.55 282.571 210.216 281.384C198.885 278.283 192.214 266.583 195.316 255.253C198.417 243.922 210.117 237.251 221.448 240.353C225.782 241.539 229.435 243.984 232.119 247.186Z" fill="#FFA05B" fill-opacity="0.6"/>
</g>
<path opacity="0.7" d="M204.472 171.274L178.832 91.1777L196.532 96.0229L234.831 212.016L210.293 205.299C209.488 205.078 209.819 203.872 210.733 203.69C211.648 203.507 215.641 196.817 216.268 191.367C216.77 187.008 215.337 183.185 214.558 181.819C214.205 181.001 212.988 178.708 210.942 176.072C208.896 173.437 205.776 171.775 204.472 171.274Z" fill="url(#paint5_linear_876_3737)"/>
<path opacity="0.7" d="M170.467 194.397L158.631 139.7L157.648 133.81L143.113 186.909L170.467 194.397Z" fill="url(#paint6_linear_876_3737)"/>
<path opacity="0.7" d="M194.083 305.575L171.046 197.22C170.916 196.609 170.457 196.122 169.855 195.957L144.285 188.958C143.396 188.715 142.479 189.238 142.235 190.127L116.248 285.062C116.005 285.951 116.528 286.869 117.416 287.112L192.01 307.531C193.216 307.861 194.343 306.798 194.083 305.575Z" fill="url(#paint7_linear_876_3737)"/>
<path d="M321.431 312.691L301.438 256.193C310.958 246.692 307.931 237.215 307.859 235.898C307.801 234.844 308.592 234.801 308.994 234.911L338.36 242.95C339.969 243.39 339.857 245.378 339.6 246.316L332.773 271.257C332.235 272.695 331.276 275.777 331.744 276.597C332.211 277.416 334.425 277.331 335.474 277.185C347.216 276.94 348.715 277.783 355.219 285.617C360.422 291.884 359.01 300.204 357.653 303.58C356.052 307.322 350.721 315.001 342.205 315.783C331.56 316.761 325.238 309.841 324.433 309.621C323.629 309.401 323.629 309.401 322.714 309.583C321.982 309.728 321.554 311.715 321.431 312.691Z" fill="url(#paint8_linear_876_3737)"/>
<path d="M383.505 196.5L353.062 127.628C353.613 125.617 354.202 121.887 352.013 115.666C349.824 109.445 345.034 106.405 342.328 105.232C340.164 104.293 340.379 103.401 340.758 103.072L361.66 86.7405L410.737 177.577L403.636 182.984C402.961 184.183 403.719 185.313 404.182 185.728C412.993 189.87 419.311 201.544 414.839 211.563C411.261 219.578 387.09 196.04 383.505 196.5Z" fill="url(#paint9_linear_876_3737)"/>
<defs>
<filter id="filter0_b_876_3737" x="121.992" y="184.846" width="165.16" height="166.181" filterUnits="userSpaceOnUse" color-interpolation-filters="sRGB">
<feFlood flood-opacity="0" result="BackgroundImageFix"/>
<feGaussianBlur in="BackgroundImageFix" stdDeviation="6"/>
<feComposite in2="SourceAlpha" operator="in" result="effect1_backgroundBlur_876_3737"/>
<feBlend mode="normal" in="SourceGraphic" in2="effect1_backgroundBlur_876_3737" result="shape"/>
</filter>
<filter id="filter1_b_876_3737" x="276.641" y="81.5127" width="156.432" height="153.085" filterUnits="userSpaceOnUse" color-interpolation-filters="sRGB">
<feFlood flood-opacity="0" result="BackgroundImageFix"/>
<feGaussianBlur in="BackgroundImageFix" stdDeviation="4"/>
<feComposite in2="SourceAlpha" operator="in" result="effect1_backgroundBlur_876_3737"/>
<feBlend mode="normal" in="SourceGraphic" in2="effect1_backgroundBlur_876_3737" result="shape"/>
</filter>
<filter id="filter2_b_876_3737" x="138.16" y="64.0273" width="153.676" height="154.697" filterUnits="userSpaceOnUse" color-interpolation-filters="sRGB">
<feFlood flood-opacity="0" result="BackgroundImageFix"/>
<feGaussianBlur in="BackgroundImageFix" stdDeviation="3.5"/>
<feComposite in2="SourceAlpha" operator="in" result="effect1_backgroundBlur_876_3737"/>
<feBlend mode="normal" in="SourceGraphic" in2="effect1_backgroundBlur_876_3737" result="shape"/>
</filter>
<filter id="filter3_b_876_3737" x="284.939" y="82.4902" width="148.432" height="145.083" filterUnits="userSpaceOnUse" color-interpolation-filters="sRGB">
<feFlood flood-opacity="0" result="BackgroundImageFix"/>
<feGaussianBlur in="BackgroundImageFix" stdDeviation="2"/>
<feComposite in2="SourceAlpha" operator="in" result="effect1_backgroundBlur_876_3737"/>
<feBlend mode="normal" in="SourceGraphic" in2="effect1_backgroundBlur_876_3737" result="shape"/>
</filter>
<filter id="filter4_b_876_3737" x="189.23" y="211.055" width="176.674" height="134.913" filterUnits="userSpaceOnUse" color-interpolation-filters="sRGB">
<feFlood flood-opacity="0" result="BackgroundImageFix"/>
<feGaussianBlur in="BackgroundImageFix" stdDeviation="3.5"/>
<feComposite in2="SourceAlpha" operator="in" result="effect1_backgroundBlur_876_3737"/>
<feBlend mode="normal" in="SourceGraphic" in2="effect1_backgroundBlur_876_3737" result="shape"/>
</filter>
<filter id="filter5_b_876_3737" x="110.855" y="163.819" width="134.914" height="154.667" filterUnits="userSpaceOnUse" color-interpolation-filters="sRGB">
<feFlood flood-opacity="0" result="BackgroundImageFix"/>
<feGaussianBlur in="BackgroundImageFix" stdDeviation="3.5"/>
<feComposite in2="SourceAlpha" operator="in" result="effect1_backgroundBlur_876_3737"/>
<feBlend mode="normal" in="SourceGraphic" in2="effect1_backgroundBlur_876_3737" result="shape"/>
</filter>
<linearGradient id="paint0_linear_876_3737" x1="174.5" y1="209.501" x2="210.5" y2="357.001" gradientUnits="userSpaceOnUse">
<stop stop-color="#FC8D3D"/>
<stop offset="1" stop-color="#FFA05B" stop-opacity="0"/>
</linearGradient>
<linearGradient id="paint1_linear_876_3737" x1="386.501" y1="241" x2="327.501" y2="175" gradientUnits="userSpaceOnUse">
<stop stop-color="#FFD0AE"/>
<stop offset="0.0001" stop-color="#FFD0AE" stop-opacity="0.89"/>
<stop offset="1" stop-color="#FF9243"/>
</linearGradient>
<linearGradient id="paint2_linear_876_3737" x1="188" y1="104.001" x2="348.001" y2="252.502" gradientUnits="userSpaceOnUse">
<stop stop-color="#FFA05B"/>
<stop offset="1" stop-color="#FFA05B" stop-opacity="0.84"/>
</linearGradient>
<linearGradient id="paint3_linear_876_3737" x1="307.317" y1="197.973" x2="379.491" y2="106.724" gradientUnits="userSpaceOnUse">
<stop stop-color="#FB7E23"/>
<stop offset="1" stop-color="#FB7E23" stop-opacity="0.47"/>
</linearGradient>
<linearGradient id="paint4_linear_876_3737" x1="290.366" y1="101.11" x2="392.396" y2="160.892" gradientUnits="userSpaceOnUse">
<stop stop-color="white"/>
<stop offset="1" stop-color="white" stop-opacity="0"/>
</linearGradient>
<linearGradient id="paint5_linear_876_3737" x1="159.983" y1="24.1831" x2="234.899" y2="218.088" gradientUnits="userSpaceOnUse">
<stop stop-color="white"/>
<stop offset="1" stop-color="white" stop-opacity="0"/>
</linearGradient>
<linearGradient id="paint6_linear_876_3737" x1="148.546" y1="10.6747" x2="173.061" y2="237.051" gradientUnits="userSpaceOnUse">
<stop stop-color="white"/>
<stop offset="1" stop-color="white" stop-opacity="0"/>
</linearGradient>
<linearGradient id="paint7_linear_876_3737" x1="140.859" y1="-57.5906" x2="155.23" y2="297.463" gradientUnits="userSpaceOnUse">
<stop stop-color="white"/>
<stop offset="1" stop-color="white" stop-opacity="0"/>
</linearGradient>
<linearGradient id="paint8_linear_876_3737" x1="259.204" y1="85.0716" x2="320.669" y2="312.482" gradientUnits="userSpaceOnUse">
<stop stop-color="white"/>
<stop offset="1" stop-color="white" stop-opacity="0"/>
</linearGradient>
<linearGradient id="paint9_linear_876_3737" x1="301.065" y1="-86.8125" x2="362.639" y2="212.841" gradientUnits="userSpaceOnUse">
<stop stop-color="white"/>
<stop offset="1" stop-color="white" stop-opacity="0"/>
</linearGradient>
</defs>
</svg>
