<svg width="457" height="296" viewBox="0 0 457 296" fill="none" xmlns="http://www.w3.org/2000/svg">
<path fill-rule="evenodd" clip-rule="evenodd" d="M311.205 257.754C305.943 253.05 298.013 252.213 292.118 256.094C270.128 270.574 243.798 279 215.5 279C138.456 279 76 216.544 76 139.5C76 62.4563 138.456 0 215.5 0C244.245 0 270.959 8.69401 293.156 23.5959C299.551 27.8888 308.367 26.5268 314.12 21.4064C324.19 12.4446 337.459 7 352 7C383.48 7 409 32.5198 409 64C409 72.0703 407.323 79.7488 404.298 86.7061C400.049 96.4803 403.77 111.261 413.012 116.569C439.297 131.664 457 160.015 457 192.5C457 240.825 417.825 280 369.5 280C347.108 280 326.681 271.589 311.205 257.754Z" fill="#FFEFE4"/>
<path d="M19.4578 106.203L171.711 31.6727L413.188 147.586L284.505 280.541L19.4578 106.203Z" fill="url(#paint0_linear_876_3797)" fill-opacity="0.1"/>
<g opacity="0.6">
<path d="M240.745 120.31C240.998 121.017 240.648 122.272 240.442 122.811L229.161 128.634L229.363 126.967C229.767 123.632 226.9 122.861 226.483 122.81L226.482 122.81C226.065 122.76 224.396 122.558 218.625 124.819C212.851 127.08 205.006 132.474 198.512 137.186C192.019 141.897 189.113 144.929 188.443 146.963C187.773 148.997 189.39 149.616 190.174 150.134C190.8 150.549 195.193 150.602 197.311 150.577L187.23 156.969C181.105 157.241 178.875 156.096 178.525 155.49C177.637 154.677 176.388 152.185 178.5 148.719C181.141 144.386 187.167 140.04 190.49 137.059C193.812 134.078 204.829 126.953 214.809 121.395C224.79 115.837 232.13 114.612 236.197 115.951C240.265 117.29 240.429 119.425 240.745 120.31Z" fill="#FFA767"/>
<path d="M152.941 139.697L208.175 102.823L212.559 105.047L166.99 135.478L175.289 140.292L165.208 146.683L152.941 139.697Z" fill="#FFA767"/>
<path d="M107.679 112.106L155.308 75.1564L159.275 77.3295L122.549 104.603L166.059 80.6903L169.192 82.7623L133.198 110.97L176.443 85.7567L180.41 87.9298L122.245 121.064L117.495 118.373L151.568 92.0468L111.229 114.229L107.679 112.106Z" fill="#FFA767"/>
<path d="M132.429 127.48L186.678 91.7563L198.262 97.3913L189.014 103.884L181.447 100.005L169.913 107.913L176.229 111.64L166.615 117.666L160.248 114.356L146.427 123.678L153.16 127.456L143.495 133.898L132.429 127.48Z" fill="#FFA767"/>
<path d="M328.909 177.199L339.102 168.431L322.577 160.293L262.556 203.143L279.925 213.981L290.275 206.4L278.216 198.813L294.898 187.606L306.768 195.157L317.85 187.3L305.497 180.431L318.535 170.591L328.909 177.199Z" fill="#FFA767"/>
<path fill-rule="evenodd" clip-rule="evenodd" d="M200.423 167.721C203.867 173.557 220.736 169.98 238.1 159.731C255.464 149.483 266.749 136.444 263.304 130.609C259.86 124.773 242.992 128.351 225.628 138.599C208.264 148.847 196.979 161.886 200.423 167.721ZM212.252 160.738C214.4 164.377 224.921 162.146 235.751 155.754C246.581 149.362 253.62 141.23 251.472 137.59C249.323 133.95 238.802 136.181 227.972 142.573C217.142 148.966 210.103 157.098 212.252 160.738Z" fill="#FFA767"/>
<path d="M224.557 180.532L228.89 183.172L274.144 151.857L234.474 185.964L239.173 189.072L291.678 160.751L244.656 192.698L250.189 195.907L310.716 153.754L302.732 149.824L251.529 177.88L290.782 143.722L283.632 139.894L224.557 180.532Z" fill="#FFA767"/>
</g>
<g filter="url(#filter0_b_876_3797)">
<path d="M19.4578 97.2031L171.711 22.6727L413.188 138.586L284.505 271.541L19.4578 97.2031Z" fill="url(#paint1_linear_876_3797)" fill-opacity="0.3"/>
</g>
<g filter="url(#filter1_b_876_3797)">
<path d="M18.648 106.06L19.8242 97.2529L284.504 271.542L283.279 280.715L18.648 106.06Z" fill="url(#paint2_linear_876_3797)"/>
</g>
<g filter="url(#filter2_b_876_3797)">
<path d="M284.505 271.541L283.28 280.714L412.012 147.393L413.189 138.586L284.505 271.541Z" fill="url(#paint3_linear_876_3797)"/>
</g>
<g filter="url(#filter3_bf_876_3797)">
<path d="M238.737 104.158C238.99 104.866 238.64 106.121 238.434 106.66L227.153 112.483L227.355 110.816C227.759 107.48 224.892 106.71 224.475 106.659L224.474 106.659C224.057 106.609 222.388 106.407 216.617 108.667C210.843 110.929 202.998 116.322 196.504 121.034C190.011 125.746 187.105 128.778 186.435 130.812C185.766 132.846 187.383 133.465 188.166 133.983C188.792 134.397 193.185 134.45 195.304 134.425L185.222 140.817C179.097 141.09 176.867 139.945 176.517 139.339C175.629 138.526 174.38 136.034 176.492 132.567C179.133 128.234 185.159 123.889 188.482 120.907C191.804 117.926 202.821 110.801 212.801 105.243C222.782 99.6853 230.122 98.4602 234.19 99.7996C238.257 101.139 238.421 103.274 238.737 104.158Z" fill="url(#paint4_linear_876_3797)" fill-opacity="0.9"/>
<path d="M150.934 123.545L206.168 86.6719L210.551 88.8955L164.982 119.327L173.282 124.14L163.2 130.532L150.934 123.545Z" fill="url(#paint5_linear_876_3797)" fill-opacity="0.9"/>
<path d="M105.671 95.9547L153.3 59.0051L157.267 61.1782L120.541 88.4513L164.051 64.5389L167.184 66.6109L131.19 94.819L174.435 69.6053L178.402 71.7784L120.237 104.912L115.487 102.221L149.56 75.8954L109.221 98.0772L105.671 95.9547Z" fill="url(#paint6_linear_876_3797)" fill-opacity="0.9"/>
<path d="M130.421 111.329L184.67 75.6049L196.254 81.2399L187.006 87.7329L179.439 83.8541L167.905 91.7619L174.221 95.489L164.607 101.515L158.24 98.2043L144.419 107.527L151.152 111.305L141.488 117.747L130.421 111.329Z" fill="url(#paint7_linear_876_3797)" fill-opacity="0.9"/>
<path d="M326.901 161.048L337.094 152.28L320.57 144.142L260.548 186.992L277.918 197.829L288.267 190.248L276.208 182.662L292.89 171.455L304.76 179.005L315.842 171.148L303.49 164.28L316.528 154.439L326.901 161.048Z" fill="url(#paint8_linear_876_3797)" fill-opacity="0.9"/>
<path fill-rule="evenodd" clip-rule="evenodd" d="M198.415 151.57C201.86 157.406 218.728 153.828 236.092 143.58C253.456 133.331 264.741 120.293 261.297 114.457C257.852 108.622 240.984 112.199 223.62 122.448C206.256 132.696 194.971 145.734 198.415 151.57ZM210.244 144.586C212.392 148.226 222.913 145.995 233.743 139.603C244.574 133.211 251.612 125.078 249.464 121.438C247.316 117.799 236.794 120.03 225.964 126.422C215.134 132.814 208.096 140.946 210.244 144.586Z" fill="url(#paint9_linear_876_3797)" fill-opacity="0.9"/>
<path d="M222.549 164.38L226.882 167.021L272.136 135.705L232.466 169.813L237.165 172.921L289.67 144.6L242.648 176.547L248.181 179.756L308.709 137.602L300.725 133.673L249.521 161.729L288.774 127.571L281.624 123.742L222.549 164.38Z" fill="url(#paint10_linear_876_3797)" fill-opacity="0.9"/>
</g>
<path d="M389.027 138.027L173.751 30.9611C172.622 30.3997 171.295 30.4033 170.169 30.9706L41.3884 95.8805C38.5989 97.2865 38.4255 101.204 41.0798 102.851L279.615 250.866C281.196 251.846 283.244 251.608 284.557 250.291L390.079 144.433C392.007 142.498 391.473 139.243 389.027 138.027Z" stroke="url(#paint11_linear_876_3797)" stroke-width="2.48"/>
<defs>
<filter id="filter0_b_876_3797" x="10.457" y="13.6729" width="411.73" height="266.868" filterUnits="userSpaceOnUse" color-interpolation-filters="sRGB">
<feFlood flood-opacity="0" result="BackgroundImageFix"/>
<feGaussianBlur in="BackgroundImageFix" stdDeviation="4.5"/>
<feComposite in2="SourceAlpha" operator="in" result="effect1_backgroundBlur_876_3797"/>
<feBlend mode="normal" in="SourceGraphic" in2="effect1_backgroundBlur_876_3797" result="shape"/>
</filter>
<filter id="filter1_b_876_3797" x="15.6484" y="94.2529" width="271.855" height="189.462" filterUnits="userSpaceOnUse" color-interpolation-filters="sRGB">
<feFlood flood-opacity="0" result="BackgroundImageFix"/>
<feGaussianBlur in="BackgroundImageFix" stdDeviation="1.5"/>
<feComposite in2="SourceAlpha" operator="in" result="effect1_backgroundBlur_876_3797"/>
<feBlend mode="normal" in="SourceGraphic" in2="effect1_backgroundBlur_876_3797" result="shape"/>
</filter>
<filter id="filter2_b_876_3797" x="264.279" y="119.586" width="167.91" height="180.128" filterUnits="userSpaceOnUse" color-interpolation-filters="sRGB">
<feFlood flood-opacity="0" result="BackgroundImageFix"/>
<feGaussianBlur in="BackgroundImageFix" stdDeviation="9.5"/>
<feComposite in2="SourceAlpha" operator="in" result="effect1_backgroundBlur_876_3797"/>
<feBlend mode="normal" in="SourceGraphic" in2="effect1_backgroundBlur_876_3797" result="shape"/>
</filter>
<filter id="filter3_bf_876_3797" x="51.6719" y="5.00488" width="339.422" height="246.824" filterUnits="userSpaceOnUse" color-interpolation-filters="sRGB">
<feFlood flood-opacity="0" result="BackgroundImageFix"/>
<feGaussianBlur in="BackgroundImageFix" stdDeviation="27"/>
<feComposite in2="SourceAlpha" operator="in" result="effect1_backgroundBlur_876_3797"/>
<feBlend mode="normal" in="SourceGraphic" in2="effect1_backgroundBlur_876_3797" result="shape"/>
<feGaussianBlur stdDeviation="0.5" result="effect2_foregroundBlur_876_3797"/>
</filter>
<linearGradient id="paint0_linear_876_3797" x1="108.5" y1="127.5" x2="472" y2="228" gradientUnits="userSpaceOnUse">
<stop stop-color="#FB7E23"/>
<stop offset="1" stop-color="#FB7E23" stop-opacity="0"/>
</linearGradient>
<linearGradient id="paint1_linear_876_3797" x1="108.5" y1="118.5" x2="472" y2="219" gradientUnits="userSpaceOnUse">
<stop stop-color="#FB7E23"/>
<stop offset="1" stop-color="#FB7E23" stop-opacity="0"/>
</linearGradient>
<linearGradient id="paint2_linear_876_3797" x1="274" y1="281" x2="-37.5" y2="89" gradientUnits="userSpaceOnUse">
<stop stop-color="#DB7022"/>
<stop offset="1" stop-color="#FCC39B" stop-opacity="0.95"/>
</linearGradient>
<linearGradient id="paint3_linear_876_3797" x1="467" y1="86.5" x2="275" y2="313" gradientUnits="userSpaceOnUse">
<stop stop-color="#764420"/>
<stop offset="1" stop-color="#764420" stop-opacity="0.2"/>
</linearGradient>
<linearGradient id="paint4_linear_876_3797" x1="239.259" y1="109.113" x2="172.042" y2="105.722" gradientUnits="userSpaceOnUse">
<stop stop-color="white"/>
<stop offset="1" stop-color="#FFE6D5"/>
</linearGradient>
<linearGradient id="paint5_linear_876_3797" x1="210.516" y1="96.3486" x2="148.158" y2="92.7639" gradientUnits="userSpaceOnUse">
<stop stop-color="white"/>
<stop offset="1" stop-color="#FFE6D5"/>
</linearGradient>
<linearGradient id="paint6_linear_876_3797" x1="179.53" y1="71.493" x2="101.013" y2="68.1609" gradientUnits="userSpaceOnUse">
<stop stop-color="white"/>
<stop offset="1" stop-color="#FFE6D5"/>
</linearGradient>
<linearGradient id="paint7_linear_876_3797" x1="196.664" y1="85.8934" x2="126.702" y2="82.5889" gradientUnits="userSpaceOnUse">
<stop stop-color="white"/>
<stop offset="1" stop-color="#FFE6D5"/>
</linearGradient>
<linearGradient id="paint8_linear_876_3797" x1="337.633" y1="157.186" x2="256.24" y2="152.961" gradientUnits="userSpaceOnUse">
<stop stop-color="white"/>
<stop offset="1" stop-color="#FFE6D5"/>
</linearGradient>
<linearGradient id="paint9_linear_876_3797" x1="262.331" y1="121.631" x2="194.482" y2="118.129" gradientUnits="userSpaceOnUse">
<stop stop-color="white"/>
<stop offset="1" stop-color="#FFE6D5"/>
</linearGradient>
<linearGradient id="paint10_linear_876_3797" x1="309.914" y1="138.373" x2="216.642" y2="134.321" gradientUnits="userSpaceOnUse">
<stop stop-color="white"/>
<stop offset="1" stop-color="#FFE6D5"/>
</linearGradient>
<linearGradient id="paint11_linear_876_3797" x1="60" y1="158.5" x2="544.5" y2="-13.5" gradientUnits="userSpaceOnUse">
<stop stop-color="#9C541F"/>
<stop offset="1" stop-color="#9C541F" stop-opacity="0"/>
</linearGradient>
</defs>
</svg>
