<svg width="210" height="99" viewBox="0 0 210 99" fill="none" xmlns="http://www.w3.org/2000/svg">
<rect x="5.94141" width="203.36" height="78.672" rx="39.336" fill="url(#paint0_linear_1041_4564)"/>
<ellipse cx="68.8612" cy="36.4792" rx="6.67969" ry="7.42188" transform="rotate(-29.8234 68.8612 36.4792)" fill="white"/>
<ellipse cx="100.037" cy="36.4792" rx="6.67969" ry="7.42188" transform="rotate(-29.8234 100.037 36.4792)" fill="white"/>
<ellipse cx="131.205" cy="36.4792" rx="6.67969" ry="7.42188" transform="rotate(-29.8234 131.205 36.4792)" fill="white"/>
<g filter="url(#filter0_b_1041_4564)">
<mask id="path-5-inside-1_1041_4564" fill="white">
<path fill-rule="evenodd" clip-rule="evenodd" d="M39.336 5.9375C17.6113 5.9375 0 23.5488 0 45.2735C0 62.0665 10.5231 76.4017 25.3349 82.0447L22.2452 93.4299C21.3101 96.876 25.2251 99.5843 28.1199 97.4937L45.9605 84.6095H164.024C185.748 84.6095 203.36 66.9981 203.36 45.2735C203.36 23.5488 185.748 5.9375 164.024 5.9375H39.336Z"/>
</mask>
<path fill-rule="evenodd" clip-rule="evenodd" d="M39.336 5.9375C17.6113 5.9375 0 23.5488 0 45.2735C0 62.0665 10.5231 76.4017 25.3349 82.0447L22.2452 93.4299C21.3101 96.876 25.2251 99.5843 28.1199 97.4937L45.9605 84.6095H164.024C185.748 84.6095 203.36 66.9981 203.36 45.2735C203.36 23.5488 185.748 5.9375 164.024 5.9375H39.336Z" fill="url(#paint1_linear_1041_4564)" fill-opacity="0.5"/>
<path d="M25.3349 82.0447L26.5537 82.3755L26.8532 81.2717L25.7845 80.8645L25.3349 82.0447ZM22.2452 93.4299L23.4641 93.7607L22.2452 93.4299ZM28.1199 97.4937L28.8593 98.5175L28.1199 97.4937ZM45.9605 84.6095V83.3465H45.5521L45.2211 83.5856L45.9605 84.6095ZM1.26291 45.2735C1.26291 24.2463 18.3088 7.20041 39.336 7.20041V4.67459C16.9138 4.67459 -1.26291 22.8513 -1.26291 45.2735H1.26291ZM25.7845 80.8645C11.4462 75.4019 1.26291 61.5253 1.26291 45.2735H-1.26291C-1.26291 62.6076 9.60001 77.4015 24.8853 83.2249L25.7845 80.8645ZM23.4641 93.7607L26.5537 82.3755L24.1161 81.714L21.0264 93.0991L23.4641 93.7607ZM27.3805 96.4698C25.4507 97.8636 22.8406 96.0581 23.4641 93.7607L21.0264 93.0991C19.7795 97.694 24.9996 101.305 28.8593 98.5175L27.3805 96.4698ZM45.2211 83.5856L27.3805 96.4698L28.8593 98.5175L46.6999 85.6333L45.2211 83.5856ZM164.024 83.3465H45.9605V85.8724H164.024V83.3465ZM202.097 45.2735C202.097 66.3007 185.051 83.3465 164.024 83.3465V85.8724C186.446 85.8724 204.622 67.6956 204.622 45.2735H202.097ZM164.024 7.20041C185.051 7.20041 202.097 24.2463 202.097 45.2735H204.622C204.622 22.8513 186.446 4.67459 164.024 4.67459V7.20041ZM39.336 7.20041H164.024V4.67459H39.336V7.20041Z" fill="url(#paint2_linear_1041_4564)" mask="url(#path-5-inside-1_1041_4564)"/>
</g>
<ellipse cx="70.492" cy="45.1153" rx="6.85571" ry="7.00873" transform="rotate(-29.8234 70.492 45.1153)" fill="#FFC499"/>
<ellipse cx="68.8612" cy="46.1667" rx="6.67969" ry="7.42188" transform="rotate(-29.8234 68.8612 46.1667)" fill="white"/>
<ellipse cx="101.433" cy="45.1153" rx="6.85571" ry="7.00873" transform="rotate(-29.8234 101.433 45.1153)" fill="#FFC499"/>
<ellipse cx="99.8026" cy="46.1667" rx="6.67969" ry="7.42188" transform="rotate(-29.8234 99.8026 46.1667)" fill="white"/>
<ellipse cx="132.383" cy="45.1153" rx="6.85571" ry="7.00873" transform="rotate(-29.8234 132.383 45.1153)" fill="#FFC499"/>
<ellipse cx="130.752" cy="46.1667" rx="6.67969" ry="7.42188" transform="rotate(-29.8234 130.752 46.1667)" fill="white"/>
<defs>
<filter id="filter0_b_1041_4564" x="-5.05164" y="0.885857" width="213.463" height="102.391" filterUnits="userSpaceOnUse" color-interpolation-filters="sRGB">
<feFlood flood-opacity="0" result="BackgroundImageFix"/>
<feGaussianBlur in="BackgroundImageFix" stdDeviation="2.52582"/>
<feComposite in2="SourceAlpha" operator="in" result="effect1_backgroundBlur_1041_4564"/>
<feBlend mode="normal" in="SourceGraphic" in2="effect1_backgroundBlur_1041_4564" result="shape"/>
</filter>
<linearGradient id="paint0_linear_1041_4564" x1="214.496" y1="7.82685e-07" x2="-14.8399" y2="85.3516" gradientUnits="userSpaceOnUse">
<stop stop-color="#FB7E23"/>
<stop offset="1" stop-color="#FFC69D"/>
</linearGradient>
<linearGradient id="paint1_linear_1041_4564" x1="-18.5547" y1="2.9372" x2="102.761" y2="106.382" gradientUnits="userSpaceOnUse">
<stop stop-color="#FB6A01"/>
<stop offset="1" stop-color="#FFA361"/>
</linearGradient>
<linearGradient id="paint2_linear_1041_4564" x1="-16.3281" y1="0.686985" x2="191.647" y2="106.163" gradientUnits="userSpaceOnUse">
<stop stop-color="white" stop-opacity="0.55"/>
<stop offset="1" stop-color="white" stop-opacity="0"/>
</linearGradient>
</defs>
</svg>
