<svg width="502" height="274" viewBox="0 0 502 274" fill="none" xmlns="http://www.w3.org/2000/svg">
<path fill-rule="evenodd" clip-rule="evenodd" d="M137.534 125.034C137.863 122.912 136.147 121 134 121C104.177 121 80 96.8234 80 67C80 37.1766 104.177 13 134 13C150.218 13 164.766 20.1494 174.664 31.4685C180.044 37.6197 189.627 39.9739 196.55 35.6323C216.385 23.1926 239.846 16 264.986 16C300.936 16 333.452 30.7073 356.843 54.4334C361.76 59.4206 369.728 60.0934 375.669 56.3861C388.251 48.5359 403.113 44 419.035 44C464.342 44 501.071 80.7285 501.071 126.035C501.071 171.342 464.342 208.071 419.035 208.071C410.254 208.071 401.794 206.691 393.862 204.136C387.196 201.989 379.629 204.572 376.062 210.598C353.605 248.535 312.266 273.973 264.986 273.973C193.749 273.973 136 216.224 136 144.986C136 138.2 136.524 131.537 137.534 125.034Z" fill="#FFEFE4"/>
<g clip-path="url(#clip0_876_3828)">
<g filter="url(#filter0_b_876_3828)">
<path d="M402.845 104.043C402.792 103.899 402.714 103.756 402.637 103.62C402.323 103.096 401.849 102.595 401.168 102.113C400.723 101.798 400.196 101.482 399.621 101.181C399.017 100.88 398.36 100.593 397.65 100.321C397.307 100.185 396.915 100.049 396.52 99.9125C395.916 99.6977 395.259 99.4962 394.524 99.3103C394.181 99.2173 393.814 99.1243 393.447 99.0302C391.582 98.5708 389.484 98.1767 387.224 97.869C386.726 97.797 386.228 97.7328 385.726 97.6686C382.159 97.2369 378.221 97 374.071 97H28.9329C25.4397 97 22.0812 97.1727 18.9839 97.4804C17.6454 97.6099 16.36 97.7671 15.152 97.9542C14.3114 98.076 13.5238 98.2055 12.7607 98.3483C11.6058 98.5631 10.504 98.7999 9.47971 99.0512C9.13692 99.1376 8.79822 99.2306 8.47991 99.3169C7.79842 99.4885 7.1659 99.6756 6.61499 99.8759C6.19466 100.012 5.80291 100.148 5.43155 100.292C4.32974 100.715 3.3585 101.167 2.54642 101.648V101.655C1.49766 102.294 0.734545 102.981 0.342788 103.698C0.106101 104.078 0 104.473 0 104.867V137.013V142.294V228.392C0 232.581 12.4179 235.965 27.7209 235.965H38.0127H133.52H231.863H241.971L242.734 236C242.788 235.993 242.841 235.986 242.894 235.965H261.323H280.196H375.283C379.772 235.965 384 235.678 387.754 235.154C396.785 233.913 403.008 231.353 403.008 228.392V176.009V168.214V104.867C403 104.587 402.951 104.315 402.845 104.043Z" fill="url(#paint0_linear_876_3828)" fill-opacity="0.97"/>
</g>
<path d="M402.996 182.97V190.496L386.338 181.632L383.449 180.091L347.35 160.888L341.604 157.835L316.715 144.593L313.842 143.062L284.864 127.644L281.975 126.108L259.486 114.138L256.56 112.583L228.749 97.7868C228.272 97.5366 228.043 97.2665 228.064 97.002H241.424L268.496 111.408L271.386 112.945L307.537 132.181L310.427 133.717L352.924 156.328L358.67 159.381L402.996 182.97Z" fill="white"/>
<path d="M402.996 150V153.818L358.666 159.726L347.35 161.233L262.465 172.554L256.789 173.305L193.724 181.713L188.084 182.464L181.335 183.364L132.687 189.85L119.821 191.564L70.1327 198.189L62.6608 199.185L50.5693 200.794C50.4265 200.813 50.2715 200.832 50.1123 200.851L25.6479 204.116L19.9715 204.872L2.75046 207.169C1.86901 207.289 0.918181 207.343 0 207.343V203.712L40.4 198.328L52.0507 196.778L117.319 188.077C117.478 188.052 117.637 188.034 117.797 188.015L169.46 181.129L180.812 179.613L208.994 175.857L214.634 175.105L297.703 164.035L303.343 163.279L341.608 158.181L352.924 156.673L402.996 150Z" fill="white"/>
<path d="M199.704 235.965H187.131C188.576 226.183 183.299 218.28 175.081 211.983C174.085 211.208 173.032 210.463 171.93 209.746C154.734 198.286 128.221 192.75 119.818 191.222C118.219 190.928 117.272 190.777 117.166 190.763C114.146 190.311 113.02 189.264 114.697 188.439C115.407 188.08 116.533 187.822 117.794 187.672C119.475 187.478 121.471 187.493 123.23 187.751C123.597 187.808 127.221 188.36 132.681 189.507C141.818 191.422 156.15 195.001 169.278 200.717C169.567 200.846 169.857 200.974 170.171 201.104C172.008 201.929 173.873 202.818 175.709 203.765C184.976 208.534 193.563 214.874 197.549 222.971C198.1 224.076 198.574 225.216 198.941 226.392C199.863 229.367 200.206 232.551 199.704 235.965Z" fill="white"/>
<path d="M402.997 121.834V123.621L388.208 125.234L310.428 133.717L304.278 134.387C303.906 134.43 303.503 134.45 303.115 134.45C301.862 134.45 300.683 134.248 300.205 133.911C299.552 133.468 300.348 132.972 301.952 132.794L307.538 132.183L382.642 123.993L388.51 123.352L401.834 121.897C402.221 121.853 402.609 121.834 402.997 121.834Z" fill="white"/>
<path d="M388.579 125.185C388.457 125.203 388.334 125.218 388.208 125.232C387.837 125.271 387.469 125.29 387.082 125.29C385.972 125.29 384.894 125.126 384.315 124.837L382.642 123.99L344.286 104.629L341.271 103.107L329.991 97.4115C329.726 97.282 329.604 97.1425 329.604 97.002H336.337L347.106 102.443L350.122 103.964L388.51 123.349L389.848 124.023C390.677 124.438 390.114 124.958 388.579 125.185Z" fill="white"/>
<path d="M181.686 212.68C181.274 212.68 180.854 212.658 180.45 212.612L57.5275 198.237C55.9319 198.05 55.1933 197.546 55.8748 197.109C56.5563 196.674 58.4008 196.471 60.0005 196.657L182.923 211.031C184.518 211.218 185.257 211.722 184.575 212.159C184.069 212.485 182.906 212.68 181.686 212.68Z" fill="white"/>
<path d="M122.706 205.801L122.576 205.844L92.8061 216.437L59.0211 228.471L54.8709 229.948L37.9886 235.958L37.9642 235.965H30.0352L34.1323 234.509L50.1454 228.807L54.7404 227.164L88.1091 215.289L116.618 205.148L117.719 204.76C118.768 204.38 120.739 204.309 122.102 204.595C123.494 204.891 123.755 205.428 122.706 205.801Z" fill="white"/>
<path d="M236.452 206.138C235.326 206.138 234.237 205.972 233.669 205.681L185.193 180.626C184.381 180.207 184.969 179.687 186.503 179.465C188.038 179.243 189.939 179.403 190.751 179.823L239.227 204.878C240.039 205.297 239.452 205.817 237.917 206.038C237.448 206.107 236.946 206.138 236.452 206.138Z" fill="white"/>
<path d="M319.711 203.411C318.601 203.411 317.524 203.25 316.952 202.965L253.847 171.489C253.014 171.073 253.573 170.552 255.096 170.324C256.618 170.096 258.527 170.248 259.36 170.665L322.461 202.14C323.294 202.557 322.735 203.078 321.213 203.306C320.735 203.377 320.221 203.411 319.711 203.411Z" fill="white"/>
<path d="M295.59 191.382C294.337 191.382 293.157 191.176 292.668 190.839C292.027 190.399 292.819 189.9 294.431 189.725L389.607 179.426C391.219 179.253 393.047 179.467 393.688 179.909C394.329 180.35 393.537 180.849 391.925 181.024L296.748 191.322C296.369 191.362 295.977 191.382 295.59 191.382Z" fill="white"/>
<path d="M402.998 210.95V212.679C402.839 212.679 402.716 212.679 402.557 212.67L362.141 211.085V211.081L355.885 210.835L308.735 208.987L302.479 208.741L236.032 206.131L175.717 203.766V203.762L165.478 203.362C164.246 203.314 163.222 203.063 162.887 202.731C162.569 202.395 163.01 202.043 164.013 201.831L169.282 200.719L208.2 192.514L210.298 192.071C211.673 191.782 213.648 191.854 214.705 192.23C214.811 192.269 214.917 192.312 214.987 192.355C215.693 192.716 215.374 193.173 214.142 193.434L211.179 194.059L173.742 201.951L230.78 204.19L238.5 204.493L303.365 207.041L309.641 207.286L356.791 209.135L363.03 209.381L402.998 210.95Z" fill="white"/>
<path d="M393.445 99.0302L350.127 103.964L344.272 104.63L271.372 112.943L265.332 113.631C265.255 113.638 265.173 113.646 265.096 113.652C264.782 113.688 263.023 113.838 260.24 114.075C260.003 114.096 259.742 114.118 259.476 114.139C253.727 114.62 244.304 115.358 234.118 115.954C225.638 116.455 216.636 116.865 208.838 116.937C207.973 116.943 207.132 116.951 206.291 116.951C204.508 116.951 202.774 116.93 201.174 116.887C200.778 116.872 200.362 116.851 199.995 116.837C190.49 116.336 182.561 112.986 176.497 109.178C175.657 108.64 174.845 108.095 174.057 107.543C167.495 102.931 163.635 98.1557 162.847 97.1793C162.794 97.1218 162.77 97.0576 162.77 97H169.148C171.694 100.214 176 104.301 181.223 107.786C181.329 107.836 181.407 107.887 181.46 107.945C187.471 111.86 194.612 114.98 201.807 115.173C210.576 115.417 223.149 114.864 234.649 114.163C243.259 113.632 251.241 113.015 256.571 112.585C260.142 112.291 262.504 112.084 263.031 112.033L264.133 111.911L268.491 111.41L341.28 103.111L347.108 102.444L387.222 97.869C389.479 98.1767 391.58 98.5708 393.445 99.0302Z" fill="white"/>
<path d="M214.641 177.529C213.502 177.529 212.401 177.36 211.846 177.063C176.008 158.029 175.49 145.143 210.27 137.668C219.244 135.74 224.059 133.396 224.586 130.703C225.928 123.83 199.571 116.716 199.301 116.644C198.061 116.313 198.036 115.77 199.248 115.43C200.46 115.091 202.452 115.083 203.692 115.414C204.863 115.727 232.348 123.134 230.866 130.788C230.246 133.998 224.623 136.767 214.159 139.016C182.121 145.902 183.194 158.09 217.436 176.276C218.232 176.698 217.624 177.215 216.077 177.433C215.616 177.498 215.122 177.529 214.641 177.529Z" fill="white"/>
<path d="M189.644 159.255C188.42 159.255 187.257 159.059 186.751 158.733C186.073 158.295 186.816 157.792 188.416 157.607L319.862 142.364C321.462 142.178 323.307 142.382 323.984 142.819C324.661 143.256 323.919 143.76 322.319 143.944L190.872 159.187C190.472 159.234 190.056 159.255 189.644 159.255Z" fill="white"/>
<path d="M290.455 126.994L284.869 127.644L228.007 134.241L226.807 134.38C226.403 134.423 225.995 134.448 225.575 134.448C225.012 134.448 224.448 134.405 223.934 134.323L221.608 133.937L166.121 124.726L160.339 123.769L94.2789 112.8L93.275 112.636C92.6425 112.535 92.165 112.371 91.9365 112.179L90.7367 111.216L73.3239 97.2809C73.2015 97.189 73.1484 97.0927 73.1484 97.002H79.6002L97.013 110.941L97.5068 111.331L103.836 112.38L167.623 122.968L223.742 132.28L225.824 132.627L230.3 132.106L281.98 126.107L288.007 125.408C289.594 125.225 291.443 125.427 292.133 125.865C292.802 126.301 292.059 126.807 290.455 126.994Z" fill="white"/>
<path d="M219.144 155.907C218.491 155.355 217.679 154.825 216.647 154.33C211.689 151.87 202.392 150.163 191.57 149.976H191.538C190.913 149.97 190.289 149.962 189.636 149.962C189.138 149.962 188.636 149.962 188.138 149.976C187.138 149.984 186.11 150.012 185.143 150.055H185.114C173.011 150.542 163.217 152.945 159.944 156.1V156.107C159.165 156.831 158.789 157.606 158.789 158.395C158.789 158.968 158.977 159.535 159.381 160.073C162.25 163.918 174.729 166.829 189.636 166.829C191.444 166.829 193.284 166.786 195.002 166.699C196.031 166.65 197.03 166.592 197.997 166.513C199.058 166.435 200.087 166.342 201.054 166.227H201.087C212.439 164.979 220.519 161.938 220.519 158.395C220.519 157.528 220.05 156.697 219.144 155.907ZM199.026 164.607H198.993C197.993 164.722 196.965 164.815 195.937 164.887H195.904C194.904 164.959 193.937 165.017 192.909 165.052C191.815 165.095 190.754 165.116 189.632 165.116C176.063 165.116 165.053 162.104 165.053 158.397C165.053 155.156 173.415 152.466 184.612 151.821H184.645C185.645 151.763 186.612 151.728 187.64 151.705C188.297 151.691 188.95 151.684 189.636 151.684C190.105 151.684 190.542 151.684 190.978 151.691H191.011C199.462 151.821 206.796 153.118 210.848 155.004C211.909 155.492 212.75 156.023 213.313 156.582V156.589C213.904 157.163 214.219 157.773 214.219 158.397C214.219 161.193 207.918 163.595 199.026 164.607Z" fill="white"/>
<path d="M319.706 203.413C318.584 203.413 317.523 203.248 316.96 202.968L316.18 202.574C316.18 202.574 316.18 202.574 316.18 202.567L315.523 202.251H315.49C309.532 203.392 305.166 205.07 303.358 207.042L304.607 207.092L309.63 207.286C311.41 205.579 315.588 204.152 321.204 203.305C320.738 203.377 320.208 203.413 319.706 203.413ZM319.706 203.413C318.584 203.413 317.523 203.248 316.96 202.968L316.18 202.574C316.18 202.574 316.18 202.574 316.18 202.567L315.523 202.251H315.49C309.532 203.392 305.166 205.07 303.358 207.042L304.607 207.092L309.63 207.286C311.41 205.579 315.588 204.152 321.204 203.305C320.738 203.377 320.208 203.413 319.706 203.413ZM319.706 203.413C318.584 203.413 317.523 203.248 316.96 202.968L316.18 202.574L315.523 202.25H315.49C309.532 203.391 305.166 205.069 303.358 207.041L304.607 207.091L309.63 207.285C311.41 205.578 315.588 204.151 321.204 203.304C320.738 203.377 320.208 203.413 319.706 203.413ZM332.744 200.78C328.627 200.78 324.635 201.009 321.048 201.426H321.016C320.049 201.541 319.082 201.663 318.208 201.799C317.645 201.885 317.086 201.97 316.555 202.064C316.213 202.122 315.87 202.186 315.527 202.25H315.494C309.537 203.391 305.17 205.069 303.362 207.041C303.268 207.142 303.175 207.242 303.113 207.342C302.987 207.5 302.864 207.665 302.803 207.83C302.615 208.131 302.522 208.432 302.489 208.741C302.428 208.848 302.428 208.949 302.428 209.063C302.428 213.623 316.058 217.346 332.748 217.346C346.909 217.346 358.824 214.678 362.163 211.085V211.078C362.66 210.534 362.942 209.967 363.036 209.379V209.064C363.032 204.495 349.463 200.78 332.744 200.78ZM332.744 215.626C319.486 215.626 308.724 212.678 308.724 209.064V208.985C308.786 208.397 309.067 207.824 309.63 207.286C311.41 205.579 315.588 204.152 321.204 203.305H321.236C324.635 202.796 328.565 202.502 332.744 202.502C346.003 202.502 356.764 205.45 356.764 209.064V209.136C356.764 209.724 356.454 210.297 355.89 210.835C353.05 213.597 343.758 215.626 332.744 215.626ZM319.706 203.413C318.584 203.413 317.523 203.248 316.96 202.968L316.18 202.574C316.18 202.574 316.18 202.574 316.18 202.567L315.523 202.251H315.49C309.532 203.392 305.166 205.07 303.358 207.042L304.607 207.092L309.63 207.286C311.41 205.579 315.588 204.152 321.204 203.305C320.738 203.377 320.208 203.413 319.706 203.413ZM319.706 203.413C318.584 203.413 317.523 203.248 316.96 202.968L316.18 202.574C316.18 202.574 316.18 202.574 316.18 202.567L315.523 202.251H315.49C309.532 203.392 305.166 205.07 303.358 207.042L304.607 207.092L309.63 207.286C311.41 205.579 315.588 204.152 321.204 203.305C320.738 203.377 320.208 203.413 319.706 203.413Z" fill="white"/>
<path d="M303.118 165.736C301.922 165.736 300.779 165.549 300.253 165.232L272.895 148.765C272.177 148.333 272.879 147.824 274.458 147.628C276.037 147.432 277.902 147.623 278.616 148.055L305.974 164.522C306.692 164.954 305.991 165.463 304.411 165.659C303.991 165.711 303.55 165.736 303.118 165.736Z" fill="white"/>
<path d="M387.749 235.155C383.995 235.678 379.767 235.965 375.278 235.965H373.886C358.714 231.462 336.976 228.349 308.728 226.65C306.68 226.528 304.582 226.413 302.427 226.298C297.441 226.046 292.295 225.832 286.937 225.659C281.791 225.494 276.674 225.372 271.658 225.3H271.634C268.092 225.243 264.598 225.199 261.158 225.185C259.032 225.171 256.906 225.164 254.833 225.164C253.519 225.164 252.234 225.164 250.973 225.171C227.528 225.235 207.998 225.988 198.942 226.389C195.531 226.548 193.588 226.647 193.507 226.655C190.12 226.849 186.786 226.253 186.076 225.321C185.365 224.396 187.545 223.485 190.96 223.292C191.356 223.271 193.666 223.142 197.551 222.97C206.557 222.562 223.962 221.902 245.227 221.758C250.426 221.715 255.886 221.708 261.477 221.744C270.14 221.801 279.195 221.952 288.385 222.245C333.433 223.694 366.982 228.091 387.749 235.155Z" fill="white"/>
<path d="M134.783 234.042L160.851 235.964H136.701L133.734 235.749L54.8723 229.948L52.8523 229.797C51.828 229.719 51.0159 229.511 50.6976 229.245L50.1467 228.808L36.729 218.013L19.9569 204.524L17.8063 202.788C17.2554 202.336 18.1205 201.848 19.7733 201.698C21.4015 201.539 23.1848 201.784 23.7643 202.236L25.6823 203.77L42.1932 217.059L54.7417 227.164L56.1088 228.254L59.0225 228.469L134.783 234.042Z" fill="white"/>
<path d="M257.642 230.657C256.173 231.661 254.125 232.686 251.288 233.684C248.873 234.529 246.065 235.298 242.886 235.964C242.833 235.986 242.78 235.993 242.727 235.999L241.964 235.964H231.305C231.725 235.9 232.145 235.842 232.566 235.778C232.749 235.749 232.933 235.72 233.117 235.685C233.17 235.685 233.223 235.678 233.247 235.671C238.524 234.854 242.857 233.842 246.269 232.644C251.101 230.958 253.304 229.131 254.251 227.566C254.777 226.649 254.908 225.816 254.831 225.164C254.753 224.232 254.333 223.643 254.333 223.622C253.965 223.163 255.067 222.705 256.749 222.612C258.454 222.511 260.107 222.805 260.478 223.271C260.556 223.35 261.082 224.075 261.16 225.186C261.29 226.569 260.715 228.563 257.642 230.657Z" fill="white"/>
<path d="M308.728 224.72V235.964H302.428V224.72C302.428 224.246 303.844 223.866 305.603 223.866C307.312 223.866 308.728 224.246 308.728 224.72Z" fill="white"/>
<path d="M178.992 109.064L176.507 109.175L103.836 112.382L94.2989 112.8H94.2826L54.8008 114.544L47.9287 114.847L15.0048 116.302L8.7489 116.576L0.50159 116.943C0.326115 116.947 0.183287 116.953 0.0078125 116.953V115.219L10.671 114.752L90.7445 111.217L97.0208 110.943L174.062 107.543L177.992 107.37C179.702 107.298 181.322 107.615 181.587 108.082C181.865 108.55 180.702 108.987 178.992 109.064Z" fill="white"/>
<path d="M47.7102 200.638C45.0414 200.638 42.5684 200.17 41.7196 199.438C41.4952 199.243 19.9036 179.861 86.8656 172.394C153.823 164.93 183.797 180.553 184.091 180.711C185.662 181.557 184.425 182.589 181.332 183.019C178.235 183.448 174.452 183.111 172.881 182.265C171.885 181.738 147.69 169.32 91.6156 175.573C67.9918 178.208 54.4354 182.821 51.3177 189.283C48.9426 194.213 53.656 198.359 53.7049 198.4C54.7537 199.304 52.9173 200.269 49.6119 200.556C48.9794 200.612 48.3387 200.638 47.7102 200.638Z" fill="white"/>
<path d="M94.9126 174.26C94.0025 174.26 93.1007 174.153 92.4804 173.946C91.3786 173.579 91.5745 173.038 92.917 172.737L157.679 158.233L46.7999 114.4C45.8123 114.009 46.1714 113.475 47.5997 113.206C49.028 112.937 50.9868 113.034 51.9702 113.424L164.498 157.909C165.429 158.276 165.172 158.778 163.907 159.061L96.904 174.065C96.3204 174.196 95.6145 174.26 94.9126 174.26Z" fill="white"/>
<path d="M105.651 137.013C104.701 137.013 103.762 136.895 103.142 136.672C102.093 136.293 102.366 135.755 103.75 135.468L164.027 123.005C165.411 122.719 167.382 122.793 168.431 123.171C169.479 123.549 169.206 124.087 167.823 124.374L107.545 136.839C106.978 136.956 106.313 137.013 105.651 137.013Z" fill="white"/>
<path d="M46.6546 125.076C39.5907 125.076 33.2614 124.645 27.7115 123.785C11.3678 121.251 8.17665 115.955 8.05015 115.73C7.78081 115.262 8.95609 114.823 10.67 114.75C12.384 114.677 13.9877 114.997 14.2571 115.465C14.2897 115.518 17.1708 120.185 30.8578 122.298C40.7986 123.832 54.1102 123.698 70.4253 121.9C72.0372 121.721 73.8654 121.934 74.5142 122.375C75.1631 122.814 74.3877 123.315 72.7758 123.493C63.2104 124.548 54.4816 125.076 46.6546 125.076Z" fill="white"/>
<path d="M86.1009 128.978L84.0197 129.113L54.0748 131.019L47.925 131.415L32.2016 132.416L26.0315 132.806L0.705979 134.424C0.461131 134.443 0.248929 134.449 0 134.449V132.705L27.4271 130.957C27.4965 130.953 27.5495 130.953 27.6026 130.947L80.1797 127.597L84.6726 127.308C85.9948 127.221 87.317 127.38 88.023 127.678C88.2189 127.76 88.3576 127.852 88.4474 127.949C88.8351 128.41 87.7945 128.873 86.1009 128.978Z" fill="white"/>
<path d="M109.319 152.667C103.038 152.667 97.9864 150.458 93.0731 148.31C88.8985 146.485 83.6995 144.216 79.9248 144.487C66.1235 145.487 51.6856 134.521 47.5885 131.137C47.0457 130.686 47.9394 130.201 49.584 130.052C51.2285 129.904 53.0078 130.148 53.5546 130.597C61.8672 137.466 73.4444 143.173 78.3088 142.827C86.5724 142.23 92.5834 144.859 98.3986 147.4C102.116 149.026 107.213 151.256 110.11 150.892C120.647 149.577 134.012 147.359 134.146 147.336C135.628 147.09 137.562 147.219 138.464 147.623C139.366 148.028 138.896 148.556 137.415 148.803C136.856 148.896 123.602 151.095 112.722 152.454C111.551 152.6 110.417 152.667 109.319 152.667Z" fill="white"/>
<path d="M48.2433 186.591L40.1715 186.972L0.530505 188.835C0.35503 188.845 0.179555 188.85 0 188.85V187.12L41.914 185.147L47.1823 184.897C48.8758 184.819 50.5122 185.132 50.8142 185.599C51.0958 186.067 49.9531 186.509 48.2433 186.591Z" fill="white"/>
<path d="M58.0087 181.617C57.4455 181.723 56.8293 181.775 56.1927 181.775C55.2051 181.775 54.238 181.65 53.6177 181.41L50.4265 180.182L18.3677 167.788C18.2453 167.749 18.1392 167.711 18.0494 167.668L0 160.696V158.346C0.987555 158.346 1.93838 158.475 2.55458 158.712L19.6001 165.294L24.1461 167.052L54.3563 178.724L58.7432 180.423C59.7512 180.809 59.4165 181.343 58.0087 181.617Z" fill="white"/>
<path d="M82.47 175.688C81.1642 175.688 79.9481 175.465 79.4992 175.11L25.1184 132.078C24.5511 131.63 25.4244 131.141 27.0649 130.987C28.7095 130.832 30.4969 131.07 31.06 131.518L85.4408 174.549C86.0081 174.997 85.1348 175.486 83.4943 175.64C83.1556 175.672 82.8087 175.688 82.47 175.688Z" fill="white"/>
<path d="M20.7771 168.091C20.6098 168.091 20.4425 168.088 20.2752 168.08C18.5653 168.005 17.3982 167.568 17.6676 167.099C17.7655 166.933 20.165 163.001 32.5094 160.792C41.0995 159.254 52.1748 158.952 65.4334 159.893C67.1147 160.011 68.1226 160.481 67.686 160.94C67.2493 161.4 65.5313 161.675 63.8541 161.556C52.4156 160.745 43.042 160.968 36.0067 162.22C25.9924 164.001 23.8949 167.337 23.8745 167.371C23.6255 167.791 22.2911 168.091 20.7771 168.091Z" fill="white"/>
<path d="M47.2925 147.179L44.4563 147.387L0.81208 150.57C0.530505 150.589 0.281576 150.599 0 150.599V148.855L42.4077 145.759L45.6683 145.519C47.1823 145.413 48.7167 145.62 49.3329 145.991C49.4022 146.034 49.4553 146.082 49.5083 146.13C49.9695 146.587 48.9656 147.06 47.2925 147.179Z" fill="white"/>
</g>
<g filter="url(#filter1_b_876_3828)">
<path fill-rule="evenodd" clip-rule="evenodd" d="M72 159C72 159 56 136.436 56 125.607C56 114.778 63.1634 106 72 106C80.8366 106 88 114.778 88 125.607C88 136.436 72 159 72 159ZM71.8 135.935C67.0504 135.935 63.2 131.211 63.2 125.384C63.2 119.557 67.0504 114.833 71.8 114.833C76.5496 114.833 80.4 119.557 80.4 125.384C80.4 131.211 76.5496 135.935 71.8 135.935Z" fill="url(#paint1_linear_876_3828)" fill-opacity="0.7"/>
</g>
<g filter="url(#filter2_b_876_3828)">
<path fill-rule="evenodd" clip-rule="evenodd" d="M329 197C329 197 313 174.436 313 163.607C313 152.778 320.163 144 329 144C337.837 144 345 152.778 345 163.607C345 174.436 329 197 329 197ZM328.8 173.935C324.05 173.935 320.2 169.211 320.2 163.384C320.2 157.557 324.05 152.833 328.8 152.833C333.55 152.833 337.4 157.557 337.4 163.384C337.4 169.211 333.55 173.935 328.8 173.935Z" fill="url(#paint2_linear_876_3828)" fill-opacity="0.7"/>
</g>
<path fill-rule="evenodd" clip-rule="evenodd" d="M165.62 137.38C165.62 137.38 208.239 79.7429 208.239 52.0829C208.239 24.4229 189.158 2 165.62 2C142.081 2 123 24.4229 123 52.0829C123 79.7429 165.62 137.38 165.62 137.38ZM166.151 78.4648C178.802 78.4648 189.059 66.3985 189.059 51.5141C189.059 36.6296 178.802 24.5634 166.151 24.5634C153.499 24.5634 143.242 36.6296 143.242 51.5141C143.242 66.3985 153.499 78.4648 166.151 78.4648Z" fill="#FFA86A"/>
<g filter="url(#filter3_b_876_3828)">
<path fill-rule="evenodd" clip-rule="evenodd" d="M169.381 137.38C169.381 137.38 212.001 79.7429 212.001 52.0829C212.001 24.4229 192.92 2 169.381 2C145.843 2 126.762 24.4229 126.762 52.0829C126.762 79.7429 169.381 137.38 169.381 137.38ZM169.912 78.4648C182.564 78.4648 192.82 66.3985 192.82 51.5141C192.82 36.6296 182.564 24.5634 169.912 24.5634C157.26 24.5634 147.004 36.6296 147.004 51.5141C147.004 66.3985 157.26 78.4648 169.912 78.4648Z" fill="url(#paint3_linear_876_3828)" fill-opacity="0.7"/>
</g>
<g filter="url(#filter4_f_876_3828)">
<circle cx="144.311" cy="12.0283" r="6.26761" fill="white"/>
</g>
<g filter="url(#filter5_d_876_3828)">
<circle cx="144.938" cy="12.6553" r="3.1338" fill="white"/>
</g>
<defs>
<filter id="filter0_b_876_3828" x="-14" y="83" width="431.008" height="167" filterUnits="userSpaceOnUse" color-interpolation-filters="sRGB">
<feFlood flood-opacity="0" result="BackgroundImageFix"/>
<feGaussianBlur in="BackgroundImageFix" stdDeviation="7"/>
<feComposite in2="SourceAlpha" operator="in" result="effect1_backgroundBlur_876_3828"/>
<feBlend mode="normal" in="SourceGraphic" in2="effect1_backgroundBlur_876_3828" result="shape"/>
</filter>
<filter id="filter1_b_876_3828" x="51" y="101" width="42" height="63" filterUnits="userSpaceOnUse" color-interpolation-filters="sRGB">
<feFlood flood-opacity="0" result="BackgroundImageFix"/>
<feGaussianBlur in="BackgroundImageFix" stdDeviation="2.5"/>
<feComposite in2="SourceAlpha" operator="in" result="effect1_backgroundBlur_876_3828"/>
<feBlend mode="normal" in="SourceGraphic" in2="effect1_backgroundBlur_876_3828" result="shape"/>
</filter>
<filter id="filter2_b_876_3828" x="308" y="139" width="42" height="63" filterUnits="userSpaceOnUse" color-interpolation-filters="sRGB">
<feFlood flood-opacity="0" result="BackgroundImageFix"/>
<feGaussianBlur in="BackgroundImageFix" stdDeviation="2.5"/>
<feComposite in2="SourceAlpha" operator="in" result="effect1_backgroundBlur_876_3828"/>
<feBlend mode="normal" in="SourceGraphic" in2="effect1_backgroundBlur_876_3828" result="shape"/>
</filter>
<filter id="filter3_b_876_3828" x="120.494" y="-4.26761" width="97.7735" height="147.915" filterUnits="userSpaceOnUse" color-interpolation-filters="sRGB">
<feFlood flood-opacity="0" result="BackgroundImageFix"/>
<feGaussianBlur in="BackgroundImageFix" stdDeviation="3.1338"/>
<feComposite in2="SourceAlpha" operator="in" result="effect1_backgroundBlur_876_3828"/>
<feBlend mode="normal" in="SourceGraphic" in2="effect1_backgroundBlur_876_3828" result="shape"/>
</filter>
<filter id="filter4_f_876_3828" x="133.029" y="0.746658" width="22.5633" height="22.5633" filterUnits="userSpaceOnUse" color-interpolation-filters="sRGB">
<feFlood flood-opacity="0" result="BackgroundImageFix"/>
<feBlend mode="normal" in="SourceGraphic" in2="BackgroundImageFix" result="shape"/>
<feGaussianBlur stdDeviation="2.50704" result="effect1_foregroundBlur_876_3828"/>
</filter>
<filter id="filter5_d_876_3828" x="130.523" y="4.5074" width="28.8329" height="28.831" filterUnits="userSpaceOnUse" color-interpolation-filters="sRGB">
<feFlood flood-opacity="0" result="BackgroundImageFix"/>
<feColorMatrix in="SourceAlpha" type="matrix" values="0 0 0 0 0 0 0 0 0 0 0 0 0 0 0 0 0 0 127 0" result="hardAlpha"/>
<feOffset dy="6.26761"/>
<feGaussianBlur stdDeviation="5.64084"/>
<feComposite in2="hardAlpha" operator="out"/>
<feColorMatrix type="matrix" values="0 0 0 0 1 0 0 0 0 1 0 0 0 0 1 0 0 0 0.29 0"/>
<feBlend mode="normal" in2="BackgroundImageFix" result="effect1_dropShadow_876_3828"/>
<feBlend mode="normal" in="SourceGraphic" in2="effect1_dropShadow_876_3828" result="shape"/>
</filter>
<linearGradient id="paint0_linear_876_3828" x1="-48.5" y1="86" x2="334" y2="214" gradientUnits="userSpaceOnUse">
<stop stop-color="#FFAE73"/>
<stop offset="1" stop-color="#FFD4B5" stop-opacity="0.52"/>
</linearGradient>
<linearGradient id="paint1_linear_876_3828" x1="72" y1="106" x2="72" y2="159" gradientUnits="userSpaceOnUse">
<stop stop-color="#FB7E23"/>
<stop offset="1" stop-color="#FB7E23" stop-opacity="0"/>
</linearGradient>
<linearGradient id="paint2_linear_876_3828" x1="329" y1="144" x2="329" y2="197" gradientUnits="userSpaceOnUse">
<stop stop-color="#FB7E23"/>
<stop offset="1" stop-color="#FB7E23" stop-opacity="0"/>
</linearGradient>
<linearGradient id="paint3_linear_876_3828" x1="169.381" y1="2" x2="169.381" y2="137.38" gradientUnits="userSpaceOnUse">
<stop stop-color="#FB7E23"/>
<stop offset="1" stop-color="#FB7E23" stop-opacity="0"/>
</linearGradient>
<clipPath id="clip0_876_3828">
<rect width="403" height="139" fill="white" transform="translate(0 97)"/>
</clipPath>
</defs>
</svg>
