<svg width="649" height="380" viewBox="0 0 649 380" fill="none" xmlns="http://www.w3.org/2000/svg">
<g clip-path="url(#clip0_1314_6694)">
<path d="M4.70703 37.7648V33.6958H50.26V37.7648H29.7246V52.0696H25.0835V37.7648H4.70703ZM6.29646 13.0969C6.29646 9.02794 8.07661 5.72193 11.1601 3.71926C15.0383 1.08081 20.4423 0 27.5312 0C34.62 0 40.0241 1.08081 43.9023 3.71926C46.9222 5.72193 48.7023 9.02794 48.7023 13.0969C48.7023 17.1658 46.9222 20.4082 43.9023 22.4745C40.0241 25.1129 34.62 26.1937 27.5312 26.1937C20.4423 26.1937 15.0701 25.1129 11.1601 22.4745C8.07661 20.4082 6.29646 17.1022 6.29646 13.0969ZM10.874 13.0969C10.874 15.5446 11.8594 17.738 13.735 19.1685C16.4688 21.2347 21.0463 22.1566 27.5312 22.1566C34.016 22.1566 38.5936 21.2347 41.2638 19.1685C43.1393 17.738 44.1248 15.5764 44.1248 13.0969C44.1248 10.6174 43.1393 8.45575 41.2638 7.02526C38.5618 4.89543 33.9525 4.00535 27.5312 4.00535C21.1099 4.00535 16.5006 4.92722 13.735 7.02526C11.8594 8.45575 10.874 10.5856 10.874 13.0969Z" fill="#FB7E23"/>
<path d="M84.3041 47.6192H61.5117V22.0294H80.2987V4.92722H61.5117V0.921867H84.8127V26.0348H66.0257V43.6774H85.0988C90.3121 43.6774 94.8897 42.3105 97.5281 39.831V0H102.169V51.1795H97.5281V43.6774C95.0168 46.2523 90.026 47.6192 84.3041 47.6192Z" fill="#FB7E23"/>
<path d="M135.898 11.73V4.92722H115.966V0.921867H140.475V11.2849C140.475 30.8667 132.687 43.5185 115.648 48.0325V43.741C129.318 39.7357 135.898 28.6732 135.898 11.73ZM155.829 0V21.5208H164.19V25.5262H155.829V51.2113H151.252V0H155.829Z" fill="#FB7E23"/>
<path d="M186.883 27.7514V0.572193H211.424V27.7514H186.883ZM194.448 34.6813V47.492H228.399V51.4338H189.871V34.6495H194.448V34.6813ZM206.941 4.57755H191.429V23.8732H206.941V4.57755ZM227.445 0V14.4956H235.297V18.5645H227.445V35.6667H222.867V0L227.445 0Z" fill="#FB7E23"/>
<path d="M263.969 47.6192H242.512V0.572193H247.089V43.6774H264.732C270.168 43.6774 274.968 42.1834 277.765 39.5131V0H282.343V21.5208H290.703V25.5262H282.343V51.2113H277.765V43.3278C275.127 46.0298 269.913 47.6192 263.969 47.6192Z" fill="#FB7E23"/>
<path d="M295.697 29.9448V25.9395H341.822V29.9448H295.697ZM303.772 0.286133V13.5737H338.675V17.5791H299.194V0.286133H303.772ZM303.772 35.6668V47.5239H339.375V51.4657H299.194V35.6668H303.772Z" fill="#FB7E23"/>
<path d="M368.839 0.921867H396.368V4.92722H384.861V21.0758C384.861 34.1727 390.742 40.5304 396.781 43.4549V47.6828C390.265 45.1079 384.765 39.4813 382.54 33.3144C380.41 39.4813 374.688 45.2351 368.299 47.6828V43.4549C374.148 40.6575 380.251 34.1727 380.251 21.0758V4.92722H368.871V0.921867H368.839ZM410.101 0V51.1795H405.46V0H410.101Z" fill="#FB7E23"/>
<path d="M423.933 0.572193H449.904V4.57755H439.192V8.23323C439.192 16.8797 444.627 21.3937 450.794 22.8242V26.9567C444.627 25.6533 439.35 21.9659 436.998 17.1658C434.646 22.093 429.401 26.448 423.043 27.6242V23.4917C429.401 22.0612 434.614 16.9751 434.614 8.20144V4.54576H423.901V0.572193H423.933ZM427.144 51.8153V32.6468H465.195V51.8153H427.144ZM460.617 36.5886H431.785V47.8735H460.617V36.5886ZM465.195 28.5143H460.617V15.2267H449.11V11.2849H460.617V0H465.195V28.5143Z" fill="#FB7E23"/>
<path d="M648.837 325.485H620.641V353.682H648.837V325.485Z" fill="#FB7E23"/>
<path d="M75.5307 273.221H52.7383V334H75.5307V273.221Z" fill="#FB7E23"/>
<path d="M129.316 330.887H0V353.679H118.063C124.261 353.679 129.316 348.657 129.316 342.426V330.887Z" fill="#FB7E23"/>
<path d="M218.197 155.702C230.277 155.702 240.1 165.525 240.1 177.604V309.4C240.1 321.479 230.277 331.302 218.197 331.302C206.118 331.302 196.295 321.479 196.295 309.4V177.604C196.295 165.525 206.118 155.702 218.197 155.702ZM218.197 133.45C193.815 133.45 174.043 153.223 174.043 177.604V309.4C174.043 333.781 193.815 353.554 218.197 353.554C242.579 353.554 262.351 333.781 262.351 309.4V177.604C262.351 153.223 242.579 133.45 218.197 133.45Z" fill="#FB7E23"/>
<path d="M90.8198 156.019C99.212 156.019 106.047 162.853 106.047 171.245V247.379C106.047 255.676 99.2756 262.447 90.9788 262.447H22.252V156.019H90.8198ZM90.8198 133.767H0V284.698H90.9788C111.578 284.698 128.298 267.978 128.298 247.379V171.245C128.298 150.551 111.514 133.767 90.8198 133.767Z" fill="#FB7E23"/>
<path d="M296.94 133.767H287.117V353.521H298.243C304.696 353.521 309.941 348.276 309.941 341.822V146.736C309.941 139.584 304.124 133.767 296.972 133.767H296.94Z" fill="#FB7E23"/>
<path d="M473.968 134.115H463.033V283.712H485.826V146.004C485.826 139.456 480.517 134.147 473.968 134.147V134.115Z" fill="#FB7E23"/>
<path d="M381.624 134.115H358.832V284.475H381.624V134.115Z" fill="#FB7E23"/>
<path d="M429.686 134.115H369.797V156.908H439.032V143.429C439.032 138.28 434.868 134.115 429.718 134.115H429.686Z" fill="#FB7E23"/>
<path d="M439.001 261.685H381.623V284.477H427.43C433.82 284.477 439.001 279.295 439.001 272.906V261.685Z" fill="#FB7E23"/>
<path d="M520.409 261.685H465.701V284.477H511.508C517.898 284.477 520.409 279.295 520.409 272.906V261.685Z" fill="#FB7E23"/>
<path d="M599.436 353.521L558.969 313.055V353.521H599.436Z" fill="#FB7E23"/>
<path d="M571.052 342.519H464.688C429.307 342.17 427.559 319.377 427.559 319.377M427.559 319.377V312.893M427.559 319.377C427.559 319.377 427.495 319.664 427.368 320.172C424.126 333.333 412.173 342.488 398.599 342.488H358.832" stroke="#FB7E23" stroke-width="22.252" stroke-miterlimit="10"/>
</g>
<defs>
<clipPath id="clip0_1314_6694">
<rect width="648.836" height="380" fill="white"/>
</clipPath>
</defs>
</svg>
