<svg width="1344" height="482" viewBox="0 0 1344 482" fill="none" xmlns="http://www.w3.org/2000/svg">
<g filter="url(#filter0_d_864_2767)">
<rect x="72" y="53" width="1200" height="338" rx="16" fill="white"/>
</g>
<path d="M100 53H190V97C190 105.837 182.837 113 174 113H116C107.163 113 100 105.837 100 97V53Z" fill="#FB7E23"/>
<path d="M149.535 70.5469V96H144.227V75.5742H144.086L138.25 79.2305V74.5547L144.543 70.5469H149.535Z" fill="white"/>
<path d="M127.078 229.281V232.469H101.047V229.281H111.922V222.844H115.891V229.281H127.078ZM101.672 220.438C108.109 219.438 111.734 215.109 111.766 211.094V209.062H116.016V211.094C116 215.156 119.672 219.438 126.172 220.438L124.484 223.75C119.484 222.844 115.766 220.172 113.891 216.625C112.031 220.156 108.328 222.859 103.359 223.75L101.672 220.438ZM152.672 207.438V222.219H148.703V217.594H144.047V214.469H148.703V212.656H144.047V209.594H148.703V207.438H152.672ZM128.484 219.438C133.219 218 135.312 214.328 135.328 210.719V208.156H139.359V210.719C139.344 214.156 141.328 217.672 145.828 219.094L143.766 222.156C140.656 221.109 138.531 219 137.344 216.359C136.094 219.172 133.828 221.406 130.547 222.469L128.484 219.438ZM133.766 226.312V223.25H152.672V230.812H137.734V232.5H153.484V235.562H133.797V227.906H148.734V226.312H133.766ZM182.391 229.438V232.719H156.359V229.438H167.328V225.156H159.359V215.594H175.453V212.469H159.328V209.281H179.391V218.719H163.359V221.906H180.047V225.156H171.297V229.438H182.391ZM206.766 210.062V213.469C206.75 217.375 206.75 221.234 205.734 227.125L201.703 226.781C202.781 221.312 202.781 217.25 202.797 213.469V213.25H186.703V210.062H206.766ZM184.016 232.156V228.875H209.953V232.156H184.016ZM235.484 207.469V227.906H231.484V207.469H235.484ZM212.109 216.438C212.109 212.266 215.516 209.266 219.891 209.281C224.25 209.266 227.656 212.266 227.672 216.438C227.656 220.672 224.25 223.656 219.891 223.656C215.516 223.656 212.109 220.672 212.109 216.438ZM216.016 216.438C215.984 218.812 217.656 220.188 219.891 220.188C222.047 220.188 223.719 218.812 223.734 216.438C223.719 214.125 222.047 212.734 219.891 212.75C217.656 212.734 215.984 214.125 216.016 216.438ZM216.422 235.375V225.844H220.453V232.188H236.234V235.375H216.422ZM252.297 208.875C258.297 208.891 263 212.141 263.016 217.062C263 222.031 258.297 225.266 252.297 225.25C246.281 225.266 241.609 222.031 241.609 217.062C241.609 212.141 246.281 208.891 252.297 208.875ZM239.328 232.406V229.188H265.359V232.406H239.328ZM245.484 217.062C245.469 220.156 248.344 222 252.297 222C256.219 222 259.062 220.156 259.078 217.062C259.062 214.016 256.219 212.094 252.297 212.125C248.344 212.094 245.469 214.016 245.484 217.062ZM293.016 229.438V232.719H266.984V229.438H277.953V225.156H269.984V215.594H286.078V212.469H269.953V209.281H290.016V218.719H273.984V221.906H290.672V225.156H281.922V229.438H293.016ZM313.078 213.875C313.062 219.094 315.438 224.328 320.266 226.375L317.922 229.562C314.672 228.094 312.422 225.25 311.125 221.734C309.844 225.578 307.516 228.672 304.047 230.25L301.641 226.938C306.609 224.844 309.031 219.391 309.047 213.875V209.625H313.078V213.875ZM321.797 235.938V207.438H325.828V235.938H321.797ZM345.828 209.094V212.281H340.172C340.188 215.609 342.188 219.031 346.797 220.5L344.766 223.594C341.609 222.562 339.438 220.531 338.203 218C336.938 220.766 334.656 222.984 331.359 224.062L329.234 221C333.938 219.484 336.094 215.828 336.141 212.281H330.328V209.094H345.828ZM333.078 228.969V225.812H352.234V235.875H348.234V228.969H333.078ZM348.234 224.594V207.438H352.234V214.344H356.078V217.656H352.234V224.594H348.234ZM379.766 207.438V218.562H383.953V221.844H379.766V235.875H375.828V207.438H379.766ZM357.172 214.875V211.688H363.609V207.875H367.609V211.688H373.891V214.875H357.172ZM358.328 223.25C358.312 219.281 361.406 216.453 365.609 216.469C369.75 216.453 372.859 219.281 372.859 223.25C372.859 227.219 369.75 230.016 365.609 230.031C361.406 230.016 358.312 227.219 358.328 223.25ZM362.141 223.25C362.141 225.453 363.594 226.766 365.609 226.75C367.594 226.766 369.047 225.453 369.047 223.25C369.047 221.062 367.594 219.719 365.609 219.688C363.594 219.719 362.141 221.062 362.141 223.25ZM408.891 207.438V235.875H404.859V207.438H408.891ZM385.078 227.812C392.422 224.344 395.656 219.844 396.297 213.531H386.609V210.406H400.359C400.344 219.031 397.328 226.203 387.172 231L385.078 227.812Z" fill="#393939"/>
<path d="M116.602 284.066V285.355H100.703V284.066H107.852V279.828H102.578V271.684H114.629V279.828H109.355V284.066H116.602ZM104.082 278.598H113.145V272.914H104.082V278.598ZM132.305 270.219V287.621H130.762V270.219H132.305ZM118.633 277.621C118.643 273.93 120.479 271.576 123.066 271.566C125.645 271.576 127.51 273.93 127.5 277.621C127.51 281.322 125.645 283.666 123.066 283.656C120.479 283.666 118.643 281.322 118.633 277.621ZM120.117 277.621C120.117 280.443 121.328 282.299 123.066 282.289C124.814 282.299 126.016 280.443 126.016 277.621C126.016 274.799 124.814 272.943 123.066 272.934C121.328 272.943 120.117 274.799 120.117 277.621ZM148.848 270.219V275.102H151.465V276.391H148.848V281.684H147.324V270.219H148.848ZM136.074 279.496V271.566H143.789V272.836H137.578V278.227C141.094 278.227 143.115 278.119 145.449 277.641L145.605 278.91C143.174 279.369 141.094 279.506 137.422 279.496H136.074ZM136.953 286.293C140.01 285.766 142.812 283.939 142.812 281.41V280.766H144.336V281.41C144.326 283.939 147.139 285.766 150.215 286.293L149.59 287.504C147.012 287.025 144.629 285.697 143.594 283.686C142.529 285.697 140.137 287.025 137.559 287.504L136.953 286.293ZM168.379 279.379V280.629H152.559V279.379H168.379ZM154.316 274.281C154.316 272.104 156.699 270.824 160.469 270.844C164.199 270.824 166.592 272.104 166.602 274.281C166.592 276.439 164.199 277.738 160.469 277.738C156.699 277.738 154.316 276.439 154.316 274.281ZM154.609 287.211V282.152H156.152V285.922H166.621V287.211H154.609ZM155.898 274.281C155.889 275.658 157.666 276.488 160.469 276.488C163.252 276.488 165.029 275.658 165.039 274.281C165.029 272.924 163.252 272.074 160.469 272.074C157.666 272.074 155.889 272.924 155.898 274.281ZM180.684 274.887C180.684 277.943 182.705 281.098 185.176 282.309L184.238 283.539C182.324 282.543 180.723 280.482 179.951 278.07C179.18 280.629 177.539 282.826 175.586 283.871L174.609 282.641C177.148 281.391 179.16 278.061 179.18 274.887V271.723H180.684V274.887ZM186.777 287.582V270.219H188.301V277.27H191.211V278.598H188.301V287.582H186.777ZM207.969 278.812V280.082H192.148V278.812H196.074V276.361C194.688 275.824 193.906 274.945 193.906 273.773C193.906 271.732 196.25 270.561 200.059 270.551C203.838 270.561 206.182 271.732 206.191 273.773C206.182 274.936 205.41 275.814 204.043 276.361V278.812H207.969ZM194.062 284.477C194.053 282.494 196.289 281.4 200.059 281.41C203.779 281.4 206.016 282.494 206.035 284.477C206.016 286.459 203.779 287.543 200.059 287.543C196.289 287.543 194.053 286.459 194.062 284.477ZM195.488 273.773C195.479 275.043 197.217 275.775 200.059 275.785C202.871 275.775 204.619 275.043 204.629 273.773C204.619 272.523 202.871 271.762 200.059 271.762C197.217 271.762 195.479 272.523 195.488 273.773ZM195.625 284.477C195.605 285.658 197.275 286.361 200.059 286.352C202.812 286.361 204.482 285.658 204.492 284.477C204.482 283.295 202.812 282.602 200.059 282.582C197.275 282.602 195.605 283.295 195.625 284.477ZM197.598 278.812H202.52V276.771C201.787 276.908 200.967 276.977 200.059 276.977C199.15 276.977 198.33 276.908 197.598 276.781V278.812ZM215.312 275.551C215.293 278.334 217.305 281.4 219.824 282.602L218.945 283.812C216.992 282.855 215.342 280.805 214.561 278.451C213.76 281 212.021 283.246 210.078 284.242L209.141 283.031C211.641 281.811 213.789 278.51 213.809 275.551V273.285H209.766V272.016H219.219V273.285H215.312V275.551ZM221.348 287.582V270.219H222.871V277.25H225.781V278.559H222.871V287.582H221.348ZM232.402 271.488C235.127 271.498 237.061 273.158 237.07 275.57C237.061 277.992 235.127 279.643 232.402 279.652C229.658 279.643 227.705 277.992 227.715 275.57C227.705 273.158 229.658 271.498 232.402 271.488ZM226.816 282.484C230.02 282.494 234.443 282.465 238.281 281.898L238.398 283.031C234.424 283.773 230.156 283.793 227.031 283.793L226.816 282.484ZM229.219 275.57C229.209 277.191 230.547 278.305 232.402 278.305C234.238 278.305 235.576 277.191 235.566 275.57C235.576 273.959 234.238 272.836 232.402 272.836C230.547 272.836 229.209 273.959 229.219 275.57ZM239.434 287.621V270.219H240.957V287.621H239.434ZM249.043 277.172L250.566 271.859H252.012L250.938 277.172H249.043ZM269.336 284.066V285.355H253.438V284.066H260.586V279.828H255.312V271.684H267.363V279.828H262.09V284.066H269.336ZM256.816 278.598H265.879V272.914H256.816V278.598ZM285.039 270.219V287.621H283.496V270.219H285.039ZM271.367 277.621C271.377 273.93 273.213 271.576 275.801 271.566C278.379 271.576 280.244 273.93 280.234 277.621C280.244 281.322 278.379 283.666 275.801 283.656C273.213 283.666 271.377 281.322 271.367 277.621ZM272.852 277.621C272.852 280.443 274.062 282.299 275.801 282.289C277.549 282.299 278.75 280.443 278.75 277.621C278.75 274.799 277.549 272.943 275.801 272.934C274.062 272.943 272.852 274.799 272.852 277.621ZM301.582 270.219V275.102H304.199V276.391H301.582V281.684H300.059V270.219H301.582ZM288.809 279.496V271.566H296.523V272.836H290.312V278.227C293.828 278.227 295.85 278.119 298.184 277.641L298.34 278.91C295.908 279.369 293.828 279.506 290.156 279.496H288.809ZM289.688 286.293C292.744 285.766 295.547 283.939 295.547 281.41V280.766H297.07V281.41C297.061 283.939 299.873 285.766 302.949 286.293L302.324 287.504C299.746 287.025 297.363 285.697 296.328 283.686C295.264 285.697 292.871 287.025 290.293 287.504L289.688 286.293ZM313.945 272.777C313.955 275.756 317.354 278.402 320.371 278.969L319.668 280.258C317.041 279.652 314.287 277.787 313.164 275.238C312.031 277.787 309.287 279.643 306.66 280.258L305.957 278.969C308.965 278.393 312.334 275.766 312.344 272.777V271.449H313.945V272.777ZM305.293 285.219V283.949H321.191V285.219H305.293ZM337.52 270.219V287.582H336.035V270.219H337.52ZM322.383 281.977C322.92 281.977 323.545 281.977 324.219 281.967V273.715H322.754V272.445H330.742V273.715H329.277V281.762C329.932 281.703 330.557 281.645 331.133 281.566L331.23 282.699C328.486 283.207 324.844 283.295 322.578 283.285L322.383 281.977ZM325.625 281.938C326.348 281.918 327.109 281.889 327.852 281.85V273.715H325.625V281.938ZM330.234 278.207V276.82H332.656V270.648H334.121V286.664H332.656V278.207H330.234ZM354.18 270.219V287.621H352.637V270.219H354.18ZM340.508 277.621C340.518 273.93 342.354 271.576 344.941 271.566C347.52 271.576 349.385 273.93 349.375 277.621C349.385 281.322 347.52 283.666 344.941 283.656C342.354 283.666 340.518 281.322 340.508 277.621ZM341.992 277.621C341.992 280.443 343.203 282.299 344.941 282.289C346.689 282.299 347.891 280.443 347.891 277.621C347.891 274.799 346.689 272.943 344.941 272.934C343.203 272.943 341.992 274.799 341.992 277.621ZM365.801 272.777C365.811 275.756 369.209 278.402 372.227 278.969L371.523 280.258C368.896 279.652 366.143 277.787 365.02 275.238C363.887 277.787 361.143 279.643 358.516 280.258L357.812 278.969C360.82 278.393 364.189 275.766 364.199 272.777V271.449H365.801V272.777ZM357.148 285.219V283.949H373.047V285.219H357.148ZM377.422 271.879L375.898 277.191H374.453L375.527 271.879H377.422ZM398.184 270.219V287.582H396.641V270.219H398.184ZM384.258 274.301V273.051H388.73V270.395H390.273V273.051H394.766V274.301H384.258ZM385.234 279.711C385.225 277.367 387.031 275.727 389.551 275.727C392.041 275.727 393.857 277.367 393.848 279.711C393.857 282.064 392.041 283.695 389.551 283.695C387.031 283.695 385.225 282.064 385.234 279.711ZM386.68 279.711C386.689 281.293 387.891 282.406 389.551 282.387C391.191 282.406 392.393 281.293 392.383 279.711C392.393 278.139 391.191 277.006 389.551 277.016C387.891 277.006 386.689 278.139 386.68 279.711ZM409.805 272.777C409.814 275.756 413.213 278.402 416.23 278.969L415.527 280.258C412.9 279.652 410.146 277.787 409.023 275.238C407.891 277.787 405.146 279.643 402.52 280.258L401.816 278.969C404.824 278.393 408.193 275.766 408.203 272.777V271.449H409.805V272.777ZM401.152 285.219V283.949H417.051V285.219H401.152ZM432.5 279.262V280.512H427.109V284.145H434.336V285.414H418.438V284.145H425.586V280.512H420.488V271.645H432.305V272.914H422.051V275.395H431.934V276.645H422.051V279.262H432.5ZM450.059 270.219V287.621H448.535V270.219H450.059ZM436.699 273.109V271.84H444.785V278.012H438.301V282.113C441.182 282.123 443.75 281.986 446.855 281.488L447.012 282.777C443.818 283.275 441.182 283.402 438.184 283.402H436.738V276.762H443.242V273.109H436.699ZM468.887 278.285V279.496H452.988V278.285H468.887ZM454.902 282.035V280.883H466.895V284.574H456.465V286.234H467.461V287.348H454.922V283.52H465.371V282.035H454.902ZM455 271.859V270.746H466.836V274.34H456.582V275.863H467.148V276.977H455.059V273.285H465.293V271.859H455ZM115.098 302.219V319.621H113.555V309.816H109.746V308.547H113.555V302.219H115.098ZM100.547 314.953C103.066 313.732 105.166 310.461 105.176 307.375V305.285H101.211V304.016H110.703V305.285H106.719V307.375C106.729 310.266 108.799 313.41 111.328 314.562L110.41 315.793C108.428 314.816 106.758 312.717 105.967 310.295C105.186 312.873 103.467 315.109 101.484 316.145L100.547 314.953ZM123.867 305.52C123.877 307.795 125.576 309.826 128.125 310.656L127.402 311.867C125.4 311.203 123.887 309.826 123.135 308.078C122.393 310.07 120.791 311.623 118.711 312.375L117.93 311.145C120.527 310.266 122.344 308.029 122.363 305.52V304.777H118.398V303.508H127.773V304.777H123.867V305.52ZM120.234 316.34C120.244 314.338 122.422 313.176 125.996 313.176C129.561 313.176 131.719 314.338 131.719 316.34C131.719 318.371 129.561 319.543 125.996 319.543C122.422 319.543 120.244 318.371 120.234 316.34ZM121.777 316.34C121.758 317.59 123.379 318.322 125.996 318.312C128.623 318.322 130.225 317.59 130.234 316.34C130.225 315.129 128.623 314.406 125.996 314.406C123.379 314.406 121.758 315.129 121.777 316.34ZM130.039 312.707V302.219H131.562V306.652H134.18V307.941H131.562V312.707H130.039ZM148.711 302.219V309.387H151.621V310.656H148.711V319.582H147.188V302.219H148.711ZM135.176 306.281V305.012H139.648V302.434H141.172V305.012H145.508V306.281H135.176ZM136.172 311.711C136.162 309.367 137.959 307.727 140.43 307.727C142.881 307.727 144.668 309.367 144.688 311.711C144.668 314.064 142.881 315.695 140.43 315.695C137.959 315.695 136.162 314.064 136.172 311.711ZM137.637 311.711C137.627 313.293 138.809 314.406 140.43 314.387C142.031 314.406 143.203 313.293 143.223 311.711C143.203 310.139 142.031 309.006 140.43 309.016C138.809 309.006 137.627 310.139 137.637 311.711ZM166.914 302.219V319.582H165.371V302.219H166.914ZM152.773 315.07C157.471 312.844 159.873 309.514 160.215 305.363H153.574V304.113H161.777C161.758 309.104 159.434 313.527 153.613 316.32L152.773 315.07ZM180.586 303.078C183.184 303.059 185.049 304.494 185.039 306.613C185.049 308.732 183.184 310.178 180.586 310.168C177.988 310.178 176.133 308.732 176.133 306.613C176.133 304.494 177.988 303.059 180.586 303.078ZM174.824 311.652C178.086 311.662 182.549 311.594 186.406 311.027L186.504 312.18C184.844 312.482 183.125 312.668 181.445 312.775V319.055H179.922V312.863C178.154 312.941 176.484 312.951 175.039 312.961L174.824 311.652ZM177.637 306.613C177.617 307.971 178.857 308.908 180.586 308.898C182.334 308.908 183.584 307.971 183.574 306.613C183.584 305.266 182.334 304.309 180.586 304.328C178.857 304.309 177.617 305.266 177.637 306.613ZM187.676 319.602V302.238H189.18V319.602H187.676ZM200.82 305.227V306.477H192.109V305.227H195.723V302.746H197.246V305.227H200.82ZM192.734 311.594C192.734 309.289 194.307 307.658 196.465 307.648C198.652 307.658 200.215 309.289 200.234 311.594C200.215 313.928 198.652 315.568 196.465 315.578C194.307 315.568 192.734 313.928 192.734 311.594ZM194.102 311.594C194.102 313.137 195.088 314.24 196.465 314.23C197.852 314.24 198.867 313.137 198.867 311.594C198.867 310.07 197.852 308.957 196.465 308.938C195.088 308.957 194.102 310.07 194.102 311.594ZM201.719 318.723V302.648H203.164V309.543H205.469V302.219H206.934V319.582H205.469V310.812H203.164V318.723H201.719ZM230.352 316.047V317.316H214.453V316.047H221.562V311.789H223.066V316.047H230.352ZM215.078 310.715C218.115 310.197 221.494 307.658 221.504 304.738V303.41H223.105V304.738C223.115 307.639 226.543 310.197 229.57 310.715L228.887 311.984C226.24 311.438 223.447 309.65 222.324 307.15C221.182 309.641 218.418 311.438 215.762 311.984L215.078 310.715ZM246.133 302.219V311.34H244.59V308.41H241.113V307.18H244.59V305.266H241.113V304.055H244.59V302.219H246.133ZM231.738 310.188C234.326 309.289 236.133 306.975 236.152 304.523V302.668H237.656V304.523C237.637 306.838 239.434 308.996 241.953 309.855L241.152 311.047C239.209 310.334 237.656 308.879 236.904 307.053C236.162 309.035 234.57 310.627 232.559 311.379L231.738 310.188ZM234.883 313.41V312.18H246.133V316.262H236.426V318.117H246.777V319.348H234.922V315.09H244.609V313.41H234.883ZM264.922 316.145V317.434H249.023V316.145H256.172V312.863H251.016V307.512H261.406V304.777H250.977V303.508H262.91V308.762H252.539V311.594H263.32V312.863H257.676V316.145H264.922ZM280 304.074V305.812C280 308 280 310.471 279.355 314.25L277.793 314.094C278.496 310.539 278.496 307.941 278.496 305.812V305.344H268.027V304.074H280ZM266.309 317.023V315.754H282.129V317.023H266.309ZM297.93 302.238V314.934H296.406V302.238H297.93ZM284.004 307.707C283.994 305.207 285.957 303.459 288.555 303.449C291.152 303.459 293.096 305.207 293.105 307.707C293.096 310.236 291.152 311.994 288.555 311.984C285.957 311.994 283.994 310.236 284.004 307.707ZM285.508 307.707C285.488 309.436 286.797 310.637 288.555 310.637C290.283 310.637 291.602 309.436 291.602 307.707C291.602 306.008 290.283 304.797 288.555 304.797C286.797 304.797 285.488 306.008 285.508 307.707ZM286.719 319.211V313.645H288.242V317.922H298.477V319.211H286.719ZM320.293 302.219V312.57H318.75V308.02H315.254V306.75H318.75V302.219H320.293ZM305.977 311.184C308.555 310.256 310.391 307.902 310.391 305.422V304.777H306.465V303.488H315.82V304.777H311.934V305.402C311.934 307.668 313.672 309.826 316.211 310.695L315.41 311.926C313.467 311.223 311.953 309.758 311.201 307.971C310.459 310.002 308.848 311.623 306.777 312.414L305.977 311.184ZM308.711 316.34C308.701 314.299 310.918 313.107 314.531 313.117C318.135 313.107 320.352 314.299 320.352 316.34C320.352 318.391 318.135 319.562 314.531 319.582C310.918 319.562 308.701 318.391 308.711 316.34ZM310.234 316.34C310.225 317.6 311.865 318.361 314.531 318.352C317.188 318.361 318.828 317.6 318.828 316.34C318.828 315.07 317.188 314.309 314.531 314.309C311.865 314.309 310.225 315.07 310.234 316.34ZM339.082 316.086V317.355H323.184V316.086H330.332V312.336H325.059V303.449H326.602V306.594H335.625V303.449H337.129V312.336H331.836V316.086H339.082ZM326.602 311.086H335.625V307.844H326.602V311.086ZM356.348 310.285V311.496H340.449V310.285H356.348ZM342.363 314.035V312.883H354.355V316.574H343.926V318.234H354.922V319.348H342.383V315.52H352.832V314.035H342.363ZM342.461 303.859V302.746H354.297V306.34H344.043V307.863H354.609V308.977H342.52V305.285H352.754V303.859H342.461ZM371.484 303.84C371.494 306.291 374.678 308.4 377.812 308.84L377.188 310.09C374.492 309.641 371.816 308.146 370.703 306.018C369.59 308.166 366.924 309.641 364.219 310.09L363.594 308.84C366.729 308.4 369.902 306.33 369.902 303.84V302.844H371.484V303.84ZM362.773 313.293V312.004H378.594V313.293H371.406V319.582H369.902V313.293H362.773ZM386.309 305.09C386.318 307.355 388.193 309.367 390.781 310.148L390 311.359C387.969 310.715 386.338 309.318 385.557 307.521C384.785 309.445 383.145 310.949 381.074 311.652L380.273 310.441C382.891 309.611 384.756 307.473 384.766 305.09V304.641H380.703V303.391H390.312V304.641H386.309V305.09ZM383.145 319.348V312.473H384.668V314.582H392.871V312.473H394.395V319.348H383.145ZM384.668 318.098H392.871V315.812H384.668V318.098ZM392.871 311.613V302.219H394.395V311.613H392.871ZM406.016 305.227V306.477H397.305V305.227H400.918V302.746H402.441V305.227H406.016ZM397.93 311.594C397.93 309.289 399.502 307.658 401.66 307.648C403.848 307.658 405.41 309.289 405.43 311.594C405.41 313.928 403.848 315.568 401.66 315.578C399.502 315.568 397.93 313.928 397.93 311.594ZM399.297 311.594C399.297 313.137 400.283 314.24 401.66 314.23C403.047 314.24 404.062 313.137 404.062 311.594C404.062 310.07 403.047 308.957 401.66 308.938C400.283 308.957 399.297 310.07 399.297 311.594ZM406.914 318.723V302.648H408.359V309.543H410.664V302.219H412.129V319.582H410.664V310.812H408.359V318.723H406.914ZM430.527 316.066V317.355H414.629V316.066H418.574V311.389C417.09 310.617 416.191 309.367 416.191 307.785C416.191 305.1 418.828 303.332 422.539 303.312C426.25 303.332 428.887 305.1 428.887 307.785C428.887 309.338 428.018 310.568 426.582 311.34V316.066H430.527ZM417.676 307.785C417.666 309.729 419.688 311.027 422.539 311.027C425.361 311.027 427.402 309.729 427.402 307.785C427.402 305.842 425.361 304.562 422.539 304.582C419.688 304.562 417.666 305.842 417.676 307.785ZM420.078 316.066H425.039V311.936C424.287 312.131 423.447 312.238 422.539 312.238C421.65 312.238 420.82 312.141 420.078 311.945V316.066ZM433.75 318.117C433.066 318.107 432.48 317.541 432.5 316.848C432.48 316.164 433.066 315.598 433.75 315.598C434.443 315.598 435.01 316.164 435 316.848C435.01 317.541 434.443 318.107 433.75 318.117ZM116.523 343.203V344.473H100.703V343.203H107.852V341.113H102.812V334.629H104.336V336.641H112.93V334.629H114.453V341.113H109.375V343.203H116.523ZM102.461 347.422V346.191H114.57V351.582H113.027V347.422H102.461ZM104.336 339.883H112.93V337.812H104.336V339.883ZM123.867 337.266C123.848 339.512 125.576 341.543 128.145 342.363L127.402 343.555C125.391 342.9 123.857 341.533 123.105 339.805C122.363 341.729 120.752 343.213 118.672 343.926L117.871 342.715C120.488 341.836 122.314 339.727 122.324 337.285V336.66H118.379V335.391H127.734V336.66H123.867V337.266ZM120.566 351.348V344.57H122.09V346.699H130.039V344.57H131.562V351.348H120.566ZM122.09 350.098H130.039V347.91H122.09V350.098ZM130.039 343.73V334.219H131.562V338.242H134.18V339.531H131.562V343.73H130.039ZM148.848 334.238V339.961H151.465V341.25H148.848V347.246H147.324V334.238H148.848ZM135.312 337.617V336.367H139.727V334.238H141.25V336.367H145.664V337.617H135.312ZM136.309 341.816C136.299 339.844 137.979 338.574 140.488 338.574C142.969 338.574 144.648 339.844 144.668 341.816C144.648 343.77 142.969 345.029 140.488 345.02C137.979 345.029 136.299 343.77 136.309 341.816ZM137.773 341.816C137.764 343.037 138.848 343.828 140.488 343.809C142.109 343.828 143.203 343.037 143.223 341.816C143.203 340.576 142.109 339.775 140.488 339.785C138.848 339.775 137.764 340.576 137.773 341.816ZM137.988 351.211V346.211H139.492V349.922H149.648V351.211H137.988ZM171.816 334.219V351.582H170.293V334.219H171.816ZM157.676 346.953C159.16 346.943 160.859 346.934 162.617 346.875V344.98C160.527 344.766 159.18 343.574 159.199 341.836C159.18 339.873 160.85 338.604 163.359 338.613C165.869 338.604 167.568 339.873 167.559 341.836C167.568 343.555 166.221 344.746 164.16 344.98V346.816C165.84 346.738 167.539 346.621 169.141 346.406L169.258 347.578C165.381 348.203 161.133 348.262 157.91 348.262L157.676 346.953ZM158.047 337.617V336.367H162.617V334.238H164.16V336.367H168.691V337.617H158.047ZM160.625 341.836C160.615 343.037 161.748 343.828 163.359 343.809C164.98 343.828 166.104 343.037 166.094 341.836C166.104 340.625 164.98 339.805 163.359 339.805C161.748 339.805 160.615 340.625 160.625 341.836ZM189.18 334.238V347.422H187.637V345.625H184.043V344.512H187.637V334.238H189.18ZM174.766 342.285C177.998 342.266 182.354 342.236 186.074 341.777L186.172 342.891C184.629 343.135 182.998 343.291 181.406 343.389V346.816H179.863V343.467C178.105 343.535 176.436 343.535 174.98 343.535L174.766 342.285ZM176.172 337.969C176.162 336.143 177.9 334.941 180.469 334.941C183.018 334.941 184.756 336.143 184.766 337.969C184.756 339.824 183.018 340.977 180.469 340.977C177.9 340.977 176.162 339.824 176.172 337.969ZM177.266 351.211V346.133H178.809V349.922H189.609V351.211H177.266ZM177.637 337.969C177.617 339.102 178.77 339.834 180.469 339.844C182.119 339.834 183.291 339.102 183.301 337.969C183.291 336.855 182.119 336.094 180.469 336.113C178.77 336.094 177.617 336.855 177.637 337.969ZM205.586 334.219V341.289H208.398V342.578H205.586V351.582H204.062V334.219H205.586ZM192.266 347.07C196.748 344.844 199.189 341.494 199.541 337.383H193.066V336.094H201.094C201.084 341.006 198.779 345.488 193.125 348.281L192.266 347.07ZM223.77 334.219V343.535H222.246V334.219H223.77ZM209.844 339.062C209.834 336.689 211.758 335.059 214.395 335.078C217.031 335.059 218.936 336.689 218.945 339.062C218.936 341.426 217.031 343.057 214.395 343.047C211.758 343.057 209.834 341.426 209.844 339.062ZM211.348 339.062C211.328 340.645 212.607 341.768 214.395 341.777C216.162 341.768 217.441 340.645 217.441 339.062C217.441 337.471 216.162 336.357 214.395 336.367C212.607 336.357 211.328 337.471 211.348 339.062ZM212.52 351.348V344.414H214.043V346.523H222.246V344.414H223.77V351.348H212.52ZM214.043 350.098H222.246V347.754H214.043V350.098ZM237.754 336.914C237.744 338.975 239.502 340.977 242.012 341.777L241.25 342.988C239.277 342.344 237.744 340.996 236.992 339.307C236.221 341.172 234.609 342.695 232.578 343.398L231.816 342.188C234.346 341.309 236.211 339.141 236.211 336.895V336.406H232.285V335.137H241.641V336.406H237.754V336.914ZM234.863 345.312V344.062H246.113V348.223H236.426V350.156H246.777V351.387H234.902V347.051H244.59V345.312H234.863ZM241.094 339.375V338.105H244.59V334.219H246.113V343.203H244.59V339.375H241.094ZM254.805 339.883C254.814 342.666 256.621 345.508 259.141 346.719L258.242 347.91C256.328 346.973 254.814 345.068 254.092 342.832C253.33 345.254 251.719 347.266 249.746 348.223L248.867 347.031C251.416 345.84 253.311 342.871 253.32 339.883V338.496H249.336V337.246H253.301V334.551H254.844V337.246H258.75V338.496H254.805V339.883ZM260.938 351.582V334.219H262.461V341.348H265.371V342.656H262.461V351.582H260.938ZM279.746 334.219V341.289H282.559V342.578H279.746V351.582H278.223V334.219H279.746ZM266.426 347.07C270.908 344.844 273.35 341.494 273.701 337.383H267.227V336.094H275.254C275.244 341.006 272.939 345.488 267.285 348.281L266.426 347.07ZM292.07 344.414V346.582H295.234V344.414H296.66V351.348H290.625V344.414H292.07ZM288.887 338.984C288.877 336.611 290.752 335 293.398 335C295.732 335 297.5 336.318 297.832 338.32H301.465V334.219H303.008V343.418H301.465V339.59H297.842C297.539 341.641 295.752 342.988 293.398 342.988C290.752 342.988 288.877 341.367 288.887 338.984ZM290.352 338.984C290.352 340.576 291.611 341.709 293.398 341.719C295.146 341.709 296.406 340.576 296.406 338.984C296.406 337.402 295.146 336.289 293.398 336.289C291.611 336.289 290.352 337.402 290.352 338.984ZM292.07 350.137H295.234V347.754H292.07V350.137ZM296.895 350.312C298.984 349.443 300.088 347.539 300.098 345.781V344.297H301.621V345.781C301.602 347.607 302.705 349.531 304.824 350.312L304.023 351.484C302.422 350.85 301.377 349.619 300.84 348.184C300.293 349.6 299.229 350.83 297.695 351.484L296.895 350.312ZM313.809 335.352C317.432 335.361 320.156 337.256 320.156 340.117C320.156 343.008 317.432 344.902 313.809 344.883C310.186 344.902 307.461 343.008 307.461 340.117C307.461 337.256 310.186 335.361 313.809 335.352ZM305.898 349.277V347.988H321.797V349.277H305.898ZM308.926 340.117C308.906 342.227 311.006 343.633 313.809 343.633C316.592 343.633 318.672 342.227 318.672 340.117C318.672 338.037 316.592 336.592 313.809 336.602C311.006 336.592 308.906 338.037 308.926 340.117ZM337.5 334.219V351.582H335.977V334.219H337.5ZM324.316 347.109V335.938H325.82V345.781C328.477 345.762 331.211 345.557 334.121 344.941L334.336 346.25C331.25 346.895 328.506 347.109 325.723 347.109H324.316ZM359.062 334.219V339.512H361.68V340.801H359.062V346.934H357.52V334.219H359.062ZM345.508 343.691C349.678 342.393 352.383 339.922 352.705 336.855H346.23V335.566H354.375C354.375 340.039 351.182 343.359 346.172 344.922L345.508 343.691ZM348.184 351.211V345.645H349.707V349.922H359.863V351.211H348.184ZM377.168 334.219V347.148H375.625V342.109H372.656V340.82H375.625V338.809H372.656V337.539H375.625V334.219H377.168ZM362.812 343.203C363.506 343.203 364.258 343.193 365.059 343.184V336.895H363.301V335.645H372.52V336.895H370.742V342.979C371.543 342.93 372.334 342.861 373.086 342.773L373.164 343.926C369.795 344.443 365.83 344.502 363.008 344.512L362.812 343.203ZM365.977 351.211V346.074H367.52V349.922H377.637V351.211H365.977ZM366.543 343.154C367.432 343.135 368.35 343.105 369.258 343.066V336.895H366.543V343.154ZM393.496 334.219V341.387H396.406V342.656H393.496V351.582H391.973V334.219H393.496ZM379.961 338.281V337.012H384.434V334.434H385.957V337.012H390.293V338.281H379.961ZM380.957 343.711C380.947 341.367 382.744 339.727 385.215 339.727C387.666 339.727 389.453 341.367 389.473 343.711C389.453 346.064 387.666 347.695 385.215 347.695C382.744 347.695 380.947 346.064 380.957 343.711ZM382.422 343.711C382.412 345.293 383.594 346.406 385.215 346.387C386.816 346.406 387.988 345.293 388.008 343.711C387.988 342.139 386.816 341.006 385.215 341.016C383.594 341.006 382.412 342.139 382.422 343.711ZM412.207 334.219V351.582H410.742V334.219H412.207ZM397.363 346.719C401.133 344.482 403.027 341.348 403.32 337.715H398.105V336.445H404.844C404.844 338.154 404.57 339.805 403.975 341.348H407.09V334.688H408.555V350.703H407.09V342.598H403.408C402.363 344.619 400.684 346.406 398.262 347.832L397.363 346.719ZM425.82 338.887C425.811 342.061 427.969 345.244 430.527 346.406L429.59 347.617C427.607 346.66 425.898 344.6 425.068 342.129C424.268 344.746 422.559 346.943 420.527 347.969L419.551 346.68C422.139 345.498 424.277 342.178 424.297 338.887V335.723H425.82V338.887ZM432.422 351.621V334.219H433.965V351.621H432.422ZM442.812 337.441C442.822 339.756 444.521 341.865 447.09 342.754L446.309 343.945C444.326 343.242 442.812 341.826 442.07 340.029C441.328 342.002 439.736 343.535 437.695 344.277L436.875 343.086C439.473 342.168 441.289 339.932 441.309 337.441V336.699H437.344V335.449H446.719V336.699H442.812V337.441ZM439.141 346.855V345.605H450.508V351.582H448.984V346.855H439.141ZM448.984 344.688V334.219H450.508V338.809H453.125V340.117H450.508V344.688H448.984ZM467.656 334.219V341.387H470.566V342.656H467.656V351.582H466.133V334.219H467.656ZM454.121 338.281V337.012H458.594V334.434H460.117V337.012H464.453V338.281H454.121ZM455.117 343.711C455.107 341.367 456.904 339.727 459.375 339.727C461.826 339.727 463.613 341.367 463.633 343.711C463.613 346.064 461.826 347.695 459.375 347.695C456.904 347.695 455.107 346.064 455.117 343.711ZM456.582 343.711C456.572 345.293 457.754 346.406 459.375 346.387C460.977 346.406 462.148 345.293 462.168 343.711C462.148 342.139 460.977 341.006 459.375 341.016C457.754 341.006 456.572 342.139 456.582 343.711ZM485.82 334.219V343.223H484.316V334.219H485.82ZM471.621 341.836C474.238 340.928 476.094 338.604 476.094 336.055V334.727H477.656V336.055C477.637 338.506 479.512 340.674 482.09 341.523L481.328 342.715C479.287 342.021 477.676 340.566 476.895 338.691C476.113 340.713 474.482 342.305 472.422 343.047L471.621 341.836ZM474.551 345.332V344.102H485.84V348.262H476.094V350.137H486.465V351.387H474.59V347.07H484.316V345.332H474.551ZM502.52 335.84C502.529 338.291 505.713 340.4 508.848 340.84L508.223 342.09C505.527 341.641 502.852 340.146 501.738 338.018C500.625 340.166 497.959 341.641 495.254 342.09L494.629 340.84C497.764 340.4 500.938 338.33 500.938 335.84V334.844H502.52V335.84ZM493.809 345.293V344.004H509.629V345.293H502.441V351.582H500.938V345.293H493.809ZM521.992 345.879C521.982 347.412 522.812 349.043 524.463 349.98C526.123 348.955 527.002 347.217 526.992 345.879V344.922H528.496V345.879C528.486 347.666 529.805 349.443 532.031 350.215L531.27 351.348C529.531 350.732 528.32 349.521 527.715 348.066C527.178 349.473 526.113 350.811 524.512 351.484C522.822 350.84 521.748 349.57 521.23 348.115C520.605 349.512 519.414 350.723 517.754 351.348L516.973 350.215C519.17 349.395 520.488 347.539 520.508 345.879V344.922H521.992V345.879ZM516.523 339.316C516.514 336.895 518.438 335.244 521.074 335.254C523.711 335.244 525.615 336.895 525.625 339.316C525.615 341.699 523.711 343.34 521.074 343.34C518.438 343.34 516.514 341.699 516.523 339.316ZM518.027 339.316C518.008 340.928 519.287 342.061 521.074 342.07C522.842 342.061 524.121 340.928 524.121 339.316C524.121 337.695 522.842 336.543 521.074 336.562C519.287 336.543 518.008 337.695 518.027 339.316ZM528.926 344.16V334.238H530.449V344.16H528.926ZM538.066 335.566C540.43 335.576 542.139 337.607 542.373 340.859H546.27V334.219H547.793V351.621H546.27V342.129H542.393C542.227 345.537 540.488 347.666 538.066 347.656C535.498 347.666 533.701 345.322 533.711 341.621C533.701 337.93 535.498 335.576 538.066 335.566ZM535.176 341.621C535.186 344.443 536.357 346.299 538.066 346.289C539.766 346.299 540.957 344.443 540.957 341.621C540.957 338.799 539.766 336.943 538.066 336.934C536.357 336.943 535.186 338.799 535.176 341.621ZM566.582 348.066V349.355H550.684V348.066H554.629V343.389C553.145 342.617 552.246 341.367 552.246 339.785C552.246 337.1 554.883 335.332 558.594 335.312C562.305 335.332 564.941 337.1 564.941 339.785C564.941 341.338 564.072 342.568 562.637 343.34V348.066H566.582ZM553.73 339.785C553.721 341.729 555.742 343.027 558.594 343.027C561.416 343.027 563.457 341.729 563.457 339.785C563.457 337.842 561.416 336.562 558.594 336.582C555.742 336.562 553.721 337.842 553.73 339.785ZM556.133 348.066H561.094V343.936C560.342 344.131 559.502 344.238 558.594 344.238C557.705 344.238 556.875 344.141 556.133 343.945V348.066ZM569.805 350.117C569.121 350.107 568.535 349.541 568.555 348.848C568.535 348.164 569.121 347.598 569.805 347.598C570.498 347.598 571.064 348.164 571.055 348.848C571.064 349.541 570.498 350.107 569.805 350.117Z" fill="#B0B0B0"/>
<path fill-rule="evenodd" clip-rule="evenodd" d="M1034.2 338.754C1028.94 334.05 1021.01 333.213 1015.12 337.094C993.128 351.574 966.798 360 938.5 360C861.456 360 799 297.544 799 220.5C799 143.456 861.456 81 938.5 81C967.245 81 993.959 89.694 1016.16 104.596C1022.55 108.889 1031.37 107.527 1037.12 102.406C1047.19 93.4446 1060.46 88 1075 88C1106.48 88 1132 113.52 1132 145C1132 153.07 1130.32 160.749 1127.3 167.706C1123.05 177.48 1126.77 192.261 1136.01 197.569C1162.3 212.664 1180 241.015 1180 273.5C1180 321.825 1140.82 361 1092.5 361C1070.11 361 1049.68 352.589 1034.2 338.754Z" fill="#FFEFE4"/>
<path d="M742.458 187.203L894.711 112.673L1136.19 228.586L1007.5 361.541L742.458 187.203Z" fill="url(#paint0_linear_864_2767)" fill-opacity="0.1"/>
<g opacity="0.6">
<path d="M963.745 201.31C963.998 202.017 963.648 203.272 963.442 203.811L952.161 209.634L952.363 207.967C952.767 204.632 949.9 203.861 949.483 203.81L949.482 203.81C949.065 203.76 947.396 203.558 941.625 205.819C935.851 208.08 928.006 213.474 921.512 218.186C915.019 222.897 912.113 225.929 911.443 227.963C910.773 229.997 912.39 230.616 913.174 231.134C913.8 231.549 918.193 231.602 920.311 231.577L910.23 237.969C904.105 238.241 901.875 237.096 901.525 236.49C900.637 235.677 899.388 233.185 901.5 229.719C904.141 225.386 910.167 221.04 913.49 218.059C916.812 215.078 927.829 207.953 937.809 202.395C947.79 196.837 955.13 195.612 959.197 196.951C963.265 198.29 963.429 200.425 963.745 201.31Z" fill="#FFA767"/>
<path d="M875.941 220.697L931.175 183.823L935.559 186.047L889.99 216.478L898.289 221.292L888.208 227.683L875.941 220.697Z" fill="#FFA767"/>
<path d="M830.679 193.106L878.308 156.156L882.275 158.33L845.549 185.603L889.059 161.69L892.192 163.762L856.198 191.97L899.443 166.757L903.41 168.93L845.245 202.064L840.495 199.373L874.568 173.047L834.229 195.229L830.679 193.106Z" fill="#FFA767"/>
<path d="M855.429 208.48L909.678 172.756L921.262 178.391L912.014 184.884L904.447 181.005L892.913 188.913L899.229 192.64L889.615 198.666L883.248 195.356L869.427 204.678L876.16 208.456L866.495 214.898L855.429 208.48Z" fill="#FFA767"/>
<path d="M1051.91 258.199L1062.1 249.431L1045.58 241.293L985.556 284.143L1002.93 294.981L1013.28 287.4L1001.22 279.813L1017.9 268.606L1029.77 276.157L1040.85 268.3L1028.5 261.431L1041.54 251.591L1051.91 258.199Z" fill="#FFA767"/>
<path fill-rule="evenodd" clip-rule="evenodd" d="M923.423 248.721C926.867 254.557 943.736 250.98 961.1 240.731C978.464 230.483 989.749 217.444 986.304 211.609C982.86 205.773 965.992 209.351 948.628 219.599C931.264 229.847 919.979 242.886 923.423 248.721ZM935.251 241.738C937.4 245.377 947.921 243.146 958.751 236.754C969.581 230.362 976.62 222.23 974.471 218.59C972.323 214.95 961.802 217.181 950.972 223.573C940.142 229.966 933.103 238.098 935.251 241.738Z" fill="#FFA767"/>
<path d="M947.557 261.532L951.89 264.172L997.144 232.857L957.474 266.964L962.173 270.072L1014.68 241.751L967.656 273.698L973.189 276.907L1033.72 234.754L1025.73 230.824L974.529 258.88L1013.78 224.722L1006.63 220.894L947.557 261.532Z" fill="#FFA767"/>
</g>
<g filter="url(#filter1_b_864_2767)">
<path d="M742.458 178.203L894.711 103.673L1136.19 219.586L1007.5 352.541L742.458 178.203Z" fill="url(#paint1_linear_864_2767)" fill-opacity="0.3"/>
</g>
<g filter="url(#filter2_b_864_2767)">
<path d="M741.648 187.06L742.824 178.253L1007.5 352.542L1006.28 361.715L741.648 187.06Z" fill="url(#paint2_linear_864_2767)"/>
</g>
<g filter="url(#filter3_b_864_2767)">
<path d="M1007.51 352.541L1006.28 361.714L1135.01 228.393L1136.19 219.586L1007.51 352.541Z" fill="url(#paint3_linear_864_2767)"/>
</g>
<g filter="url(#filter4_bf_864_2767)">
<path d="M961.737 185.158C961.99 185.866 961.64 187.121 961.434 187.66L950.153 193.483L950.355 191.816C950.759 188.48 947.892 187.71 947.475 187.659L947.474 187.659C947.057 187.609 945.388 187.407 939.617 189.667C933.843 191.929 925.998 197.322 919.504 202.034C913.011 206.746 910.105 209.778 909.435 211.812C908.766 213.846 910.383 214.465 911.166 214.983C911.792 215.397 916.185 215.45 918.304 215.425L908.222 221.817C902.097 222.09 899.867 220.945 899.517 220.339C898.629 219.526 897.38 217.034 899.492 213.567C902.133 209.234 908.159 204.889 911.482 201.907C914.804 198.926 925.821 191.801 935.801 186.243C945.782 180.685 953.122 179.46 957.19 180.8C961.257 182.139 961.421 184.274 961.737 185.158Z" fill="url(#paint4_linear_864_2767)" fill-opacity="0.9"/>
<path d="M873.934 204.545L929.168 167.672L933.551 169.896L887.982 200.327L896.282 205.14L886.2 211.532L873.934 204.545Z" fill="url(#paint5_linear_864_2767)" fill-opacity="0.9"/>
<path d="M828.671 176.955L876.3 140.005L880.267 142.178L843.541 169.451L887.051 145.539L890.184 147.611L854.19 175.819L897.435 150.605L901.402 152.778L843.237 185.912L838.487 183.221L872.56 156.895L832.221 179.077L828.671 176.955Z" fill="url(#paint6_linear_864_2767)" fill-opacity="0.9"/>
<path d="M853.421 192.329L907.67 156.605L919.254 162.24L910.006 168.733L902.439 164.854L890.905 172.762L897.221 176.489L887.607 182.515L881.24 179.204L867.419 188.527L874.152 192.305L864.488 198.747L853.421 192.329Z" fill="url(#paint7_linear_864_2767)" fill-opacity="0.9"/>
<path d="M1049.9 242.048L1060.09 233.28L1043.57 225.142L983.548 267.992L1000.92 278.829L1011.27 271.248L999.208 263.662L1015.89 252.455L1027.76 260.005L1038.84 252.148L1026.49 245.28L1039.53 235.439L1049.9 242.048Z" fill="url(#paint8_linear_864_2767)" fill-opacity="0.9"/>
<path fill-rule="evenodd" clip-rule="evenodd" d="M921.415 232.57C924.86 238.406 941.728 234.828 959.092 224.58C976.456 214.331 987.741 201.293 984.297 195.457C980.852 189.622 963.984 193.199 946.62 203.448C929.256 213.696 917.971 226.734 921.415 232.57ZM933.244 225.586C935.392 229.226 945.913 226.995 956.743 220.603C967.573 214.211 974.612 206.078 972.464 202.438C970.315 198.799 959.794 201.03 948.964 207.422C938.134 213.814 931.095 221.946 933.244 225.586Z" fill="url(#paint9_linear_864_2767)" fill-opacity="0.9"/>
<path d="M945.549 245.38L949.882 248.021L995.136 216.705L955.466 250.813L960.165 253.921L1012.67 225.6L965.648 257.547L971.181 260.756L1031.71 218.602L1023.72 214.673L972.521 242.729L1011.77 208.571L1004.62 204.742L945.549 245.38Z" fill="url(#paint10_linear_864_2767)" fill-opacity="0.9"/>
</g>
<path d="M1112.03 219.027L896.751 111.961C895.622 111.4 894.295 111.403 893.169 111.971L764.388 176.881C761.599 178.287 761.425 182.204 764.08 183.851L1002.62 331.866C1004.2 332.846 1006.24 332.608 1007.56 331.291L1113.08 225.433C1115.01 223.498 1114.47 220.243 1112.03 219.027Z" stroke="url(#paint11_linear_864_2767)" stroke-width="2.48"/>
<defs>
<filter id="filter0_d_864_2767" x="0" y="0" width="1344" height="482" filterUnits="userSpaceOnUse" color-interpolation-filters="sRGB">
<feFlood flood-opacity="0" result="BackgroundImageFix"/>
<feColorMatrix in="SourceAlpha" type="matrix" values="0 0 0 0 0 0 0 0 0 0 0 0 0 0 0 0 0 0 127 0" result="hardAlpha"/>
<feMorphology radius="8" operator="dilate" in="SourceAlpha" result="effect1_dropShadow_864_2767"/>
<feOffset dy="19"/>
<feGaussianBlur stdDeviation="32"/>
<feComposite in2="hardAlpha" operator="out"/>
<feColorMatrix type="matrix" values="0 0 0 0 0 0 0 0 0 0 0 0 0 0 0 0 0 0 0.04 0"/>
<feBlend mode="normal" in2="BackgroundImageFix" result="effect1_dropShadow_864_2767"/>
<feBlend mode="normal" in="SourceGraphic" in2="effect1_dropShadow_864_2767" result="shape"/>
</filter>
<filter id="filter1_b_864_2767" x="733.457" y="94.6729" width="411.73" height="266.868" filterUnits="userSpaceOnUse" color-interpolation-filters="sRGB">
<feFlood flood-opacity="0" result="BackgroundImageFix"/>
<feGaussianBlur in="BackgroundImageFix" stdDeviation="4.5"/>
<feComposite in2="SourceAlpha" operator="in" result="effect1_backgroundBlur_864_2767"/>
<feBlend mode="normal" in="SourceGraphic" in2="effect1_backgroundBlur_864_2767" result="shape"/>
</filter>
<filter id="filter2_b_864_2767" x="738.648" y="175.253" width="271.855" height="189.462" filterUnits="userSpaceOnUse" color-interpolation-filters="sRGB">
<feFlood flood-opacity="0" result="BackgroundImageFix"/>
<feGaussianBlur in="BackgroundImageFix" stdDeviation="1.5"/>
<feComposite in2="SourceAlpha" operator="in" result="effect1_backgroundBlur_864_2767"/>
<feBlend mode="normal" in="SourceGraphic" in2="effect1_backgroundBlur_864_2767" result="shape"/>
</filter>
<filter id="filter3_b_864_2767" x="987.281" y="200.586" width="167.906" height="180.128" filterUnits="userSpaceOnUse" color-interpolation-filters="sRGB">
<feFlood flood-opacity="0" result="BackgroundImageFix"/>
<feGaussianBlur in="BackgroundImageFix" stdDeviation="9.5"/>
<feComposite in2="SourceAlpha" operator="in" result="effect1_backgroundBlur_864_2767"/>
<feBlend mode="normal" in="SourceGraphic" in2="effect1_backgroundBlur_864_2767" result="shape"/>
</filter>
<filter id="filter4_bf_864_2767" x="774.672" y="86.0049" width="339.422" height="246.824" filterUnits="userSpaceOnUse" color-interpolation-filters="sRGB">
<feFlood flood-opacity="0" result="BackgroundImageFix"/>
<feGaussianBlur in="BackgroundImageFix" stdDeviation="27"/>
<feComposite in2="SourceAlpha" operator="in" result="effect1_backgroundBlur_864_2767"/>
<feBlend mode="normal" in="SourceGraphic" in2="effect1_backgroundBlur_864_2767" result="shape"/>
<feGaussianBlur stdDeviation="0.5" result="effect2_foregroundBlur_864_2767"/>
</filter>
<linearGradient id="paint0_linear_864_2767" x1="831.5" y1="208.5" x2="1195" y2="309" gradientUnits="userSpaceOnUse">
<stop stop-color="#FB7E23"/>
<stop offset="1" stop-color="#FB7E23" stop-opacity="0"/>
</linearGradient>
<linearGradient id="paint1_linear_864_2767" x1="831.5" y1="199.5" x2="1195" y2="300" gradientUnits="userSpaceOnUse">
<stop stop-color="#FB7E23"/>
<stop offset="1" stop-color="#FB7E23" stop-opacity="0"/>
</linearGradient>
<linearGradient id="paint2_linear_864_2767" x1="997" y1="362" x2="685.5" y2="170" gradientUnits="userSpaceOnUse">
<stop stop-color="#DB7022"/>
<stop offset="1" stop-color="#FCC39B" stop-opacity="0.95"/>
</linearGradient>
<linearGradient id="paint3_linear_864_2767" x1="1190" y1="167.5" x2="998" y2="394" gradientUnits="userSpaceOnUse">
<stop stop-color="#764420"/>
<stop offset="1" stop-color="#764420" stop-opacity="0.2"/>
</linearGradient>
<linearGradient id="paint4_linear_864_2767" x1="962.259" y1="190.113" x2="895.042" y2="186.722" gradientUnits="userSpaceOnUse">
<stop stop-color="white"/>
<stop offset="1" stop-color="#FFE6D5"/>
</linearGradient>
<linearGradient id="paint5_linear_864_2767" x1="933.516" y1="177.349" x2="871.158" y2="173.764" gradientUnits="userSpaceOnUse">
<stop stop-color="white"/>
<stop offset="1" stop-color="#FFE6D5"/>
</linearGradient>
<linearGradient id="paint6_linear_864_2767" x1="902.53" y1="152.493" x2="824.013" y2="149.161" gradientUnits="userSpaceOnUse">
<stop stop-color="white"/>
<stop offset="1" stop-color="#FFE6D5"/>
</linearGradient>
<linearGradient id="paint7_linear_864_2767" x1="919.664" y1="166.893" x2="849.702" y2="163.589" gradientUnits="userSpaceOnUse">
<stop stop-color="white"/>
<stop offset="1" stop-color="#FFE6D5"/>
</linearGradient>
<linearGradient id="paint8_linear_864_2767" x1="1060.63" y1="238.186" x2="979.24" y2="233.961" gradientUnits="userSpaceOnUse">
<stop stop-color="white"/>
<stop offset="1" stop-color="#FFE6D5"/>
</linearGradient>
<linearGradient id="paint9_linear_864_2767" x1="985.331" y1="202.631" x2="917.482" y2="199.129" gradientUnits="userSpaceOnUse">
<stop stop-color="white"/>
<stop offset="1" stop-color="#FFE6D5"/>
</linearGradient>
<linearGradient id="paint10_linear_864_2767" x1="1032.91" y1="219.373" x2="939.642" y2="215.321" gradientUnits="userSpaceOnUse">
<stop stop-color="white"/>
<stop offset="1" stop-color="#FFE6D5"/>
</linearGradient>
<linearGradient id="paint11_linear_864_2767" x1="783" y1="239.5" x2="1267.5" y2="67.5" gradientUnits="userSpaceOnUse">
<stop stop-color="#9C541F"/>
<stop offset="1" stop-color="#9C541F" stop-opacity="0"/>
</linearGradient>
</defs>
</svg>
