<svg width="1344" height="482" viewBox="0 0 1344 482" fill="none" xmlns="http://www.w3.org/2000/svg">
<g filter="url(#filter0_d_864_2910)">
<rect x="72" y="53" width="1200" height="338" rx="16" fill="white"/>
</g>
<path d="M100 53H190V97C190 105.837 182.837 113 174 113H116C107.163 113 100 105.837 100 97V53Z" fill="#FB7E23"/>
<path d="M136.018 96L135.982 92.168L145.123 83.7656C147.496 81.498 148.779 80.0918 148.779 78.0703C148.779 75.8027 147.074 74.3965 144.736 74.4141C142.346 74.3965 140.781 75.9082 140.799 78.3516H135.771C135.754 73.377 139.445 70.1953 144.807 70.1953C150.256 70.1953 153.877 73.3066 153.877 77.7188C153.877 80.6191 152.471 82.9922 147.232 87.7383L143.365 91.5V91.6406H154.229V96H136.018Z" fill="white"/>
<path d="M126.906 261.281V264.562H100.875V261.281H111.844V255.469H103.625V241.531H124V255.469H115.812V261.281H126.906ZM107.562 252.344H120.062V244.719H107.562V252.344ZM152.344 239.438V267.938H148.312V239.438H152.344ZM129.375 251.562C129.359 245.359 132.531 241.438 136.906 241.438C141.188 241.438 144.375 245.359 144.375 251.562C144.375 257.812 141.188 261.719 136.906 261.719C132.531 261.719 129.359 257.812 129.375 251.562ZM133.219 251.562C133.203 255.797 134.688 258.109 136.906 258.094C139.062 258.109 140.516 255.797 140.531 251.562C140.516 247.344 139.062 245.031 136.906 245.031C134.688 245.031 133.203 247.344 133.219 251.562ZM178.75 239.438V246.875H182.594V250.094H178.75V258.219H174.75V239.438H178.75ZM157.188 254.875V241.438H169.969V244.625H161.156V251.656C166.438 251.641 169.328 251.453 172.5 250.781L172.844 253.969C169.328 254.672 165.984 254.891 159.562 254.875H157.188ZM158.656 264.625C164.672 263.766 167.641 260.688 167.656 257.469V256.75H171.594V257.469C171.594 260.688 174.578 263.766 180.656 264.625L179.094 267.75C174.625 267.078 171.375 265.109 169.656 262.406C167.922 265.109 164.672 267.078 160.188 267.75L158.656 264.625ZM198.812 243.188C198.797 247.359 202.5 251.812 208.938 252.906L207.188 256.219C202.219 255.234 198.547 252.438 196.703 248.797C194.828 252.406 191.141 255.219 186.219 256.219L184.5 252.906C190.828 251.781 194.531 247.312 194.562 243.188V241.125H198.812V243.188ZM183.844 264.375V261.094H209.875V264.375H183.844ZM236.375 239.438V267.875H232.531V239.438H236.375ZM211.188 258.094H213.562V245.875H211.719V242.656H224.75V245.875H222.938V257.703C223.734 257.625 224.5 257.547 225.219 257.438L225.5 260.312C221 261.266 215.188 261.375 211.625 261.375L211.188 258.094ZM217.094 258.031C217.828 258.016 218.562 257.984 219.312 257.953V245.875H217.094V258.031ZM224.094 253.344V249.781H226.844V240H230.625V266.531H226.844V253.344H224.094ZM262.969 239.438V267.938H258.938V239.438H262.969ZM240 251.562C239.984 245.359 243.156 241.438 247.531 241.438C251.812 241.438 255 245.359 255 251.562C255 257.812 251.812 261.719 247.531 261.719C243.156 261.719 239.984 257.812 240 251.562ZM243.844 251.562C243.828 255.797 245.312 258.109 247.531 258.094C249.688 258.109 251.141 255.797 251.156 251.562C251.141 247.344 249.688 245.031 247.531 245.031C245.312 245.031 243.828 247.344 243.844 251.562ZM281.781 243.188C281.766 247.359 285.469 251.812 291.906 252.906L290.156 256.219C285.188 255.234 281.516 252.438 279.672 248.797C277.797 252.406 274.109 255.219 269.188 256.219L267.469 252.906C273.797 251.781 277.5 247.312 277.531 243.188V241.125H281.781V243.188ZM266.812 264.375V261.094H292.844V264.375H266.812ZM316.344 241.781V255.438H302.688V241.781H316.344ZM305.969 267.375V258.156H309.938V264.188H325.438V267.375H305.969ZM306.625 252.312H312.406V244.969H306.625V252.312ZM320.406 260.188V239.438H324.406V247.625H328.25V250.906H324.406V260.188H320.406ZM355.5 250.531V253.656H329.5V250.531H355.5ZM332.5 258.344V255.344H352.281V262.781H336.438V264.531H353.031V267.625H332.531V259.938H348.344V258.344H332.5ZM332.75 248.969V240H352.188V243.188H336.719V245.844H352.406V248.969H332.75ZM381.062 239.438V267.875H377.031V239.438H381.062ZM357.25 259.812C364.594 256.344 367.828 251.844 368.469 245.531H358.781V242.406H372.531C372.516 251.031 369.5 258.203 359.344 263L357.25 259.812Z" fill="#393939"/>
<path d="M115.703 304.797V306.066H101.484V304.797H107.852V302.512H109.355V304.797H115.703ZM100.703 317.551V316.281H107.852V313.84C104.756 313.674 102.891 312.473 102.91 310.52C102.891 308.459 105.068 307.238 108.613 307.258C112.109 307.238 114.326 308.459 114.316 310.52C114.326 312.473 112.422 313.674 109.355 313.84V316.281H116.602V317.551H100.703ZM104.453 310.52C104.434 311.838 106.025 312.6 108.613 312.609C111.172 312.6 112.764 311.838 112.754 310.52C112.764 309.23 111.172 308.469 108.613 308.469C106.025 308.469 104.434 309.23 104.453 310.52ZM126.641 304.777C126.65 307.756 130.049 310.402 133.066 310.969L132.363 312.258C129.736 311.652 126.982 309.787 125.859 307.238C124.727 309.787 121.982 311.643 119.355 312.258L118.652 310.969C121.66 310.393 125.029 307.766 125.039 304.777V303.449H126.641V304.777ZM117.988 317.219V315.949H133.887V317.219H117.988ZM149.336 311.613V312.863H137.324V303.723H149.141V305.012H138.887V307.59H148.77V308.82H138.887V311.613H149.336ZM135.273 317.316V316.047H151.172V317.316H135.273ZM165.996 302.219V309.289H168.809V310.578H165.996V319.582H164.473V302.219H165.996ZM152.676 315.07C157.158 312.844 159.6 309.494 159.951 305.383H153.477V304.094H161.504C161.494 309.006 159.189 313.488 153.535 316.281L152.676 315.07ZM185.215 309.719V310.988H181.406V314.406C183.105 314.338 184.814 314.221 186.426 314.035L186.543 315.188C182.695 315.744 178.496 315.822 175.176 315.812L174.961 314.523C176.475 314.523 178.154 314.514 179.883 314.465V310.988H176.289V303.879H185.137V305.129H177.793V309.719H185.215ZM187.578 319.621V302.219H189.102V319.621H187.578ZM196.816 303.566C199.18 303.576 200.889 305.607 201.123 308.859H205.02V302.219H206.543V319.621H205.02V310.129H201.143C200.977 313.537 199.238 315.666 196.816 315.656C194.248 315.666 192.451 313.322 192.461 309.621C192.451 305.93 194.248 303.576 196.816 303.566ZM193.926 309.621C193.936 312.443 195.107 314.299 196.816 314.289C198.516 314.299 199.707 312.443 199.707 309.621C199.707 306.799 198.516 304.943 196.816 304.934C195.107 304.943 193.936 306.799 193.926 309.621ZM230.352 316.066V317.355H214.453V316.066H221.602V311.828H216.328V303.684H228.379V311.828H223.105V316.066H230.352ZM217.832 310.598H226.895V304.914H217.832V310.598ZM246.055 302.219V319.621H244.512V302.219H246.055ZM232.383 309.621C232.393 305.93 234.229 303.576 236.816 303.566C239.395 303.576 241.26 305.93 241.25 309.621C241.26 313.322 239.395 315.666 236.816 315.656C234.229 315.666 232.393 313.322 232.383 309.621ZM233.867 309.621C233.867 312.443 235.078 314.299 236.816 314.289C238.564 314.299 239.766 312.443 239.766 309.621C239.766 306.799 238.564 304.943 236.816 304.934C235.078 304.943 233.867 306.799 233.867 309.621ZM262.598 302.219V307.102H265.215V308.391H262.598V313.684H261.074V302.219H262.598ZM249.824 311.496V303.566H257.539V304.836H251.328V310.227C254.844 310.227 256.865 310.119 259.199 309.641L259.355 310.91C256.924 311.369 254.844 311.506 251.172 311.496H249.824ZM250.703 318.293C253.76 317.766 256.562 315.939 256.562 313.41V312.766H258.086V313.41C258.076 315.939 260.889 317.766 263.965 318.293L263.34 319.504C260.762 319.025 258.379 317.697 257.344 315.686C256.279 317.697 253.887 319.025 251.309 319.504L250.703 318.293ZM274.961 304.777C274.971 307.756 278.369 310.402 281.387 310.969L280.684 312.258C278.057 311.652 275.303 309.787 274.18 307.238C273.047 309.787 270.303 311.643 267.676 312.258L266.973 310.969C269.98 310.393 273.35 307.766 273.359 304.777V303.449H274.961V304.777ZM266.309 317.219V315.949H282.207V317.219H266.309ZM298.535 302.219V319.582H297.051V302.219H298.535ZM283.398 313.977C283.936 313.977 284.561 313.977 285.234 313.967V305.715H283.77V304.445H291.758V305.715H290.293V313.762C290.947 313.703 291.572 313.645 292.148 313.566L292.246 314.699C289.502 315.207 285.859 315.295 283.594 315.285L283.398 313.977ZM286.641 313.938C287.363 313.918 288.125 313.889 288.867 313.85V305.715H286.641V313.938ZM291.25 310.207V308.82H293.672V302.648H295.137V318.664H293.672V310.207H291.25ZM315.195 302.219V319.621H313.652V302.219H315.195ZM301.523 309.621C301.533 305.93 303.369 303.576 305.957 303.566C308.535 303.576 310.4 305.93 310.391 309.621C310.4 313.322 308.535 315.666 305.957 315.656C303.369 315.666 301.533 313.322 301.523 309.621ZM303.008 309.621C303.008 312.443 304.219 314.299 305.957 314.289C307.705 314.299 308.906 312.443 308.906 309.621C308.906 306.799 307.705 304.943 305.957 304.934C304.219 304.943 303.008 306.799 303.008 309.621ZM326.816 304.777C326.826 307.756 330.225 310.402 333.242 310.969L332.539 312.258C329.912 311.652 327.158 309.787 326.035 307.238C324.902 309.787 322.158 311.643 319.531 312.258L318.828 310.969C321.836 310.393 325.205 307.766 325.215 304.777V303.449H326.816V304.777ZM318.164 317.219V315.949H334.062V317.219H318.164ZM351.328 310.285V311.496H335.43V310.285H351.328ZM337.344 314.035V312.883H349.336V316.574H338.906V318.234H349.902V319.348H337.363V315.52H347.812V314.035H337.344ZM337.441 303.859V302.746H349.277V306.34H339.023V307.863H349.59V308.977H337.5V305.285H347.734V303.859H337.441ZM366.523 303.801V311.789H358.496V303.801H366.523ZM360 310.559H365.039V305.051H360V310.559ZM360.469 319.211V313.742H361.973V317.922H372.129V319.211H360.469ZM369.805 314.953V302.219H371.328V307.512H373.945V308.801H371.328V314.953H369.805ZM390.879 309.523V310.754H375.039V309.523H390.879ZM376.953 313.508V312.316H388.828V316.34H378.516V318.137H389.355V319.387H376.992V315.188H387.324V313.508H376.953ZM377.148 308.098V302.824H388.809V304.055H378.691V306.848H388.984V308.098H377.148ZM396.992 303.566C399.355 303.576 401.064 305.607 401.299 308.859H405.195V302.219H406.719V319.621H405.195V310.129H401.318C401.152 313.537 399.414 315.666 396.992 315.656C394.424 315.666 392.627 313.322 392.637 309.621C392.627 305.93 394.424 303.576 396.992 303.566ZM394.102 309.621C394.111 312.443 395.283 314.299 396.992 314.289C398.691 314.299 399.883 312.443 399.883 309.621C399.883 306.799 398.691 304.943 396.992 304.934C395.283 304.943 394.111 306.799 394.102 309.621ZM425.508 316.086V317.355H409.609V316.086H416.758V312.336H411.484V303.449H413.027V306.594H422.051V303.449H423.555V312.336H418.262V316.086H425.508ZM413.027 311.086H422.051V307.844H413.027V311.086ZM432.051 307.16C432.051 309.924 433.398 312.902 435.703 314.27L434.824 315.461C433.145 314.445 431.943 312.59 431.338 310.471C430.703 312.785 429.414 314.777 427.676 315.832L426.699 314.68C429.102 313.273 430.566 310.197 430.566 307.219V303.859H432.051V307.16ZM433.789 309.758V308.449H436.738V302.59H438.184V318.703H436.738V309.758H433.789ZM440.293 319.582V302.219H441.777V319.582H440.293ZM460.078 316.066V317.355H444.18V316.066H448.125V311.389C446.641 310.617 445.742 309.367 445.742 307.785C445.742 305.1 448.379 303.332 452.09 303.312C455.801 303.332 458.438 305.1 458.438 307.785C458.438 309.338 457.568 310.568 456.133 311.34V316.066H460.078ZM447.227 307.785C447.217 309.729 449.238 311.027 452.09 311.027C454.912 311.027 456.953 309.729 456.953 307.785C456.953 305.842 454.912 304.562 452.09 304.582C449.238 304.562 447.217 305.842 447.227 307.785ZM449.629 316.066H454.59V311.936C453.838 312.131 452.998 312.238 452.09 312.238C451.201 312.238 450.371 312.141 449.629 311.945V316.066ZM464.277 303.859L464.141 314.016H462.5L462.363 303.859H464.277ZM462.07 316.848C462.051 316.164 462.637 315.598 463.32 315.598C464.014 315.598 464.58 316.164 464.57 316.848C464.58 317.541 464.014 318.107 463.32 318.117C462.637 318.107 462.051 317.541 462.07 316.848ZM116.602 348.066V349.355H100.703V348.066H107.852V343.828H102.578V335.684H114.629V343.828H109.355V348.066H116.602ZM104.082 342.598H113.145V336.914H104.082V342.598ZM132.324 334.238V344.16H130.801V334.238H132.324ZM118.398 339.219C118.389 336.797 120.312 335.156 122.949 335.156C125.586 335.156 127.49 336.797 127.5 339.219C127.49 341.602 125.586 343.262 122.949 343.262C120.312 343.262 118.389 341.602 118.398 339.219ZM119.902 339.219C119.883 340.83 121.162 341.963 122.949 341.953C124.717 341.963 125.996 340.83 125.996 339.219C125.996 337.598 124.717 336.455 122.949 336.465C121.162 336.455 119.883 337.598 119.902 339.219ZM121.035 351.348V345.098H132.324V351.348H121.035ZM122.539 350.098H130.82V346.348H122.539V350.098ZM148.848 334.219V337.852H151.465V339.141H148.848V342.988H147.324V334.219H148.848ZM136.113 342.148V335H137.656V340.82C140.117 340.83 142.666 340.654 145.488 340.078L145.684 341.367C142.715 341.973 140.107 342.139 137.5 342.148H136.113ZM137.773 345.059V343.828H148.848V348.066H139.336V350.098H149.492V351.348H137.812V346.855H147.324V345.059H137.773ZM166.406 334.219V341.133H168.867V342.441H166.406V351.582H164.863V334.219H166.406ZM152.305 346.816C154.434 345.234 155.049 341.895 155.059 339.453V337.285H152.871V335.996H157.832V337.285H156.504V339.453C156.514 341.338 156.777 344.17 158.223 346.055C159.629 344.209 159.922 341.436 159.941 339.453V337.285H158.594V335.996H163.418V337.285H161.387V339.453C161.387 342.002 161.982 345.264 164.141 346.816L163.125 347.949C161.836 346.953 161.074 345.303 160.664 343.506C160.283 345.332 159.551 347.061 158.203 348.086C156.875 347.061 156.152 345.303 155.762 343.486C155.352 345.283 154.59 346.943 153.32 347.949L152.305 346.816ZM172.695 348.691L171.172 354.004H169.727L170.801 348.691H172.695ZM195.801 341.953V343.145H188.633V344.766H193.77V348.516H183.457V350.215H194.297V351.387H181.934V347.422H192.266V345.918H181.895V344.766H187.129V343.145H180V341.953H195.801ZM180.84 339.98C184.023 339.775 186.738 338.691 187.021 336.953H181.621V335.742H187.129V334.121H188.633V335.742H194.199V336.953H188.75C189.023 338.691 191.738 339.775 194.941 339.98L194.473 341.152C191.572 340.908 188.955 340.01 187.891 338.359C186.816 340.01 184.199 340.908 181.289 341.152L180.84 339.98ZM199.512 334.961V337.461H204.57V334.961H206.094V342.52H198.008V334.961H199.512ZM199.512 341.27H204.57V338.652H199.512V341.27ZM199.766 345.254V344.023H210.84V348.223H201.309V350.137H211.484V351.387H199.805V347.051H209.316V345.254H199.766ZM209.316 343.203V334.219H210.84V337.988H213.457V339.277H210.84V343.203H209.316ZM220.43 337.52C220.439 339.795 222.139 341.826 224.688 342.656L223.965 343.867C221.963 343.203 220.449 341.826 219.697 340.078C218.955 342.07 217.354 343.623 215.273 344.375L214.492 343.145C217.09 342.266 218.906 340.029 218.926 337.52V336.777H214.961V335.508H224.336V336.777H220.43V337.52ZM216.797 348.34C216.807 346.338 218.984 345.176 222.559 345.176C226.123 345.176 228.281 346.338 228.281 348.34C228.281 350.371 226.123 351.543 222.559 351.543C218.984 351.543 216.807 350.371 216.797 348.34ZM218.34 348.34C218.32 349.59 219.941 350.322 222.559 350.312C225.186 350.322 226.787 349.59 226.797 348.34C226.787 347.129 225.186 346.406 222.559 346.406C219.941 346.406 218.32 347.129 218.34 348.34ZM226.602 344.707V334.219H228.125V338.652H230.742V339.941H228.125V344.707H226.602ZM247.734 348.047V349.316H231.836V348.047H238.945V343.789H240.449V348.047H247.734ZM232.461 342.715C235.498 342.197 238.877 339.658 238.887 336.738V335.41H240.488V336.738C240.498 339.639 243.926 342.197 246.953 342.715L246.27 343.984C243.623 343.438 240.83 341.65 239.707 339.15C238.564 341.641 235.801 343.438 233.145 343.984L232.461 342.715ZM254.355 335.352C257.021 335.371 258.975 337.012 258.984 339.434C258.975 341.611 257.393 343.154 255.137 343.447V346.396C256.758 346.328 258.389 346.211 259.902 346.016L260 347.168C256.318 347.793 252.217 347.832 249.16 347.812L248.906 346.523C250.303 346.514 251.914 346.504 253.594 346.455V343.447C251.289 343.174 249.717 341.621 249.727 339.434C249.717 337.012 251.641 335.371 254.355 335.352ZM251.23 339.434C251.211 341.064 252.529 342.197 254.355 342.188C256.152 342.197 257.461 341.064 257.48 339.434C257.461 337.803 256.152 336.689 254.355 336.68C252.529 336.689 251.211 337.803 251.23 339.434ZM261.016 351.582V334.219H262.539V341.387H265.371V342.715H262.539V351.582H261.016ZM285.742 334.219V351.621H284.199V334.219H285.742ZM272.07 341.621C272.08 337.93 273.916 335.576 276.504 335.566C279.082 335.576 280.947 337.93 280.938 341.621C280.947 345.322 279.082 347.666 276.504 347.656C273.916 347.666 272.08 345.322 272.07 341.621ZM273.555 341.621C273.555 344.443 274.766 346.299 276.504 346.289C278.252 346.299 279.453 344.443 279.453 341.621C279.453 338.799 278.252 336.943 276.504 336.934C274.766 336.943 273.555 338.799 273.555 341.621ZM304.551 342.812V344.043H288.711V342.812H295.879V340.781H290.723V335.039H302.578V336.27H292.227V339.531H302.695V340.781H297.363V342.812H304.551ZM290.625 348.438C290.615 346.455 292.871 345.322 296.621 345.312C300.342 345.322 302.578 346.455 302.598 348.438C302.578 350.439 300.342 351.562 296.621 351.582C292.871 351.562 290.615 350.439 290.625 348.438ZM292.188 348.438C292.168 349.658 293.838 350.361 296.621 350.352C299.375 350.361 301.045 349.658 301.055 348.438C301.045 347.236 299.375 346.523 296.621 346.523C293.838 346.523 292.168 347.236 292.188 348.438ZM314.707 335.84C314.717 338.291 317.9 340.4 321.035 340.84L320.41 342.09C317.715 341.641 315.039 340.146 313.926 338.018C312.812 340.166 310.146 341.641 307.441 342.09L306.816 340.84C309.951 340.4 313.125 338.33 313.125 335.84V334.844H314.707V335.84ZM305.996 345.293V344.004H321.816V345.293H314.629V351.582H313.125V345.293H305.996ZM336.855 334.219V339.395H339.492V340.684H336.855V346.797H335.332V334.219H336.855ZM324.102 343.711V335.723H331.836V337.012H325.625V342.422C329.111 342.432 331.094 342.324 333.418 341.855L333.613 343.125C331.172 343.594 329.102 343.711 325.449 343.711H324.102ZM325.996 351.211V345.527H327.5V349.922H337.656V351.211H325.996ZM348.477 334.531C352.334 334.531 354.6 335.596 354.609 337.52C354.6 339.492 352.334 340.557 348.477 340.566C344.6 340.557 342.324 339.492 342.324 337.52C342.324 335.596 344.6 334.531 348.477 334.531ZM340.566 342.988V341.738H356.387V342.988H340.566ZM342.48 345.664V344.492H354.355V348.379H344.043V350.176H354.883V351.387H342.52V347.246H352.852V345.664H342.48ZM343.926 337.52C343.906 338.73 345.596 339.395 348.477 339.395C351.357 339.395 353.037 338.73 353.047 337.52C353.037 336.377 351.357 335.693 348.477 335.684C345.596 335.693 343.906 336.377 343.926 337.52ZM377.207 334.219V343.535H375.684V334.219H377.207ZM363.281 339.062C363.271 336.689 365.195 335.059 367.832 335.078C370.469 335.059 372.373 336.689 372.383 339.062C372.373 341.426 370.469 343.057 367.832 343.047C365.195 343.057 363.271 341.426 363.281 339.062ZM364.785 339.062C364.766 340.645 366.045 341.768 367.832 341.777C369.6 341.768 370.879 340.645 370.879 339.062C370.879 337.471 369.6 336.357 367.832 336.367C366.045 336.357 364.766 337.471 364.785 339.062ZM365.957 351.348V344.414H367.48V346.523H375.684V344.414H377.207V351.348H365.957ZM367.48 350.098H375.684V347.754H367.48V350.098ZM388.398 335.293V340.156H382.422V342.852C385.684 342.861 387.373 342.793 389.414 342.422L389.57 343.691C387.412 344.043 385.645 344.102 382.129 344.102H380.898V338.984H386.875V336.523H380.859V335.293H388.398ZM382.852 347.09V345.84H394.551V351.621H393.008V347.09H382.852ZM389.551 341.68V340.41H393.008V338.066H389.551V336.816H393.008V334.238H394.551V344.902H393.008V341.68H389.551ZM410.879 334.219V341.387H413.789V342.656H410.879V351.582H409.355V334.219H410.879ZM397.344 338.281V337.012H401.816V334.434H403.34V337.012H407.676V338.281H397.344ZM398.34 343.711C398.33 341.367 400.127 339.727 402.598 339.727C405.049 339.727 406.836 341.367 406.855 343.711C406.836 346.064 405.049 347.695 402.598 347.695C400.127 347.695 398.33 346.064 398.34 343.711ZM399.805 343.711C399.795 345.293 400.977 346.406 402.598 346.387C404.199 346.406 405.371 345.293 405.391 343.711C405.371 342.139 404.199 341.006 402.598 341.016C400.977 341.006 399.795 342.139 399.805 343.711ZM423.516 335.742V337.285H427.578V334.238H429.121V346.914H427.578V342.285H423.516V343.848H415.547V335.742H423.516ZM417.07 342.617H422.012V337.012H417.07V342.617ZM417.891 351.211V345.781H419.434V349.922H429.512V351.211H417.891ZM423.516 341.016H427.578V338.574H423.516V341.016ZM450.605 334.219V339.512H453.223V340.801H450.605V346.934H449.062V334.219H450.605ZM437.051 343.691C441.221 342.393 443.926 339.922 444.248 336.855H437.773V335.566H445.918C445.918 340.039 442.725 343.359 437.715 344.922L437.051 343.691ZM439.727 351.211V345.645H441.25V349.922H451.406V351.211H439.727ZM467.891 334.219V339.395H470.527V340.684H467.891V346.797H466.367V334.219H467.891ZM455.137 343.711V335.723H462.871V337.012H456.66V342.422C460.146 342.432 462.129 342.324 464.453 341.855L464.648 343.125C462.207 343.594 460.137 343.711 456.484 343.711H455.137ZM457.031 351.211V345.527H458.535V349.922H468.691V351.211H457.031ZM485.039 334.219V341.387H487.949V342.656H485.039V351.582H483.516V334.219H485.039ZM471.504 338.281V337.012H475.977V334.434H477.5V337.012H481.836V338.281H471.504ZM472.5 343.711C472.49 341.367 474.287 339.727 476.758 339.727C479.209 339.727 480.996 341.367 481.016 343.711C480.996 346.064 479.209 347.695 476.758 347.695C474.287 347.695 472.49 346.064 472.5 343.711ZM473.965 343.711C473.955 345.293 475.137 346.406 476.758 346.387C478.359 346.406 479.531 345.293 479.551 343.711C479.531 342.139 478.359 341.006 476.758 341.016C475.137 341.006 473.955 342.139 473.965 343.711ZM503.75 334.219V351.582H502.285V334.219H503.75ZM488.906 346.719C492.676 344.482 494.57 341.348 494.863 337.715H489.648V336.445H496.387C496.387 338.154 496.113 339.805 495.518 341.348H498.633V334.688H500.098V350.703H498.633V342.598H494.951C493.906 344.619 492.227 346.406 489.805 347.832L488.906 346.719ZM519.961 335.801V343.789H511.934V335.801H519.961ZM513.438 342.559H518.477V337.051H513.438V342.559ZM513.906 351.211V345.742H515.41V349.922H525.566V351.211H513.906ZM523.242 346.953V334.219H524.766V339.512H527.383V340.801H524.766V346.953H523.242ZM544.316 341.523V342.754H528.477V341.523H544.316ZM530.391 345.508V344.316H542.266V348.34H531.953V350.137H542.793V351.387H530.43V347.188H540.762V345.508H530.391ZM530.586 340.098V334.824H542.246V336.055H532.129V338.848H542.422V340.098H530.586ZM559.492 335.84C559.502 338.291 562.686 340.4 565.82 340.84L565.195 342.09C562.5 341.641 559.824 340.146 558.711 338.018C557.598 340.166 554.932 341.641 552.227 342.09L551.602 340.84C554.736 340.4 557.91 338.33 557.91 335.84V334.844H559.492V335.84ZM550.781 345.293V344.004H566.602V345.293H559.414V351.582H557.91V345.293H550.781ZM578.965 345.879C578.955 347.412 579.785 349.043 581.436 349.98C583.096 348.955 583.975 347.217 583.965 345.879V344.922H585.469V345.879C585.459 347.666 586.777 349.443 589.004 350.215L588.242 351.348C586.504 350.732 585.293 349.521 584.688 348.066C584.15 349.473 583.086 350.811 581.484 351.484C579.795 350.84 578.721 349.57 578.203 348.115C577.578 349.512 576.387 350.723 574.727 351.348L573.945 350.215C576.143 349.395 577.461 347.539 577.48 345.879V344.922H578.965V345.879ZM573.496 339.316C573.486 336.895 575.41 335.244 578.047 335.254C580.684 335.244 582.588 336.895 582.598 339.316C582.588 341.699 580.684 343.34 578.047 343.34C575.41 343.34 573.486 341.699 573.496 339.316ZM575 339.316C574.98 340.928 576.26 342.061 578.047 342.07C579.814 342.061 581.094 340.928 581.094 339.316C581.094 337.695 579.814 336.543 578.047 336.562C576.26 336.543 574.98 337.695 575 339.316ZM585.898 344.16V334.238H587.422V344.16H585.898ZM595.039 335.566C597.402 335.576 599.111 337.607 599.346 340.859H603.242V334.219H604.766V351.621H603.242V342.129H599.365C599.199 345.537 597.461 347.666 595.039 347.656C592.471 347.666 590.674 345.322 590.684 341.621C590.674 337.93 592.471 335.576 595.039 335.566ZM592.148 341.621C592.158 344.443 593.33 346.299 595.039 346.289C596.738 346.299 597.93 344.443 597.93 341.621C597.93 338.799 596.738 336.943 595.039 336.934C593.33 336.943 592.158 338.799 592.148 341.621ZM623.555 348.066V349.355H607.656V348.066H611.602V343.389C610.117 342.617 609.219 341.367 609.219 339.785C609.219 337.1 611.855 335.332 615.566 335.312C619.277 335.332 621.914 337.1 621.914 339.785C621.914 341.338 621.045 342.568 619.609 343.34V348.066H623.555ZM610.703 339.785C610.693 341.729 612.715 343.027 615.566 343.027C618.389 343.027 620.43 341.729 620.43 339.785C620.43 337.842 618.389 336.562 615.566 336.582C612.715 336.562 610.693 337.842 610.703 339.785ZM613.105 348.066H618.066V343.936C617.314 344.131 616.475 344.238 615.566 344.238C614.678 344.238 613.848 344.141 613.105 343.945V348.066Z" fill="#B0B0B0"/>
<path fill-rule="evenodd" clip-rule="evenodd" d="M1004.75 314.624C1000.35 307.832 990.876 305.245 983.934 309.408C965.394 320.529 943.694 326.923 920.5 326.923C892.443 326.923 866.572 317.567 845.835 301.805C838.053 295.89 824.901 299.262 819.245 307.235C808.646 322.174 791.211 331.923 771.5 331.923C739.191 331.923 713 305.732 713 273.423C713 241.114 739.191 214.923 771.5 214.923C774.82 214.923 778.075 215.199 781.244 215.731C788.689 216.979 797 210.971 797 203.423C797 135.216 852.293 79.9229 920.5 79.9229C980.931 79.9229 1031.22 123.327 1041.91 180.66C1043.39 188.621 1051.61 194.006 1059.61 192.805C1063.49 192.224 1067.46 191.923 1071.5 191.923C1115.41 191.923 1151 227.516 1151 271.423C1151 315.329 1115.41 350.923 1071.5 350.923C1043.52 350.923 1018.92 336.47 1004.75 314.624Z" fill="#FFEFE4"/>
<g filter="url(#filter1_b_864_2910)">
<path fill-rule="evenodd" clip-rule="evenodd" d="M940.961 267.098C939.618 266.731 939.259 264.93 940.216 263.919C942.36 261.655 943.993 258.845 944.874 255.627C947.732 245.185 941.584 234.404 931.142 231.545C920.701 228.687 909.919 234.835 907.06 245.276C906.179 248.494 906.154 251.744 906.845 254.784C907.154 256.141 905.928 257.508 904.585 257.141L875.704 249.235C874.371 248.87 872.995 249.655 872.63 250.988L847.083 344.314C846.718 345.647 847.503 347.024 848.836 347.389L877.801 355.318C877.801 355.318 877.801 355.317 877.801 355.317C877.801 355.317 877.802 355.317 877.802 355.317L878.377 355.474C878.836 355.6 879.254 355.163 879.13 354.704C878.218 351.315 878.168 347.645 879.162 344.016C882.142 333.13 893.382 326.72 904.269 329.7C915.155 332.68 921.564 343.921 918.584 354.807C917.591 358.435 915.68 361.566 913.171 364.018C912.829 364.352 912.967 364.943 913.428 365.069L914.005 365.227C914.006 365.227 914.006 365.227 914.006 365.228C914.006 365.228 914.006 365.228 914.006 365.228L942.163 372.936C943.496 373.301 944.872 372.516 945.237 371.183L952.596 344.299C952.953 342.996 954.665 342.612 955.684 343.499C957.837 345.372 960.433 346.802 963.369 347.605C973.811 350.464 984.593 344.316 987.451 333.874C990.309 323.432 984.162 312.65 973.72 309.792C970.784 308.988 967.821 308.897 965.015 309.412C963.686 309.656 962.408 308.454 962.765 307.15L970.784 277.856C971.149 276.523 970.364 275.147 969.031 274.782L940.961 267.098ZM893.477 369.123C893.39 369.099 893.303 369.074 893.216 369.049L893.739 369.193C893.652 369.17 893.565 369.147 893.477 369.123Z" fill="url(#paint0_linear_864_2910)" fill-opacity="0.5"/>
</g>
<g filter="url(#filter2_b_864_2910)">
<path fill-rule="evenodd" clip-rule="evenodd" d="M1083.21 243.212C1084.3 242.349 1085.96 243.126 1086.21 244.496C1086.76 247.563 1088.06 250.542 1090.13 253.156C1096.84 261.647 1109.17 263.085 1117.66 256.369C1126.15 249.652 1127.59 237.324 1120.87 228.834C1118.8 226.219 1116.2 224.273 1113.35 223.028C1112.07 222.472 1111.7 220.675 1112.79 219.811L1131.17 205.267C1135.07 202.183 1135.73 196.523 1132.65 192.625L1116.83 172.627C1115.85 171.382 1117.04 169.395 1118.63 169.383C1122.84 169.353 1127.07 167.97 1130.63 165.154C1139.12 158.438 1140.56 146.11 1133.84 137.619C1127.13 129.129 1114.8 127.691 1106.31 134.407C1102.75 137.223 1100.43 141.025 1099.43 145.116C1099.05 146.658 1096.84 147.362 1095.86 146.117L1080.68 126.929C1077.6 123.031 1071.94 122.371 1068.04 125.455L1048.24 141.116C1048.24 141.115 1048.24 141.116 1048.24 141.116L1021.49 162.279C1021.49 162.279 1021.49 162.28 1021.49 162.28L1002.34 177.423C998.445 180.507 997.785 186.167 1000.87 190.065L1014.13 206.827C1014.97 207.887 1014.26 209.493 1012.94 209.789C1010.16 210.412 1007.47 211.656 1005.08 213.545C996.589 220.261 995.151 232.589 1001.87 241.08C1008.58 249.571 1020.91 251.009 1029.4 244.292C1031.79 242.404 1033.62 240.071 1034.87 237.505C1035.46 236.29 1037.18 235.974 1038.02 237.034L1052.84 255.76C1055.92 259.659 1061.58 260.319 1065.48 257.235L1083.21 243.212ZM1021.49 162.28L1048.24 141.116C1051.92 142.323 1055.3 144.587 1057.88 147.85C1064.88 156.702 1063.38 169.555 1054.53 176.557C1045.68 183.56 1032.82 182.06 1025.82 173.208C1023.24 169.945 1021.81 166.137 1021.49 162.28Z" fill="url(#paint1_linear_864_2910)" fill-opacity="0.6"/>
</g>
<g filter="url(#filter3_b_864_2910)">
<path fill-rule="evenodd" clip-rule="evenodd" d="M950.645 141.28C949.302 140.912 948.943 139.111 949.9 138.101C952.043 135.836 953.676 133.027 954.557 129.809C957.416 119.367 951.268 108.585 940.826 105.727C930.384 102.868 919.602 109.016 916.744 119.458C915.863 122.676 915.837 125.926 916.529 128.966C916.838 130.323 915.611 131.69 914.269 131.322L891.655 125.132C886.861 123.82 881.911 126.642 880.598 131.436L858.482 212.229C857.17 217.023 859.992 221.974 864.787 223.286L887.484 229.499C887.485 229.499 887.485 229.499 887.485 229.499C887.485 229.499 887.485 229.498 887.486 229.498L888.061 229.656C888.519 229.781 888.937 229.345 888.814 228.885C887.902 225.496 887.852 221.827 888.845 218.197C891.825 207.311 903.066 200.902 913.952 203.882C924.838 206.862 931.248 218.103 928.268 228.989C927.275 232.617 925.364 235.748 922.855 238.2C922.513 238.533 922.651 239.125 923.112 239.251L923.689 239.409C923.689 239.409 923.689 239.409 923.689 239.409C923.689 239.41 923.689 239.41 923.69 239.41L945.579 245.402C950.373 246.714 955.324 243.892 956.636 239.098L962.28 218.481C962.636 217.178 964.348 216.793 965.368 217.68C967.52 219.553 970.117 220.983 973.053 221.787C983.494 224.645 994.276 218.498 997.135 208.056C999.993 197.614 993.845 186.832 983.404 183.974C980.468 183.17 977.505 183.078 974.699 183.594C973.37 183.838 972.092 182.635 972.449 181.332L978.752 158.305C980.064 153.511 977.242 148.56 972.448 147.248L950.645 141.28ZM903.161 243.304C903.074 243.28 902.986 243.256 902.9 243.231L903.423 243.374C903.336 243.352 903.248 243.328 903.161 243.304Z" fill="url(#paint2_linear_864_2910)" fill-opacity="0.6"/>
</g>
<g filter="url(#filter4_b_864_2910)">
<mask id="path-10-inside-1_864_2910" fill="white">
<path fill-rule="evenodd" clip-rule="evenodd" d="M1087.5 240.187C1088.59 239.324 1090.26 240.101 1090.5 241.471C1091.06 244.538 1092.35 247.517 1094.42 250.132C1101.14 258.623 1113.47 260.061 1121.96 253.344C1130.45 246.628 1131.89 234.3 1125.17 225.809C1123.1 223.194 1120.5 221.248 1117.64 220.003C1116.37 219.447 1115.99 217.65 1117.08 216.787L1135.47 202.244C1139.37 199.16 1140.03 193.5 1136.94 189.602L1121.12 169.603C1120.14 168.358 1121.33 166.37 1122.92 166.359C1127.13 166.329 1131.37 164.946 1134.93 162.13C1143.42 155.413 1144.86 143.086 1138.14 134.595C1131.42 126.104 1119.1 124.666 1110.6 131.383C1107.04 134.199 1104.72 138.002 1103.73 142.095C1103.35 143.637 1101.14 144.341 1100.15 143.096L1084.97 123.907C1081.89 120.008 1076.23 119.348 1072.33 122.432L1053.88 137.03C1053.88 137.03 1053.88 137.03 1053.88 137.03C1053.88 137.03 1053.88 137.03 1053.88 137.03L1053.39 137.415C1053.02 137.706 1053.13 138.291 1053.56 138.461C1056.84 139.734 1059.83 141.871 1062.17 144.828C1069.17 153.68 1067.68 166.532 1058.82 173.534C1049.97 180.537 1037.12 179.038 1030.12 170.186C1027.78 167.234 1026.39 163.838 1025.91 160.363C1025.84 159.891 1025.28 159.652 1024.91 159.947L1024.44 160.318C1024.44 160.318 1024.44 160.318 1024.44 160.318C1024.44 160.318 1024.44 160.318 1024.44 160.318L1006.64 174.4C1002.74 177.484 1002.08 183.144 1005.16 187.043L1018.42 203.802C1019.26 204.862 1018.55 206.469 1017.24 206.764C1014.45 207.388 1011.76 208.632 1009.38 210.52C1000.89 217.236 999.448 229.564 1006.16 238.055C1012.88 246.545 1025.21 247.983 1033.7 241.267C1036.09 239.379 1037.92 237.048 1039.16 234.483C1039.75 233.268 1041.48 232.952 1042.32 234.012L1057.13 252.738C1060.22 256.636 1065.88 257.296 1069.77 254.212L1087.5 240.187Z"/>
</mask>
<path fill-rule="evenodd" clip-rule="evenodd" d="M1087.5 240.187C1088.59 239.324 1090.26 240.101 1090.5 241.471C1091.06 244.538 1092.35 247.517 1094.42 250.132C1101.14 258.623 1113.47 260.061 1121.96 253.344C1130.45 246.628 1131.89 234.3 1125.17 225.809C1123.1 223.194 1120.5 221.248 1117.64 220.003C1116.37 219.447 1115.99 217.65 1117.08 216.787L1135.47 202.244C1139.37 199.16 1140.03 193.5 1136.94 189.602L1121.12 169.603C1120.14 168.358 1121.33 166.37 1122.92 166.359C1127.13 166.329 1131.37 164.946 1134.93 162.13C1143.42 155.413 1144.86 143.086 1138.14 134.595C1131.42 126.104 1119.1 124.666 1110.6 131.383C1107.04 134.199 1104.72 138.002 1103.73 142.095C1103.35 143.637 1101.14 144.341 1100.15 143.096L1084.97 123.907C1081.89 120.008 1076.23 119.348 1072.33 122.432L1053.88 137.03C1053.88 137.03 1053.88 137.03 1053.88 137.03C1053.88 137.03 1053.88 137.03 1053.88 137.03L1053.39 137.415C1053.02 137.706 1053.13 138.291 1053.56 138.461C1056.84 139.734 1059.83 141.871 1062.17 144.828C1069.17 153.68 1067.68 166.532 1058.82 173.534C1049.97 180.537 1037.12 179.038 1030.12 170.186C1027.78 167.234 1026.39 163.838 1025.91 160.363C1025.84 159.891 1025.28 159.652 1024.91 159.947L1024.44 160.318C1024.44 160.318 1024.44 160.318 1024.44 160.318C1024.44 160.318 1024.44 160.318 1024.44 160.318L1006.64 174.4C1002.74 177.484 1002.08 183.144 1005.16 187.043L1018.42 203.802C1019.26 204.862 1018.55 206.469 1017.24 206.764C1014.45 207.388 1011.76 208.632 1009.38 210.52C1000.89 217.236 999.448 229.564 1006.16 238.055C1012.88 246.545 1025.21 247.983 1033.7 241.267C1036.09 239.379 1037.92 237.048 1039.16 234.483C1039.75 233.268 1041.48 232.952 1042.32 234.012L1057.13 252.738C1060.22 256.636 1065.88 257.296 1069.77 254.212L1087.5 240.187Z" fill="url(#paint3_linear_864_2910)" fill-opacity="0.91"/>
<path d="M1135.47 202.244L1134.85 201.46L1135.47 202.244ZM1136.94 189.602L1136.16 190.222L1136.94 189.602ZM1084.97 123.907L1085.76 123.286L1084.97 123.907ZM1072.33 122.432L1072.95 123.216L1072.33 122.432ZM1005.16 187.043L1005.95 186.422L1005.16 187.043ZM1069.77 254.212L1070.39 254.997L1069.77 254.212ZM1039.16 234.483L1040.06 234.921L1039.16 234.483ZM1025.91 160.363L1024.91 160.501L1025.91 160.363ZM1053.56 138.461L1053.2 139.393L1053.56 138.461ZM1122.92 166.359L1122.91 165.359L1122.92 166.359ZM1017.24 206.764L1017.45 207.74L1017.24 206.764ZM1053.88 137.03L1053.26 136.246L1053.88 137.03ZM1117.64 220.003L1118.04 219.086L1117.64 220.003ZM1117.08 216.787L1117.71 217.571L1117.08 216.787ZM1103.73 142.095L1104.7 142.332L1103.73 142.095ZM1100.15 143.096L1100.94 142.476L1100.15 143.096ZM1087.5 240.187L1088.12 240.972L1087.5 240.187ZM1095.21 249.512C1093.24 247.029 1092.01 244.202 1091.49 241.293L1089.52 241.649C1090.1 244.873 1091.46 248.005 1093.64 250.752L1095.21 249.512ZM1121.34 252.56C1113.28 258.934 1101.58 257.569 1095.21 249.512L1093.64 250.752C1100.7 259.676 1113.65 261.188 1122.58 254.129L1121.34 252.56ZM1124.39 226.43C1130.76 234.487 1129.39 246.186 1121.34 252.56L1122.58 254.129C1131.5 247.069 1133.01 234.113 1125.95 225.189L1124.39 226.43ZM1117.24 220.92C1119.95 222.101 1122.42 223.947 1124.39 226.43L1125.95 225.189C1123.78 222.442 1121.05 220.395 1118.04 219.086L1117.24 220.92ZM1134.85 201.46L1116.46 216.002L1117.71 217.571L1136.09 203.028L1134.85 201.46ZM1136.16 190.222C1138.9 193.687 1138.31 198.718 1134.85 201.46L1136.09 203.028C1140.42 199.602 1141.15 193.313 1137.73 188.981L1136.16 190.222ZM1120.34 170.223L1136.16 190.222L1137.73 188.981L1121.91 168.983L1120.34 170.223ZM1122.93 167.359C1127.35 167.327 1131.81 165.874 1135.55 162.914L1134.31 161.346C1130.93 164.019 1126.91 165.33 1122.91 165.359L1122.93 167.359ZM1135.55 162.914C1144.47 155.855 1145.98 142.898 1138.92 133.974L1137.36 135.215C1143.73 143.273 1142.36 154.972 1134.31 161.346L1135.55 162.914ZM1138.92 133.974C1131.86 125.051 1118.91 123.539 1109.98 130.598L1111.23 132.167C1119.28 125.793 1130.98 127.158 1137.36 135.215L1138.92 133.974ZM1109.98 130.598C1106.24 133.558 1103.8 137.556 1102.75 141.858L1104.7 142.332C1105.64 138.448 1107.85 134.84 1111.23 132.167L1109.98 130.598ZM1084.19 124.527L1099.37 143.717L1100.94 142.476L1085.76 123.286L1084.19 124.527ZM1072.95 123.216C1076.42 120.475 1081.45 121.062 1084.19 124.527L1085.76 123.286C1082.33 118.955 1076.04 118.221 1071.71 121.648L1072.95 123.216ZM1054.5 137.815L1072.95 123.216L1071.71 121.648L1053.26 136.246L1054.5 137.815ZM1054.01 138.2L1054.5 137.815L1053.26 136.246L1052.77 136.631L1054.01 138.2ZM1062.96 144.207C1060.5 141.107 1057.36 138.865 1053.93 137.529L1053.2 139.393C1056.32 140.603 1059.16 142.634 1061.39 145.448L1062.96 144.207ZM1059.44 174.319C1068.73 166.974 1070.3 153.492 1062.96 144.207L1061.39 145.448C1068.05 153.867 1066.62 166.09 1058.2 172.75L1059.44 174.319ZM1029.33 170.806C1036.68 180.091 1050.16 181.664 1059.44 174.319L1058.2 172.75C1049.78 179.41 1037.56 177.984 1030.9 169.565L1029.33 170.806ZM1024.91 160.501C1025.43 164.148 1026.88 167.712 1029.33 170.806L1030.9 169.565C1028.68 166.757 1027.36 163.528 1026.9 160.224L1024.91 160.501ZM1025.06 161.103L1025.53 160.732L1024.29 159.163L1023.82 159.534L1025.06 161.103ZM1007.26 175.185L1025.06 161.103L1023.82 159.534L1006.02 173.616L1007.26 175.185ZM1005.95 186.422C1003.21 182.957 1003.79 177.926 1007.26 175.185L1006.02 173.616C1001.69 177.043 1000.95 183.332 1004.38 187.663L1005.95 186.422ZM1019.2 203.182L1005.95 186.422L1004.38 187.663L1017.64 204.423L1019.2 203.182ZM1010 211.304C1012.26 209.511 1014.82 208.332 1017.45 207.74L1017.02 205.789C1014.09 206.445 1011.26 207.752 1008.76 209.735L1010 211.304ZM1006.95 237.434C1000.58 229.377 1001.94 217.678 1010 211.304L1008.76 209.735C999.833 216.794 998.321 229.751 1005.38 238.675L1006.95 237.434ZM1033.08 240.483C1025.02 246.856 1013.32 245.492 1006.95 237.434L1005.38 238.675C1012.44 247.599 1025.4 249.11 1034.32 242.051L1033.08 240.483ZM1038.26 234.046C1037.08 236.478 1035.35 238.69 1033.08 240.483L1034.32 242.051C1036.83 240.068 1038.75 237.618 1040.06 234.921L1038.26 234.046ZM1057.92 252.117L1043.1 233.392L1041.53 234.632L1056.35 253.358L1057.92 252.117ZM1069.15 253.428C1065.69 256.169 1060.66 255.582 1057.92 252.117L1056.35 253.358C1059.77 257.689 1066.06 258.423 1070.39 254.997L1069.15 253.428ZM1086.88 239.403L1069.15 253.428L1070.39 254.997L1088.12 240.972L1086.88 239.403ZM1040.06 234.921C1040.2 234.632 1040.49 234.433 1040.81 234.382C1041.12 234.332 1041.37 234.429 1041.53 234.632L1043.1 233.392C1042.42 232.535 1041.4 232.26 1040.49 232.407C1039.59 232.553 1038.71 233.12 1038.26 234.046L1040.06 234.921ZM1023.82 159.534C1024.25 159.191 1024.88 159.265 1025.22 159.698L1023.66 160.939C1024 161.372 1024.63 161.445 1025.06 161.103L1023.82 159.534ZM1026.9 160.224C1026.73 159.033 1025.3 158.359 1024.29 159.163L1025.53 160.732C1025.4 160.833 1025.24 160.834 1025.13 160.789C1025.03 160.745 1024.93 160.643 1024.91 160.501L1026.9 160.224ZM1052.77 136.631C1051.76 137.429 1052.09 138.96 1053.2 139.393L1053.93 137.529C1054.06 137.582 1054.14 137.704 1054.16 137.818C1054.18 137.936 1054.14 138.096 1054.01 138.2L1052.77 136.631ZM1121.91 168.983C1121.73 168.764 1121.7 168.417 1121.93 168.015C1122.16 167.606 1122.56 167.361 1122.93 167.359L1122.91 165.359C1121.69 165.368 1120.7 166.123 1120.19 167.022C1119.67 167.928 1119.53 169.197 1120.34 170.223L1121.91 168.983ZM1017.64 204.423C1017.8 204.626 1017.83 204.898 1017.71 205.188C1017.59 205.486 1017.33 205.718 1017.02 205.789L1017.45 207.74C1018.46 207.515 1019.21 206.796 1019.56 205.952C1019.91 205.1 1019.88 204.039 1019.2 203.182L1017.64 204.423ZM1053.26 136.246C1052.81 136.602 1052.75 137.264 1053.13 137.693L1054.63 136.367C1055.01 136.797 1054.95 137.458 1054.5 137.815L1053.26 136.246ZM1053.13 137.693C1052.75 137.263 1052.81 136.602 1053.26 136.246L1054.5 137.815C1054.95 137.459 1055.01 136.798 1054.63 136.367L1053.13 137.693ZM1118.04 219.086C1117.74 218.955 1117.52 218.662 1117.46 218.328C1117.4 218.002 1117.5 217.735 1117.71 217.571L1116.46 216.002C1115.58 216.702 1115.32 217.765 1115.49 218.693C1115.66 219.612 1116.27 220.496 1117.24 220.92L1118.04 219.086ZM1025.22 159.698C1024.88 159.26 1024.25 159.195 1023.82 159.534L1025.06 161.103C1024.63 161.441 1024 161.377 1023.66 160.939L1025.22 159.698ZM1102.75 141.858C1102.67 142.216 1102.34 142.548 1101.89 142.681C1101.44 142.813 1101.11 142.694 1100.94 142.476L1099.37 143.717C1100.18 144.743 1101.45 144.895 1102.45 144.6C1103.44 144.307 1104.41 143.515 1104.7 142.332L1102.75 141.858ZM1091.49 241.293C1091.3 240.249 1090.58 239.455 1089.72 239.077C1088.86 238.696 1087.77 238.704 1086.88 239.403L1088.12 240.972C1088.33 240.808 1088.61 240.773 1088.92 240.907C1089.23 241.044 1089.46 241.324 1089.52 241.649L1091.49 241.293Z" fill="url(#paint4_linear_864_2910)" mask="url(#path-10-inside-1_864_2910)"/>
</g>
<g filter="url(#filter5_b_864_2910)">
<path fill-rule="evenodd" clip-rule="evenodd" d="M1018.47 372.647C1023.26 373.959 1028.21 371.136 1029.53 366.342L1035.34 345.104C1035.71 343.744 1037.55 343.396 1038.56 344.385C1040.87 346.655 1043.77 348.384 1047.12 349.299C1057.56 352.158 1068.34 346.01 1071.2 335.568C1074.06 325.126 1067.91 314.344 1057.47 311.486C1054.12 310.57 1050.74 310.579 1047.6 311.356C1046.23 311.695 1044.82 310.457 1045.2 309.097L1051.64 285.549C1052.95 280.755 1050.13 275.805 1045.34 274.493L1022.57 268.261C1022.36 268.204 1022.15 268.326 1022.09 268.534C1022.04 268.742 1021.82 268.864 1021.61 268.807L1021.41 268.752C1020.95 268.626 1020.53 269.065 1020.65 269.526C1021.57 272.914 1021.62 276.582 1020.62 280.211C1017.64 291.097 1006.4 297.507 995.515 294.527C984.629 291.547 978.22 280.306 981.2 269.42C982.193 265.789 984.106 262.657 986.617 260.205C986.958 259.872 986.82 259.283 986.361 259.157L986.161 259.103C985.954 259.046 985.831 258.831 985.888 258.624C985.945 258.416 985.823 258.201 985.615 258.144L964.544 252.377C959.75 251.064 954.8 253.887 953.488 258.681L947.219 281.58C946.821 283.034 944.741 283.312 943.765 282.163C941.298 279.259 937.961 277.042 934.009 275.96C923.567 273.102 912.785 279.25 909.927 289.692C907.068 300.134 913.216 310.915 923.658 313.774C927.61 314.856 931.611 314.647 935.213 313.404C936.638 312.912 938.287 314.212 937.889 315.666L931.372 339.474C930.059 344.268 932.882 349.218 937.676 350.53L1018.47 372.647ZM1006.31 255.104L1006.35 255.115L1006.27 255.094L1006.31 255.104Z" fill="#FFA05B" fill-opacity="0.6"/>
</g>
<g filter="url(#filter6_b_864_2910)">
<path fill-rule="evenodd" clip-rule="evenodd" d="M922.021 240.682C920.607 240.295 920.296 238.316 921.369 237.317C923.834 235.022 925.712 232.035 926.666 228.547C929.403 218.55 923.517 208.227 913.519 205.49C903.522 202.753 893.199 208.639 890.462 218.637C889.507 222.124 889.602 225.651 890.554 228.882C890.969 230.288 889.693 231.832 888.279 231.445L864.351 224.895C859.556 223.583 854.606 226.405 853.294 231.199L831.178 311.992C829.865 316.786 832.688 321.737 837.482 323.049L918.275 345.165C923.069 346.477 928.019 343.655 929.332 338.861L935.88 314.94C935.881 314.939 935.882 314.939 935.882 314.937L945.121 281.187C945.121 281.186 945.121 281.185 945.12 281.184L951.448 258.068C952.76 253.274 949.937 248.323 945.143 247.011L922.021 240.682ZM945.12 281.184L935.88 314.94C931.939 316.327 927.551 316.571 923.217 315.384C911.887 312.283 905.216 300.583 908.317 289.252C911.419 277.922 923.119 271.251 934.449 274.353C938.783 275.539 942.435 277.983 945.12 281.184Z" fill="#FFA05B" fill-opacity="0.6"/>
</g>
<path opacity="0.7" d="M917.472 205.274L891.832 125.178L909.532 130.023L947.831 246.016L923.293 239.299C922.488 239.078 922.819 237.872 923.733 237.69C924.648 237.507 928.641 230.817 929.268 225.367C929.77 221.008 928.337 217.185 927.558 215.819C927.205 215.001 925.988 212.708 923.942 210.072C921.896 207.437 918.776 205.775 917.472 205.274Z" fill="url(#paint5_linear_864_2910)"/>
<path opacity="0.7" d="M883.467 228.397L871.631 173.7L870.648 167.81L856.113 220.909L883.467 228.397Z" fill="url(#paint6_linear_864_2910)"/>
<path opacity="0.7" d="M907.083 339.575L884.046 231.22C883.916 230.609 883.457 230.122 882.855 229.957L857.285 222.958C856.396 222.715 855.479 223.238 855.235 224.127L829.248 319.062C829.005 319.951 829.528 320.869 830.416 321.112L905.01 341.531C906.216 341.861 907.343 340.798 907.083 339.575Z" fill="url(#paint7_linear_864_2910)"/>
<path d="M1034.43 346.691L1014.44 290.193C1023.96 280.692 1020.93 271.215 1020.86 269.898C1020.8 268.844 1021.59 268.801 1022 268.911L1051.36 276.95C1052.97 277.39 1052.86 279.378 1052.6 280.316L1045.77 305.257C1045.24 306.695 1044.28 309.777 1044.75 310.597C1045.21 311.416 1047.43 311.331 1048.48 311.185C1060.22 310.94 1061.72 311.783 1068.22 319.617C1073.42 325.884 1072.01 334.204 1070.66 337.58C1069.05 341.322 1063.72 349.001 1055.21 349.783C1044.56 350.761 1038.24 343.841 1037.44 343.621C1036.63 343.401 1036.63 343.401 1035.72 343.583C1034.98 343.728 1034.56 345.715 1034.43 346.691Z" fill="url(#paint8_linear_864_2910)"/>
<path d="M1096.5 230.5L1066.06 161.628C1066.61 159.617 1067.2 155.886 1065.01 149.666C1062.82 143.445 1058.03 140.405 1055.33 139.232C1053.16 138.293 1053.38 137.401 1053.76 137.072L1074.66 120.741L1123.74 211.577L1116.64 216.984C1115.96 218.183 1116.72 219.313 1117.18 219.728C1125.99 223.87 1132.31 235.544 1127.84 245.563C1124.26 253.578 1100.09 230.04 1096.5 230.5Z" fill="url(#paint9_linear_864_2910)"/>
<defs>
<filter id="filter0_d_864_2910" x="0" y="0" width="1344" height="482" filterUnits="userSpaceOnUse" color-interpolation-filters="sRGB">
<feFlood flood-opacity="0" result="BackgroundImageFix"/>
<feColorMatrix in="SourceAlpha" type="matrix" values="0 0 0 0 0 0 0 0 0 0 0 0 0 0 0 0 0 0 127 0" result="hardAlpha"/>
<feMorphology radius="8" operator="dilate" in="SourceAlpha" result="effect1_dropShadow_864_2910"/>
<feOffset dy="19"/>
<feGaussianBlur stdDeviation="32"/>
<feComposite in2="hardAlpha" operator="out"/>
<feColorMatrix type="matrix" values="0 0 0 0 0 0 0 0 0 0 0 0 0 0 0 0 0 0 0.04 0"/>
<feBlend mode="normal" in2="BackgroundImageFix" result="effect1_dropShadow_864_2910"/>
<feBlend mode="normal" in="SourceGraphic" in2="effect1_dropShadow_864_2910" result="shape"/>
</filter>
<filter id="filter1_b_864_2910" x="834.992" y="218.845" width="165.16" height="166.181" filterUnits="userSpaceOnUse" color-interpolation-filters="sRGB">
<feFlood flood-opacity="0" result="BackgroundImageFix"/>
<feGaussianBlur in="BackgroundImageFix" stdDeviation="6"/>
<feComposite in2="SourceAlpha" operator="in" result="effect1_backgroundBlur_864_2910"/>
<feBlend mode="normal" in="SourceGraphic" in2="effect1_backgroundBlur_864_2910" result="shape"/>
</filter>
<filter id="filter2_b_864_2910" x="989.637" y="115.513" width="156.438" height="153.085" filterUnits="userSpaceOnUse" color-interpolation-filters="sRGB">
<feFlood flood-opacity="0" result="BackgroundImageFix"/>
<feGaussianBlur in="BackgroundImageFix" stdDeviation="4"/>
<feComposite in2="SourceAlpha" operator="in" result="effect1_backgroundBlur_864_2910"/>
<feBlend mode="normal" in="SourceGraphic" in2="effect1_backgroundBlur_864_2910" result="shape"/>
</filter>
<filter id="filter3_b_864_2910" x="851.16" y="98.0264" width="153.676" height="154.697" filterUnits="userSpaceOnUse" color-interpolation-filters="sRGB">
<feFlood flood-opacity="0" result="BackgroundImageFix"/>
<feGaussianBlur in="BackgroundImageFix" stdDeviation="3.5"/>
<feComposite in2="SourceAlpha" operator="in" result="effect1_backgroundBlur_864_2910"/>
<feBlend mode="normal" in="SourceGraphic" in2="effect1_backgroundBlur_864_2910" result="shape"/>
</filter>
<filter id="filter4_b_864_2910" x="997.934" y="116.49" width="148.438" height="145.083" filterUnits="userSpaceOnUse" color-interpolation-filters="sRGB">
<feFlood flood-opacity="0" result="BackgroundImageFix"/>
<feGaussianBlur in="BackgroundImageFix" stdDeviation="2"/>
<feComposite in2="SourceAlpha" operator="in" result="effect1_backgroundBlur_864_2910"/>
<feBlend mode="normal" in="SourceGraphic" in2="effect1_backgroundBlur_864_2910" result="shape"/>
</filter>
<filter id="filter5_b_864_2910" x="902.227" y="245.055" width="176.676" height="134.913" filterUnits="userSpaceOnUse" color-interpolation-filters="sRGB">
<feFlood flood-opacity="0" result="BackgroundImageFix"/>
<feGaussianBlur in="BackgroundImageFix" stdDeviation="3.5"/>
<feComposite in2="SourceAlpha" operator="in" result="effect1_backgroundBlur_864_2910"/>
<feBlend mode="normal" in="SourceGraphic" in2="effect1_backgroundBlur_864_2910" result="shape"/>
</filter>
<filter id="filter6_b_864_2910" x="823.855" y="197.819" width="134.914" height="154.667" filterUnits="userSpaceOnUse" color-interpolation-filters="sRGB">
<feFlood flood-opacity="0" result="BackgroundImageFix"/>
<feGaussianBlur in="BackgroundImageFix" stdDeviation="3.5"/>
<feComposite in2="SourceAlpha" operator="in" result="effect1_backgroundBlur_864_2910"/>
<feBlend mode="normal" in="SourceGraphic" in2="effect1_backgroundBlur_864_2910" result="shape"/>
</filter>
<linearGradient id="paint0_linear_864_2910" x1="887.5" y1="243.5" x2="923.5" y2="391" gradientUnits="userSpaceOnUse">
<stop stop-color="#FC8D3D"/>
<stop offset="1" stop-color="#FFA05B" stop-opacity="0"/>
</linearGradient>
<linearGradient id="paint1_linear_864_2910" x1="1099.5" y1="275" x2="1040.5" y2="209" gradientUnits="userSpaceOnUse">
<stop stop-color="#FFD0AE"/>
<stop offset="0.0001" stop-color="#FFD0AE" stop-opacity="0.89"/>
<stop offset="1" stop-color="#FF9243"/>
</linearGradient>
<linearGradient id="paint2_linear_864_2910" x1="901" y1="138" x2="1061" y2="286.5" gradientUnits="userSpaceOnUse">
<stop stop-color="#FFA05B"/>
<stop offset="1" stop-color="#FFA05B" stop-opacity="0.84"/>
</linearGradient>
<linearGradient id="paint3_linear_864_2910" x1="1023.5" y1="236" x2="1094" y2="144" gradientUnits="userSpaceOnUse">
<stop stop-color="#FB7E23"/>
<stop offset="1" stop-color="#FB7E23" stop-opacity="0.47"/>
</linearGradient>
<linearGradient id="paint4_linear_864_2910" x1="1010" y1="143.5" x2="1105" y2="202" gradientUnits="userSpaceOnUse">
<stop stop-color="white"/>
<stop offset="1" stop-color="white" stop-opacity="0"/>
</linearGradient>
<linearGradient id="paint5_linear_864_2910" x1="872.983" y1="58.1831" x2="947.899" y2="252.088" gradientUnits="userSpaceOnUse">
<stop stop-color="white"/>
<stop offset="1" stop-color="white" stop-opacity="0"/>
</linearGradient>
<linearGradient id="paint6_linear_864_2910" x1="861.546" y1="44.6747" x2="886.061" y2="271.051" gradientUnits="userSpaceOnUse">
<stop stop-color="white"/>
<stop offset="1" stop-color="white" stop-opacity="0"/>
</linearGradient>
<linearGradient id="paint7_linear_864_2910" x1="853.859" y1="-23.5906" x2="868.23" y2="331.463" gradientUnits="userSpaceOnUse">
<stop stop-color="white"/>
<stop offset="1" stop-color="white" stop-opacity="0"/>
</linearGradient>
<linearGradient id="paint8_linear_864_2910" x1="972.206" y1="119.072" x2="1033.67" y2="346.482" gradientUnits="userSpaceOnUse">
<stop stop-color="white"/>
<stop offset="1" stop-color="white" stop-opacity="0"/>
</linearGradient>
<linearGradient id="paint9_linear_864_2910" x1="1014.07" y1="-52.8125" x2="1075.64" y2="246.841" gradientUnits="userSpaceOnUse">
<stop stop-color="white"/>
<stop offset="1" stop-color="white" stop-opacity="0"/>
</linearGradient>
</defs>
</svg>
