<svg width="1344" height="482" viewBox="0 0 1344 482" fill="none" xmlns="http://www.w3.org/2000/svg">
<g filter="url(#filter0_d_864_3037)">
<rect x="72" y="53" width="1200" height="338" rx="16" fill="white"/>
</g>
<path d="M100 53H190V97C190 105.837 182.837 113 174 113H116C107.163 113 100 105.837 100 97V53Z" fill="#FB7E23"/>
<path d="M144.93 96.3516C139.34 96.3516 135.332 93.2754 135.227 88.8281H140.57C140.658 90.7266 142.504 91.9746 144.965 91.9922C147.496 91.9746 149.307 90.5684 149.289 88.5117C149.307 86.4375 147.461 84.9785 144.473 84.9609H142.117V81.0586H144.473C146.986 81.0586 148.744 79.6875 148.727 77.6836C148.744 75.7324 147.25 74.3965 145 74.4141C142.75 74.3965 140.904 75.6621 140.816 77.6133H135.754C135.842 73.2363 139.779 70.1953 145 70.1953C150.309 70.1953 153.842 73.3418 153.824 77.3672C153.842 80.2148 151.855 82.2363 149.008 82.7461V82.957C152.752 83.4141 154.809 85.6816 154.773 88.8633C154.809 93.2227 150.678 96.3516 144.93 96.3516Z" fill="white"/>
<path d="M126.891 261.281V264.562H100.859V261.281H111.828V255.469H103.609V241.531H123.984V255.469H115.797V261.281H126.891ZM107.547 252.344H120.047V244.719H107.547V252.344ZM152.328 239.469V255.531H148.328V239.469H152.328ZM128.953 247.625C128.953 243.562 132.297 240.75 136.734 240.75C141.156 240.75 144.5 243.562 144.516 247.625C144.5 251.531 141.156 254.406 136.734 254.406C132.297 254.406 128.953 251.531 128.953 247.625ZM132.859 247.625C132.828 249.734 134.453 251.062 136.734 251.062C138.953 251.062 140.562 249.734 140.578 247.625C140.562 245.391 138.953 244.094 136.734 244.094C134.453 244.094 132.828 245.391 132.859 247.625ZM133.266 267.562V256.812H152.328V267.562H133.266ZM137.203 264.375H148.422V259.969H137.203V264.375ZM180.266 239.469V260.938H176.266V258.688H170.828V255.969H176.266V239.469H180.266ZM156.078 252.062C161.281 252.031 168.312 251.953 174.328 251.219L174.547 254.062C172.297 254.438 169.969 254.703 167.672 254.875V260.281H163.672V264.188H180.891V267.375H159.703V258.875H163.672V255.109C161.125 255.203 158.703 255.219 156.547 255.219L156.078 252.062ZM158.172 245.531C158.172 242.5 161.094 240.422 165.328 240.438C169.453 240.422 172.406 242.5 172.422 245.531C172.406 248.578 169.453 250.547 165.328 250.531C161.094 250.547 158.172 248.578 158.172 245.531ZM161.953 245.531C161.938 246.906 163.297 247.672 165.328 247.656C167.234 247.672 168.609 246.906 168.641 245.531C168.609 244.125 167.234 243.344 165.328 243.344C163.297 243.344 161.938 244.125 161.953 245.531ZM217.234 261.375V264.625H191.203V261.375H202.203V255.812H206.172V261.375H217.234ZM192.078 253.688C198.562 252.906 201.781 249.688 202.141 246.531H193.453V243.344H202.203V239.781H206.172V243.344H214.953V246.531H206.266C206.594 249.688 209.828 252.906 216.297 253.688L214.859 256.781C209.766 256.125 206.094 254.016 204.172 251.078C202.281 254.016 198.625 256.125 193.547 256.781L192.078 253.688ZM243.453 239.438V267.875H239.672V253.594H236.922V266.5H233.266V239.906H236.922V250.406H239.672V239.438H243.453ZM219.672 261.438V242.719H230.266V245.938H223.672V258.094C226.422 258.047 228.859 257.891 231.609 257.406L231.891 260.656C228.422 261.312 225.391 261.422 221.641 261.438H219.672ZM268.953 239.438V250.562H273.141V253.844H268.953V267.875H265.016V239.438H268.953ZM246.359 246.875V243.688H252.797V239.875H256.797V243.688H263.078V246.875H246.359ZM247.516 255.25C247.5 251.281 250.594 248.453 254.797 248.469C258.938 248.453 262.047 251.281 262.047 255.25C262.047 259.219 258.938 262.016 254.797 262.031C250.594 262.016 247.5 259.219 247.516 255.25ZM251.328 255.25C251.328 257.453 252.781 258.766 254.797 258.75C256.781 258.766 258.234 257.453 258.234 255.25C258.234 253.062 256.781 251.719 254.797 251.688C252.781 251.719 251.328 253.062 251.328 255.25ZM298.078 239.438V267.875H294.047V239.438H298.078ZM274.266 259.812C281.609 256.344 284.844 251.844 285.484 245.531H275.797V242.406H289.547C289.531 251.031 286.516 258.203 276.359 263L274.266 259.812Z" fill="#393939"/>
<path d="M116.602 316.066V317.355H100.703V316.066H107.852V311.828H102.578V303.684H114.629V311.828H109.355V316.066H116.602ZM104.082 310.598H113.145V304.914H104.082V310.598ZM132.324 302.238V312.16H130.801V302.238H132.324ZM118.398 307.219C118.389 304.797 120.312 303.156 122.949 303.156C125.586 303.156 127.49 304.797 127.5 307.219C127.49 309.602 125.586 311.262 122.949 311.262C120.312 311.262 118.389 309.602 118.398 307.219ZM119.902 307.219C119.883 308.83 121.162 309.963 122.949 309.953C124.717 309.963 125.996 308.83 125.996 307.219C125.996 305.598 124.717 304.455 122.949 304.465C121.162 304.455 119.883 305.598 119.902 307.219ZM121.035 319.348V313.098H132.324V319.348H121.035ZM122.539 318.098H130.82V314.348H122.539V318.098ZM149.59 302.238V315.422H148.047V313.625H144.453V312.512H148.047V302.238H149.59ZM135.176 310.285C138.408 310.266 142.764 310.236 146.484 309.777L146.582 310.891C145.039 311.135 143.408 311.291 141.816 311.389V314.816H140.273V311.467C138.516 311.535 136.846 311.535 135.391 311.535L135.176 310.285ZM136.582 305.969C136.572 304.143 138.311 302.941 140.879 302.941C143.428 302.941 145.166 304.143 145.176 305.969C145.166 307.824 143.428 308.977 140.879 308.977C138.311 308.977 136.572 307.824 136.582 305.969ZM137.676 319.211V314.133H139.219V317.922H150.02V319.211H137.676ZM138.047 305.969C138.027 307.102 139.18 307.834 140.879 307.844C142.529 307.834 143.701 307.102 143.711 305.969C143.701 304.855 142.529 304.094 140.879 304.113C139.18 304.094 138.027 304.855 138.047 305.969ZM168.398 309.523V310.754H152.559V309.523H168.398ZM154.473 313.508V312.316H166.348V316.34H156.035V318.137H166.875V319.387H154.512V315.188H164.844V313.508H154.473ZM154.668 308.098V302.824H166.328V304.055H156.211V306.848H166.504V308.098H154.668ZM179.473 304.152V305.051C179.463 306.428 179.463 308.723 178.965 311.945L177.422 311.809C177.9 308.898 177.939 306.789 177.93 305.402H170.645V304.152H179.473ZM169.668 314.484C170.811 314.475 172.08 314.465 173.418 314.436V309.113H174.922V314.387C176.846 314.318 178.818 314.191 180.625 313.977L180.703 315.129C177.051 315.695 172.969 315.773 169.863 315.754L169.668 314.484ZM181.719 319.582V302.219H183.242V309.484H186.055V310.812H183.242V319.582H181.719ZM205.723 302.219V306.848H208.34V308.156H205.723V312.688H204.199V302.219H205.723ZM192.188 305.344V304.074H196.602V302.082H198.125V304.074H202.539V305.344H192.188ZM193.184 309.289C193.174 307.434 194.844 306.203 197.363 306.203C199.854 306.203 201.523 307.434 201.543 309.289C201.523 311.174 199.854 312.395 197.363 312.395C194.844 312.395 193.174 311.174 193.184 309.289ZM194.648 309.289C194.639 310.471 195.723 311.203 197.363 311.223C198.984 311.203 200.078 310.471 200.098 309.289C200.078 308.156 198.984 307.395 197.363 307.395C195.723 307.395 194.639 308.156 194.648 309.289ZM194.766 319.348V313.684H205.723V319.348H194.766ZM196.27 318.098H204.199V314.914H196.27V318.098ZM213.75 304.328C213.73 307.971 213.223 312.072 210.684 315.441L209.473 314.738C211.641 312.023 212.285 308.791 212.412 305.598H209.824V304.328H213.75ZM213.379 315.871C215.771 312.805 216.191 308.84 216.26 305.598H214.297V304.328H217.598C217.598 305.744 217.559 307.375 217.344 309.055H219.648V302.688H221.113V318.703H219.648V310.324H217.139C216.738 312.492 215.986 314.689 214.57 316.594L213.379 315.871ZM222.891 319.582V302.219H224.375V319.582H222.891ZM237.617 305.52C237.627 307.795 239.326 309.826 241.875 310.656L241.152 311.867C239.15 311.203 237.637 309.826 236.885 308.078C236.143 310.07 234.541 311.623 232.461 312.375L231.68 311.145C234.277 310.266 236.094 308.029 236.113 305.52V304.777H232.148V303.508H241.523V304.777H237.617V305.52ZM233.984 316.34C233.994 314.338 236.172 313.176 239.746 313.176C243.311 313.176 245.469 314.338 245.469 316.34C245.469 318.371 243.311 319.543 239.746 319.543C236.172 319.543 233.994 318.371 233.984 316.34ZM235.527 316.34C235.508 317.59 237.129 318.322 239.746 318.312C242.373 318.322 243.975 317.59 243.984 316.34C243.975 315.129 242.373 314.406 239.746 314.406C237.129 314.406 235.508 315.129 235.527 316.34ZM243.789 312.707V302.219H245.312V306.652H247.93V307.941H245.312V312.707H243.789ZM264.922 316.047V317.316H249.023V316.047H256.133V311.789H257.637V316.047H264.922ZM249.648 310.715C252.686 310.197 256.064 307.658 256.074 304.738V303.41H257.676V304.738C257.686 307.639 261.113 310.197 264.141 310.715L263.457 311.984C260.811 311.438 258.018 309.65 256.895 307.15C255.752 309.641 252.988 311.438 250.332 311.984L249.648 310.715ZM282.188 310.285V311.496H266.289V310.285H282.188ZM268.203 314.035V312.883H280.195V316.574H269.766V318.234H280.762V319.348H268.223V315.52H278.672V314.035H268.203ZM268.301 303.859V302.746H280.137V306.34H269.883V307.863H280.449V308.977H268.359V305.285H278.594V303.859H268.301ZM304.512 316.066V317.355H288.613V316.066H295.781V311.848H297.324V316.066H304.512ZM289.395 311.223C292.334 310.725 295.742 308.293 295.742 305.52V305.09H289.922V303.801H303.145V305.09H297.324V305.52C297.334 308.293 300.752 310.676 303.75 311.164L303.125 312.375C300.469 311.848 297.666 310.158 296.553 307.756C295.439 310.188 292.646 311.916 290.039 312.453L289.395 311.223ZM313.809 302.434C317.666 302.434 319.932 303.508 319.941 305.441C319.932 307.395 317.666 308.459 313.809 308.469C309.932 308.459 307.656 307.395 307.656 305.441C307.656 303.508 309.932 302.434 313.809 302.434ZM305.898 310.773V309.523H321.719V310.773H317.305V312.492H319.688V316.379H309.375V318.176H320.215V319.387H307.852V315.246H318.184V313.664H307.812V312.492H310.215V310.773H305.898ZM309.258 305.441C309.238 306.633 310.928 307.277 313.809 307.297C316.689 307.277 318.369 306.633 318.379 305.441C318.369 304.299 316.689 303.625 313.809 303.605C310.928 303.625 309.238 304.299 309.258 305.441ZM311.719 312.492H315.781V310.773H311.719V312.492ZM336.758 302.16V306.379H339.395V307.648H336.758V311.77H335.234V302.16H336.758ZM323.223 305.031V303.801H327.637V302.043H329.16V303.801H333.574V305.031H323.223ZM324.219 308.664C324.209 306.906 325.869 305.822 328.398 305.812C330.918 305.822 332.559 306.906 332.578 308.664C332.559 310.432 330.918 311.506 328.398 311.516C325.869 311.506 324.209 310.432 324.219 308.664ZM325.684 313.82V312.668H336.758V316.516H327.227V318.215H337.402V319.387H325.723V315.383H335.234V313.82H325.684ZM325.684 308.664C325.674 309.709 326.748 310.363 328.398 310.363C330.039 310.363 331.113 309.709 331.133 308.664C331.113 307.629 330.039 306.955 328.398 306.945C326.748 306.955 325.674 307.629 325.684 308.664ZM354.199 303.84C354.209 306.291 357.393 308.4 360.527 308.84L359.902 310.09C357.207 309.641 354.531 308.146 353.418 306.018C352.305 308.166 349.639 309.641 346.934 310.09L346.309 308.84C349.443 308.4 352.617 306.33 352.617 303.84V302.844H354.199V303.84ZM345.488 313.293V312.004H361.309V313.293H354.121V319.582H352.617V313.293H345.488ZM373.672 313.879C373.662 315.412 374.492 317.043 376.143 317.98C377.803 316.955 378.682 315.217 378.672 313.879V312.922H380.176V313.879C380.166 315.666 381.484 317.443 383.711 318.215L382.949 319.348C381.211 318.732 380 317.521 379.395 316.066C378.857 317.473 377.793 318.811 376.191 319.484C374.502 318.84 373.428 317.57 372.91 316.115C372.285 317.512 371.094 318.723 369.434 319.348L368.652 318.215C370.85 317.395 372.168 315.539 372.188 313.879V312.922H373.672V313.879ZM368.203 307.316C368.193 304.895 370.117 303.244 372.754 303.254C375.391 303.244 377.295 304.895 377.305 307.316C377.295 309.699 375.391 311.34 372.754 311.34C370.117 311.34 368.193 309.699 368.203 307.316ZM369.707 307.316C369.688 308.928 370.967 310.061 372.754 310.07C374.521 310.061 375.801 308.928 375.801 307.316C375.801 305.695 374.521 304.543 372.754 304.562C370.967 304.543 369.688 305.695 369.707 307.316ZM380.605 312.16V302.238H382.129V312.16H380.605ZM399.102 310.363V311.613H393.73V316.105H400.977V317.395H385.078V316.105H392.227V311.613H387.109V303.645H398.926V304.895H388.652V310.363H399.102ZM418.242 311.789V313.059H402.344V311.789H409.531V309.953H404.414V305.715H414.648V303.918H404.355V302.668H416.191V306.867H405.938V308.723H416.562V309.953H411.035V311.789H418.242ZM404.121 315.637V314.387H416.289V319.426H414.746V315.637H404.121ZM116.602 348.066V349.355H100.703V348.066H107.852V343.828H102.578V335.684H114.629V343.828H109.355V348.066H116.602ZM104.082 342.598H113.145V336.914H104.082V342.598ZM132.305 334.219V351.621H130.762V334.219H132.305ZM118.633 341.621C118.643 337.93 120.479 335.576 123.066 335.566C125.645 335.576 127.51 337.93 127.5 341.621C127.51 345.322 125.645 347.666 123.066 347.656C120.479 347.666 118.643 345.322 118.633 341.621ZM120.117 341.621C120.117 344.443 121.328 346.299 123.066 346.289C124.814 346.299 126.016 344.443 126.016 341.621C126.016 338.799 124.814 336.943 123.066 336.934C121.328 336.943 120.117 338.799 120.117 341.621ZM148.848 334.219V339.102H151.465V340.391H148.848V345.684H147.324V334.219H148.848ZM136.074 343.496V335.566H143.789V336.836H137.578V342.227C141.094 342.227 143.115 342.119 145.449 341.641L145.605 342.91C143.174 343.369 141.094 343.506 137.422 343.496H136.074ZM136.953 350.293C140.01 349.766 142.812 347.939 142.812 345.41V344.766H144.336V345.41C144.326 347.939 147.139 349.766 150.215 350.293L149.59 351.504C147.012 351.025 144.629 349.697 143.594 347.686C142.529 349.697 140.137 351.025 137.559 351.504L136.953 350.293ZM161.211 336.777C161.221 339.756 164.619 342.402 167.637 342.969L166.934 344.258C164.307 343.652 161.553 341.787 160.43 339.238C159.297 341.787 156.553 343.643 153.926 344.258L153.223 342.969C156.23 342.393 159.6 339.766 159.609 336.777V335.449H161.211V336.777ZM152.559 349.219V347.949H168.457V349.219H152.559ZM184.785 334.219V351.582H183.301V334.219H184.785ZM169.648 345.977C170.186 345.977 170.811 345.977 171.484 345.967V337.715H170.02V336.445H178.008V337.715H176.543V345.762C177.197 345.703 177.822 345.645 178.398 345.566L178.496 346.699C175.752 347.207 172.109 347.295 169.844 347.285L169.648 345.977ZM172.891 345.938C173.613 345.918 174.375 345.889 175.117 345.85V337.715H172.891V345.938ZM177.5 342.207V340.82H179.922V334.648H181.387V350.664H179.922V342.207H177.5ZM201.445 334.219V351.621H199.902V334.219H201.445ZM187.773 341.621C187.783 337.93 189.619 335.576 192.207 335.566C194.785 335.576 196.65 337.93 196.641 341.621C196.65 345.322 194.785 347.666 192.207 347.656C189.619 347.666 187.783 345.322 187.773 341.621ZM189.258 341.621C189.258 344.443 190.469 346.299 192.207 346.289C193.955 346.299 195.156 344.443 195.156 341.621C195.156 338.799 193.955 336.943 192.207 336.934C190.469 336.943 189.258 338.799 189.258 341.621ZM213.066 336.777C213.076 339.756 216.475 342.402 219.492 342.969L218.789 344.258C216.162 343.652 213.408 341.787 212.285 339.238C211.152 341.787 208.408 343.643 205.781 344.258L205.078 342.969C208.086 342.393 211.455 339.766 211.465 336.777V335.449H213.066V336.777ZM204.414 349.219V347.949H220.312V349.219H204.414ZM227.383 335.488C230.107 335.498 232.041 337.158 232.051 339.57C232.041 341.992 230.107 343.643 227.383 343.652C224.639 343.643 222.686 341.992 222.695 339.57C222.686 337.158 224.639 335.498 227.383 335.488ZM221.797 346.484C225 346.494 229.424 346.465 233.262 345.898L233.379 347.031C229.404 347.773 225.137 347.793 222.012 347.793L221.797 346.484ZM224.199 339.57C224.189 341.191 225.527 342.305 227.383 342.305C229.219 342.305 230.557 341.191 230.547 339.57C230.557 337.959 229.219 336.836 227.383 336.836C225.527 336.836 224.189 337.959 224.199 339.57ZM234.414 351.621V334.219H235.938V351.621H234.414ZM258.34 334.238V344.922H256.816V334.238H258.34ZM244.883 336.621V335.332H252.812V340.098H246.406V342.559C249.512 342.559 251.826 342.471 254.648 342.012L254.824 343.281C251.904 343.76 249.531 343.838 246.328 343.848H244.922V338.887H251.289V336.621H244.883ZM246.719 348.418C246.709 346.426 248.926 345.273 252.578 345.273C256.23 345.273 258.457 346.426 258.457 348.418C258.457 350.4 256.23 351.543 252.578 351.543C248.926 351.543 246.709 350.4 246.719 348.418ZM248.223 348.418C248.232 349.609 249.873 350.322 252.578 350.312C255.273 350.322 256.924 349.609 256.914 348.418C256.924 347.227 255.273 346.504 252.578 346.504C249.873 346.504 248.232 347.227 248.223 348.418ZM275.137 335.996V338.145C275.146 340.703 275.146 343.066 274.414 346.582L272.871 346.445C273.262 344.775 273.447 343.33 273.545 341.982L262.949 342.559L262.734 341.289L273.613 340.84C273.643 339.922 273.652 339.033 273.652 338.145V337.285H263.203V335.996H275.137ZM261.289 349.141V347.852H277.109V349.141H261.289ZM294.453 342.285V343.496H278.555V342.285H294.453ZM280.469 346.035V344.883H292.461V348.574H282.031V350.234H293.027V351.348H280.488V347.52H290.938V346.035H280.469ZM280.566 335.859V334.746H292.402V338.34H282.148V339.863H292.715V340.977H280.625V337.285H290.859V335.859H280.566ZM316.777 348.066V349.355H300.879V348.066H308.027V343.828H302.754V335.684H314.805V343.828H309.531V348.066H316.777ZM304.258 342.598H313.32V336.914H304.258V342.598ZM332.5 334.238V344.16H330.977V334.238H332.5ZM318.574 339.219C318.564 336.797 320.488 335.156 323.125 335.156C325.762 335.156 327.666 336.797 327.676 339.219C327.666 341.602 325.762 343.262 323.125 343.262C320.488 343.262 318.564 341.602 318.574 339.219ZM320.078 339.219C320.059 340.83 321.338 341.963 323.125 341.953C324.893 341.963 326.172 340.83 326.172 339.219C326.172 337.598 324.893 336.455 323.125 336.465C321.338 336.455 320.059 337.598 320.078 339.219ZM321.211 351.348V345.098H332.5V351.348H321.211ZM322.715 350.098H330.996V346.348H322.715V350.098ZM349.766 334.238V347.422H348.223V345.625H344.629V344.512H348.223V334.238H349.766ZM335.352 342.285C338.584 342.266 342.939 342.236 346.66 341.777L346.758 342.891C345.215 343.135 343.584 343.291 341.992 343.389V346.816H340.449V343.467C338.691 343.535 337.021 343.535 335.566 343.535L335.352 342.285ZM336.758 337.969C336.748 336.143 338.486 334.941 341.055 334.941C343.604 334.941 345.342 336.143 345.352 337.969C345.342 339.824 343.604 340.977 341.055 340.977C338.486 340.977 336.748 339.824 336.758 337.969ZM337.852 351.211V346.133H339.395V349.922H350.195V351.211H337.852ZM338.223 337.969C338.203 339.102 339.355 339.834 341.055 339.844C342.705 339.834 343.877 339.102 343.887 337.969C343.877 336.855 342.705 336.094 341.055 336.113C339.355 336.094 338.203 336.855 338.223 337.969ZM367.617 334.219V351.582H366.133V334.219H367.617ZM352.949 341.719C352.959 338.027 354.424 335.693 356.68 335.684C358.789 335.693 360.215 337.725 360.41 340.996H362.656V334.59H364.121V350.703H362.656V342.266H360.42C360.273 345.645 358.818 347.764 356.68 347.754C354.424 347.764 352.959 345.41 352.949 341.719ZM354.395 341.719C354.375 344.531 355.273 346.309 356.68 346.289C358.096 346.309 358.994 344.531 358.984 341.719C358.994 338.896 358.096 337.129 356.68 337.129C355.273 337.129 354.375 338.896 354.395 341.719ZM384.883 334.219V351.582H383.418V334.219H384.883ZM370.039 346.719C373.809 344.482 375.703 341.348 375.996 337.715H370.781V336.445H377.52C377.52 338.154 377.246 339.805 376.65 341.348H379.766V334.688H381.23V350.703H379.766V342.598H376.084C375.039 344.619 373.359 346.406 370.938 347.832L370.039 346.719ZM406.719 334.238V346.973H405.176V340.312H401.602V339.043H405.176V334.238H406.719ZM392.402 343.496C394.961 342.598 396.816 340.303 396.816 337.812V336.914H392.891V335.645H402.246V336.914H398.359V337.812C398.359 340.059 400.098 342.236 402.637 343.105L401.836 344.336C399.883 343.623 398.369 342.168 397.617 340.371C396.865 342.383 395.264 343.975 393.203 344.746L392.402 343.496ZM395.566 351.211V345.82H397.109V349.922H407.207V351.211H395.566ZM418.262 340.293V342.852H425.43V344.102H409.609V342.852H416.758V340.293H418.262ZM410.566 339.98C413.633 339.561 416.738 337.627 416.738 335.312V334.492H418.281V335.312C418.281 337.627 421.406 339.561 424.473 339.98L423.848 341.211C421.221 340.752 418.604 339.355 417.52 337.354C416.426 339.375 413.818 340.752 411.152 341.211L410.566 339.98ZM411.523 348.555C411.514 346.631 413.75 345.557 417.52 345.547C421.25 345.557 423.477 346.631 423.496 348.555C423.477 350.488 421.25 351.543 417.52 351.543C413.75 351.543 411.514 350.488 411.523 348.555ZM413.086 348.555C413.066 349.697 414.707 350.361 417.52 350.352C420.303 350.361 421.943 349.697 421.953 348.555C421.943 347.402 420.303 346.758 417.52 346.758C414.707 346.758 413.066 347.402 413.086 348.555ZM435.566 337.227V338.477H426.855V337.227H430.469V334.746H431.992V337.227H435.566ZM427.48 343.594C427.48 341.289 429.053 339.658 431.211 339.648C433.398 339.658 434.961 341.289 434.98 343.594C434.961 345.928 433.398 347.568 431.211 347.578C429.053 347.568 427.48 345.928 427.48 343.594ZM428.848 343.594C428.848 345.137 429.834 346.24 431.211 346.23C432.598 346.24 433.613 345.137 433.613 343.594C433.613 342.07 432.598 340.957 431.211 340.938C429.834 340.957 428.848 342.07 428.848 343.594ZM436.465 350.723V334.648H437.91V341.543H440.215V334.219H441.68V351.582H440.215V342.812H437.91V350.723H436.465ZM452.949 336.68C452.939 339.004 456.035 340.977 459.062 341.426L458.496 342.637C455.791 342.178 453.145 340.732 452.09 338.643C451.035 340.732 448.389 342.178 445.723 342.637L445.117 341.426C448.135 340.977 451.221 339.004 451.23 336.68V336.562H445.664V335.312H458.496V336.562H452.949V336.68ZM444.18 345.391V344.121H460V345.391H452.812V351.582H451.309V345.391H444.18ZM466.621 339.16C466.621 341.924 467.969 344.902 470.273 346.27L469.395 347.461C467.715 346.445 466.514 344.59 465.908 342.471C465.273 344.785 463.984 346.777 462.246 347.832L461.27 346.68C463.672 345.273 465.137 342.197 465.137 339.219V335.859H466.621V339.16ZM468.359 341.758V340.449H471.309V334.59H472.754V350.703H471.309V341.758H468.359ZM474.863 351.582V334.219H476.348V351.582H474.863ZM494.648 348.066V349.355H478.75V348.066H482.695V343.389C481.211 342.617 480.312 341.367 480.312 339.785C480.312 337.1 482.949 335.332 486.66 335.312C490.371 335.332 493.008 337.1 493.008 339.785C493.008 341.338 492.139 342.568 490.703 343.34V348.066H494.648ZM481.797 339.785C481.787 341.729 483.809 343.027 486.66 343.027C489.482 343.027 491.523 341.729 491.523 339.785C491.523 337.842 489.482 336.562 486.66 336.582C483.809 336.562 481.787 337.842 481.797 339.785ZM484.199 348.066H489.16V343.936C488.408 344.131 487.568 344.238 486.66 344.238C485.771 344.238 484.941 344.141 484.199 343.945V348.066ZM498.848 335.859L498.711 346.016H497.07L496.934 335.859H498.848ZM496.641 348.848C496.621 348.164 497.207 347.598 497.891 347.598C498.584 347.598 499.15 348.164 499.141 348.848C499.15 349.541 498.584 350.107 497.891 350.117C497.207 350.107 496.621 349.541 496.641 348.848Z" fill="#B0B0B0"/>
<path fill-rule="evenodd" clip-rule="evenodd" d="M885.987 113.086C879.337 116.275 871.152 113.795 866.563 108.022C855.409 93.9938 838.196 85 818.882 85C785.258 85 758 112.258 758 145.882C758 173.336 776.172 196.546 801.144 204.139C808.198 206.284 813.524 212.97 813.009 220.325C812.798 223.344 812.69 226.392 812.69 229.465C812.69 300.702 870.439 358.451 941.677 358.451C994.149 358.451 1039.3 327.118 1059.45 282.141C1062.53 275.279 1070.59 271.847 1077.83 273.881C1084.9 275.869 1092.36 276.932 1100.07 276.932C1145.38 276.932 1182.11 240.203 1182.11 194.896C1182.11 149.59 1145.38 112.861 1100.07 112.861C1079.8 112.861 1061.24 120.217 1046.92 132.407C1041.2 137.277 1032.45 137.516 1026.8 132.555C1004.09 112.587 974.297 100.478 941.677 100.478C921.733 100.478 902.846 105.005 885.987 113.086Z" fill="#FFEFE4"/>
<g filter="url(#filter1_b_864_3037)">
<path d="M894.207 212.47H1091.16V318.823C1091.16 327.525 1084.1 334.579 1075.4 334.579H909.963C901.261 334.579 894.207 327.525 894.207 318.823V212.47Z" fill="#FB7E23" fill-opacity="0.7"/>
</g>
<g filter="url(#filter2_b_864_3037)">
<path d="M976.015 162.833C986.623 156.243 1000.05 156.243 1010.66 162.834L1090.56 212.47H896.113L976.015 162.833Z" fill="#E76C14" fill-opacity="0.7"/>
</g>
<g filter="url(#filter3_b_864_3037)">
<mask id="path-9-inside-1_864_3037" fill="white">
<path d="M907.336 190.149C907.336 181.447 914.39 174.393 923.092 174.393H1062.27C1070.97 174.393 1078.03 181.447 1078.03 190.149V309.632C1078.03 318.334 1070.97 325.388 1062.27 325.388H923.092C914.39 325.388 907.336 318.334 907.336 309.632V190.149Z"/>
</mask>
<path d="M907.336 190.149C907.336 181.447 914.39 174.393 923.092 174.393H1062.27C1070.97 174.393 1078.03 181.447 1078.03 190.149V309.632C1078.03 318.334 1070.97 325.388 1062.27 325.388H923.092C914.39 325.388 907.336 318.334 907.336 309.632V190.149Z" fill="url(#paint0_linear_864_3037)" fill-opacity="0.6"/>
<path d="M907.336 190.149C907.336 180.895 914.838 173.393 924.092 173.393H1061.27C1070.52 173.393 1078.03 180.895 1078.03 190.149V190.149C1078.03 181.999 1070.97 175.393 1062.27 175.393H923.092C914.39 175.393 907.336 181.999 907.336 190.149V190.149ZM1078.03 325.388H907.336H1078.03ZM907.336 325.388V174.393V325.388ZM1078.03 174.393V325.388V174.393Z" fill="white" mask="url(#path-9-inside-1_864_3037)"/>
</g>
<g filter="url(#filter4_b_864_3037)">
<path d="M1082.62 334.579L894.864 213.126L894.207 212.47V318.823C894.207 327.525 901.261 334.579 909.963 334.579H1082.62Z" fill="#FF862E" fill-opacity="0.28"/>
</g>
<g filter="url(#filter5_b_864_3037)">
<path d="M906.679 334.579L1091.16 213.126L1091.81 212.47V318.823C1091.81 327.525 1084.76 334.579 1076.06 334.579H906.679Z" fill="#FF862E" fill-opacity="0.28"/>
</g>
<g filter="url(#filter6_f_864_3037)">
<path d="M990.366 197.379C991.105 195.786 993.37 195.786 994.109 197.379L996.724 203.009C997.024 203.656 997.638 204.103 998.347 204.188L1004.51 204.935C1006.25 205.147 1006.95 207.3 1005.67 208.496L1001.12 212.722C1000.6 213.208 1000.36 213.93 1000.5 214.63L1001.69 220.722C1002.03 222.445 1000.2 223.776 998.665 222.922L993.241 219.904C992.617 219.557 991.858 219.557 991.234 219.904L985.81 222.922C984.275 223.776 982.443 222.445 982.781 220.722L983.975 214.63C984.112 213.93 983.878 213.208 983.355 212.722L978.809 208.496C977.523 207.3 978.222 205.147 979.966 204.935L986.128 204.188C986.836 204.103 987.45 203.656 987.751 203.009L990.366 197.379Z" fill="white"/>
</g>
<path d="M990.366 197.379C991.105 195.786 993.37 195.786 994.109 197.379L996.724 203.009C997.024 203.656 997.638 204.103 998.347 204.188L1004.51 204.935C1006.25 205.147 1006.95 207.3 1005.67 208.496L1001.12 212.722C1000.6 213.208 1000.36 213.93 1000.5 214.63L1001.69 220.722C1002.03 222.445 1000.2 223.776 998.665 222.922L993.241 219.904C992.617 219.557 991.858 219.557 991.234 219.904L985.81 222.922C984.275 223.776 982.443 222.445 982.781 220.722L983.975 214.63C984.112 213.93 983.878 213.208 983.355 212.722L978.809 208.496C977.523 207.3 978.222 205.147 979.966 204.935L986.128 204.188C986.836 204.103 987.45 203.656 987.751 203.009L990.366 197.379Z" fill="white"/>
<path d="M942.71 123.18L837.457 228.433" stroke="url(#paint1_linear_864_3037)" stroke-width="7.22323" stroke-linecap="round"/>
<path d="M926.197 96.3506L854.996 167.551" stroke="url(#paint2_linear_864_3037)" stroke-width="4.12756" stroke-linecap="round"/>
<path d="M1211 119.053L1131.54 198.508" stroke="url(#paint3_linear_864_3037)" stroke-width="7.22323" stroke-linecap="round"/>
<defs>
<filter id="filter0_d_864_3037" x="0" y="0" width="1344" height="482" filterUnits="userSpaceOnUse" color-interpolation-filters="sRGB">
<feFlood flood-opacity="0" result="BackgroundImageFix"/>
<feColorMatrix in="SourceAlpha" type="matrix" values="0 0 0 0 0 0 0 0 0 0 0 0 0 0 0 0 0 0 127 0" result="hardAlpha"/>
<feMorphology radius="8" operator="dilate" in="SourceAlpha" result="effect1_dropShadow_864_3037"/>
<feOffset dy="19"/>
<feGaussianBlur stdDeviation="32"/>
<feComposite in2="hardAlpha" operator="out"/>
<feColorMatrix type="matrix" values="0 0 0 0 0 0 0 0 0 0 0 0 0 0 0 0 0 0 0.04 0"/>
<feBlend mode="normal" in2="BackgroundImageFix" result="effect1_dropShadow_864_3037"/>
<feBlend mode="normal" in="SourceGraphic" in2="effect1_dropShadow_864_3037" result="shape"/>
</filter>
<filter id="filter1_b_864_3037" x="888.955" y="207.218" width="207.453" height="132.613" filterUnits="userSpaceOnUse" color-interpolation-filters="sRGB">
<feFlood flood-opacity="0" result="BackgroundImageFix"/>
<feGaussianBlur in="BackgroundImageFix" stdDeviation="2.62601"/>
<feComposite in2="SourceAlpha" operator="in" result="effect1_backgroundBlur_864_3037"/>
<feBlend mode="normal" in="SourceGraphic" in2="effect1_backgroundBlur_864_3037" result="shape"/>
</filter>
<filter id="filter2_b_864_3037" x="888.235" y="150.013" width="210.197" height="70.3361" filterUnits="userSpaceOnUse" color-interpolation-filters="sRGB">
<feFlood flood-opacity="0" result="BackgroundImageFix"/>
<feGaussianBlur in="BackgroundImageFix" stdDeviation="3.93901"/>
<feComposite in2="SourceAlpha" operator="in" result="effect1_backgroundBlur_864_3037"/>
<feBlend mode="normal" in="SourceGraphic" in2="effect1_backgroundBlur_864_3037" result="shape"/>
</filter>
<filter id="filter3_b_864_3037" x="890.267" y="157.324" width="204.83" height="185.133" filterUnits="userSpaceOnUse" color-interpolation-filters="sRGB">
<feFlood flood-opacity="0" result="BackgroundImageFix"/>
<feGaussianBlur in="BackgroundImageFix" stdDeviation="8.53452"/>
<feComposite in2="SourceAlpha" operator="in" result="effect1_backgroundBlur_864_3037"/>
<feBlend mode="normal" in="SourceGraphic" in2="effect1_backgroundBlur_864_3037" result="shape"/>
</filter>
<filter id="filter4_b_864_3037" x="887.642" y="205.905" width="201.548" height="135.239" filterUnits="userSpaceOnUse" color-interpolation-filters="sRGB">
<feFlood flood-opacity="0" result="BackgroundImageFix"/>
<feGaussianBlur in="BackgroundImageFix" stdDeviation="3.28251"/>
<feComposite in2="SourceAlpha" operator="in" result="effect1_backgroundBlur_864_3037"/>
<feBlend mode="normal" in="SourceGraphic" in2="effect1_backgroundBlur_864_3037" result="shape"/>
</filter>
<filter id="filter5_b_864_3037" x="900.115" y="205.905" width="198.263" height="135.239" filterUnits="userSpaceOnUse" color-interpolation-filters="sRGB">
<feFlood flood-opacity="0" result="BackgroundImageFix"/>
<feGaussianBlur in="BackgroundImageFix" stdDeviation="3.28251"/>
<feComposite in2="SourceAlpha" operator="in" result="effect1_backgroundBlur_864_3037"/>
<feBlend mode="normal" in="SourceGraphic" in2="effect1_backgroundBlur_864_3037" result="shape"/>
</filter>
<filter id="filter6_f_864_3037" x="970.925" y="188.961" width="42.6262" height="41.4494" filterUnits="userSpaceOnUse" color-interpolation-filters="sRGB">
<feFlood flood-opacity="0" result="BackgroundImageFix"/>
<feBlend mode="normal" in="SourceGraphic" in2="BackgroundImageFix" result="shape"/>
<feGaussianBlur stdDeviation="3.61162" result="effect1_foregroundBlur_864_3037"/>
</filter>
<linearGradient id="paint0_linear_864_3037" x1="992.681" y1="174.393" x2="992.681" y2="325.388" gradientUnits="userSpaceOnUse">
<stop stop-color="white"/>
<stop offset="1" stop-color="white" stop-opacity="0"/>
</linearGradient>
<linearGradient id="paint1_linear_864_3037" x1="804.952" y1="261.969" x2="949.675" y2="114.667" gradientUnits="userSpaceOnUse">
<stop stop-color="#FB7E23"/>
<stop offset="0.67042" stop-color="#FB7E23" stop-opacity="0"/>
</linearGradient>
<linearGradient id="paint2_linear_864_3037" x1="833.008" y1="190.237" x2="930.908" y2="90.5917" gradientUnits="userSpaceOnUse">
<stop stop-color="#FB7E23"/>
<stop offset="0.67042" stop-color="#FB7E23" stop-opacity="0"/>
</linearGradient>
<linearGradient id="paint3_linear_864_3037" x1="1107.01" y1="223.825" x2="1216.26" y2="112.626" gradientUnits="userSpaceOnUse">
<stop stop-color="#FB7E23"/>
<stop offset="0.918134" stop-color="#FB7E23" stop-opacity="0"/>
</linearGradient>
</defs>
</svg>
