<svg width="1344" height="482" viewBox="0 0 1344 482" fill="none" xmlns="http://www.w3.org/2000/svg">
<g filter="url(#filter0_d_871_3264)">
<rect x="72" y="53" width="1200" height="338" rx="16" fill="white"/>
</g>
<path d="M100 53H190V97C190 105.837 182.837 113 174 113H116C107.163 113 100 105.837 100 97V53Z" fill="#FB7E23"/>
<path d="M134.752 91.5V87.3164L145.51 70.5469H152.154V87.2461H155.389V91.5H152.154V96H147.127V91.5H134.752ZM140.096 87.2461H147.197V76.3477H146.951L140.096 87.0352V87.2461Z" fill="white"/>
<path d="M127.062 252.344V255.562H116.062V257.672C121 258.031 123.938 259.812 123.969 262.75C123.938 266.047 120.203 267.891 114.062 267.875C107.828 267.891 104.094 266.047 104.094 262.75C104.094 259.797 107.047 258.016 112.094 257.656V255.562H101.125V252.344H127.062ZM102.281 248.156C107.547 247.688 110.453 245.75 111.172 243.781H103.5V240.656H124.719V243.781H116.984C117.672 245.766 120.562 247.688 125.969 248.156L124.562 251.281C119.188 250.766 115.578 248.75 114.062 245.984C112.562 248.734 108.984 250.781 103.594 251.281L102.281 248.156ZM108.156 262.75C108.141 264.125 110.125 264.875 114.062 264.875C117.922 264.875 119.953 264.125 119.969 262.75C119.953 261.312 117.922 260.625 114.062 260.594C110.125 260.625 108.141 261.312 108.156 262.75ZM151.344 239.438V247.406H155.188V250.688H151.344V259.812H147.312V239.438H151.344ZM128.594 253.875C134.969 252.109 138.578 248.812 139.203 244.812H129.844V241.562H143.594C143.578 249.25 138.781 254.625 130.25 257.031L128.594 253.875ZM132.844 267.375V257.719H136.875V264.188H152.312V267.375H132.844ZM172.594 241.344V244.531H166.938C166.953 247.844 168.969 251.047 173.5 252.375L171.594 255.5C168.453 254.547 166.266 252.625 165.016 250.203C163.75 253.062 161.438 255.344 158.031 256.469L156 253.312C160.719 251.828 162.859 248.141 162.906 244.531H157.094V241.344H172.594ZM159.938 262.344C159.922 258.875 163.672 256.859 169.688 256.875C175.609 256.859 179.266 258.875 179.281 262.344C179.266 265.828 175.609 267.891 169.688 267.875C163.672 267.891 159.922 265.828 159.938 262.344ZM163.938 262.344C163.906 263.969 165.953 264.781 169.688 264.781C173.375 264.781 175.344 263.969 175.344 262.344C175.344 260.75 173.375 259.953 169.688 259.969C165.953 259.953 163.906 260.75 163.938 262.344ZM175 256.312V239.438H179V246.031H182.844V249.281H179V256.312H175ZM210.125 261.281V264.469H184.094V261.281H194.969V254.844H198.938V261.281H210.125ZM184.719 252.438C191.156 251.438 194.781 247.109 194.812 243.094V241.062H199.062V243.094C199.047 247.156 202.719 251.438 209.219 252.438L207.531 255.75C202.531 254.844 198.812 252.172 196.938 248.625C195.078 252.156 191.375 254.859 186.406 255.75L184.719 252.438ZM217.75 262.688L215.062 271.594H211.75L213.312 262.688H217.75ZM246.875 256.469V259.719H235.844V267.906H231.906V259.719H220.938V256.469H246.875ZM222.25 251.812C228.156 251.156 231.359 248.375 231.844 245.844H223.281V242.719H231.906V239.469H235.844V242.719H244.5V245.844H235.969C236.406 248.344 239.609 251.156 245.5 251.812L244.062 254.938C239.234 254.391 235.75 252.406 233.906 249.828C232.047 252.438 228.547 254.391 223.688 254.938L222.25 251.812ZM259.062 246.125C259.078 249.328 261.156 252.594 265.781 254L263.875 257.094C260.688 256.172 258.438 254.219 257.156 251.75C255.891 254.422 253.641 256.531 250.344 257.562L248.406 254.438C253.031 253.047 255.094 249.594 255.094 246.125V245.906H249.375V242.781H255.094V239.625H259.125V242.781H264.812V245.906H259.062V246.125ZM253.688 267.375V258.75H257.688V264.188H273.25V267.375H253.688ZM263.875 250.969V247.75H268.594V239.469H272.562V260.562H268.594V250.969H263.875ZM292.406 241.344V244.531H286.75C286.766 247.844 288.781 251.047 293.312 252.375L291.406 255.5C288.266 254.547 286.078 252.625 284.828 250.203C283.562 253.062 281.25 255.344 277.844 256.469L275.812 253.312C280.531 251.828 282.672 248.141 282.719 244.531H276.906V241.344H292.406ZM279.75 262.344C279.734 258.875 283.484 256.859 289.5 256.875C295.422 256.859 299.078 258.875 299.094 262.344C299.078 265.828 295.422 267.891 289.5 267.875C283.484 267.891 279.734 265.828 279.75 262.344ZM283.75 262.344C283.719 263.969 285.766 264.781 289.5 264.781C293.188 264.781 295.156 263.969 295.156 262.344C295.156 260.75 293.188 259.953 289.5 259.969C285.766 259.953 283.719 260.75 283.75 262.344ZM294.812 256.312V239.438H298.812V246.031H302.656V249.281H298.812V256.312H294.812ZM329.938 261.281V264.469H303.906V261.281H314.781V254.844H318.75V261.281H329.938ZM304.531 252.438C310.969 251.438 314.594 247.109 314.625 243.094V241.062H318.875V243.094C318.859 247.156 322.531 251.438 329.031 252.438L327.344 255.75C322.344 254.844 318.625 252.172 316.75 248.625C314.891 252.156 311.188 254.859 306.219 255.75L304.531 252.438ZM361.688 239.469V247.594H365.312V250.875H361.688V258.781H357.688V239.469H361.688ZM338.625 255.125C340.703 255.125 343.062 255.125 345.531 255.062V253.469C342.438 253.031 340.516 251.516 340.531 249.344C340.516 246.703 343.281 245.078 347.5 245.094C351.688 245.078 354.453 246.703 354.469 249.344C354.453 251.516 352.547 253.016 349.5 253.453V254.922C351.844 254.797 354.188 254.625 356.375 254.344L356.656 257.094C350.641 258.156 344.047 258.219 339.031 258.219L338.625 255.125ZM339.375 244.438V241.531H345.531V239.219H349.5V241.531H355.656V244.438H339.375ZM342.25 263V259.938H361.688V267.875H357.688V263H342.25ZM344.344 249.344C344.328 250.375 345.469 250.984 347.5 250.969C349.5 250.984 350.641 250.375 350.656 249.344C350.641 248.234 349.5 247.75 347.5 247.75C345.469 247.75 344.328 248.234 344.344 249.344ZM390.406 239.469V259.906H386.406V239.469H390.406ZM367.031 248.438C367.031 244.266 370.438 241.266 374.812 241.281C379.172 241.266 382.578 244.266 382.594 248.438C382.578 252.672 379.172 255.656 374.812 255.656C370.438 255.656 367.031 252.672 367.031 248.438ZM370.938 248.438C370.906 250.812 372.578 252.188 374.812 252.188C376.969 252.188 378.641 250.812 378.656 248.438C378.641 246.125 376.969 244.734 374.812 244.75C372.578 244.734 370.906 246.125 370.938 248.438ZM371.344 267.375V257.844H375.375V264.188H391.156V267.375H371.344ZM416.688 239.438V250.562H420.875V253.844H416.688V267.875H412.75V239.438H416.688ZM394.094 246.875V243.688H400.531V239.875H404.531V243.688H410.812V246.875H394.094ZM395.25 255.25C395.234 251.281 398.328 248.453 402.531 248.469C406.672 248.453 409.781 251.281 409.781 255.25C409.781 259.219 406.672 262.016 402.531 262.031C398.328 262.016 395.234 259.219 395.25 255.25ZM399.062 255.25C399.062 257.453 400.516 258.766 402.531 258.75C404.516 258.766 405.969 257.453 405.969 255.25C405.969 253.062 404.516 251.719 402.531 251.688C400.516 251.719 399.062 253.062 399.062 255.25ZM445.812 239.438V267.875H441.781V239.438H445.812ZM422 259.812C429.344 256.344 432.578 251.844 433.219 245.531H423.531V242.406H437.281C437.266 251.031 434.25 258.203 424.094 263L422 259.812Z" fill="#393939"/>
<path d="M116.602 316.066V317.355H100.703V316.066H107.852V311.828H102.578V303.684H114.629V311.828H109.355V316.066H116.602ZM104.082 310.598H113.145V304.914H104.082V310.598ZM132.324 302.238V312.16H130.801V302.238H132.324ZM118.398 307.219C118.389 304.797 120.312 303.156 122.949 303.156C125.586 303.156 127.49 304.797 127.5 307.219C127.49 309.602 125.586 311.262 122.949 311.262C120.312 311.262 118.389 309.602 118.398 307.219ZM119.902 307.219C119.883 308.83 121.162 309.963 122.949 309.953C124.717 309.963 125.996 308.83 125.996 307.219C125.996 305.598 124.717 304.455 122.949 304.465C121.162 304.455 119.883 305.598 119.902 307.219ZM121.035 319.348V313.098H132.324V319.348H121.035ZM122.539 318.098H130.82V314.348H122.539V318.098ZM149.59 302.238V315.422H148.047V313.625H144.453V312.512H148.047V302.238H149.59ZM135.176 310.285C138.408 310.266 142.764 310.236 146.484 309.777L146.582 310.891C145.039 311.135 143.408 311.291 141.816 311.389V314.816H140.273V311.467C138.516 311.535 136.846 311.535 135.391 311.535L135.176 310.285ZM136.582 305.969C136.572 304.143 138.311 302.941 140.879 302.941C143.428 302.941 145.166 304.143 145.176 305.969C145.166 307.824 143.428 308.977 140.879 308.977C138.311 308.977 136.572 307.824 136.582 305.969ZM137.676 319.211V314.133H139.219V317.922H150.02V319.211H137.676ZM138.047 305.969C138.027 307.102 139.18 307.834 140.879 307.844C142.529 307.834 143.701 307.102 143.711 305.969C143.701 304.855 142.529 304.094 140.879 304.113C139.18 304.094 138.027 304.855 138.047 305.969ZM168.398 309.523V310.754H152.559V309.523H168.398ZM154.473 313.508V312.316H166.348V316.34H156.035V318.137H166.875V319.387H154.512V315.188H164.844V313.508H154.473ZM154.668 308.098V302.824H166.328V304.055H156.211V306.848H166.504V308.098H154.668ZM184.16 302.219V319.621H182.617V302.219H184.16ZM170.488 309.621C170.498 305.93 172.334 303.576 174.922 303.566C177.5 303.576 179.365 305.93 179.355 309.621C179.365 313.322 177.5 315.666 174.922 315.656C172.334 315.666 170.498 313.322 170.488 309.621ZM171.973 309.621C171.973 312.443 173.184 314.299 174.922 314.289C176.67 314.299 177.871 312.443 177.871 309.621C177.871 306.799 176.67 304.943 174.922 304.934C173.184 304.943 171.973 306.799 171.973 309.621ZM206.484 302.219V311.535H204.961V302.219H206.484ZM192.559 307.062C192.549 304.689 194.473 303.059 197.109 303.078C199.746 303.059 201.65 304.689 201.66 307.062C201.65 309.426 199.746 311.057 197.109 311.047C194.473 311.057 192.549 309.426 192.559 307.062ZM194.062 307.062C194.043 308.645 195.322 309.768 197.109 309.777C198.877 309.768 200.156 308.645 200.156 307.062C200.156 305.471 198.877 304.357 197.109 304.367C195.322 304.357 194.043 305.471 194.062 307.062ZM195.234 319.348V312.414H196.758V314.523H204.961V312.414H206.484V319.348H195.234ZM196.758 318.098H204.961V315.754H196.758V318.098ZM217.676 303.293V308.156H211.699V310.852C214.961 310.861 216.65 310.793 218.691 310.422L218.848 311.691C216.689 312.043 214.922 312.102 211.406 312.102H210.176V306.984H216.152V304.523H210.137V303.293H217.676ZM212.129 315.09V313.84H223.828V319.621H222.285V315.09H212.129ZM218.828 309.68V308.41H222.285V306.066H218.828V304.816H222.285V302.238H223.828V312.902H222.285V309.68H218.828ZM240.293 302.238V307.961H242.91V309.25H240.293V315.246H238.77V302.238H240.293ZM226.758 305.617V304.367H231.172V302.238H232.695V304.367H237.109V305.617H226.758ZM227.754 309.816C227.744 307.844 229.424 306.574 231.934 306.574C234.414 306.574 236.094 307.844 236.113 309.816C236.094 311.77 234.414 313.029 231.934 313.02C229.424 313.029 227.744 311.77 227.754 309.816ZM229.219 309.816C229.209 311.037 230.293 311.828 231.934 311.809C233.555 311.828 234.648 311.037 234.668 309.816C234.648 308.576 233.555 307.775 231.934 307.785C230.293 307.775 229.209 308.576 229.219 309.816ZM229.434 319.211V314.211H230.938V317.922H241.094V319.211H229.434ZM263.418 302.219V312.57H261.875V308.02H258.379V306.75H261.875V302.219H263.418ZM249.102 311.184C251.68 310.256 253.516 307.902 253.516 305.422V304.777H249.59V303.488H258.945V304.777H255.059V305.402C255.059 307.668 256.797 309.826 259.336 310.695L258.535 311.926C256.592 311.223 255.078 309.758 254.326 307.971C253.584 310.002 251.973 311.623 249.902 312.414L249.102 311.184ZM251.836 316.34C251.826 314.299 254.043 313.107 257.656 313.117C261.26 313.107 263.477 314.299 263.477 316.34C263.477 318.391 261.26 319.562 257.656 319.582C254.043 319.562 251.826 318.391 251.836 316.34ZM253.359 316.34C253.35 317.6 254.99 318.361 257.656 318.352C260.312 318.361 261.953 317.6 261.953 316.34C261.953 315.07 260.312 314.309 257.656 314.309C254.99 314.309 253.35 315.07 253.359 316.34ZM282.207 316.086V317.355H266.309V316.086H273.457V312.336H268.184V303.449H269.727V306.594H278.75V303.449H280.254V312.336H274.961V316.086H282.207ZM269.727 311.086H278.75V307.844H269.727V311.086ZM298.477 302.219V319.582H296.992V302.219H298.477ZM283.809 309.719C283.818 306.027 285.283 303.693 287.539 303.684C289.648 303.693 291.074 305.725 291.27 308.996H293.516V302.59H294.98V318.703H293.516V310.266H291.279C291.133 313.645 289.678 315.764 287.539 315.754C285.283 315.764 283.818 313.41 283.809 309.719ZM285.254 309.719C285.234 312.531 286.133 314.309 287.539 314.289C288.955 314.309 289.854 312.531 289.844 309.719C289.854 306.896 288.955 305.129 287.539 305.129C286.133 305.129 285.234 306.896 285.254 309.719ZM319.629 302.199V309.055H322.168V310.363H319.629V319.582H318.105V302.199H319.629ZM306.426 315.031V304.055H310.84V305.324H307.949V313.732C308.809 313.703 309.863 313.625 311.016 313.371L311.172 314.66C309.531 315.002 308.223 315.031 307.188 315.031H306.426ZM311.836 315.031V304.055H316.465V305.324H313.359V313.742C314.717 313.723 315.801 313.645 317.031 313.332L317.188 314.621C315.664 314.992 314.434 315.031 312.676 315.031H311.836ZM336.621 302.219V309.133H339.531V310.422H336.621V319.621H335.098V302.219H336.621ZM323.867 305.109V303.84H331.758V310.051H325.43V314.113C328.652 314.123 330.908 313.996 333.535 313.508L333.691 314.777C330.957 315.275 328.643 315.402 325.293 315.422H323.906V308.781H330.234V305.109H323.867ZM361.387 316.066V317.355H345.488V316.066H352.637V311.828H347.363V303.684H359.414V311.828H354.141V316.066H361.387ZM348.867 310.598H357.93V304.914H348.867V310.598ZM377.09 302.219V319.621H375.547V302.219H377.09ZM363.418 309.621C363.428 305.93 365.264 303.576 367.852 303.566C370.43 303.576 372.295 305.93 372.285 309.621C372.295 313.322 370.43 315.666 367.852 315.656C365.264 315.666 363.428 313.322 363.418 309.621ZM364.902 309.621C364.902 312.443 366.113 314.299 367.852 314.289C369.6 314.299 370.801 312.443 370.801 309.621C370.801 306.799 369.6 304.943 367.852 304.934C366.113 304.943 364.902 306.799 364.902 309.621ZM393.633 302.219V307.102H396.25V308.391H393.633V313.684H392.109V302.219H393.633ZM380.859 311.496V303.566H388.574V304.836H382.363V310.227C385.879 310.227 387.9 310.119 390.234 309.641L390.391 310.91C387.959 311.369 385.879 311.506 382.207 311.496H380.859ZM381.738 318.293C384.795 317.766 387.598 315.939 387.598 313.41V312.766H389.121V313.41C389.111 315.939 391.924 317.766 395 318.293L394.375 319.504C391.797 319.025 389.414 317.697 388.379 315.686C387.314 317.697 384.922 319.025 382.344 319.504L381.738 318.293ZM411.66 302.219V319.621H410.117V302.219H411.66ZM397.988 309.621C397.998 305.93 399.834 303.576 402.422 303.566C405 303.576 406.865 305.93 406.855 309.621C406.865 313.322 405 315.666 402.422 315.656C399.834 315.666 397.998 313.322 397.988 309.621ZM399.473 309.621C399.473 312.443 400.684 314.299 402.422 314.289C404.17 314.299 405.371 312.443 405.371 309.621C405.371 306.799 404.17 304.943 402.422 304.934C400.684 304.943 399.473 306.799 399.473 309.621ZM435.469 310.344V311.613H428.301V313.469C431.572 313.615 433.516 314.68 433.535 316.516C433.516 318.459 431.279 319.543 427.559 319.543C423.789 319.543 421.553 318.459 421.562 316.516C421.553 314.68 423.486 313.615 426.797 313.469V311.613H419.648V310.344H435.469ZM420.547 308.078C423.555 307.766 426.455 306.232 426.562 304.289H421.094V303.039H434.062V304.289H428.555C428.662 306.232 431.533 307.766 434.59 308.078L434.023 309.289C431.182 308.947 428.516 307.668 427.559 305.744C426.602 307.668 423.955 308.947 421.094 309.289L420.547 308.078ZM423.125 316.516C423.105 317.668 424.775 318.361 427.559 318.352C430.312 318.361 431.982 317.668 431.992 316.516C431.982 315.334 430.312 314.66 427.559 314.641C424.775 314.66 423.105 315.334 423.125 316.516ZM450.508 302.219V307.512H453.125V308.801H450.508V314.934H448.965V302.219H450.508ZM436.953 311.691C441.123 310.393 443.828 307.922 444.15 304.855H437.676V303.566H445.82C445.82 308.039 442.627 311.359 437.617 312.922L436.953 311.691ZM439.629 319.211V313.645H441.152V317.922H451.309V319.211H439.629ZM460.098 305.52C460.107 307.795 461.807 309.826 464.355 310.656L463.633 311.867C461.631 311.203 460.117 309.826 459.365 308.078C458.623 310.07 457.021 311.623 454.941 312.375L454.16 311.145C456.758 310.266 458.574 308.029 458.594 305.52V304.777H454.629V303.508H464.004V304.777H460.098V305.52ZM456.465 316.34C456.475 314.338 458.652 313.176 462.227 313.176C465.791 313.176 467.949 314.338 467.949 316.34C467.949 318.371 465.791 319.543 462.227 319.543C458.652 319.543 456.475 318.371 456.465 316.34ZM458.008 316.34C457.988 317.59 459.609 318.322 462.227 318.312C464.854 318.322 466.455 317.59 466.465 316.34C466.455 315.129 464.854 314.406 462.227 314.406C459.609 314.406 457.988 315.129 458.008 316.34ZM466.27 312.707V302.219H467.793V306.652H470.41V307.941H467.793V312.707H466.27ZM487.402 316.047V317.316H471.504V316.047H478.613V311.789H480.117V316.047H487.402ZM472.129 310.715C475.166 310.197 478.545 307.658 478.555 304.738V303.41H480.156V304.738C480.166 307.639 483.594 310.197 486.621 310.715L485.938 311.984C483.291 311.438 480.498 309.65 479.375 307.15C478.232 309.641 475.469 311.438 472.812 311.984L472.129 310.715ZM494.023 303.352C496.689 303.371 498.643 305.012 498.652 307.434C498.643 309.611 497.061 311.154 494.805 311.447V314.396C496.426 314.328 498.057 314.211 499.57 314.016L499.668 315.168C495.986 315.793 491.885 315.832 488.828 315.812L488.574 314.523C489.971 314.514 491.582 314.504 493.262 314.455V311.447C490.957 311.174 489.385 309.621 489.395 307.434C489.385 305.012 491.309 303.371 494.023 303.352ZM490.898 307.434C490.879 309.064 492.197 310.197 494.023 310.188C495.82 310.197 497.129 309.064 497.148 307.434C497.129 305.803 495.82 304.689 494.023 304.68C492.197 304.689 490.879 305.803 490.898 307.434ZM500.684 319.582V302.219H502.207V309.387H505.039V310.715H502.207V319.582H500.684ZM109.375 337.227V338.477H100.664V337.227H104.277V334.746H105.801V337.227H109.375ZM101.289 343.594C101.289 341.289 102.861 339.658 105.02 339.648C107.207 339.658 108.77 341.289 108.789 343.594C108.77 345.928 107.207 347.568 105.02 347.578C102.861 347.568 101.289 345.928 101.289 343.594ZM102.656 343.594C102.656 345.137 103.643 346.24 105.02 346.23C106.406 346.24 107.422 345.137 107.422 343.594C107.422 342.07 106.406 340.957 105.02 340.938C103.643 340.957 102.656 342.07 102.656 343.594ZM110.273 350.723V334.648H111.719V341.543H114.023V334.219H115.488V351.582H114.023V342.812H111.719V350.723H110.273ZM131.582 334.219V338.75H134.18V340.039H131.582V344.59H130.039V334.219H131.582ZM118.789 343.164V335.547H126.504V336.816H120.293V341.914C123.809 341.895 125.83 341.787 128.164 341.309L128.32 342.578C125.889 343.066 123.809 343.164 120.137 343.164H118.789ZM120.234 348.223C120.244 346.143 122.451 344.932 125.996 344.922C129.541 344.932 131.719 346.143 131.719 348.223C131.719 350.332 129.541 351.543 125.996 351.543C122.451 351.543 120.244 350.332 120.234 348.223ZM121.738 348.223C121.748 349.512 123.379 350.303 125.996 350.312C128.594 350.303 130.244 349.512 130.234 348.223C130.244 346.943 128.594 346.172 125.996 346.191C123.379 346.172 121.748 346.943 121.738 348.223ZM146.172 337.52C146.182 339.795 147.881 341.826 150.43 342.656L149.707 343.867C147.705 343.203 146.191 341.826 145.439 340.078C144.697 342.07 143.096 343.623 141.016 344.375L140.234 343.145C142.832 342.266 144.648 340.029 144.668 337.52V336.777H140.703V335.508H150.078V336.777H146.172V337.52ZM142.539 348.34C142.549 346.338 144.727 345.176 148.301 345.176C151.865 345.176 154.023 346.338 154.023 348.34C154.023 350.371 151.865 351.543 148.301 351.543C144.727 351.543 142.549 350.371 142.539 348.34ZM144.082 348.34C144.062 349.59 145.684 350.322 148.301 350.312C150.928 350.322 152.529 349.59 152.539 348.34C152.529 347.129 150.928 346.406 148.301 346.406C145.684 346.406 144.062 347.129 144.082 348.34ZM152.344 344.707V334.219H153.867V338.652H156.484V339.941H153.867V344.707H152.344ZM173.477 348.047V349.316H157.578V348.047H164.688V343.789H166.191V348.047H173.477ZM158.203 342.715C161.24 342.197 164.619 339.658 164.629 336.738V335.41H166.23V336.738C166.24 339.639 169.668 342.197 172.695 342.715L172.012 343.984C169.365 343.438 166.572 341.65 165.449 339.15C164.307 341.641 161.543 343.438 158.887 343.984L158.203 342.715ZM189.746 334.219V351.582H188.262V334.219H189.746ZM175.078 341.719C175.088 338.027 176.553 335.693 178.809 335.684C180.918 335.693 182.344 337.725 182.539 340.996H184.785V334.59H186.25V350.703H184.785V342.266H182.549C182.402 345.645 180.947 347.764 178.809 347.754C176.553 347.764 175.088 345.41 175.078 341.719ZM176.523 341.719C176.504 344.531 177.402 346.309 178.809 346.289C180.225 346.309 181.123 344.531 181.113 341.719C181.123 338.896 180.225 337.129 178.809 337.129C177.402 337.129 176.504 338.896 176.523 341.719ZM198.262 338.887C198.252 342.031 200.273 345.195 202.793 346.348L201.875 347.598C199.902 346.582 198.271 344.512 197.5 342.041C196.729 344.639 195.098 346.865 193.125 347.91L192.129 346.68C194.678 345.43 196.689 342.09 196.699 338.887V335.723H198.262V338.887ZM200.898 341.406V340.156H205.02V334.219H206.543V351.621H205.02V341.406H200.898ZM228.027 334.219V338.145H230.645V339.434H228.027V343.066H226.504V334.219H228.027ZM214.473 342.227C218.799 341.25 221.357 339.102 221.621 336.348H215.254V335.078H223.301C223.311 339.443 220.127 342.305 215.078 343.516L214.473 342.227ZM216.953 345.098V343.848H228.027V348.145H218.496V350.156H228.672V351.426H216.992V346.953H226.504V345.098H216.953ZM245.527 335.801V343.789H237.5V335.801H245.527ZM239.004 342.559H244.043V337.051H239.004V342.559ZM239.473 351.211V345.742H240.977V349.922H251.133V351.211H239.473ZM248.809 346.953V334.219H250.332V339.512H252.949V340.801H250.332V346.953H248.809ZM267.617 334.238V339.961H270.234V341.25H267.617V347.246H266.094V334.238H267.617ZM254.082 337.617V336.367H258.496V334.238H260.02V336.367H264.434V337.617H254.082ZM255.078 341.816C255.068 339.844 256.748 338.574 259.258 338.574C261.738 338.574 263.418 339.844 263.438 341.816C263.418 343.77 261.738 345.029 259.258 345.02C256.748 345.029 255.068 343.77 255.078 341.816ZM256.543 341.816C256.533 343.037 257.617 343.828 259.258 343.809C260.879 343.828 261.973 343.037 261.992 341.816C261.973 340.576 260.879 339.775 259.258 339.785C257.617 339.775 256.533 340.576 256.543 341.816ZM256.758 351.211V346.211H258.262V349.922H268.418V351.211H256.758ZM290.156 335.078V336.289C290.146 337.607 290.146 339.131 289.688 341.191L288.184 341.016C288.633 339.004 288.633 337.578 288.633 336.309H278.242V335.078H290.156ZM276.367 343.613V342.383H282.91V338.867H284.414V342.383H292.168V343.613H276.367ZM277.5 350.312C280.645 349.844 283.408 348.105 283.418 345.801V345H284.961V345.801C284.971 348.105 287.734 349.844 290.898 350.312L290.312 351.504C287.666 351.074 285.244 349.824 284.189 347.93C283.135 349.824 280.713 351.074 278.066 351.504L277.5 350.312ZM309.473 341.523V342.754H293.633V341.523H309.473ZM295.547 345.508V344.316H307.422V348.34H297.109V350.137H307.949V351.387H295.586V347.188H305.918V345.508H295.547ZM295.742 340.098V334.824H307.402V336.055H297.285V338.848H307.578V340.098H295.742ZM318.828 334.531C322.686 334.531 324.951 335.596 324.961 337.52C324.951 339.492 322.686 340.557 318.828 340.566C314.951 340.557 312.676 339.492 312.676 337.52C312.676 335.596 314.951 334.531 318.828 334.531ZM310.918 342.988V341.738H326.738V342.988H310.918ZM312.832 345.664V344.492H324.707V348.379H314.395V350.176H325.234V351.387H312.871V347.246H323.203V345.664H312.832ZM314.277 337.52C314.258 338.73 315.947 339.395 318.828 339.395C321.709 339.395 323.389 338.73 323.398 337.52C323.389 336.377 321.709 335.693 318.828 335.684C315.947 335.693 314.258 336.377 314.277 337.52ZM349.043 344.727V346.016H341.875V351.621H340.371V346.016H333.223V344.727H349.043ZM334.219 342.148C337.314 341.729 340.361 339.834 340.371 337.656V337.637H334.766V336.387H340.371V334.219H341.875V336.387H347.52V337.637H341.895V337.656C341.895 339.824 344.922 341.729 348.027 342.148L347.461 343.379C344.775 342.969 342.246 341.621 341.143 339.736C340.039 341.641 337.471 342.969 334.785 343.379L334.219 342.148ZM356.426 338.379C356.436 340.693 358.262 342.705 360.84 343.516L360.078 344.746C358.076 344.092 356.484 342.715 355.703 340.928C354.951 342.842 353.369 344.326 351.328 345.039L350.566 343.848C353.135 342.988 354.912 340.83 354.922 338.379V337.812H350.996V336.562H354.922V334.336H356.465V336.562H360.352V337.812H356.426V338.379ZM353.75 351.211V346.035H355.293V349.922H365.391V351.211H353.75ZM359.746 340.859V339.59H363.359V334.238H364.902V347.207H363.359V340.859H359.746ZM376.465 337.227V338.477H367.754V337.227H371.367V334.746H372.891V337.227H376.465ZM368.379 343.594C368.379 341.289 369.951 339.658 372.109 339.648C374.297 339.658 375.859 341.289 375.879 343.594C375.859 345.928 374.297 347.568 372.109 347.578C369.951 347.568 368.379 345.928 368.379 343.594ZM369.746 343.594C369.746 345.137 370.732 346.24 372.109 346.23C373.496 346.24 374.512 345.137 374.512 343.594C374.512 342.07 373.496 340.957 372.109 340.938C370.732 340.957 369.746 342.07 369.746 343.594ZM377.363 350.723V334.648H378.809V341.543H381.113V334.219H382.578V351.582H381.113V342.812H378.809V350.723H377.363ZM399.102 342.578V343.848H387.109V335.84H398.926V337.109H388.633V342.578H399.102ZM385.078 349.219V347.93H400.977V349.219H385.078ZM416.738 334.219V351.621H415.215V344.219H411.602V342.93H415.215V339.473H411.738V338.184H415.215V334.219H416.738ZM402.969 337.07V335.801H410.605V341.973H404.551V346.25C407.158 346.25 409.316 346.152 411.953 345.742L412.09 347.031C409.316 347.461 407.09 347.559 404.316 347.559H403.027V340.723H409.102V337.07H402.969ZM435.547 348.066V349.355H419.648V348.066H423.594V343.389C422.109 342.617 421.211 341.367 421.211 339.785C421.211 337.1 423.848 335.332 427.559 335.312C431.27 335.332 433.906 337.1 433.906 339.785C433.906 341.338 433.037 342.568 431.602 343.34V348.066H435.547ZM422.695 339.785C422.686 341.729 424.707 343.027 427.559 343.027C430.381 343.027 432.422 341.729 432.422 339.785C432.422 337.842 430.381 336.562 427.559 336.582C424.707 336.562 422.686 337.842 422.695 339.785ZM425.098 348.066H430.059V343.936C429.307 344.131 428.467 344.238 427.559 344.238C426.67 344.238 425.84 344.141 425.098 343.945V348.066ZM439.746 335.859L439.609 346.016H437.969L437.832 335.859H439.746ZM437.539 348.848C437.52 348.164 438.105 347.598 438.789 347.598C439.482 347.598 440.049 348.164 440.039 348.848C440.049 349.541 439.482 350.107 438.789 350.117C438.105 350.107 437.52 349.541 437.539 348.848Z" fill="#B0B0B0"/>
<path fill-rule="evenodd" clip-rule="evenodd" d="M793 241C793 241 776 218.436 776 207.607C776 196.778 783.611 188 793 188C802.389 188 810 196.778 810 207.607C810 218.436 793 241 793 241ZM792.787 217.935C787.741 217.935 783.65 213.211 783.65 207.384C783.65 201.557 787.741 196.833 792.787 196.833C797.834 196.833 801.925 201.557 801.925 207.384C801.925 213.211 797.834 217.935 792.787 217.935Z" fill="#FFA86A"/>
<path fill-rule="evenodd" clip-rule="evenodd" d="M1050 279C1050 279 1033 256.436 1033 245.607C1033 234.778 1040.61 226 1050 226C1059.39 226 1067 234.778 1067 245.607C1067 256.436 1050 279 1050 279ZM1049.79 255.935C1044.74 255.935 1040.65 251.211 1040.65 245.384C1040.65 239.557 1044.74 234.833 1049.79 234.833C1054.83 234.833 1058.93 239.557 1058.93 245.384C1058.93 251.211 1054.83 255.935 1049.79 255.935Z" fill="#FFA86A"/>
<path fill-rule="evenodd" clip-rule="evenodd" d="M856.534 207.034C856.863 204.912 855.147 203 853 203C823.177 203 799 178.823 799 149C799 119.177 823.177 95 853 95C869.218 95 883.766 102.149 893.664 113.469C899.044 119.62 908.627 121.974 915.55 117.632C935.385 105.193 958.846 98 983.986 98C1019.94 98 1052.45 112.707 1075.84 136.433C1080.76 141.421 1088.73 142.093 1094.67 138.386C1107.25 130.536 1122.11 126 1138.04 126C1183.34 126 1220.07 162.728 1220.07 208.035C1220.07 253.342 1183.34 290.071 1138.04 290.071C1129.25 290.071 1120.79 288.691 1112.86 286.136C1106.2 283.989 1098.63 286.572 1095.06 292.598C1072.6 330.535 1031.27 355.973 983.986 355.973C912.749 355.973 855 298.224 855 226.986C855 220.2 855.524 213.537 856.534 207.034Z" fill="#FFEFE4"/>
<g clip-path="url(#clip0_871_3264)">
<g filter="url(#filter1_b_871_3264)">
<path d="M1121.84 186.043C1121.79 185.899 1121.71 185.756 1121.64 185.62C1121.32 185.096 1120.85 184.595 1120.17 184.113C1119.72 183.798 1119.2 183.482 1118.62 183.181C1118.02 182.88 1117.36 182.593 1116.65 182.321C1116.31 182.185 1115.92 182.049 1115.52 181.912C1114.92 181.698 1114.26 181.496 1113.52 181.31C1113.18 181.217 1112.81 181.124 1112.45 181.03C1110.58 180.571 1108.48 180.177 1106.22 179.869C1105.73 179.797 1105.23 179.733 1104.73 179.669C1101.16 179.237 1097.22 179 1093.07 179H747.933C744.44 179 741.081 179.173 737.984 179.48C736.645 179.61 735.36 179.767 734.152 179.954C733.311 180.076 732.524 180.205 731.761 180.348C730.606 180.563 729.504 180.8 728.48 181.051C728.137 181.138 727.798 181.231 727.48 181.317C726.798 181.488 726.166 181.676 725.615 181.876C725.195 182.012 724.803 182.148 724.432 182.292C723.33 182.715 722.359 183.167 721.546 183.648V183.655C720.498 184.294 719.735 184.981 719.343 185.698C719.106 186.078 719 186.473 719 186.867V219.013V224.294V310.392C719 314.581 731.418 317.965 746.721 317.965H757.013H852.52H950.863H960.971L961.734 318C961.788 317.993 961.841 317.986 961.894 317.965H980.323H999.196H1094.28C1098.77 317.965 1103 317.678 1106.75 317.154C1115.78 315.913 1122.01 313.353 1122.01 310.392V258.009V250.214V186.867C1122 186.587 1121.95 186.315 1121.84 186.043Z" fill="url(#paint0_linear_871_3264)" fill-opacity="0.97"/>
</g>
<path d="M1122 264.97V272.496L1105.34 263.632L1102.45 262.091L1066.35 242.888L1060.6 239.835L1035.72 226.593L1032.84 225.062L1003.86 209.644L1000.98 208.108L978.486 196.138L975.56 194.583L947.749 179.787C947.272 179.537 947.043 179.267 947.064 179.002H960.424L987.496 193.408L990.386 194.945L1026.54 214.181L1029.43 215.717L1071.92 238.328L1077.67 241.381L1122 264.97Z" fill="white"/>
<path d="M1122 231.654V235.472L1077.67 241.38L1066.35 242.887L981.465 254.208L975.789 254.96L912.724 263.367L907.084 264.119L900.335 265.019L851.687 271.504L838.821 273.218L789.133 279.843L781.661 280.84L769.569 282.448C769.427 282.467 769.271 282.487 769.112 282.506L744.648 285.77L738.971 286.526L721.75 288.823C720.869 288.944 719.918 288.997 719 288.997V285.366L759.4 279.983L771.051 278.432L836.319 269.731C836.478 269.707 836.637 269.688 836.797 269.669L888.46 262.784L899.812 261.267L927.994 257.511L933.634 256.759L1016.7 245.69L1022.34 244.934L1060.61 239.835L1071.92 238.327L1122 231.654Z" fill="white"/>
<path d="M918.704 317.965H906.131C907.576 308.183 902.299 300.28 894.081 293.983C893.085 293.208 892.032 292.463 890.93 291.746C873.734 280.286 847.221 274.75 838.818 273.222C837.219 272.928 836.272 272.777 836.166 272.763C833.146 272.311 832.02 271.264 833.697 270.439C834.407 270.08 835.533 269.822 836.794 269.672C838.475 269.478 840.471 269.493 842.23 269.751C842.597 269.808 846.221 270.36 851.681 271.507C860.818 273.422 875.15 277.001 888.278 282.717C888.567 282.846 888.857 282.974 889.171 283.104C891.008 283.929 892.873 284.818 894.709 285.765C903.976 290.534 912.563 296.874 916.549 304.971C917.1 306.076 917.574 307.216 917.941 308.392C918.863 311.367 919.206 314.551 918.704 317.965Z" fill="white"/>
<path d="M1122 203.834V205.621L1107.21 207.234L1029.43 215.717L1023.28 216.387C1022.91 216.43 1022.5 216.45 1022.11 216.45C1020.86 216.45 1019.68 216.248 1019.21 215.911C1018.55 215.468 1019.35 214.972 1020.95 214.794L1026.54 214.183L1101.64 205.993L1107.51 205.352L1120.83 203.897C1121.22 203.853 1121.61 203.834 1122 203.834Z" fill="white"/>
<path d="M1107.58 207.185C1107.45 207.203 1107.33 207.218 1107.21 207.232C1106.83 207.271 1106.47 207.29 1106.08 207.29C1104.97 207.29 1103.89 207.126 1103.31 206.837L1101.64 205.99L1063.28 186.629L1060.27 185.107L1048.99 179.412C1048.72 179.282 1048.6 179.143 1048.6 179.002H1055.33L1066.1 184.443L1069.12 185.964L1107.51 205.349L1108.85 206.023C1109.67 206.438 1109.11 206.958 1107.58 207.185Z" fill="white"/>
<path d="M900.686 294.68C900.274 294.68 899.854 294.658 899.45 294.612L776.527 280.237C774.932 280.05 774.193 279.546 774.875 279.109C775.556 278.674 777.401 278.471 779 278.657L901.923 293.031C903.518 293.218 904.257 293.722 903.575 294.159C903.069 294.485 901.906 294.68 900.686 294.68Z" fill="white"/>
<path d="M841.706 287.801L841.576 287.844L811.806 298.437L778.021 310.471L773.871 311.948L756.989 317.958L756.964 317.965H749.035L753.132 316.509L769.145 310.807L773.74 309.164L807.109 297.289L835.618 287.148L836.719 286.76C837.768 286.38 839.739 286.309 841.102 286.595C842.494 286.891 842.755 287.428 841.706 287.801Z" fill="white"/>
<path d="M955.452 288.138C954.326 288.138 953.237 287.972 952.669 287.681L904.193 262.626C903.381 262.207 903.969 261.687 905.503 261.465C907.038 261.243 908.939 261.403 909.751 261.823L958.227 286.878C959.039 287.297 958.452 287.817 956.917 288.038C956.448 288.107 955.946 288.138 955.452 288.138Z" fill="white"/>
<path d="M1038.71 285.411C1037.6 285.411 1036.52 285.25 1035.95 284.965L972.847 253.489C972.014 253.073 972.573 252.552 974.096 252.324C975.618 252.096 977.527 252.248 978.36 252.665L1041.46 284.14C1042.29 284.557 1041.73 285.078 1040.21 285.306C1039.74 285.377 1039.22 285.411 1038.71 285.411Z" fill="white"/>
<path d="M1014.59 273.382C1013.34 273.382 1012.16 273.176 1011.67 272.839C1011.03 272.399 1011.82 271.9 1013.43 271.725L1108.61 261.426C1110.22 261.253 1112.05 261.467 1112.69 261.909C1113.33 262.35 1112.54 262.849 1110.93 263.024L1015.75 273.322C1015.37 273.362 1014.98 273.382 1014.59 273.382Z" fill="white"/>
<path d="M1122 292.95V294.679C1121.84 294.679 1121.72 294.679 1121.56 294.67L1081.14 293.085V293.081L1074.88 292.835L1027.74 290.987L1021.48 290.741L955.032 288.131L894.717 285.766V285.762L884.478 285.362C883.246 285.314 882.222 285.063 881.887 284.731C881.569 284.395 882.01 284.043 883.013 283.831L888.282 282.719L927.2 274.514L929.298 274.071C930.673 273.782 932.648 273.854 933.705 274.23C933.811 274.269 933.917 274.312 933.987 274.355C934.693 274.716 934.374 275.173 933.142 275.434L930.179 276.059L892.742 283.951L949.78 286.19L957.5 286.493L1022.36 289.041L1028.64 289.286L1075.79 291.135L1082.03 291.381L1122 292.95Z" fill="white"/>
<path d="M1112.45 181.03L1069.13 185.964L1063.27 186.63L990.372 194.943L984.332 195.631C984.255 195.638 984.173 195.646 984.096 195.652C983.782 195.688 982.023 195.838 979.24 196.075C979.003 196.096 978.742 196.118 978.476 196.139C972.727 196.62 963.304 197.358 953.118 197.954C944.638 198.455 935.636 198.865 927.838 198.937C926.973 198.943 926.132 198.951 925.291 198.951C923.508 198.951 921.774 198.93 920.174 198.887C919.778 198.872 919.362 198.851 918.995 198.837C909.49 198.336 901.561 194.986 895.497 191.178C894.657 190.64 893.845 190.095 893.057 189.543C886.495 184.931 882.635 180.156 881.847 179.179C881.794 179.122 881.77 179.058 881.77 179H888.148C890.694 182.214 895 186.301 900.223 189.786C900.329 189.836 900.407 189.887 900.46 189.945C906.471 193.86 913.612 196.98 920.807 197.173C929.576 197.417 942.149 196.864 953.649 196.163C962.259 195.632 970.241 195.015 975.571 194.585C979.142 194.291 981.504 194.084 982.031 194.033L983.133 193.911L987.491 193.41L1060.28 185.111L1066.11 184.444L1106.22 179.869C1108.48 180.177 1110.58 180.571 1112.45 181.03Z" fill="white"/>
<path d="M933.641 259.529C932.502 259.529 931.401 259.36 930.846 259.063C895.008 240.029 894.49 227.143 929.27 219.668C938.244 217.74 943.059 215.396 943.586 212.703C944.928 205.83 918.571 198.716 918.301 198.644C917.061 198.313 917.036 197.77 918.248 197.43C919.46 197.091 921.452 197.083 922.692 197.414C923.863 197.727 951.348 205.134 949.866 212.788C949.246 215.998 943.623 218.767 933.159 221.016C901.121 227.902 902.194 240.09 936.436 258.276C937.232 258.698 936.624 259.215 935.077 259.433C934.616 259.498 934.122 259.529 933.641 259.529Z" fill="white"/>
<path d="M908.644 241.255C907.42 241.255 906.257 241.059 905.751 240.733C905.073 240.295 905.816 239.792 907.416 239.607L1038.86 224.364C1040.46 224.178 1042.31 224.382 1042.98 224.819C1043.66 225.256 1042.92 225.76 1041.32 225.944L909.872 241.187C909.472 241.234 909.056 241.255 908.644 241.255Z" fill="white"/>
<path d="M1009.46 208.994L1003.87 209.644L947.007 216.241L945.807 216.38C945.403 216.423 944.995 216.448 944.575 216.448C944.012 216.448 943.448 216.405 942.934 216.323L940.608 215.937L885.121 206.726L879.339 205.769L813.279 194.8L812.275 194.636C811.642 194.535 811.165 194.371 810.936 194.179L809.737 193.216L792.324 179.281C792.201 179.189 792.148 179.093 792.148 179.002H798.6L816.013 192.941L816.507 193.331L822.836 194.38L886.623 204.968L942.742 214.28L944.824 214.627L949.3 214.106L1000.98 208.107L1007.01 207.408C1008.59 207.225 1010.44 207.427 1011.13 207.865C1011.8 208.301 1011.06 208.807 1009.46 208.994Z" fill="white"/>
<path d="M938.144 237.907C937.491 237.355 936.679 236.825 935.647 236.33C930.689 233.87 921.392 232.163 910.57 231.976H910.538C909.913 231.97 909.289 231.962 908.636 231.962C908.138 231.962 907.636 231.962 907.138 231.976C906.138 231.984 905.11 232.012 904.143 232.055H904.114C892.011 232.542 882.217 234.945 878.944 238.1V238.107C878.165 238.831 877.789 239.606 877.789 240.395C877.789 240.968 877.977 241.535 878.381 242.073C881.25 245.918 893.729 248.829 908.636 248.829C910.444 248.829 912.284 248.786 914.002 248.699C915.031 248.65 916.03 248.592 916.997 248.513C918.058 248.435 919.087 248.342 920.054 248.227H920.087C931.439 246.979 939.519 243.938 939.519 240.395C939.519 239.528 939.05 238.697 938.144 237.907ZM918.026 246.607H917.993C916.993 246.722 915.965 246.815 914.937 246.887H914.904C913.904 246.959 912.937 247.017 911.909 247.052C910.815 247.095 909.754 247.116 908.632 247.116C895.063 247.116 884.053 244.104 884.053 240.397C884.053 237.156 892.415 234.466 903.612 233.821H903.645C904.645 233.763 905.612 233.728 906.64 233.705C907.297 233.691 907.95 233.684 908.636 233.684C909.105 233.684 909.542 233.684 909.978 233.691H910.011C918.462 233.821 925.796 235.118 929.848 237.004C930.909 237.492 931.75 238.023 932.313 238.582V238.589C932.904 239.163 933.219 239.773 933.219 240.397C933.219 243.193 926.918 245.595 918.026 246.607Z" fill="white"/>
<path d="M1038.71 285.413C1037.59 285.413 1036.52 285.248 1035.96 284.968L1035.18 284.574C1035.18 284.574 1035.18 284.574 1035.18 284.567L1034.53 284.251H1034.49C1028.53 285.392 1024.17 287.07 1022.36 289.042L1023.61 289.092L1028.63 289.286C1030.41 287.579 1034.59 286.152 1040.21 285.305C1039.74 285.377 1039.21 285.413 1038.71 285.413ZM1038.71 285.413C1037.59 285.413 1036.52 285.248 1035.96 284.968L1035.18 284.574C1035.18 284.574 1035.18 284.574 1035.18 284.567L1034.53 284.251H1034.49C1028.53 285.392 1024.17 287.07 1022.36 289.042L1023.61 289.092L1028.63 289.286C1030.41 287.579 1034.59 286.152 1040.21 285.305C1039.74 285.377 1039.21 285.413 1038.71 285.413ZM1038.71 285.413C1037.59 285.413 1036.52 285.248 1035.96 284.968L1035.18 284.574L1034.53 284.25H1034.49C1028.53 285.391 1024.17 287.069 1022.36 289.041L1023.61 289.091L1028.63 289.285C1030.41 287.578 1034.59 286.151 1040.21 285.304C1039.74 285.377 1039.21 285.413 1038.71 285.413ZM1051.75 282.78C1047.63 282.78 1043.64 283.009 1040.05 283.426H1040.02C1039.05 283.541 1038.08 283.663 1037.21 283.799C1036.65 283.885 1036.09 283.97 1035.56 284.064C1035.21 284.122 1034.87 284.186 1034.53 284.25H1034.5C1028.54 285.391 1024.17 287.069 1022.36 289.041C1022.27 289.142 1022.18 289.242 1022.12 289.342C1021.99 289.5 1021.87 289.665 1021.81 289.83C1021.62 290.131 1021.52 290.432 1021.49 290.741C1021.43 290.848 1021.43 290.949 1021.43 291.063C1021.43 295.623 1035.06 299.346 1051.75 299.346C1065.91 299.346 1077.83 296.678 1081.16 293.085V293.078C1081.66 292.534 1081.94 291.967 1082.04 291.379V291.064C1082.03 286.495 1068.47 282.78 1051.75 282.78ZM1051.75 297.626C1038.49 297.626 1027.73 294.678 1027.73 291.064V290.985C1027.79 290.397 1028.07 289.824 1028.63 289.286C1030.41 287.579 1034.59 286.152 1040.21 285.305H1040.24C1043.64 284.796 1047.57 284.502 1051.75 284.502C1065 284.502 1075.77 287.45 1075.77 291.064V291.136C1075.77 291.724 1075.46 292.297 1074.89 292.835C1072.05 295.597 1062.76 297.626 1051.75 297.626ZM1038.71 285.413C1037.59 285.413 1036.52 285.248 1035.96 284.968L1035.18 284.574C1035.18 284.574 1035.18 284.574 1035.18 284.567L1034.53 284.251H1034.49C1028.53 285.392 1024.17 287.07 1022.36 289.042L1023.61 289.092L1028.63 289.286C1030.41 287.579 1034.59 286.152 1040.21 285.305C1039.74 285.377 1039.21 285.413 1038.71 285.413ZM1038.71 285.413C1037.59 285.413 1036.52 285.248 1035.96 284.968L1035.18 284.574C1035.18 284.574 1035.18 284.574 1035.18 284.567L1034.53 284.251H1034.49C1028.53 285.392 1024.17 287.07 1022.36 289.042L1023.61 289.092L1028.63 289.286C1030.41 287.579 1034.59 286.152 1040.21 285.305C1039.74 285.377 1039.21 285.413 1038.71 285.413Z" fill="white"/>
<path d="M1022.12 247.736C1020.92 247.736 1019.78 247.549 1019.25 247.232L991.895 230.765C991.177 230.333 991.879 229.824 993.458 229.628C995.037 229.432 996.902 229.623 997.616 230.055L1024.97 246.522C1025.69 246.954 1024.99 247.463 1023.41 247.659C1022.99 247.711 1022.55 247.736 1022.12 247.736Z" fill="white"/>
<path d="M1106.75 317.155C1102.99 317.678 1098.77 317.965 1094.28 317.965H1092.89C1077.71 313.462 1055.98 310.349 1027.73 308.65C1025.68 308.528 1023.58 308.413 1021.43 308.298C1016.44 308.046 1011.29 307.832 1005.94 307.659C1000.79 307.494 995.674 307.372 990.658 307.3H990.634C987.092 307.243 983.598 307.199 980.158 307.185C978.032 307.171 975.906 307.164 973.833 307.164C972.519 307.164 971.234 307.164 969.973 307.171C946.528 307.235 926.998 307.988 917.942 308.389C914.531 308.548 912.588 308.647 912.507 308.655C909.12 308.849 905.786 308.253 905.076 307.321C904.365 306.396 906.545 305.485 909.96 305.292C910.356 305.271 912.666 305.142 916.551 304.97C925.557 304.562 942.962 303.902 964.227 303.758C969.426 303.715 974.886 303.708 980.477 303.744C989.14 303.801 998.195 303.952 1007.39 304.245C1052.43 305.694 1085.98 310.091 1106.75 317.155Z" fill="white"/>
<path d="M853.783 316.042L879.851 317.964H855.701L852.734 317.749L773.872 311.948L771.852 311.797C770.828 311.719 770.016 311.511 769.698 311.245L769.147 310.808L755.729 300.013L738.957 286.524L736.806 284.788C736.255 284.336 737.121 283.848 738.773 283.698C740.402 283.539 742.185 283.784 742.764 284.236L744.682 285.77L761.193 299.059L773.742 309.164L775.109 310.254L778.022 310.469L853.783 316.042Z" fill="white"/>
<path d="M976.642 312.657C975.173 313.661 973.125 314.686 970.288 315.684C967.873 316.529 965.065 317.298 961.886 317.964C961.833 317.986 961.78 317.993 961.727 317.999L960.964 317.964H950.305C950.725 317.9 951.145 317.842 951.566 317.778C951.749 317.749 951.933 317.72 952.117 317.685C952.17 317.685 952.223 317.678 952.247 317.671C957.524 316.854 961.857 315.842 965.269 314.644C970.101 312.958 972.304 311.131 973.251 309.566C973.777 308.649 973.908 307.816 973.831 307.164C973.753 306.232 973.333 305.643 973.333 305.622C972.965 305.163 974.067 304.705 975.749 304.612C977.454 304.511 979.107 304.805 979.478 305.271C979.556 305.35 980.082 306.075 980.16 307.186C980.29 308.569 979.715 310.563 976.642 312.657Z" fill="white"/>
<path d="M1027.73 306.72V317.964H1021.43V306.72C1021.43 306.246 1022.85 305.866 1024.6 305.866C1026.31 305.866 1027.73 306.246 1027.73 306.72Z" fill="white"/>
<path d="M897.992 191.064L895.507 191.175L822.836 194.382L813.299 194.8H813.283L773.801 196.544L766.929 196.847L734.005 198.302L727.749 198.576L719.502 198.943C719.326 198.947 719.183 198.953 719.008 198.953V197.219L729.671 196.752L809.745 193.217L816.021 192.943L893.062 189.543L896.992 189.37C898.702 189.298 900.322 189.615 900.587 190.082C900.865 190.55 899.702 190.987 897.992 191.064Z" fill="white"/>
<path d="M766.71 282.638C764.041 282.638 761.568 282.17 760.72 281.438C760.495 281.243 738.904 261.861 805.866 254.394C872.823 246.93 902.797 262.553 903.091 262.711C904.662 263.557 903.425 264.589 900.332 265.019C897.235 265.448 893.452 265.111 891.881 264.265C890.885 263.738 866.69 251.32 810.616 257.573C786.992 260.208 773.435 264.821 770.318 271.283C767.943 276.213 772.656 280.359 772.705 280.4C773.754 281.304 771.917 282.269 768.612 282.556C767.979 282.612 767.339 282.638 766.71 282.638Z" fill="white"/>
<path d="M813.913 256.26C813.003 256.26 812.101 256.153 811.48 255.946C810.379 255.579 810.574 255.038 811.917 254.737L876.679 240.233L765.8 196.4C764.812 196.009 765.171 195.475 766.6 195.206C768.028 194.937 769.987 195.034 770.97 195.424L883.498 239.909C884.429 240.276 884.172 240.778 882.907 241.061L815.904 256.065C815.32 256.196 814.614 256.26 813.913 256.26Z" fill="white"/>
<path d="M824.651 219.013C823.701 219.013 822.762 218.895 822.142 218.672C821.093 218.293 821.366 217.755 822.75 217.468L883.027 205.005C884.411 204.719 886.382 204.793 887.431 205.171C888.479 205.549 888.206 206.087 886.823 206.374L826.545 218.839C825.978 218.956 825.313 219.013 824.651 219.013Z" fill="white"/>
<path d="M765.655 207.076C758.591 207.076 752.261 206.645 746.711 205.785C730.368 203.251 727.177 197.955 727.05 197.73C726.781 197.262 727.956 196.823 729.67 196.75C731.384 196.677 732.988 196.997 733.257 197.465C733.29 197.518 736.171 202.185 749.858 204.298C759.799 205.832 773.11 205.698 789.425 203.9C791.037 203.721 792.865 203.934 793.514 204.375C794.163 204.814 793.388 205.315 791.776 205.493C782.21 206.548 773.482 207.076 765.655 207.076Z" fill="white"/>
<path d="M805.101 210.978L803.02 211.113L773.075 213.019L766.925 213.415L751.202 214.416L745.031 214.806L719.706 216.424C719.461 216.443 719.249 216.449 719 216.449V214.705L746.427 212.957C746.496 212.953 746.55 212.953 746.603 212.947L799.18 209.597L803.673 209.308C804.995 209.221 806.317 209.38 807.023 209.678C807.219 209.76 807.358 209.852 807.447 209.949C807.835 210.41 806.794 210.873 805.101 210.978Z" fill="white"/>
<path d="M828.319 234.667C822.038 234.667 816.986 232.458 812.073 230.31C807.898 228.485 802.7 226.216 798.925 226.487C785.123 227.487 770.686 216.521 766.588 213.137C766.046 212.686 766.939 212.201 768.584 212.052C770.229 211.904 772.008 212.148 772.555 212.597C780.867 219.466 792.444 225.173 797.309 224.827C805.572 224.23 811.583 226.859 817.399 229.4C821.116 231.026 826.213 233.256 829.11 232.892C839.647 231.577 853.012 229.359 853.146 229.336C854.628 229.09 856.562 229.219 857.464 229.623C858.366 230.028 857.896 230.556 856.415 230.803C855.856 230.896 842.602 233.095 831.722 234.454C830.551 234.6 829.417 234.667 828.319 234.667Z" fill="white"/>
<path d="M767.243 268.591L759.171 268.972L719.531 270.835C719.355 270.845 719.18 270.85 719 270.85V269.12L760.914 267.147L766.182 266.897C767.876 266.819 769.512 267.132 769.814 267.599C770.096 268.067 768.953 268.509 767.243 268.591Z" fill="white"/>
<path d="M777.009 263.617C776.446 263.723 775.829 263.775 775.193 263.775C774.205 263.775 773.238 263.65 772.618 263.41L769.427 262.182L737.368 249.788C737.245 249.749 737.139 249.711 737.049 249.668L719 242.696V240.346C719.988 240.346 720.938 240.475 721.555 240.712L738.6 247.294L743.146 249.052L773.356 260.724L777.743 262.423C778.751 262.809 778.417 263.343 777.009 263.617Z" fill="white"/>
<path d="M801.47 257.688C800.164 257.688 798.948 257.465 798.499 257.11L744.118 214.078C743.551 213.63 744.424 213.141 746.065 212.987C747.709 212.832 749.497 213.07 750.06 213.518L804.441 256.549C805.008 256.997 804.135 257.486 802.494 257.64C802.156 257.672 801.809 257.688 801.47 257.688Z" fill="white"/>
<path d="M739.777 250.091C739.61 250.091 739.442 250.088 739.275 250.08C737.565 250.005 736.398 249.568 736.668 249.099C736.765 248.933 739.165 245.001 751.509 242.792C760.1 241.254 771.175 240.952 784.433 241.893C786.115 242.011 787.123 242.481 786.686 242.94C786.249 243.4 784.531 243.675 782.854 243.556C771.416 242.745 762.042 242.968 755.007 244.22C744.992 246.001 742.895 249.337 742.874 249.371C742.626 249.791 741.291 250.091 739.777 250.091Z" fill="white"/>
<path d="M766.292 229.179L763.456 229.387L719.812 232.57C719.531 232.589 719.282 232.599 719 232.599V230.855L761.408 227.759L764.668 227.519C766.182 227.413 767.717 227.62 768.333 227.991C768.402 228.034 768.455 228.082 768.508 228.13C768.969 228.587 767.966 229.06 766.292 229.179Z" fill="white"/>
</g>
<g filter="url(#filter2_b_871_3264)">
<path fill-rule="evenodd" clip-rule="evenodd" d="M791 241C791 241 775 218.436 775 207.607C775 196.778 782.163 188 791 188C799.837 188 807 196.778 807 207.607C807 218.436 791 241 791 241ZM790.8 217.935C786.05 217.935 782.2 213.211 782.2 207.384C782.2 201.557 786.05 196.833 790.8 196.833C795.55 196.833 799.4 201.557 799.4 207.384C799.4 213.211 795.55 217.935 790.8 217.935Z" fill="url(#paint1_linear_871_3264)" fill-opacity="0.7"/>
</g>
<g filter="url(#filter3_b_871_3264)">
<path fill-rule="evenodd" clip-rule="evenodd" d="M1048 279C1048 279 1032 256.436 1032 245.607C1032 234.778 1039.16 226 1048 226C1056.84 226 1064 234.778 1064 245.607C1064 256.436 1048 279 1048 279ZM1047.8 255.935C1043.05 255.935 1039.2 251.211 1039.2 245.384C1039.2 239.557 1043.05 234.833 1047.8 234.833C1052.55 234.833 1056.4 239.557 1056.4 245.384C1056.4 251.211 1052.55 255.935 1047.8 255.935Z" fill="url(#paint2_linear_871_3264)" fill-opacity="0.7"/>
</g>
<path fill-rule="evenodd" clip-rule="evenodd" d="M884.62 219.38C884.62 219.38 927.239 161.743 927.239 134.083C927.239 106.423 908.158 84 884.62 84C861.081 84 842 106.423 842 134.083C842 161.743 884.62 219.38 884.62 219.38ZM885.151 160.465C897.802 160.465 908.059 148.399 908.059 133.514C908.059 118.63 897.802 106.563 885.151 106.563C872.499 106.563 862.242 118.63 862.242 133.514C862.242 148.399 872.499 160.465 885.151 160.465Z" fill="#FFA86A"/>
<g filter="url(#filter4_b_871_3264)">
<path fill-rule="evenodd" clip-rule="evenodd" d="M888.381 219.38C888.381 219.38 931.001 161.743 931.001 134.083C931.001 106.423 911.92 84 888.381 84C864.843 84 845.762 106.423 845.762 134.083C845.762 161.743 888.381 219.38 888.381 219.38ZM888.912 160.465C901.564 160.465 911.82 148.399 911.82 133.514C911.82 118.63 901.564 106.563 888.912 106.563C876.26 106.563 866.004 118.63 866.004 133.514C866.004 148.399 876.26 160.465 888.912 160.465Z" fill="url(#paint3_linear_871_3264)" fill-opacity="0.7"/>
</g>
<g filter="url(#filter5_f_871_3264)">
<circle cx="863.311" cy="94.0284" r="6.26761" fill="white"/>
</g>
<g filter="url(#filter6_d_871_3264)">
<circle cx="863.938" cy="94.6553" r="3.1338" fill="white"/>
</g>
<defs>
<filter id="filter0_d_871_3264" x="0" y="0" width="1344" height="482" filterUnits="userSpaceOnUse" color-interpolation-filters="sRGB">
<feFlood flood-opacity="0" result="BackgroundImageFix"/>
<feColorMatrix in="SourceAlpha" type="matrix" values="0 0 0 0 0 0 0 0 0 0 0 0 0 0 0 0 0 0 127 0" result="hardAlpha"/>
<feMorphology radius="8" operator="dilate" in="SourceAlpha" result="effect1_dropShadow_871_3264"/>
<feOffset dy="19"/>
<feGaussianBlur stdDeviation="32"/>
<feComposite in2="hardAlpha" operator="out"/>
<feColorMatrix type="matrix" values="0 0 0 0 0 0 0 0 0 0 0 0 0 0 0 0 0 0 0.04 0"/>
<feBlend mode="normal" in2="BackgroundImageFix" result="effect1_dropShadow_871_3264"/>
<feBlend mode="normal" in="SourceGraphic" in2="effect1_dropShadow_871_3264" result="shape"/>
</filter>
<filter id="filter1_b_871_3264" x="705" y="165" width="431.008" height="167" filterUnits="userSpaceOnUse" color-interpolation-filters="sRGB">
<feFlood flood-opacity="0" result="BackgroundImageFix"/>
<feGaussianBlur in="BackgroundImageFix" stdDeviation="7"/>
<feComposite in2="SourceAlpha" operator="in" result="effect1_backgroundBlur_871_3264"/>
<feBlend mode="normal" in="SourceGraphic" in2="effect1_backgroundBlur_871_3264" result="shape"/>
</filter>
<filter id="filter2_b_871_3264" x="770" y="183" width="42" height="63" filterUnits="userSpaceOnUse" color-interpolation-filters="sRGB">
<feFlood flood-opacity="0" result="BackgroundImageFix"/>
<feGaussianBlur in="BackgroundImageFix" stdDeviation="2.5"/>
<feComposite in2="SourceAlpha" operator="in" result="effect1_backgroundBlur_871_3264"/>
<feBlend mode="normal" in="SourceGraphic" in2="effect1_backgroundBlur_871_3264" result="shape"/>
</filter>
<filter id="filter3_b_871_3264" x="1027" y="221" width="42" height="63" filterUnits="userSpaceOnUse" color-interpolation-filters="sRGB">
<feFlood flood-opacity="0" result="BackgroundImageFix"/>
<feGaussianBlur in="BackgroundImageFix" stdDeviation="2.5"/>
<feComposite in2="SourceAlpha" operator="in" result="effect1_backgroundBlur_871_3264"/>
<feBlend mode="normal" in="SourceGraphic" in2="effect1_backgroundBlur_871_3264" result="shape"/>
</filter>
<filter id="filter4_b_871_3264" x="839.494" y="77.7324" width="97.7735" height="147.915" filterUnits="userSpaceOnUse" color-interpolation-filters="sRGB">
<feFlood flood-opacity="0" result="BackgroundImageFix"/>
<feGaussianBlur in="BackgroundImageFix" stdDeviation="3.1338"/>
<feComposite in2="SourceAlpha" operator="in" result="effect1_backgroundBlur_871_3264"/>
<feBlend mode="normal" in="SourceGraphic" in2="effect1_backgroundBlur_871_3264" result="shape"/>
</filter>
<filter id="filter5_f_871_3264" x="852.029" y="82.7467" width="22.5633" height="22.5633" filterUnits="userSpaceOnUse" color-interpolation-filters="sRGB">
<feFlood flood-opacity="0" result="BackgroundImageFix"/>
<feBlend mode="normal" in="SourceGraphic" in2="BackgroundImageFix" result="shape"/>
<feGaussianBlur stdDeviation="2.50704" result="effect1_foregroundBlur_871_3264"/>
</filter>
<filter id="filter6_d_871_3264" x="849.523" y="86.5074" width="28.8329" height="28.831" filterUnits="userSpaceOnUse" color-interpolation-filters="sRGB">
<feFlood flood-opacity="0" result="BackgroundImageFix"/>
<feColorMatrix in="SourceAlpha" type="matrix" values="0 0 0 0 0 0 0 0 0 0 0 0 0 0 0 0 0 0 127 0" result="hardAlpha"/>
<feOffset dy="6.26761"/>
<feGaussianBlur stdDeviation="5.64084"/>
<feComposite in2="hardAlpha" operator="out"/>
<feColorMatrix type="matrix" values="0 0 0 0 1 0 0 0 0 1 0 0 0 0 1 0 0 0 0.29 0"/>
<feBlend mode="normal" in2="BackgroundImageFix" result="effect1_dropShadow_871_3264"/>
<feBlend mode="normal" in="SourceGraphic" in2="effect1_dropShadow_871_3264" result="shape"/>
</filter>
<linearGradient id="paint0_linear_871_3264" x1="670.5" y1="168" x2="1053" y2="296" gradientUnits="userSpaceOnUse">
<stop stop-color="#FFAE73"/>
<stop offset="1" stop-color="#FFD4B5" stop-opacity="0.52"/>
</linearGradient>
<linearGradient id="paint1_linear_871_3264" x1="791" y1="188" x2="791" y2="241" gradientUnits="userSpaceOnUse">
<stop stop-color="#FB7E23"/>
<stop offset="1" stop-color="#FB7E23" stop-opacity="0"/>
</linearGradient>
<linearGradient id="paint2_linear_871_3264" x1="1048" y1="226" x2="1048" y2="279" gradientUnits="userSpaceOnUse">
<stop stop-color="#FB7E23"/>
<stop offset="1" stop-color="#FB7E23" stop-opacity="0"/>
</linearGradient>
<linearGradient id="paint3_linear_871_3264" x1="888.381" y1="84" x2="888.381" y2="219.38" gradientUnits="userSpaceOnUse">
<stop stop-color="#FB7E23"/>
<stop offset="1" stop-color="#FB7E23" stop-opacity="0"/>
</linearGradient>
<clipPath id="clip0_871_3264">
<rect width="403" height="139" fill="white" transform="translate(719 179)"/>
</clipPath>
</defs>
</svg>
