<svg width="1344" height="482" viewBox="0 0 1344 482" fill="none" xmlns="http://www.w3.org/2000/svg">
<g filter="url(#filter0_d_871_3664)">
<rect x="72" y="53" width="1200" height="338" rx="16" fill="white"/>
</g>
<path d="M100 53H190V97C190 105.837 182.837 113 174 113H116C107.163 113 100 105.837 100 97V53Z" fill="#FB7E23"/>
<path d="M145.07 96.3516C139.762 96.3516 135.877 93.2227 135.789 88.8281H140.922C141.045 90.8145 142.855 92.1855 145.07 92.168C147.707 92.1855 149.588 90.3223 149.57 87.668C149.588 84.9609 147.672 83.0801 145 83.0625C143.084 83.0625 141.748 83.7832 140.992 85.207H136.211L137.582 70.5469H153.262V74.8711H141.941L141.238 81.3047H141.449C142.381 80.0566 144.314 79.1426 146.547 79.1602C151.223 79.1426 154.703 82.6406 154.703 87.5273C154.703 92.6777 150.801 96.3516 145.07 96.3516Z" fill="white"/>
<path d="M117.344 241.344V244.531H111.688C111.703 247.844 113.719 251.047 118.25 252.375L116.344 255.5C113.203 254.547 111.016 252.625 109.766 250.203C108.5 253.062 106.188 255.344 102.781 256.469L100.75 253.312C105.469 251.828 107.609 248.141 107.656 244.531H101.844V241.344H117.344ZM104.688 262.344C104.672 258.875 108.422 256.859 114.438 256.875C120.359 256.859 124.016 258.875 124.031 262.344C124.016 265.828 120.359 267.891 114.438 267.875C108.422 267.891 104.672 265.828 104.688 262.344ZM108.688 262.344C108.656 263.969 110.703 264.781 114.438 264.781C118.125 264.781 120.094 263.969 120.094 262.344C120.094 260.75 118.125 259.953 114.438 259.969C110.703 259.953 108.656 260.75 108.688 262.344ZM119.75 256.312V239.438H123.75V246.031H127.594V249.281H123.75V256.312H119.75ZM154.875 261.281V264.469H128.844V261.281H139.719V254.844H143.688V261.281H154.875ZM129.469 252.438C135.906 251.438 139.531 247.109 139.562 243.094V241.062H143.812V243.094C143.797 247.156 147.469 251.438 153.969 252.438L152.281 255.75C147.281 254.844 143.562 252.172 141.688 248.625C139.828 252.156 136.125 254.859 131.156 255.75L129.469 252.438ZM189.875 256.281V259.531H178.781V267.875H174.844V259.531H163.844V256.281H189.875ZM167.125 254.219V240.594H186.781V243.719H171.031V245.844H186.188V248.906H171.031V251.062H187.094V254.219H167.125ZM217.562 261.531V264.719H191.531V261.531H198V256.125H193.688V252.906H197.5V244.906H193.562V241.719H215.375V244.906H211.375V252.906H215.25V256.125H210.969V261.531H217.562ZM201.5 252.906H207.438V244.906H201.5V252.906ZM202 261.531H206.969V256.125H202V261.531ZM241.625 239.438V250.562H245.812V253.844H241.625V267.875H237.688V239.438H241.625ZM219.031 246.875V243.688H225.469V239.875H229.469V243.688H235.75V246.875H219.031ZM220.188 255.25C220.172 251.281 223.266 248.453 227.469 248.469C231.609 248.453 234.719 251.281 234.719 255.25C234.719 259.219 231.609 262.016 227.469 262.031C223.266 262.016 220.172 259.219 220.188 255.25ZM224 255.25C224 257.453 225.453 258.766 227.469 258.75C229.453 258.766 230.906 257.453 230.906 255.25C230.906 253.062 229.453 251.719 227.469 251.688C225.453 251.719 224 253.062 224 255.25ZM270.75 239.438V267.875H266.719V239.438H270.75ZM246.938 259.812C254.281 256.344 257.516 251.844 258.156 245.531H248.469V242.406H262.219C262.203 251.031 259.188 258.203 249.031 263L246.938 259.812Z" fill="#393939"/>
<path d="M116.523 312.727V314.016H109.355V319.621H107.852V314.016H100.703V312.727H116.523ZM101.699 310.148C104.795 309.729 107.842 307.834 107.852 305.656V305.637H102.246V304.387H107.852V302.219H109.355V304.387H115V305.637H109.375V305.656C109.375 307.824 112.402 309.729 115.508 310.148L114.941 311.379C112.256 310.969 109.727 309.621 108.623 307.736C107.52 309.641 104.951 310.969 102.266 311.379L101.699 310.148ZM123.906 306.379C123.916 308.693 125.742 310.705 128.32 311.516L127.559 312.746C125.557 312.092 123.965 310.715 123.184 308.928C122.432 310.842 120.85 312.326 118.809 313.039L118.047 311.848C120.615 310.988 122.393 308.83 122.402 306.379V305.812H118.477V304.562H122.402V302.336H123.945V304.562H127.832V305.812H123.906V306.379ZM121.23 319.211V314.035H122.773V317.922H132.871V319.211H121.23ZM127.227 308.859V307.59H130.84V302.238H132.383V315.207H130.84V308.859H127.227ZM145.371 307.922V309.172H141.855V311.594C143.477 311.525 145.098 311.408 146.602 311.242L146.719 312.375C142.979 312.893 138.848 313 135.586 313L135.352 311.75C136.875 311.74 138.584 311.721 140.332 311.662V309.172H136.934V303.352H145.234V304.621H138.477V307.922H145.371ZM138.32 319.211V314.328H139.844V317.922H150.156V319.211H138.32ZM148.047 315.227V302.238H149.59V315.227H148.047ZM163.457 305.52C163.467 307.795 165.166 309.826 167.715 310.656L166.992 311.867C164.99 311.203 163.477 309.826 162.725 308.078C161.982 310.07 160.381 311.623 158.301 312.375L157.52 311.145C160.117 310.266 161.934 308.029 161.953 305.52V304.777H157.988V303.508H167.363V304.777H163.457V305.52ZM159.824 316.34C159.834 314.338 162.012 313.176 165.586 313.176C169.15 313.176 171.309 314.338 171.309 316.34C171.309 318.371 169.15 319.543 165.586 319.543C162.012 319.543 159.834 318.371 159.824 316.34ZM161.367 316.34C161.348 317.59 162.969 318.322 165.586 318.312C168.213 318.322 169.814 317.59 169.824 316.34C169.814 315.129 168.213 314.406 165.586 314.406C162.969 314.406 161.348 315.129 161.367 316.34ZM169.629 312.707V302.219H171.152V306.652H173.77V307.941H171.152V312.707H169.629ZM190.762 316.047V317.316H174.863V316.047H181.973V311.789H183.477V316.047H190.762ZM175.488 310.715C178.525 310.197 181.904 307.658 181.914 304.738V303.41H183.516V304.738C183.525 307.639 186.953 310.197 189.98 310.715L189.297 311.984C186.65 311.438 183.857 309.65 182.734 307.15C181.592 309.641 178.828 311.438 176.172 311.984L175.488 310.715ZM212.988 310.344V311.613H205.82V313.469C209.092 313.615 211.035 314.68 211.055 316.516C211.035 318.459 208.799 319.543 205.078 319.543C201.309 319.543 199.072 318.459 199.082 316.516C199.072 314.68 201.006 313.615 204.316 313.469V311.613H197.168V310.344H212.988ZM198.066 308.078C201.074 307.766 203.975 306.232 204.082 304.289H198.613V303.039H211.582V304.289H206.074C206.182 306.232 209.053 307.766 212.109 308.078L211.543 309.289C208.701 308.947 206.035 307.668 205.078 305.744C204.121 307.668 201.475 308.947 198.613 309.289L198.066 308.078ZM200.645 316.516C200.625 317.668 202.295 318.361 205.078 318.352C207.832 318.361 209.502 317.668 209.512 316.516C209.502 315.334 207.832 314.66 205.078 314.641C202.295 314.66 200.625 315.334 200.645 316.516ZM229.336 302.219V319.582H227.852V302.219H229.336ZM214.668 309.719C214.678 306.027 216.143 303.693 218.398 303.684C220.508 303.693 221.934 305.725 222.129 308.996H224.375V302.59H225.84V318.703H224.375V310.266H222.139C221.992 313.645 220.537 315.764 218.398 315.754C216.143 315.764 214.678 313.41 214.668 309.719ZM216.113 309.719C216.094 312.531 216.992 314.309 218.398 314.289C219.814 314.309 220.713 312.531 220.703 309.719C220.713 306.896 219.814 305.129 218.398 305.129C216.992 305.129 216.094 306.896 216.113 309.719ZM237.852 306.887C237.842 310.031 239.863 313.195 242.383 314.348L241.465 315.598C239.492 314.582 237.861 312.512 237.09 310.041C236.318 312.639 234.688 314.865 232.715 315.91L231.719 314.68C234.268 313.43 236.279 310.09 236.289 306.887V303.723H237.852V306.887ZM240.488 309.406V308.156H244.609V302.219H246.133V319.621H244.609V309.406H240.488ZM263.047 310.363V311.613H257.676V316.105H264.922V317.395H249.023V316.105H256.172V311.613H251.055V303.645H262.871V304.895H252.598V310.363H263.047ZM285.254 303.977V305.715C285.234 307.844 285.234 310.227 284.609 313.723L283.047 313.547C283.701 310.227 283.701 307.795 283.711 305.715V305.246H273.008V303.977H285.254ZM271.328 317.121V315.852H277.539V309.641H279.043V315.852H287.148V317.121H271.328ZM297.676 303.742V311.789H289.531V303.742H297.676ZM291.035 310.559H296.172V305.012H291.035V310.559ZM291.738 318.996V313.508H293.262V317.727H303.496V318.996H291.738ZM301.426 314.719V302.238H302.949V314.719H301.426ZM315.996 307.922V309.172H312.48V311.594C314.102 311.525 315.723 311.408 317.227 311.242L317.344 312.375C313.604 312.893 309.473 313 306.211 313L305.977 311.75C307.5 311.74 309.209 311.721 310.957 311.662V309.172H307.559V303.352H315.859V304.621H309.102V307.922H315.996ZM308.945 319.211V314.328H310.469V317.922H320.781V319.211H308.945ZM318.672 315.227V302.238H320.215V315.227H318.672ZM336.621 302.219V309.094H339.531V310.383H336.621V319.621H335.098V302.219H336.621ZM323.945 315.266V303.918H332.051V305.188H325.469V313.977C328.613 313.967 330.83 313.83 333.418 313.352L333.613 314.68C330.889 315.168 328.613 315.266 325.312 315.266H323.945ZM349.258 303.742V305.285H353.32V302.238H354.863V314.914H353.32V310.285H349.258V311.848H341.289V303.742H349.258ZM342.812 310.617H347.754V305.012H342.812V310.617ZM343.633 319.211V313.781H345.176V317.922H355.254V319.211H343.633ZM349.258 309.016H353.32V306.574H349.258V309.016ZM360.527 313.918C360.547 311.301 361.348 310.5 362.695 309.68C363.506 309.191 364.121 308.41 364.121 307.316C364.121 305.988 363.086 305.139 361.797 305.148C360.684 305.139 359.561 305.803 359.453 307.414H357.676C357.773 305.041 359.561 303.664 361.797 303.664C364.248 303.664 365.84 305.236 365.84 307.395C365.84 308.928 365.117 309.992 363.906 310.734C362.686 311.477 362.246 312.229 362.207 313.918V314.016H360.527V313.918ZM360.176 316.848C360.156 316.164 360.742 315.598 361.426 315.598C362.119 315.598 362.686 316.164 362.676 316.848C362.686 317.541 362.119 318.107 361.426 318.117C360.742 318.107 360.156 317.541 360.176 316.848ZM106.582 337.52C106.592 339.795 108.291 341.826 110.84 342.656L110.117 343.867C108.115 343.203 106.602 341.826 105.85 340.078C105.107 342.07 103.506 343.623 101.426 344.375L100.645 343.145C103.242 342.266 105.059 340.029 105.078 337.52V336.777H101.113V335.508H110.488V336.777H106.582V337.52ZM102.949 348.34C102.959 346.338 105.137 345.176 108.711 345.176C112.275 345.176 114.434 346.338 114.434 348.34C114.434 350.371 112.275 351.543 108.711 351.543C105.137 351.543 102.959 350.371 102.949 348.34ZM104.492 348.34C104.473 349.59 106.094 350.322 108.711 350.312C111.338 350.322 112.939 349.59 112.949 348.34C112.939 347.129 111.338 346.406 108.711 346.406C106.094 346.406 104.473 347.129 104.492 348.34ZM112.754 344.707V334.219H114.277V338.652H116.895V339.941H114.277V344.707H112.754ZM133.887 348.047V349.316H117.988V348.047H125.098V343.789H126.602V348.047H133.887ZM118.613 342.715C121.65 342.197 125.029 339.658 125.039 336.738V335.41H126.641V336.738C126.65 339.639 130.078 342.197 133.105 342.715L132.422 343.984C129.775 343.438 126.982 341.65 125.859 339.15C124.717 341.641 121.953 343.438 119.297 343.984L118.613 342.715ZM156.172 344.746V346.016H148.945V351.582H147.441V346.016H140.273V344.746H156.172ZM142.402 342.949V335.039H154.18V336.289H143.926V338.32H153.77V339.551H143.926V341.699H154.375V342.949H142.402ZM173.477 348.184V349.453H157.578V348.184H162.012V344.043H159.023V342.773H161.738V337.109H158.984V335.84H171.953V337.109H169.199V342.773H171.914V344.043H168.926V348.184H173.477ZM163.262 342.773H167.695V337.109H163.262V342.773ZM163.555 348.184H167.402V344.043H163.555V348.184ZM190.742 342.285V343.496H174.844V342.285H190.742ZM176.758 346.035V344.883H188.75V348.574H178.32V350.234H189.316V351.348H176.777V347.52H187.227V346.035H176.758ZM176.855 335.859V334.746H188.691V338.34H178.438V339.863H189.004V340.977H176.914V337.285H187.148V335.859H176.855ZM203.418 337.949C203.428 340.293 205.273 342.402 207.871 343.223L207.09 344.453C205.068 343.76 203.467 342.334 202.676 340.508C201.924 342.48 200.293 344.043 198.223 344.805L197.422 343.574C200.029 342.666 201.865 340.41 201.875 337.949V336.934H197.812V335.684H207.422V336.934H203.418V337.949ZM200.293 351.211V345.762H201.816V349.922H212.051V351.211H200.293ZM209.98 346.973V334.238H211.504V346.973H209.98ZM229.199 334.219V345.215H227.734V340.234H225.41V344.59H223.965V334.57H225.41V338.965H227.734V334.219H229.199ZM214.355 337.539V336.309H218.066V334.355H219.59V336.309H223.262V337.539H214.355ZM215.117 341.445C215.107 339.629 216.641 338.467 218.828 338.477C221.025 338.467 222.549 339.629 222.559 341.445C222.549 343.232 221.025 344.395 218.828 344.395C216.641 344.395 215.107 343.232 215.117 341.445ZM216.484 341.445C216.484 342.51 217.441 343.242 218.828 343.242C220.215 343.242 221.172 342.51 221.172 341.445C221.172 340.342 220.215 339.609 218.828 339.609C217.441 339.609 216.484 340.342 216.484 341.445ZM217.637 348.555C217.617 346.602 219.795 345.508 223.457 345.508C227.109 345.508 229.287 346.602 229.297 348.555C229.287 350.459 227.109 351.543 223.457 351.543C219.795 351.543 217.617 350.459 217.637 348.555ZM219.16 348.555C219.141 349.678 220.752 350.361 223.457 350.352C226.152 350.361 227.754 349.678 227.773 348.555C227.754 347.363 226.152 346.699 223.457 346.719C220.752 346.699 219.141 347.363 219.16 348.555ZM245.176 334.219V341.387H248.086V342.656H245.176V351.582H243.652V334.219H245.176ZM231.641 338.281V337.012H236.113V334.434H237.637V337.012H241.973V338.281H231.641ZM232.637 343.711C232.627 341.367 234.424 339.727 236.895 339.727C239.346 339.727 241.133 341.367 241.152 343.711C241.133 346.064 239.346 347.695 236.895 347.695C234.424 347.695 232.627 346.064 232.637 343.711ZM234.102 343.711C234.092 345.293 235.273 346.406 236.895 346.387C238.496 346.406 239.668 345.293 239.688 343.711C239.668 342.139 238.496 341.006 236.895 341.016C235.273 341.006 234.092 342.139 234.102 343.711ZM253.691 335.566C255.283 335.576 256.582 336.504 257.334 338.105H261.895V334.219H263.418V351.621H261.895V344.883H257.441C256.719 346.641 255.371 347.666 253.691 347.656C251.123 347.666 249.326 345.322 249.336 341.621C249.326 337.93 251.123 335.576 253.691 335.566ZM250.801 341.621C250.811 344.443 251.982 346.299 253.691 346.289C255.391 346.299 256.582 344.443 256.582 341.621C256.582 338.799 255.391 336.943 253.691 336.934C251.982 336.943 250.811 338.799 250.801 341.621ZM257.773 339.395C257.939 340.068 258.027 340.811 258.027 341.621C258.027 342.334 257.959 343.008 257.832 343.613H261.895V339.395H257.773ZM287.227 348.066V349.355H271.328V348.066H278.477V343.828H273.203V335.684H285.254V343.828H279.98V348.066H287.227ZM274.707 342.598H283.77V336.914H274.707V342.598ZM302.949 334.238V344.16H301.426V334.238H302.949ZM289.023 339.219C289.014 336.797 290.938 335.156 293.574 335.156C296.211 335.156 298.115 336.797 298.125 339.219C298.115 341.602 296.211 343.262 293.574 343.262C290.938 343.262 289.014 341.602 289.023 339.219ZM290.527 339.219C290.508 340.83 291.787 341.963 293.574 341.953C295.342 341.963 296.621 340.83 296.621 339.219C296.621 337.598 295.342 336.455 293.574 336.465C291.787 336.455 290.508 337.598 290.527 339.219ZM291.66 351.348V345.098H302.949V351.348H291.66ZM293.164 350.098H301.445V346.348H293.164V350.098ZM311.777 337.52C311.787 339.795 313.486 341.826 316.035 342.656L315.312 343.867C313.311 343.203 311.797 341.826 311.045 340.078C310.303 342.07 308.701 343.623 306.621 344.375L305.84 343.145C308.438 342.266 310.254 340.029 310.273 337.52V336.777H306.309V335.508H315.684V336.777H311.777V337.52ZM308.145 348.34C308.154 346.338 310.332 345.176 313.906 345.176C317.471 345.176 319.629 346.338 319.629 348.34C319.629 350.371 317.471 351.543 313.906 351.543C310.332 351.543 308.154 350.371 308.145 348.34ZM309.688 348.34C309.668 349.59 311.289 350.322 313.906 350.312C316.533 350.322 318.135 349.59 318.145 348.34C318.135 347.129 316.533 346.406 313.906 346.406C311.289 346.406 309.668 347.129 309.688 348.34ZM317.949 344.707V334.219H319.473V338.652H322.09V339.941H319.473V344.707H317.949ZM339.082 348.047V349.316H323.184V348.047H330.293V343.789H331.797V348.047H339.082ZM323.809 342.715C326.846 342.197 330.225 339.658 330.234 336.738V335.41H331.836V336.738C331.846 339.639 335.273 342.197 338.301 342.715L337.617 343.984C334.971 343.438 332.178 341.65 331.055 339.15C329.912 341.641 327.148 343.438 324.492 343.984L323.809 342.715ZM356.348 342.285V343.496H340.449V342.285H356.348ZM342.363 346.035V344.883H354.355V348.574H343.926V350.234H354.922V351.348H342.383V347.52H352.832V346.035H342.363ZM342.461 335.859V334.746H354.297V338.34H344.043V339.863H354.609V340.977H342.52V337.285H352.754V335.859H342.461ZM376.328 334.238V339.492H378.926V340.781H376.328V345.879H374.785V334.238H376.328ZM362.695 344.102C364.082 344.102 365.703 344.102 367.402 344.053V342.773C365.381 342.588 364.072 341.66 364.082 340.215C364.072 338.633 365.703 337.656 368.145 337.656C370.605 337.656 372.207 338.633 372.227 340.215C372.207 341.65 370.938 342.578 368.926 342.773V343.994C370.547 343.916 372.188 343.779 373.711 343.555L373.848 344.668C370.078 345.332 365.928 345.361 362.871 345.352L362.695 344.102ZM363.125 336.992V335.82H367.402V334.082H368.926V335.82H373.184V336.992H363.125ZM364.824 347.969V346.738H376.328V351.582H374.785V347.969H364.824ZM365.547 340.215C365.537 341.123 366.543 341.738 368.145 341.719C369.746 341.738 370.762 341.123 370.762 340.215C370.762 339.297 369.746 338.73 368.145 338.75C366.543 338.73 365.537 339.297 365.547 340.215ZM394.453 334.219V344.57H392.91V340.02H389.414V338.75H392.91V334.219H394.453ZM380.137 343.184C382.715 342.256 384.551 339.902 384.551 337.422V336.777H380.625V335.488H389.98V336.777H386.094V337.402C386.094 339.668 387.832 341.826 390.371 342.695L389.57 343.926C387.627 343.223 386.113 341.758 385.361 339.971C384.619 342.002 383.008 343.623 380.938 344.414L380.137 343.184ZM382.871 348.34C382.861 346.299 385.078 345.107 388.691 345.117C392.295 345.107 394.512 346.299 394.512 348.34C394.512 350.391 392.295 351.562 388.691 351.582C385.078 351.562 382.861 350.391 382.871 348.34ZM384.395 348.34C384.385 349.6 386.025 350.361 388.691 350.352C391.348 350.361 392.988 349.6 392.988 348.34C392.988 347.07 391.348 346.309 388.691 346.309C386.025 346.309 384.385 347.07 384.395 348.34ZM406.016 337.227V338.477H397.305V337.227H400.918V334.746H402.441V337.227H406.016ZM397.93 343.594C397.93 341.289 399.502 339.658 401.66 339.648C403.848 339.658 405.41 341.289 405.43 343.594C405.41 345.928 403.848 347.568 401.66 347.578C399.502 347.568 397.93 345.928 397.93 343.594ZM399.297 343.594C399.297 345.137 400.283 346.24 401.66 346.23C403.047 346.24 404.062 345.137 404.062 343.594C404.062 342.07 403.047 340.957 401.66 340.938C400.283 340.957 399.297 342.07 399.297 343.594ZM406.914 350.723V334.648H408.359V341.543H410.664V334.219H412.129V351.582H410.664V342.812H408.359V350.723H406.914ZM430.527 348.086V349.355H414.629V348.086H421.777V344.336H416.504V335.449H418.047V338.594H427.07V335.449H428.574V344.336H423.281V348.086H430.527ZM418.047 343.086H427.07V339.844H418.047V343.086ZM437.07 339.16C437.07 341.924 438.418 344.902 440.723 346.27L439.844 347.461C438.164 346.445 436.963 344.59 436.357 342.471C435.723 344.785 434.434 346.777 432.695 347.832L431.719 346.68C434.121 345.273 435.586 342.197 435.586 339.219V335.859H437.07V339.16ZM438.809 341.758V340.449H441.758V334.59H443.203V350.703H441.758V341.758H438.809ZM445.312 351.582V334.219H446.797V351.582H445.312ZM465.098 348.066V349.355H449.199V348.066H453.145V343.389C451.66 342.617 450.762 341.367 450.762 339.785C450.762 337.1 453.398 335.332 457.109 335.312C460.82 335.332 463.457 337.1 463.457 339.785C463.457 341.338 462.588 342.568 461.152 343.34V348.066H465.098ZM452.246 339.785C452.236 341.729 454.258 343.027 457.109 343.027C459.932 343.027 461.973 341.729 461.973 339.785C461.973 337.842 459.932 336.562 457.109 336.582C454.258 336.562 452.236 337.842 452.246 339.785ZM454.648 348.066H459.609V343.936C458.857 344.131 458.018 344.238 457.109 344.238C456.221 344.238 455.391 344.141 454.648 343.945V348.066ZM469.297 335.859L469.16 346.016H467.52L467.383 335.859H469.297ZM467.09 348.848C467.07 348.164 467.656 347.598 468.34 347.598C469.033 347.598 469.6 348.164 469.59 348.848C469.6 349.541 469.033 350.107 468.34 350.117C467.656 350.107 467.07 349.541 467.09 348.848Z" fill="#B0B0B0"/>
<path fill-rule="evenodd" clip-rule="evenodd" d="M1173.6 130.799C1173.6 161.063 1149.06 185.598 1118.8 185.598C1115.5 185.598 1112.8 188.561 1113.34 191.814C1114.52 198.979 1115.14 206.335 1115.14 213.836C1115.14 287.751 1055.22 347.672 981.305 347.672C947.496 347.672 916.616 335.136 893.058 314.458C887.225 309.339 878.094 309.804 872.402 315.077C857.596 328.791 837.781 337.174 816.008 337.174C770.164 337.174 733 300.011 733 254.167C733 208.323 770.164 171.159 816.008 171.159C823.607 171.159 830.968 172.18 837.96 174.093C845.454 176.142 853.787 172.343 856.617 165.107C876.101 115.287 924.582 80 981.305 80C1007.86 80 1032.61 87.7357 1053.43 101.077C1060.62 105.688 1070.81 102.978 1076.19 96.3376C1086.24 83.9313 1101.59 76 1118.8 76C1149.06 76 1173.6 100.534 1173.6 130.799Z" fill="#FFEFE4"/>
<path d="M968.882 355.374L977.89 307.884L1140.43 274.265L1168.21 314.146L968.882 355.374Z" fill="url(#paint0_linear_871_3664)"/>
<path d="M979.859 307.983L949.977 175.764L1113.33 141.977L1140.78 274.699L979.859 307.983Z" fill="#D9D9D9"/>
<g filter="url(#filter1_b_871_3664)">
<mask id="path-9-inside-1_871_3664" fill="white">
<path d="M1066.22 203.431C1067.55 209.875 1063.41 216.179 1056.96 217.512L1031.68 222.741C1025.24 224.074 1018.93 219.93 1017.6 213.486L1010.56 179.455L1059.18 169.399L1066.22 203.431Z"/>
</mask>
<path d="M1066.22 203.431C1067.55 209.875 1063.41 216.179 1056.96 217.512L1031.68 222.741C1025.24 224.074 1018.93 219.93 1017.6 213.486L1010.56 179.455L1059.18 169.399L1066.22 203.431Z" fill="url(#paint1_linear_871_3664)" fill-opacity="0.6"/>
<path d="M1066.22 203.431C1067.66 210.412 1063.17 217.241 1056.19 218.685L1032.85 223.512C1025.87 224.956 1019.04 220.467 1017.6 213.486C1018.82 219.393 1025.04 223.101 1031.48 221.769L1056.76 216.54C1063.2 215.207 1067.44 209.338 1066.22 203.431ZM1010.56 179.455L1059.18 169.399L1010.56 179.455ZM1059.18 169.399L1068.63 215.099L1059.18 169.399ZM1020.01 225.154L1010.56 179.455L1020.01 225.154Z" fill="white" mask="url(#path-9-inside-1_871_3664)"/>
</g>
<g filter="url(#filter2_b_871_3664)">
<mask id="path-11-inside-2_871_3664" fill="white">
<path d="M1005.87 331.584C1004.06 334.334 1000.37 335.098 997.619 333.291L985.173 325.111C982.423 323.304 981.659 319.61 983.467 316.86L1002.55 287.819C1004.36 285.07 1008.05 284.305 1010.8 286.113L1023.25 294.292C1026 296.1 1026.76 299.793 1024.96 302.543L1005.87 331.584Z"/>
</mask>
<path d="M1005.87 331.584C1004.06 334.334 1000.37 335.098 997.619 333.291L985.173 325.111C982.423 323.304 981.659 319.61 983.467 316.86L1002.55 287.819C1004.36 285.07 1008.05 284.305 1010.8 286.113L1023.25 294.292C1026 296.1 1026.76 299.793 1024.96 302.543L1005.87 331.584Z" fill="#DA640F"/>
<path d="M1005.87 331.584C1003.76 334.792 999.452 335.683 996.244 333.575L985.457 326.486C982.25 324.377 981.358 320.068 983.467 316.86C981.961 319.151 982.969 322.474 985.718 324.281L998.165 332.461C1000.91 334.268 1004.36 333.875 1005.87 331.584ZM1005.83 282.841L1028.23 297.564L1005.83 282.841ZM1028.23 297.564L1002.6 336.562L1028.23 297.564ZM980.195 321.839L1005.83 282.841L980.195 321.839Z" fill="white" mask="url(#path-11-inside-2_871_3664)"/>
</g>
<mask id="path-13-inside-3_871_3664" fill="white">
<path d="M1015.18 318.46C1012.74 318.045 1011.11 315.734 1011.52 313.297C1011.93 310.86 1014.25 309.221 1016.68 309.635L1045.4 314.52C1047.83 314.935 1049.47 317.246 1049.06 319.683C1048.64 322.12 1046.33 323.759 1043.89 323.344L1015.18 318.46Z"/>
</mask>
<path d="M1015.18 318.46C1012.74 318.045 1011.11 315.734 1011.52 313.297C1011.93 310.86 1014.25 309.221 1016.68 309.635L1045.4 314.52C1047.83 314.935 1049.47 317.246 1049.06 319.683C1048.64 322.12 1046.33 323.759 1043.89 323.344L1015.18 318.46Z" fill="#DA640F"/>
<path d="M1014.2 318.293C1011.77 317.879 1010.13 315.567 1010.54 313.13C1010.96 310.693 1013.27 309.054 1015.7 309.469L1016.68 309.635C1014.79 309.313 1012.91 311.027 1012.5 313.463C1012.08 315.9 1013.29 318.137 1015.18 318.46L1014.2 318.293ZM1049.81 315.271L1048.31 324.095L1049.81 315.271ZM1048.31 324.095L1010.77 317.709L1048.31 324.095ZM1012.27 308.885L1049.81 315.271L1012.27 308.885Z" fill="white" mask="url(#path-13-inside-3_871_3664)"/>
<mask id="path-15-inside-4_871_3664" fill="white">
<path d="M1056.65 315.911C1053.36 315.855 1050.74 313.142 1050.8 309.852L1050.97 299.927C1051.03 296.637 1053.74 294.016 1057.03 294.073L1082.13 294.506C1085.42 294.563 1088.04 297.276 1087.98 300.566L1087.81 310.491C1087.76 313.781 1085.04 316.402 1081.75 316.345L1056.65 315.911Z"/>
</mask>
<path d="M1056.65 315.911C1053.36 315.855 1050.74 313.142 1050.8 309.852L1050.97 299.927C1051.03 296.637 1053.74 294.016 1057.03 294.073L1082.13 294.506C1085.42 294.563 1088.04 297.276 1087.98 300.566L1087.81 310.491C1087.76 313.781 1085.04 316.402 1081.75 316.345L1056.65 315.911Z" fill="#DA640F"/>
<path d="M1056.65 315.911C1052.81 315.845 1049.76 312.68 1049.82 308.842L1049.96 300.902C1050.03 297.064 1053.19 294.007 1057.03 294.073C1054.29 294.026 1052.02 296.654 1051.96 299.944L1051.79 309.869C1051.73 313.159 1053.91 315.864 1056.65 315.911ZM1088.09 294.609L1087.71 316.448L1088.09 294.609ZM1087.71 316.448L1050.7 315.809L1087.71 316.448ZM1051.07 293.97L1088.09 294.609L1051.07 293.97Z" fill="white" mask="url(#path-15-inside-4_871_3664)"/>
<g filter="url(#filter3_b_871_3664)">
<path d="M933.076 211.704L950.084 175.741L1112.85 142.075L1144.07 168.063L933.076 211.704Z" fill="url(#paint2_linear_871_3664)" fill-opacity="0.81"/>
</g>
<g filter="url(#filter4_b_871_3664)">
<path d="M968.395 355.474L933.078 211.704L1143.1 168.264L1167.72 314.247L968.395 355.474Z" fill="url(#paint3_linear_871_3664)" fill-opacity="0.83"/>
</g>
<path d="M999.464 179.723L1070.44 165.042L1073.68 168.428L997.351 184.215L999.464 179.723Z" fill="#E77A2B"/>
<g filter="url(#filter5_b_871_3664)">
<mask id="path-20-inside-5_871_3664" fill="white">
<path d="M1002.12 138.617C1000.78 132.173 1004.93 125.869 1011.37 124.536L1036.65 119.307C1043.1 117.974 1049.4 122.118 1050.73 128.562L1059.18 169.399L1010.56 179.455L1002.12 138.617Z"/>
</mask>
<path d="M1002.12 138.617C1000.78 132.173 1004.93 125.869 1011.37 124.536L1036.65 119.307C1043.1 117.974 1049.4 122.118 1050.73 128.562L1059.18 169.399L1010.56 179.455L1002.12 138.617Z" fill="url(#paint4_linear_871_3664)" fill-opacity="0.6"/>
<path d="M1002.12 138.617C1000.67 131.636 1005.16 124.806 1012.14 123.362L1035.48 118.536C1042.46 117.092 1049.29 121.581 1050.73 128.562C1049.51 122.655 1043.3 118.946 1036.85 120.279L1011.57 125.508C1005.13 126.841 1000.89 132.71 1002.12 138.617ZM1059.18 169.399L1010.56 179.455L1059.18 169.399ZM1010.56 179.455L999.703 126.949L1010.56 179.455ZM1048.32 116.894L1059.18 169.399L1048.32 116.894Z" fill="white" mask="url(#path-20-inside-5_871_3664)"/>
</g>
<g filter="url(#filter6_b_871_3664)">
<mask id="path-22-inside-6_871_3664" fill="white">
<path d="M1005.03 138.014C1003.7 131.57 1007.84 125.265 1014.29 123.932L1039.57 118.703C1046.01 117.371 1052.32 121.514 1053.65 127.958L1062.1 168.796L1013.48 178.851L1005.03 138.014Z"/>
</mask>
<path d="M1005.03 138.014C1003.7 131.57 1007.84 125.265 1014.29 123.932L1039.57 118.703C1046.01 117.371 1052.32 121.514 1053.65 127.958L1062.1 168.796L1013.48 178.851L1005.03 138.014Z" fill="url(#paint5_linear_871_3664)" fill-opacity="0.6"/>
<path d="M1005.03 138.014C1003.59 131.033 1008.08 124.203 1015.06 122.759L1038.4 117.932C1045.38 116.488 1052.21 120.977 1053.65 127.958C1052.43 122.051 1046.21 118.343 1039.77 119.676L1014.49 124.905C1008.05 126.238 1003.81 132.107 1005.03 138.014ZM1062.1 168.796L1013.48 178.851L1062.1 168.796ZM1013.48 178.851L1002.62 126.346L1013.48 178.851ZM1051.24 116.29L1062.1 168.796L1051.24 116.29Z" fill="white" mask="url(#path-22-inside-6_871_3664)"/>
</g>
<path d="M968.084 204.464L941.53 193.734L949.98 175.763L1026.68 186.262L968.084 204.464Z" fill="url(#paint6_linear_871_3664)" fill-opacity="0.5"/>
<path d="M957.498 312.608L1015.94 345.134L1103.93 326.933L933.766 212.576L957.498 312.608Z" fill="url(#paint7_linear_871_3664)"/>
<defs>
<filter id="filter0_d_871_3664" x="0" y="0" width="1344" height="482" filterUnits="userSpaceOnUse" color-interpolation-filters="sRGB">
<feFlood flood-opacity="0" result="BackgroundImageFix"/>
<feColorMatrix in="SourceAlpha" type="matrix" values="0 0 0 0 0 0 0 0 0 0 0 0 0 0 0 0 0 0 127 0" result="hardAlpha"/>
<feMorphology radius="8" operator="dilate" in="SourceAlpha" result="effect1_dropShadow_871_3664"/>
<feOffset dy="19"/>
<feGaussianBlur stdDeviation="32"/>
<feComposite in2="hardAlpha" operator="out"/>
<feColorMatrix type="matrix" values="0 0 0 0 0 0 0 0 0 0 0 0 0 0 0 0 0 0 0.04 0"/>
<feBlend mode="normal" in2="BackgroundImageFix" result="effect1_dropShadow_871_3664"/>
<feBlend mode="normal" in="SourceGraphic" in2="effect1_dropShadow_871_3664" result="shape"/>
</filter>
<filter id="filter1_b_871_3664" x="993.611" y="152.451" width="89.8022" height="87.4867" filterUnits="userSpaceOnUse" color-interpolation-filters="sRGB">
<feFlood flood-opacity="0" result="BackgroundImageFix"/>
<feGaussianBlur in="BackgroundImageFix" stdDeviation="8.47398"/>
<feComposite in2="SourceAlpha" operator="in" result="effect1_backgroundBlur_871_3664"/>
<feBlend mode="normal" in="SourceGraphic" in2="effect1_backgroundBlur_871_3664" result="shape"/>
</filter>
<filter id="filter2_b_871_3664" x="965.54" y="268.185" width="77.3451" height="83.0336" filterUnits="userSpaceOnUse" color-interpolation-filters="sRGB">
<feFlood flood-opacity="0" result="BackgroundImageFix"/>
<feGaussianBlur in="BackgroundImageFix" stdDeviation="8.47398"/>
<feComposite in2="SourceAlpha" operator="in" result="effect1_backgroundBlur_871_3664"/>
<feBlend mode="normal" in="SourceGraphic" in2="effect1_backgroundBlur_871_3664" result="shape"/>
</filter>
<filter id="filter3_b_871_3664" x="931.092" y="140.088" width="214.964" height="73.6015" filterUnits="userSpaceOnUse" color-interpolation-filters="sRGB">
<feFlood flood-opacity="0" result="BackgroundImageFix"/>
<feGaussianBlur in="BackgroundImageFix" stdDeviation="0.992906"/>
<feComposite in2="SourceAlpha" operator="in" result="effect1_backgroundBlur_871_3664"/>
<feBlend mode="normal" in="SourceGraphic" in2="effect1_backgroundBlur_871_3664" result="shape"/>
</filter>
<filter id="filter4_b_871_3664" x="928.114" y="163.299" width="244.566" height="197.139" filterUnits="userSpaceOnUse" color-interpolation-filters="sRGB">
<feFlood flood-opacity="0" result="BackgroundImageFix"/>
<feGaussianBlur in="BackgroundImageFix" stdDeviation="2.48226"/>
<feComposite in2="SourceAlpha" operator="in" result="effect1_backgroundBlur_871_3664"/>
<feBlend mode="normal" in="SourceGraphic" in2="effect1_backgroundBlur_871_3664" result="shape"/>
</filter>
<filter id="filter5_b_871_3664" x="984.919" y="102.11" width="91.2084" height="94.2934" filterUnits="userSpaceOnUse" color-interpolation-filters="sRGB">
<feFlood flood-opacity="0" result="BackgroundImageFix"/>
<feGaussianBlur in="BackgroundImageFix" stdDeviation="8.47398"/>
<feComposite in2="SourceAlpha" operator="in" result="effect1_backgroundBlur_871_3664"/>
<feBlend mode="normal" in="SourceGraphic" in2="effect1_backgroundBlur_871_3664" result="shape"/>
</filter>
<filter id="filter6_b_871_3664" x="987.837" y="101.506" width="91.2084" height="94.2934" filterUnits="userSpaceOnUse" color-interpolation-filters="sRGB">
<feFlood flood-opacity="0" result="BackgroundImageFix"/>
<feGaussianBlur in="BackgroundImageFix" stdDeviation="8.47398"/>
<feComposite in2="SourceAlpha" operator="in" result="effect1_backgroundBlur_871_3664"/>
<feBlend mode="normal" in="SourceGraphic" in2="effect1_backgroundBlur_871_3664" result="shape"/>
</filter>
<linearGradient id="paint0_linear_871_3664" x1="1025.55" y1="342.702" x2="1076.17" y2="269.078" gradientUnits="userSpaceOnUse">
<stop stop-color="#FF8C39" stop-opacity="0.89"/>
<stop offset="1" stop-color="#FFA25E" stop-opacity="0.79"/>
<stop offset="1" stop-color="#FFC59C" stop-opacity="0.79"/>
</linearGradient>
<linearGradient id="paint1_linear_871_3664" x1="1044.32" y1="220.126" x2="1034.87" y2="174.427" gradientUnits="userSpaceOnUse">
<stop stop-color="#FB7E23"/>
<stop offset="1" stop-color="#FF6B00"/>
</linearGradient>
<linearGradient id="paint2_linear_871_3664" x1="995.277" y1="198.369" x2="1031.43" y2="101.849" gradientUnits="userSpaceOnUse">
<stop stop-color="#FF9447"/>
<stop offset="1" stop-color="#FFA86A" stop-opacity="0.54"/>
</linearGradient>
<linearGradient id="paint3_linear_871_3664" x1="947.247" y1="280.208" x2="1035.08" y2="367.891" gradientUnits="userSpaceOnUse">
<stop stop-color="#FFD5B7"/>
<stop offset="1" stop-color="#FBA567" stop-opacity="0.79"/>
</linearGradient>
<linearGradient id="paint4_linear_871_3664" x1="1024.01" y1="121.921" x2="1034.87" y2="174.427" gradientUnits="userSpaceOnUse">
<stop stop-color="white"/>
<stop offset="1" stop-color="white" stop-opacity="0"/>
</linearGradient>
<linearGradient id="paint5_linear_871_3664" x1="1026.93" y1="121.318" x2="1037.79" y2="173.823" gradientUnits="userSpaceOnUse">
<stop stop-color="white"/>
<stop offset="1" stop-color="white" stop-opacity="0"/>
</linearGradient>
<linearGradient id="paint6_linear_871_3664" x1="933.92" y1="191.252" x2="978.026" y2="191.255" gradientUnits="userSpaceOnUse">
<stop stop-color="white"/>
<stop offset="1" stop-color="white" stop-opacity="0"/>
</linearGradient>
<linearGradient id="paint7_linear_871_3664" x1="1043.44" y1="353.132" x2="1020.35" y2="305.186" gradientUnits="userSpaceOnUse">
<stop stop-color="white" stop-opacity="0.61"/>
<stop offset="1" stop-color="white" stop-opacity="0"/>
</linearGradient>
</defs>
</svg>
