<svg width="452" height="32" viewBox="0 0 452 32" fill="none" xmlns="http://www.w3.org/2000/svg">
<path d="M1 5L11.2929 15.2929C11.6834 15.6834 11.6834 16.3166 11.2929 16.7071L1 27" stroke="#FB7E23" stroke-width="2"/>
<path d="M16 5L26.2929 15.2929C26.6834 15.6834 26.6834 16.3166 26.2929 16.7071L16 27" stroke="#FB7E23" stroke-width="2"/>
<path d="M31 5L41.2929 15.2929C41.6834 15.6834 41.6834 16.3166 41.2929 16.7071L31 27" stroke="#FB7E23" stroke-width="2"/>
<path d="M81.5664 7.21875V17.0039H80.0234V14.8945H75.4434C74.6426 15.7637 73.4023 16.2715 71.957 16.2812C69.3105 16.2715 67.4355 14.6602 67.4453 12.2773C67.4355 9.875 69.3105 8.22461 71.957 8.23438C73.4121 8.22461 74.6523 8.75195 75.4531 9.64062H80.0234V7.21875H81.5664ZM68.9102 12.2773C68.9102 13.8887 70.1797 15.002 71.957 15.0117C73.6758 15.002 74.9648 13.8887 74.9648 12.2773C74.9648 10.6562 73.6758 9.50391 71.957 9.52344C70.1797 9.50391 68.9102 10.6562 68.9102 12.2773ZM69.7891 24.3086V23.0586H72.4844V19.0938H69.9648V17.8438H81.7031V19.0938H79.2031V23.0586H81.918V24.3086H69.7891ZM73.9883 23.0586H77.6797V19.0938H73.9883V23.0586ZM76.2148 10.9102C76.3613 11.3301 76.4492 11.7891 76.4492 12.2773C76.4492 12.7559 76.3711 13.1953 76.2246 13.6055H80.0234V10.9102H76.2148ZM92.3672 8.35156C95.9902 8.36133 98.7148 10.2559 98.7148 13.1172C98.7148 16.0078 95.9902 17.9023 92.3672 17.8828C88.7441 17.9023 86.0195 16.0078 86.0195 13.1172C86.0195 10.2559 88.7441 8.36133 92.3672 8.35156ZM84.457 22.2773V20.9883H100.355V22.2773H84.457ZM87.4844 13.1172C87.4648 15.2266 89.5645 16.6328 92.3672 16.6328C95.1504 16.6328 97.2305 15.2266 97.2305 13.1172C97.2305 11.0371 95.1504 9.5918 92.3672 9.60156C89.5645 9.5918 87.4648 11.0371 87.4844 13.1172ZM117.641 21.1445V22.4336H101.742V21.1445H108.891V17.8633H103.734V12.5117H114.125V9.77734H103.695V8.50781H115.629V13.7617H105.258V16.5938H116.039V17.8633H110.395V21.1445H117.641ZM132.699 9.77734C132.709 12.7559 136.107 15.4023 139.125 15.9688L138.422 17.2578C135.795 16.6523 133.041 14.7871 131.918 12.2383C130.785 14.7871 128.041 16.6426 125.414 17.2578L124.711 15.9688C127.719 15.3926 131.088 12.7656 131.098 9.77734V8.44922H132.699V9.77734ZM124.047 22.2188V20.9492H139.945V22.2188H124.047ZM146.566 8.35156C149.232 8.37109 151.186 10.0117 151.195 12.4336C151.186 14.6113 149.604 16.1543 147.348 16.4473V19.3965C148.969 19.3281 150.6 19.2109 152.113 19.0156L152.211 20.168C148.529 20.793 144.428 20.832 141.371 20.8125L141.117 19.5234C142.514 19.5137 144.125 19.5039 145.805 19.4551V16.4473C143.5 16.1738 141.928 14.6211 141.938 12.4336C141.928 10.0117 143.852 8.37109 146.566 8.35156ZM143.441 12.4336C143.422 14.0645 144.74 15.1973 146.566 15.1875C148.363 15.1973 149.672 14.0645 149.691 12.4336C149.672 10.8027 148.363 9.68945 146.566 9.67969C144.74 9.68945 143.422 10.8027 143.441 12.4336ZM153.227 24.582V7.21875H154.75V14.3867H157.582V15.7148H154.75V24.582H153.227ZM172.934 7.21875V24.6211H171.391V7.21875H172.934ZM159.262 14.6211C159.271 10.9297 161.107 8.57617 163.695 8.56641C166.273 8.57617 168.139 10.9297 168.129 14.6211C168.139 18.3223 166.273 20.666 163.695 20.6562C161.107 20.666 159.271 18.3223 159.262 14.6211ZM160.746 14.6211C160.746 17.4434 161.957 19.2988 163.695 19.2891C165.443 19.2988 166.645 17.4434 166.645 14.6211C166.645 11.7988 165.443 9.94336 163.695 9.93359C161.957 9.94336 160.746 11.7988 160.746 14.6211ZM191.801 21.0469V22.3555H175.902V21.0469H191.801ZM177.309 10.2461V8.97656H190.277V10.2461H187.523V16.3203H190.238V17.5703H177.348V16.3203H180.062V10.2461H177.309ZM181.586 16.3203H186.02V10.2461H181.586V16.3203ZM211.645 7.21875V14.3867H214.555V15.6562H211.645V24.582H210.121V7.21875H211.645ZM198.109 11.2812V10.0117H202.582V7.43359H204.105V10.0117H208.441V11.2812H198.109ZM199.105 16.7109C199.096 14.3672 200.893 12.7266 203.363 12.7266C205.814 12.7266 207.602 14.3672 207.621 16.7109C207.602 19.0645 205.814 20.6953 203.363 20.6953C200.893 20.6953 199.096 19.0645 199.105 16.7109ZM200.57 16.7109C200.561 18.293 201.742 19.4062 203.363 19.3867C204.965 19.4062 206.137 18.293 206.156 16.7109C206.137 15.1387 204.965 14.0059 203.363 14.0156C201.742 14.0059 200.561 15.1387 200.57 16.7109ZM224.281 8.74219V10.2852H228.344V7.23828H229.887V19.9141H228.344V15.2852H224.281V16.8477H216.312V8.74219H224.281ZM217.836 15.6172H222.777V10.0117H217.836V15.6172ZM218.656 24.2109V18.7812H220.199V22.9219H230.277V24.2109H218.656ZM224.281 14.0156H228.344V11.5742H224.281V14.0156ZM251.234 7.21875V14.0938H254.145V15.3828H251.234V24.6211H249.711V7.21875H251.234ZM238.559 20.2656V8.91797H246.664V10.1875H240.082V18.9766C243.227 18.9668 245.443 18.8301 248.031 18.3516L248.227 19.6797C245.502 20.168 243.227 20.2656 239.926 20.2656H238.559ZM262.992 7.60938C266.771 7.60938 269.115 8.83008 269.125 10.9102C269.115 12.9609 266.771 14.1621 262.992 14.1523C259.213 14.1621 256.84 12.9609 256.84 10.9102C256.84 8.83008 259.213 7.60938 262.992 7.60938ZM255.082 16.9258V15.6562H270.902V16.9258H255.082ZM257.016 24.3477V18.6445H268.969V24.3477H257.016ZM258.422 10.9102C258.412 12.1699 260.18 12.9316 262.992 12.9414C265.775 12.9316 267.553 12.1699 267.562 10.9102C267.553 9.61133 265.775 8.83984 262.992 8.83984C260.18 8.83984 258.412 9.61133 258.422 10.9102ZM258.539 23.0977H267.465V19.875H258.539V23.0977ZM280.277 8.35156C283.9 8.36133 286.625 10.2559 286.625 13.1172C286.625 16.0078 283.9 17.9023 280.277 17.8828C276.654 17.9023 273.93 16.0078 273.93 13.1172C273.93 10.2559 276.654 8.36133 280.277 8.35156ZM272.367 22.2773V20.9883H288.266V22.2773H272.367ZM275.395 13.1172C275.375 15.2266 277.475 16.6328 280.277 16.6328C283.061 16.6328 285.141 15.2266 285.141 13.1172C285.141 11.0371 283.061 9.5918 280.277 9.60156C277.475 9.5918 275.375 11.0371 275.395 13.1172ZM305.551 21.1445V22.4336H289.652V21.1445H296.801V17.8633H291.645V12.5117H302.035V9.77734H291.605V8.50781H303.539V13.7617H293.168V16.5938H303.949V17.8633H298.305V21.1445H305.551ZM326.352 18.0781V24.3477H315.102V18.0781H326.352ZM312.992 16.1055V8.27344H314.535V14.7773C317.24 14.7871 319.545 14.6211 322.074 14.0938L322.27 15.4023C319.584 15.959 317.211 16.1055 314.32 16.1055H312.992ZM316.605 23.0977H324.848V19.3086H316.605V23.0977ZM319.809 11.7695V10.5195H324.809V7.21875H326.352V17.2383H324.809V11.7695H319.809ZM333.91 8.56641C336.273 8.57617 337.982 10.6074 338.217 13.8594H342.113V7.21875H343.637V24.6211H342.113V15.1289H338.236C338.07 18.5371 336.332 20.666 333.91 20.6562C331.342 20.666 329.545 18.3223 329.555 14.6211C329.545 10.9297 331.342 8.57617 333.91 8.56641ZM331.02 14.6211C331.029 17.4434 332.201 19.2988 333.91 19.2891C335.609 19.2988 336.801 17.4434 336.801 14.6211C336.801 11.7988 335.609 9.94336 333.91 9.93359C332.201 9.94336 331.029 11.7988 331.02 14.6211ZM359.965 7.21875V14.2891H362.777V15.5781H359.965V24.582H358.441V7.21875H359.965ZM346.645 20.0703C351.127 17.8438 353.568 14.4941 353.92 10.3828H347.445V9.09375H355.473C355.463 14.0059 353.158 18.4883 347.504 21.2812L346.645 20.0703ZM379.711 21.0664V22.3555H363.812V21.0664H367.758V16.3887C366.273 15.6172 365.375 14.3672 365.375 12.7852C365.375 10.0996 368.012 8.33203 371.723 8.3125C375.434 8.33203 378.07 10.0996 378.07 12.7852C378.07 14.3379 377.201 15.5684 375.766 16.3398V21.0664H379.711ZM366.859 12.7852C366.85 14.7285 368.871 16.0273 371.723 16.0273C374.545 16.0273 376.586 14.7285 376.586 12.7852C376.586 10.8418 374.545 9.5625 371.723 9.58203C368.871 9.5625 366.85 10.8418 366.859 12.7852ZM369.262 21.0664H374.223V16.9355C373.471 17.1309 372.631 17.2383 371.723 17.2383C370.834 17.2383 370.004 17.1406 369.262 16.9453V21.0664ZM383.91 8.85938L383.773 19.0156H382.133L381.996 8.85938H383.91ZM381.703 21.8477C381.684 21.1641 382.27 20.5977 382.953 20.5977C383.646 20.5977 384.213 21.1641 384.203 21.8477C384.213 22.541 383.646 23.1074 382.953 23.1172C382.27 23.1074 381.684 22.541 381.703 21.8477Z" fill="#FB7E23"/>
<path d="M410 5L420.293 15.2929C420.683 15.6834 420.683 16.3166 420.293 16.7071L410 27" stroke="#FB7E23" stroke-width="2"/>
<path d="M425 5L435.293 15.2929C435.683 15.6834 435.683 16.3166 435.293 16.7071L425 27" stroke="#FB7E23" stroke-width="2"/>
<path d="M440 5L450.293 15.2929C450.683 15.6834 450.683 16.3166 450.293 16.7071L440 27" stroke="#FB7E23" stroke-width="2"/>
</svg>
