<svg width="31" height="30" viewBox="0 0 31 30" fill="none" xmlns="http://www.w3.org/2000/svg">
<path opacity="0.3" d="M28.7 0H9.5C9.02261 0 8.56477 0.189642 8.22721 0.527208C7.88964 0.864773 7.7 1.32261 7.7 1.8V7.2H2.3C1.82261 7.2 1.36477 7.38964 1.02721 7.72721C0.689642 8.06477 0.5 8.52261 0.5 9V28.2C0.5 28.6774 0.689642 29.1352 1.02721 29.4728C1.36477 29.8104 1.82261 30 2.3 30H21.5C21.9774 30 22.4352 29.8104 22.7728 29.4728C23.1104 29.1352 23.3 28.6774 23.3 28.2V22.8H28.7C29.1774 22.8 29.6352 22.6104 29.9728 22.2728C30.3104 21.9352 30.5 21.4774 30.5 21V1.8C30.5 1.32261 30.3104 0.864773 29.9728 0.527208C29.6352 0.189642 29.1774 0 28.7 0ZM19.7 26.4H4.1V10.8H19.7V26.4ZM26.9 19.2H23.3V9C23.3 8.52261 23.1104 8.06477 22.7728 7.72721C22.4352 7.38964 21.9774 7.2 21.5 7.2H11.3V3.6H26.9V19.2Z" fill="#FB7E23"/>
</svg>
