<svg width="39" height="37" viewBox="0 0 39 37" fill="none" xmlns="http://www.w3.org/2000/svg">
<path fill-rule="evenodd" clip-rule="evenodd" d="M0.5 15.5842C0.5 6.97578 9.00469 0 19.4929 0C29.981 0 38.5 6.9832 38.5 15.5916C38.5 24.2 29.9953 31.1758 19.5071 31.1758C18.3584 31.1758 17.224 31.0942 16.1324 30.9309C16.0482 30.9919 15.9338 31.075 15.7941 31.1766C14.0975 32.4098 8.65942 36.3624 8.10571 36.4447C8.10571 36.4447 7.85599 36.5412 7.64908 36.415C7.44217 36.2889 7.47784 35.9549 7.47784 35.9549L9.40424 28.7936C4.05313 26.0256 0.5 21.15 0.5 15.5842ZM7.89097 19.9252C7.89097 20.5251 8.38133 21.0141 8.98613 21.016C8.98496 21.016 8.98378 21.0161 8.9826 21.0161H8.98973C8.98853 21.0161 8.98733 21.016 8.98613 21.016C9.58388 21.0141 10.0814 20.5177 10.0814 19.9252V13.1497H11.7937C12.3788 13.1497 12.8639 12.6525 12.8639 12.0366C12.8639 11.4206 12.3859 10.9234 11.7937 10.9234H6.17862C5.59357 10.9234 5.1084 11.4206 5.1084 12.0366C5.1084 12.6525 5.58643 13.1497 6.17862 13.1497H7.89097V19.9252ZM17.6871 20.4966C17.7941 20.8083 18.1437 21.0012 18.6003 21.0012C18.8429 21.0012 19.0855 20.9567 19.2995 20.8528C19.5992 20.7192 19.8917 20.3111 19.5564 19.235L16.9379 12.0589C16.7595 11.5097 16.1888 10.916 15.4753 10.9309C14.7618 10.9457 14.1981 11.5097 14.0126 12.0589L11.3942 19.235C11.0588 20.3111 11.3514 20.7044 11.651 20.8528C11.8722 20.9493 12.1076 21.0012 12.3502 21.0012C12.8069 21.0012 13.1565 20.8083 13.2635 20.4966L13.8057 19.0124H17.1448L17.6871 20.4966ZM15.4753 13.7583L16.5669 16.9938H14.3837L15.4753 13.7583ZM20.2699 19.8138C20.2699 20.3853 20.7479 20.8528 21.3187 20.8528L24.8361 20.8305C25.4141 20.8305 25.885 20.363 25.885 19.7916C25.885 19.2202 25.4069 18.7526 24.8361 18.7526H22.5102V12.0589C22.5102 11.4355 22.0108 10.916 21.39 10.916C20.7693 10.916 20.2699 11.4281 20.2699 12.0589V19.8138ZM26.3059 12.0663V19.8584C26.3059 21.3739 28.5034 21.3169 28.5034 19.8361V17.3501L28.8816 16.9567L31.4501 20.4966C31.795 20.9666 32.5025 21.0903 32.9841 20.7192C33.4726 20.3651 33.5605 19.6136 33.1981 19.1311L30.5012 15.4206L33.0126 12.8232C33.3917 12.422 33.2973 11.7835 32.9342 11.4058C32.5476 11.0037 31.9091 10.9729 31.5714 11.3242L28.5034 14.5152V12.0663C28.5034 11.4429 28.004 10.9234 27.4047 10.9234C26.8054 10.9234 26.3059 11.4355 26.3059 12.0663Z" fill="#FED5B6"/>
</svg>
