<svg width="30" height="30" viewBox="0 0 30 30" fill="none" xmlns="http://www.w3.org/2000/svg">
<path d="M22.5 1.49996C22.894 1.106 23.3617 0.793488 23.8764 0.580276C24.3912 0.367063 24.9428 0.257324 25.5 0.257324C26.0572 0.257324 26.6088 0.367063 27.1236 0.580276C27.6383 0.793488 28.106 1.106 28.5 1.49996C28.894 1.89393 29.2065 2.36164 29.4197 2.87638C29.6329 3.39112 29.7426 3.94281 29.7426 4.49996C29.7426 5.05712 29.6329 5.60881 29.4197 6.12355C29.2065 6.63829 28.894 7.106 28.5 7.49997L8.25 27.75L0 30L2.25 21.75L22.5 1.49996Z" fill="#FB7E23"/>
</svg>
