<svg width="293" height="68" viewBox="0 0 293 68" fill="none" xmlns="http://www.w3.org/2000/svg">
<path fill-rule="evenodd" clip-rule="evenodd" d="M15.0135 12.4613C14.7565 13.5996 14.6209 14.784 14.6209 16V52C14.6209 60.8366 21.7843 68 30.6209 68H276.127C284.964 68 292.127 60.8366 292.127 52V16C292.127 7.16344 284.964 0 276.127 0H30.6209C30.607 0 30.5932 1.75854e-05 30.5794 5.27351e-05L2.00355 1.38358e-05C-0.00735676 1.10984e-05 -0.760774 2.63426 0.946022 3.69755L15.0135 12.4613Z" fill="#FB7E23"/>
<path d="M55.6113 23.8281V31.75H58.752V34.1875H55.6113V45.2031H52.6113V23.8281H55.6113ZM39.627 40.0234V25.7969H49.6348V28.2109H42.6035V37.5625C45.6973 37.5391 48.252 37.375 51.0879 36.8828L51.416 39.3906C48.0996 39.9531 45.1934 40.0352 41.4316 40.0234H39.627ZM79.0254 32.1484V34.4922H59.5254V32.1484H79.0254ZM61.7754 38.0078V35.7578H76.6113V41.3359H64.7285V42.6484H77.1738V44.9688H61.7988V39.2031H73.6582V38.0078H61.7754ZM61.9629 30.9766V24.25H76.541V26.6406H64.9395V28.6328H76.7051V30.9766H61.9629ZM91.6816 25.3281C94.5645 25.3281 96.7207 27.6953 97.1426 31.5391H100.846V23.8281H103.799V45.2031H100.846V33.9297H97.1777C96.8613 38.0312 94.6582 40.5391 91.6816 40.5391C88.4473 40.5391 86.127 37.6094 86.1504 32.9219C86.127 28.2695 88.4473 25.3281 91.6816 25.3281ZM89.0098 32.9219C88.998 36.0977 90.0879 37.832 91.6816 37.8203C93.2871 37.832 94.3535 36.0977 94.3535 32.9219C94.3535 29.7578 93.2871 28.0234 91.6816 28.0234C90.0879 28.0234 88.998 29.7578 89.0098 32.9219ZM124.4 23.8281V45.2031H121.377V23.8281H124.4ZM107.83 40.1172V25.7031H118.213V28.1406H110.83V37.5859C114.65 37.5859 117.006 37.4805 119.689 37L119.971 39.4609C117.018 40.0234 114.299 40.1172 109.682 40.1172H107.83ZM134.361 26.9922C134.361 28.1758 135.264 29.5352 136.998 30.332C138.721 29.5352 139.588 28.1992 139.588 26.9922V26.9688H137.432V24.5547H145.4V26.9688H142.635V26.9922C142.611 28.457 143.795 29.9219 146.385 30.5312L145.072 32.6875C143.08 32.1836 141.768 31.1172 141.053 29.7812C140.35 31.1641 139.061 32.3242 137.01 32.8516C134.936 32.3242 133.623 31.1406 132.908 29.7578C132.182 31.082 130.869 32.1719 128.877 32.6875L127.658 30.5312C130.189 29.8984 131.396 28.375 131.408 26.9922V26.9688H128.572V24.5547H136.564V26.9688H134.361V26.9922ZM127.283 36.1094V33.7188H146.736V36.1094H127.283ZM129.533 44.9219V37.5625H144.416V44.9219H129.533ZM132.486 42.5312H141.486V39.9297H132.486V42.5312ZM166.518 23.8281V45.1562H163.658V23.8281H166.518ZM148.213 33.0625C148.213 28.293 150.029 25.3398 152.854 25.3516C155.42 25.3398 157.178 27.7422 157.506 31.7266H159.252V24.1328H162.064V44.1719H159.252V34.0938H157.529C157.271 38.2773 155.479 40.8203 152.854 40.8203C150.029 40.8203 148.213 37.8555 148.213 33.0625ZM150.979 33.0625C150.955 36.3438 151.658 37.9609 152.854 37.9375C154.084 37.9609 154.811 36.3438 154.799 33.0625C154.811 29.793 154.084 28.1641 152.854 28.1641C151.658 28.1641 150.955 29.793 150.979 33.0625ZM182.15 28.6562C182.139 32.4766 183.768 36.332 187.189 37.9844L185.385 40.375C183.1 39.2383 181.553 37.1289 180.674 34.5625C179.736 37.3164 178.096 39.5781 175.682 40.7734L173.83 38.3594C177.451 36.6953 179.15 32.6172 179.15 28.6562V25.4688H182.15V28.6562ZM188.127 45.1562V23.8281H191.127V32.0547H194.268V34.5859H191.127V45.1562H188.127ZM203.338 28.6562C203.326 32.5703 205.107 36.4961 208.729 38.0312L206.971 40.4219C204.533 39.3203 202.846 37.1875 201.873 34.5508C200.912 37.4336 199.166 39.7539 196.564 40.9375L194.76 38.4531C198.486 36.8828 200.303 32.793 200.314 28.6562V25.4688H203.338V28.6562ZM209.877 45.2031V23.8281H212.9V45.2031H209.877ZM235.635 31.9141V34.3516H232.611V45.1094H229.611V23.8281H232.611V31.9141H235.635ZM216.463 39.9062V25.8672H219.439V37.4336C222.17 37.3867 225.1 37.1289 228.182 36.5078L228.486 38.9922C224.912 39.7188 221.455 39.9062 218.314 39.9062H216.463ZM256.049 40.2109V42.6719H236.525V40.2109H240.885V34.9844C239.232 33.9883 238.236 32.4766 238.236 30.6016C238.236 27.1445 241.611 24.8711 246.252 24.8594C250.869 24.8711 254.279 27.1445 254.291 30.6016C254.279 32.4414 253.318 33.9297 251.713 34.9258V40.2109H256.049ZM241.189 30.6016C241.189 32.6875 243.193 33.9766 246.252 33.9766C249.264 33.9766 251.326 32.6875 251.338 30.6016C251.326 28.457 249.264 27.2148 246.252 27.2266C243.193 27.2148 241.189 28.457 241.189 30.6016ZM243.838 40.2109H248.689V36.0625C247.928 36.2148 247.107 36.2969 246.252 36.2969C245.396 36.2969 244.588 36.2148 243.838 36.0742V40.2109ZM260.994 37.6562C261.006 34.7383 261.791 33.8477 263.197 32.9688C264.205 32.3125 264.99 31.5859 264.979 30.5078C264.99 29.3359 264.076 28.5742 262.939 28.5625C261.85 28.5742 260.83 29.3008 260.783 30.6719H257.455C257.514 27.3789 259.963 25.7969 262.963 25.7969C266.232 25.7969 268.541 27.4961 268.541 30.3906C268.541 32.3242 267.545 33.543 266.01 34.4688C264.686 35.2539 264.1 36.0156 264.088 37.6562V37.9141H260.994V37.6562ZM260.643 41.2422C260.619 40.1641 261.51 39.2852 262.611 39.2969C263.654 39.2852 264.557 40.1641 264.557 41.2422C264.557 42.332 263.654 43.2109 262.611 43.2109C261.51 43.2109 260.619 42.332 260.643 41.2422Z" fill="white"/>
</svg>
