<svg width="401" height="68" viewBox="0 0 401 68" fill="none" xmlns="http://www.w3.org/2000/svg">
<path fill-rule="evenodd" clip-rule="evenodd" d="M14.5609 12.383C14.2923 13.5453 14.1504 14.7561 14.1504 16V52C14.1504 60.8366 21.3138 68 30.1504 68H384.15C392.987 68 400.15 60.8366 400.15 52V16C400.15 7.16344 392.987 0 384.15 0H30.1504C30.1365 0 30.1226 1.76897e-05 30.1087 5.30478e-05L2.0036 1.38707e-05C0.0038688 1.10831e-05 -0.757938 2.61065 0.927964 3.68613L14.5609 12.383Z" fill="#FB7E23"/>
<path d="M57.2832 35.7578V38.1953H48.9395V45.1797H45.9863V38.1953H37.7598V35.7578H57.2832ZM39.7285 29.3828C39.7168 26.418 42.8809 24.543 47.4629 24.5312C52.0449 24.543 55.2441 26.418 55.2441 29.3828C55.2441 32.2773 52.0449 34.1406 47.4629 34.1406C42.8809 34.1406 39.7168 32.2773 39.7285 29.3828ZM42.7988 29.3828C42.7871 30.9062 44.6035 31.7617 47.4629 31.7734C50.3457 31.7617 52.1504 30.9062 52.1504 29.3828C52.1504 27.8008 50.3457 26.9336 47.4629 26.9219C44.6035 26.9336 42.7871 27.8008 42.7988 29.3828ZM76.4082 23.8281V45.2031H73.4316V23.8281H76.4082ZM59.6504 28.0234V25.6094H69.7988V33.8359H62.7676V37.75C66.0254 37.7266 68.7793 37.5625 71.9082 37.0469L72.166 39.4609C68.6621 40.082 65.4863 40.2109 61.5957 40.2109H59.6738V31.4688H66.752V28.0234H59.6504ZM82.0332 43.2109C80.9316 43.2109 80.041 42.332 80.0645 41.2422C80.041 40.1641 80.9316 39.2852 82.0332 39.2969C83.0762 39.2852 83.9785 40.1641 83.9785 41.2422C83.9785 42.332 83.0762 43.2109 82.0332 43.2109ZM88.8066 43.2109C87.7051 43.2109 86.8145 42.332 86.8379 41.2422C86.8145 40.1641 87.7051 39.2852 88.8066 39.2969C89.8496 39.2852 90.752 40.1641 90.752 41.2422C90.752 42.332 89.8496 43.2109 88.8066 43.2109ZM103.455 25.3281C106.338 25.3281 108.494 27.6953 108.916 31.5391H112.619V23.8281H115.572V45.2031H112.619V33.9297H108.951C108.635 38.0312 106.432 40.5391 103.455 40.5391C100.221 40.5391 97.9004 37.6094 97.9238 32.9219C97.9004 28.2695 100.221 25.3281 103.455 25.3281ZM100.783 32.9219C100.771 36.0977 101.861 37.832 103.455 37.8203C105.061 37.832 106.127 36.0977 106.127 32.9219C106.127 29.7578 105.061 28.0234 103.455 28.0234C101.861 28.0234 100.771 29.7578 100.783 32.9219ZM136.174 23.8281V45.2031H133.15V23.8281H136.174ZM119.604 40.1172V25.7031H129.986V28.1406H122.604V37.5859C126.424 37.5859 128.779 37.4805 131.463 37L131.744 39.4609C128.791 40.0234 126.072 40.1172 121.455 40.1172H119.604ZM157.549 23.8281V45.1562H154.689V23.8281H157.549ZM139.244 33.0625C139.244 28.293 141.061 25.3398 143.885 25.3516C146.451 25.3398 148.209 27.7422 148.537 31.7266H150.283V24.1328H153.096V44.1719H150.283V34.0938H148.561C148.303 38.2773 146.51 40.8203 143.885 40.8203C141.061 40.8203 139.244 37.8555 139.244 33.0625ZM142.01 33.0625C141.986 36.3438 142.689 37.9609 143.885 37.9375C145.115 37.9609 145.842 36.3438 145.83 33.0625C145.842 29.793 145.115 28.1641 143.885 28.1641C142.689 28.1641 141.986 29.793 142.01 33.0625ZM167.861 28.6562C167.873 32.6641 169.49 36.5664 173.041 38.1016L171.213 40.4922C168.846 39.3438 167.252 37.2109 166.361 34.5742C165.447 37.375 163.807 39.6719 161.369 40.8672L159.494 38.4297C163.15 36.7773 164.814 32.6641 164.838 28.6562V25.4688H167.861V28.6562ZM170.65 32.9453V30.5312H174.846V23.8281H177.799V45.2031H174.846V32.9453H170.65ZM196.947 25.5859V35.8281H186.705V25.5859H196.947ZM189.166 44.7812V37.8672H192.143V42.3906H203.768V44.7812H189.166ZM189.658 33.4844H193.994V27.9766H189.658V33.4844ZM199.994 39.3906V23.8281H202.994V29.9688H205.877V32.4297H202.994V39.3906H199.994ZM226.666 31.9141V34.3516H223.643V45.1094H220.643V23.8281H223.643V31.9141H226.666ZM207.494 39.9062V25.8672H210.471V37.4336C213.201 37.3867 216.131 37.1289 219.213 36.5078L219.518 38.9922C215.943 39.7188 212.486 39.9062 209.346 39.9062H207.494ZM244.877 29.6406V31.9844H229.971V24.5781H232.947V29.6406H244.877ZM227.533 36.625V34.2812H247.057V36.625H227.533ZM229.783 44.6875V38.3594H232.783V42.2969H245.018V44.6875H229.783ZM272.322 23.8281V45.1562H269.51V23.8281H272.322ZM253.572 38.6172C257.885 36.0625 259.783 32.957 260.193 28.7734H254.744V26.3594H263.158C263.158 28.3984 262.936 30.2969 262.42 32.0547H264.986V24.2969H267.775V44.2188H264.986V34.4219H261.494C260.275 36.8594 258.295 38.9688 255.26 40.7266L253.572 38.6172ZM291.283 30.1797V32.1484H299.604V34.5391H280.08V32.1484H288.33V30.1797H291.283ZM280.924 29.1719C284.768 28.9609 286.947 27.8359 287.58 26.6172H281.885V24.3438H297.799V26.6172H292.045C292.654 27.8477 294.811 28.9609 298.713 29.1719L297.775 31.3984C293.662 31.1055 290.92 29.793 289.83 27.8945C288.729 29.793 285.986 31.1055 281.885 31.3984L280.924 29.1719ZM281.861 38.9453V36.7188H288.307V35.125H291.307V36.7188H297.752V38.9453H281.861ZM283.244 42.3906C283.232 40.5625 285.611 39.5781 289.783 39.5781C293.92 39.5781 296.357 40.5625 296.369 42.3906C296.357 44.2539 293.92 45.2383 289.783 45.2266C285.611 45.2383 283.232 44.2539 283.244 42.3906ZM286.314 42.3906C286.314 42.9883 287.498 43.2578 289.783 43.2578C292.104 43.2578 293.229 42.9883 293.252 42.3906C293.229 41.7812 292.104 41.5703 289.783 41.5469C287.498 41.5703 286.314 41.7812 286.314 42.3906ZM310.572 24.1328C315.482 24.1328 318.318 25.4219 318.33 27.7656C318.318 30.1445 315.482 31.4219 310.572 31.4219C305.65 31.4219 302.791 30.1445 302.791 27.7656C302.791 25.4219 305.65 24.1328 310.572 24.1328ZM300.846 34.7969V32.4297H320.299V34.7969H300.846ZM303.096 38.2188V36.0391H317.932V41.4766H306.049V42.7656H318.494V45.0156H303.119V39.3906H314.979V38.2188H303.096ZM305.932 27.7656C305.92 28.8086 307.443 29.2188 310.572 29.2188C313.725 29.2188 315.236 28.8086 315.236 27.7656C315.236 26.8164 313.725 26.3125 310.572 26.3125C307.443 26.3125 305.92 26.8164 305.932 27.7656ZM338.674 23.8281V32.1953H341.51V34.6562H338.674V45.1562H335.674V23.8281H338.674ZM321.166 38.9688C324.072 35.8164 324.916 32.6992 325.104 28.4453H322.104V26.0078H327.963C327.939 31.8672 327.33 36.4375 323.51 40.6328L321.166 38.9688ZM327.189 40.3516C330.084 36.7891 330.881 33.1328 331.045 28.4453H328.666V26.0078H333.869C333.857 32.0898 333.33 37.375 329.557 42.0156L327.189 40.3516ZM361.854 40.2109V42.6719H342.33V40.2109H346.689V34.9844C345.037 33.9883 344.041 32.4766 344.041 30.6016C344.041 27.1445 347.416 24.8711 352.057 24.8594C356.674 24.8711 360.084 27.1445 360.096 30.6016C360.084 32.4414 359.123 33.9297 357.518 34.9258V40.2109H361.854ZM346.994 30.6016C346.994 32.6875 348.998 33.9766 352.057 33.9766C355.068 33.9766 357.131 32.6875 357.143 30.6016C357.131 28.457 355.068 27.2148 352.057 27.2266C348.998 27.2148 346.994 28.457 346.994 30.6016ZM349.643 40.2109H354.494V36.0625C353.732 36.2148 352.912 36.2969 352.057 36.2969C351.201 36.2969 350.393 36.2148 349.643 36.0742V40.2109ZM366.799 37.6562C366.811 34.7383 367.596 33.8477 369.002 32.9688C370.01 32.3125 370.795 31.5859 370.783 30.5078C370.795 29.3359 369.881 28.5742 368.744 28.5625C367.654 28.5742 366.635 29.3008 366.588 30.6719H363.26C363.318 27.3789 365.768 25.7969 368.768 25.7969C372.037 25.7969 374.346 27.4961 374.346 30.3906C374.346 32.3242 373.35 33.543 371.814 34.4688C370.49 35.2539 369.904 36.0156 369.893 37.6562V37.9141H366.799V37.6562ZM366.447 41.2422C366.424 40.1641 367.314 39.2852 368.416 39.2969C369.459 39.2852 370.361 40.1641 370.361 41.2422C370.361 42.332 369.459 43.2109 368.416 43.2109C367.314 43.2109 366.424 42.332 366.447 41.2422Z" fill="white"/>
</svg>
