<svg width="346" height="76" viewBox="0 0 346 76" fill="none" xmlns="http://www.w3.org/2000/svg">
<path fill-rule="evenodd" clip-rule="evenodd" d="M0 6.85246C0 3.06795 3.06795 0 6.85246 0H339.148C342.932 0 346 3.06795 346 6.85246C346 10.637 342.932 13.7049 339.148 13.7049H6.85245C3.06794 13.7049 0 10.637 0 6.85246ZM32.3113 38C32.3113 34.2155 35.3792 31.1476 39.1637 31.1476H306.836C310.621 31.1476 313.689 34.2155 313.689 38C313.689 41.7845 310.621 44.8525 306.836 44.8525H39.1637C35.3792 44.8525 32.3113 41.7845 32.3113 38ZM66.0898 62.2951C62.3053 62.2951 59.2374 65.363 59.2374 69.1475C59.2374 72.932 62.3053 76 66.0898 76H279.91C283.695 76 286.763 72.932 286.763 69.1475C286.763 65.363 283.695 62.2951 279.91 62.2951H66.0898Z" fill="url(#paint0_linear_1041_4254)"/>
<defs>
<linearGradient id="paint0_linear_1041_4254" x1="173" y1="0" x2="173" y2="76" gradientUnits="userSpaceOnUse">
<stop stop-color="#FFA665" stop-opacity="0.44"/>
<stop offset="1" stop-color="#FB7E23" stop-opacity="0"/>
</linearGradient>
</defs>
</svg>
