<svg width="585" height="78" viewBox="0 0 585 78" fill="none" xmlns="http://www.w3.org/2000/svg">
<path fill-rule="evenodd" clip-rule="evenodd" d="M203.56 39.3917C203.56 38.1685 203.45 36.9924 203.246 35.8633H187V42.5359H196.284C195.884 44.6921 194.668 46.5191 192.841 47.7423V52.0704H198.416C201.678 49.0674 203.56 44.6451 203.56 39.3917Z" fill="#4285F4"/>
<path fill-rule="evenodd" clip-rule="evenodd" d="M186.999 56.2498C191.657 56.2498 195.561 54.7052 198.416 52.0706L192.841 47.7425C191.296 48.7775 189.32 49.389 186.999 49.389C182.506 49.389 178.704 46.3546 177.347 42.2773H171.584V46.7467C174.422 52.3843 180.256 56.2498 186.999 56.2498Z" fill="#34A853"/>
<path fill-rule="evenodd" clip-rule="evenodd" d="M177.348 42.2772C177.003 41.2422 176.807 40.1367 176.807 38.9997C176.807 37.8628 177.003 36.7572 177.348 35.7222V31.2529H171.585C170.416 33.5817 169.75 36.2162 169.75 38.9997C169.75 41.7833 170.416 44.4178 171.585 46.7466L177.348 42.2772Z" fill="#FBBC05"/>
<path fill-rule="evenodd" clip-rule="evenodd" d="M186.999 28.6108C189.532 28.6108 191.806 29.4811 193.593 31.1905L198.541 26.2428C195.554 23.4593 191.649 21.75 186.999 21.75C180.256 21.75 174.422 25.6156 171.584 31.2532L177.347 35.7225C178.704 31.6452 182.506 28.6108 186.999 28.6108Z" fill="#EA4335"/>
<path d="M238.453 36.3281C237.727 34.1484 236.074 32.7656 233.648 32.7656C230.648 32.7656 228.27 35.1328 228.258 39.5156C228.27 43.8867 230.648 46.2539 233.789 46.2656C236.648 46.2539 238.629 44.3555 238.664 41.3438H234.234V39.4922H240.727V41.3203C240.727 45.5273 237.832 48.2344 233.789 48.2344C229.254 48.2344 226.207 44.8828 226.219 39.5156C226.207 34.1484 229.289 30.7969 233.648 30.7969C237.234 30.7969 240 33.0469 240.633 36.3281H238.453ZM248.836 48.2578C245.367 48.2695 243.023 45.6445 243.023 41.6953C243.023 37.7227 245.367 35.1094 248.836 35.1094C252.293 35.1094 254.613 37.7227 254.602 41.6953C254.613 45.6445 252.293 48.2695 248.836 48.2578ZM245.039 41.6953C245.051 44.2383 246.246 46.4766 248.836 46.4766C251.402 46.4766 252.586 44.2383 252.586 41.6953C252.586 39.1641 251.402 36.8906 248.836 36.8906C246.246 36.8906 245.051 39.1641 245.039 41.6953ZM262.453 48.2578C258.984 48.2695 256.641 45.6445 256.641 41.6953C256.641 37.7227 258.984 35.1094 262.453 35.1094C265.91 35.1094 268.23 37.7227 268.219 41.6953C268.23 45.6445 265.91 48.2695 262.453 48.2578ZM258.656 41.6953C258.668 44.2383 259.863 46.4766 262.453 46.4766C265.02 46.4766 266.203 44.2383 266.203 41.6953C266.203 39.1641 265.02 36.8906 262.453 36.8906C259.863 36.8906 258.668 39.1641 258.656 41.6953ZM276.023 53.0391C272.941 53.0391 270.855 51.6914 270.633 49.3359H272.742C273.012 50.6367 274.219 51.2812 276.023 51.2812C278.203 51.2812 279.539 50.332 279.539 48.2344V45.6562H279.375C278.941 46.3594 278.133 47.8008 275.672 47.8125C272.578 47.8008 270.258 45.4688 270.258 41.4609C270.258 37.5469 272.496 35.1094 275.695 35.1094C278.168 35.1094 278.965 36.6094 279.422 37.2891H279.586V35.2734H281.555V48.3516C281.543 51.6328 279.129 53.0391 276.023 53.0391ZM272.297 41.5312C272.297 44.168 273.539 46.0078 275.953 46.0078C278.285 46.0078 279.574 44.332 279.586 41.5312C279.574 38.8008 278.32 36.9141 275.953 36.9141C273.504 36.9141 272.297 38.9648 272.297 41.5312ZM286.781 31.0312V48H284.766V31.0312H286.781ZM295.336 48.2578C291.656 48.2695 289.383 45.6445 289.383 41.7422C289.383 37.8281 291.691 35.1094 295.148 35.1094C297.82 35.1094 300.645 36.75 300.633 41.4609V42.3047H291.398C291.504 45 293.074 46.4766 295.336 46.4766C296.859 46.4766 297.82 45.8086 298.289 45.0234H300.445C299.848 46.957 297.961 48.2695 295.336 48.2578ZM291.41 40.5938H298.594C298.582 38.4727 297.246 36.8906 295.148 36.8906C292.945 36.8906 291.551 38.625 291.41 40.5938ZM321.562 45.7734V47.3203H302.484V45.7734H311.062V41.8359H304.875V35.4141H317.344V32.1328H304.828V30.6094H319.148V36.9141H306.703V40.3125H319.641V41.8359H312.867V45.7734H321.562ZM336.656 34.6641C336.645 38.4727 339.234 42.293 342.305 43.6875L341.18 45.1406C338.801 43.9922 336.75 41.5195 335.754 38.5547C334.793 41.6953 332.742 44.332 330.305 45.5625L329.133 44.0156C332.238 42.5977 334.805 38.6133 334.828 34.6641V30.8672H336.656V34.6641ZM344.578 49.9453V29.0625H346.43V49.9453H344.578ZM357.047 32.9297C357.059 35.707 359.098 38.2383 362.18 39.3047L361.242 40.7344C358.863 39.8906 357.047 38.1914 356.156 36.0352C355.266 38.4023 353.355 40.2422 350.906 41.1328L349.922 39.7031C353.039 38.6016 355.219 35.918 355.242 32.9297V32.0391H350.484V30.5391H361.734V32.0391H357.047V32.9297ZM352.641 44.2266V42.7266H366.281V49.8984H364.453V44.2266H352.641ZM364.453 41.625V29.0625H366.281V34.5703H369.422V36.1406H366.281V41.625H364.453ZM386.859 29.0625V37.6641H390.352V39.1875H386.859V49.8984H385.031V29.0625H386.859ZM370.617 33.9375V32.4141H375.984V29.3203H377.812V32.4141H383.016V33.9375H370.617ZM371.812 40.4531C371.801 37.6406 373.957 35.6719 376.922 35.6719C379.863 35.6719 382.008 37.6406 382.031 40.4531C382.008 43.2773 379.863 45.2344 376.922 45.2344C373.957 45.2344 371.801 43.2773 371.812 40.4531ZM373.57 40.4531C373.559 42.3516 374.977 43.6875 376.922 43.6641C378.844 43.6875 380.25 42.3516 380.273 40.4531C380.25 38.5664 378.844 37.207 376.922 37.2188C374.977 37.207 373.559 38.5664 373.57 40.4531ZM408.703 29.0625V49.8984H406.852V29.0625H408.703ZM391.734 44.4844C397.371 41.8125 400.254 37.8164 400.664 32.8359H392.695V31.3359H402.539C402.516 37.3242 399.727 42.6328 392.742 45.9844L391.734 44.4844Z" fill="#393939"/>
<rect x="1" y="1" width="583" height="76" rx="15" stroke="#DEDEDE" stroke-width="2"/>
</svg>
