<svg width="800" height="800" viewBox="0 0 800 800" fill="none" xmlns="http://www.w3.org/2000/svg">
<g clip-path="url(#clip0_1565_9751)">
<rect width="800" height="800" fill="url(#paint0_linear_1565_9751)"/>
<g filter="url(#filter0_f_1565_9751)">
<ellipse cx="395.5" cy="897.5" rx="404.5" ry="209.5" fill="white" fill-opacity="0.17"/>
</g>
<path d="M244.012 140.699V148.469H188.297V140.699H211.34V128.945H194.008V98.7305H238.035V128.945H220.77V140.699H244.012ZM203.438 121.508H228.539V106.367H203.438V121.508ZM298.266 94.4141V155.508H288.637V94.4141H298.266ZM248.66 120.379C248.66 107.031 255.6 98.5645 264.996 98.5977C274.26 98.5645 281.166 107.031 281.199 120.379C281.166 133.926 274.26 142.359 264.996 142.359C255.6 142.359 248.66 133.926 248.66 120.379ZM257.957 120.379C257.891 129.244 260.713 133.66 264.996 133.66C269.146 133.66 271.936 129.244 271.969 120.379C271.936 111.68 269.146 107.197 264.996 107.23C260.713 107.197 257.891 111.68 257.957 120.379ZM354.379 94.4141V109.953H362.281V117.723H354.379V134.723H344.816V94.4141H354.379ZM307.762 127.684V98.5977H335.254V106.168H317.258V120.047C328.215 119.947 334.125 119.516 340.5 118.188L341.363 125.824C334.125 127.252 327.02 127.717 312.941 127.684H307.762ZM310.949 147.672C324.496 145.779 329.742 139.139 329.742 132.863V131.535H339.238V132.863C339.238 139.139 344.518 145.779 358.23 147.672L354.512 155.043C344.883 153.682 338.242 149.664 334.59 144.252C330.904 149.664 324.264 153.682 314.602 155.043L310.949 147.672ZM435.527 140.898V148.668H379.812V140.898H402.922V129.609H412.352V140.898H435.527ZM381.34 124.23C395.65 122.67 401.76 115.93 402.623 109.953H384.527V102.383H402.922V95.0117H412.352V102.383H430.812V109.953H412.65C413.48 115.93 419.59 122.67 434 124.23L430.547 131.734C419.391 130.406 411.721 126.023 407.604 120.08C403.52 126.023 395.916 130.406 384.793 131.734L381.34 124.23ZM491.441 94.4141V155.375H482.41V125.227H477.496V152.453H468.797V95.3438H477.496V117.656H482.41V94.4141H491.441ZM440.109 141.961V101.387H462.82V109.023H449.738V133.959C454.984 133.893 459.932 133.561 465.477 132.598L466.141 140.301C458.67 141.729 452.096 141.928 444.492 141.961H440.109ZM532.082 98.3984V105.969H520.428C520.793 112.51 524.645 118.818 534.207 121.574L529.691 129.078C523.018 127.119 518.502 123.234 515.812 118.32C513.09 124.197 508.309 128.846 501.07 131.137L496.223 123.633C506.217 120.545 510.301 113.141 510.666 105.969H498.746V98.3984H532.082ZM504.723 143.355C504.689 135.818 512.791 131.402 525.773 131.402C538.523 131.402 546.492 135.818 546.492 143.355C546.492 150.893 538.523 155.441 525.773 155.375C512.791 155.441 504.689 150.893 504.723 143.355ZM514.285 143.355C514.252 146.576 518.203 148.004 525.773 148.004C533.277 148.004 537.029 146.576 537.062 143.355C537.029 140.201 533.277 138.807 525.773 138.84C518.203 138.807 514.252 140.201 514.285 143.355ZM536.332 130.406V94.4141H545.895V108.16H553.797V115.863H545.895V130.406H536.332ZM607.32 94.4141V155.508H597.691V94.4141H607.32ZM557.715 120.379C557.715 107.031 564.654 98.5645 574.051 98.5977C583.314 98.5645 590.221 107.031 590.254 120.379C590.221 133.926 583.314 142.359 574.051 142.359C564.654 142.359 557.715 133.926 557.715 120.379ZM567.012 120.379C566.945 129.244 569.768 133.66 574.051 133.66C578.201 133.66 580.99 129.244 581.023 120.379C580.99 111.68 578.201 107.197 574.051 107.23C569.768 107.197 566.945 111.68 567.012 120.379ZM293.484 216.309V223.812H276.152V235.898H299.395V243.668H243.68V235.898H266.723V223.812H250.055V193.531H293.086V201.102H259.617V216.309H293.484ZM337.246 195.457V202.961H325.426C325.625 208.738 329.477 214.914 339.438 217.438L335.055 225.008C328.215 223.215 323.533 219.43 320.744 214.682C318.088 219.895 313.406 223.979 306.367 225.871L301.785 218.5C311.713 215.877 315.697 209.236 315.863 202.961H304.109V195.457H315.863V189.281H325.492V195.457H337.246ZM309.621 236.695V229.125H350.992V250.441H341.43V236.695H309.621ZM341.43 226.867V189.414H350.992V204.09H358.895V212.059H350.992V226.867H341.43ZM413.746 189.48V226.934H404.648V212.457H400.93V226.336H392.098V190.277H400.93V204.754H404.648V189.48H413.746ZM360.887 202.43V194.926H370.914V189.812H380.41V194.926H390.371V202.43H360.887ZM362.48 214.715C362.48 208.307 368.125 203.957 375.695 203.957C383.498 203.957 389.109 208.307 389.109 214.715C389.109 220.924 383.498 225.373 375.695 225.406C368.125 225.373 362.48 220.924 362.48 214.715ZM364.473 242.539C372.441 240.348 375.629 235.102 375.629 229.789V228.859H385.125V229.789C385.059 234.039 386.818 238.355 391.301 241.277C395.816 238.223 397.709 233.74 397.742 229.789V228.859H407.305V229.789C407.271 235.367 410.293 240.58 418.461 242.539L414.012 249.645C408.234 247.951 404.482 244.564 402.391 240.248C400.365 244.598 396.879 248.316 391.434 250.242C385.855 248.35 382.336 244.797 380.344 240.514C378.152 244.631 374.434 247.918 368.922 249.645L364.473 242.539ZM371.047 214.715C371.014 217.238 372.906 218.6 375.695 218.566C378.584 218.6 380.477 217.238 380.477 214.715C380.477 212.025 378.551 210.73 375.695 210.73C372.939 210.73 371.014 212.025 371.047 214.715ZM436.922 193.598C445.123 193.564 451.332 200.238 452.627 211.062H462.223V189.414H471.652V250.508H462.223V218.633H452.727C451.73 230.254 445.389 237.359 436.922 237.359C427.592 237.359 420.885 228.926 420.918 215.379C420.885 202.031 427.592 193.564 436.922 193.598ZM430.082 215.379C430.049 224.244 432.838 228.66 436.922 228.66C441.072 228.66 443.762 224.244 443.762 215.379C443.762 206.68 441.072 202.197 436.922 202.23C432.838 202.197 430.049 206.68 430.082 215.379ZM534.473 235.699V243.469H478.758V235.699H490.777V221.223C486.195 218.334 483.439 214.018 483.473 208.672C483.439 198.744 493.234 192.137 506.516 192.137C519.764 192.137 529.658 198.744 529.691 208.672C529.658 213.918 527.002 218.168 522.586 221.023V235.699H534.473ZM492.969 208.672C492.936 214.449 498.215 217.836 506.516 217.836C514.75 217.836 520.195 214.449 520.195 208.672C520.195 202.828 514.75 199.607 506.516 199.641C498.215 199.607 492.936 202.828 492.969 208.672ZM500.207 235.699H512.891V224.676C510.898 225.008 508.74 225.207 506.516 225.207C504.291 225.207 502.199 225.008 500.207 224.676V235.699ZM552.668 195.922L551.672 229.324H542.176L541.18 195.922H552.668ZM540.914 238.621C540.848 235.367 543.604 232.711 546.891 232.711C550.078 232.711 552.9 235.367 552.934 238.621C552.9 241.975 550.078 244.664 546.891 244.664C543.604 244.664 540.848 241.975 540.914 238.621Z" fill="white"/>
<g filter="url(#filter1_b_1565_9751)">
<path d="M196 469.652H602.482V689.153C602.482 707.112 587.923 721.671 569.964 721.671H228.519C210.559 721.671 196 707.112 196 689.153V469.652Z" fill="#FB7E23" fill-opacity="0.7"/>
</g>
<g filter="url(#filter2_b_1565_9751)">
<path d="M364.841 367.209C386.735 353.608 414.449 353.609 436.342 367.21L601.241 469.655H199.934L364.841 367.209Z" fill="#E76C14" fill-opacity="0.7"/>
</g>
<g filter="url(#filter3_b_1565_9751)">
<mask id="path-5-inside-1_1565_9751" fill="white">
<path d="M223.098 423.585C223.098 405.625 237.657 391.066 255.616 391.066H542.864C560.823 391.066 575.382 405.625 575.382 423.585V670.184C575.382 688.144 560.823 702.703 542.864 702.703H255.616C237.657 702.703 223.098 688.144 223.098 670.184V423.585Z"/>
</mask>
<path d="M223.098 423.585C223.098 405.625 237.657 391.066 255.616 391.066H542.864C560.823 391.066 575.382 405.625 575.382 423.585V670.184C575.382 688.144 560.823 702.703 542.864 702.703H255.616C237.657 702.703 223.098 688.144 223.098 670.184V423.585Z" fill="url(#paint1_linear_1565_9751)" fill-opacity="0.6"/>
<path d="M223.098 423.585C223.098 404.486 238.581 389.003 257.68 389.003H540.8C559.899 389.003 575.382 404.486 575.382 423.585C575.382 406.765 560.823 393.13 542.864 393.13H255.616C237.657 393.13 223.098 406.765 223.098 423.585ZM575.382 702.703H223.098H575.382ZM223.098 702.703V391.066V702.703ZM575.382 391.066V702.703V391.066Z" fill="white" mask="url(#path-5-inside-1_1565_9751)"/>
</g>
<g filter="url(#filter4_f_1565_9751)">
<path d="M222.941 525.11C222.941 507.151 237.5 492.592 255.46 492.592H543.003C560.963 492.592 575.522 507.151 575.522 525.11V669.747C575.522 687.707 560.963 702.266 543.003 702.266H255.46C237.5 702.266 222.941 687.707 222.941 669.747V525.11Z" fill="white"/>
</g>
<g filter="url(#filter5_bd_1565_9751)">
<path d="M584.868 721.671L197.355 471.007L196 469.652V689.153C196 707.112 210.559 721.671 228.519 721.671H584.868Z" fill="#FF862E" fill-opacity="0.28" shape-rendering="crispEdges"/>
</g>
<g filter="url(#filter6_bd_1565_9751)">
<path d="M221.739 721.671L602.477 471.007L603.832 469.652V689.153C603.832 707.112 589.273 721.671 571.313 721.671H221.739Z" fill="#FF862E" fill-opacity="0.28" shape-rendering="crispEdges"/>
</g>
<g filter="url(#filter7_f_1565_9751)">
<path d="M393.67 427.033C395.511 423.069 401.148 423.069 402.989 427.033L409.498 441.048C410.246 442.66 411.775 443.771 413.539 443.984L428.879 445.844C433.219 446.37 434.961 451.73 431.759 454.707L420.441 465.228C419.14 466.438 418.556 468.234 418.898 469.979L421.87 485.142C422.711 489.432 418.15 492.745 414.33 490.62L400.827 483.107C399.274 482.243 397.385 482.243 395.832 483.107L382.328 490.62C378.508 492.745 373.948 489.432 374.789 485.142L377.761 469.979C378.103 468.234 377.519 466.438 376.218 465.228L364.9 454.707C361.698 451.73 363.44 446.37 367.78 445.844L383.12 443.984C384.884 443.771 386.413 442.66 387.161 441.048L393.67 427.033Z" fill="white"/>
</g>
<path d="M393.67 427.033C395.511 423.069 401.148 423.069 402.989 427.033L409.498 441.048C410.246 442.66 411.775 443.771 413.539 443.984L428.879 445.844C433.219 446.37 434.961 451.73 431.759 454.707L420.441 465.228C419.14 466.438 418.556 468.234 418.898 469.979L421.87 485.142C422.711 489.432 418.15 492.745 414.33 490.62L400.827 483.107C399.274 482.243 397.385 482.243 395.832 483.107L382.328 490.62C378.508 492.745 373.948 489.432 374.789 485.142L377.761 469.979C378.103 468.234 377.519 466.438 376.218 465.228L364.9 454.707C361.698 451.73 363.44 446.37 367.78 445.844L383.12 443.984C384.884 443.771 386.413 442.66 387.161 441.048L393.67 427.033Z" fill="white"/>
<path d="M459.497 381.295C594.494 345.674 701.798 345.68 716.284 386.021C734.113 435.675 604.572 527.632 426.946 591.414C249.32 655.196 90.8714 666.649 73.0419 616.995C61.5395 584.962 111.372 535.322 195.881 487" stroke="url(#paint2_linear_1565_9751)" stroke-width="3"/>
<g filter="url(#filter8_f_1565_9751)">
<path d="M118.425 631.775C117.614 629.039 120.373 626.606 122.986 627.752L132.222 631.801C133.284 632.267 134.511 632.151 135.467 631.494L143.778 625.781C146.129 624.165 149.296 626.037 149.014 628.876L148.017 638.911C147.902 640.065 148.392 641.197 149.312 641.903L157.313 648.041C159.577 649.778 158.775 653.368 155.988 653.977L146.136 656.13C145.002 656.377 144.078 657.193 143.691 658.286L140.325 667.793C139.373 670.482 135.71 670.829 134.27 668.367L129.178 659.662C128.593 658.661 127.531 658.033 126.372 658.003L116.29 657.74C113.438 657.665 111.977 654.289 113.874 652.158L120.579 644.626C121.35 643.76 121.619 642.556 121.289 641.444L118.425 631.775Z" fill="white"/>
</g>
<path d="M118.425 631.775C117.614 629.039 120.373 626.606 122.986 627.752L132.222 631.801C133.284 632.267 134.511 632.151 135.467 631.494L143.778 625.781C146.129 624.165 149.296 626.037 149.014 628.876L148.017 638.911C147.902 640.065 148.392 641.197 149.312 641.903L157.313 648.041C159.577 649.778 158.775 653.368 155.988 653.977L146.136 656.13C145.002 656.377 144.078 657.193 143.691 658.286L140.325 667.793C139.373 670.482 135.71 670.829 134.27 668.367L129.178 659.662C128.593 658.661 127.531 658.033 126.372 658.003L116.29 657.74C113.438 657.665 111.977 654.289 113.874 652.158L120.579 644.626C121.35 643.76 121.619 642.556 121.289 641.444L118.425 631.775Z" fill="white"/>
<g filter="url(#filter9_b_1565_9751)">
<path d="M196 469.652H602.482V689.153C602.482 707.112 587.923 721.671 569.964 721.671H228.519C210.559 721.671 196 707.112 196 689.153V469.652Z" fill="#FB7E23" fill-opacity="0.7"/>
</g>
<g filter="url(#filter10_b_1565_9751)">
<path d="M364.841 367.209C386.735 353.608 414.449 353.609 436.342 367.21L601.241 469.655H199.934L364.841 367.209Z" fill="#E76C14" fill-opacity="0.7"/>
</g>
<g filter="url(#filter11_b_1565_9751)">
<mask id="path-17-inside-2_1565_9751" fill="white">
<path d="M223.098 423.585C223.098 405.625 237.657 391.066 255.616 391.066H542.864C560.823 391.066 575.382 405.625 575.382 423.585V670.184C575.382 688.144 560.823 702.703 542.864 702.703H255.616C237.657 702.703 223.098 688.144 223.098 670.184V423.585Z"/>
</mask>
<path d="M223.098 423.585C223.098 405.625 237.657 391.066 255.616 391.066H542.864C560.823 391.066 575.382 405.625 575.382 423.585V670.184C575.382 688.144 560.823 702.703 542.864 702.703H255.616C237.657 702.703 223.098 688.144 223.098 670.184V423.585Z" fill="url(#paint3_linear_1565_9751)" fill-opacity="0.6"/>
<path d="M223.098 423.585C223.098 404.486 238.581 389.003 257.68 389.003H540.8C559.899 389.003 575.382 404.486 575.382 423.585C575.382 406.765 560.823 393.13 542.864 393.13H255.616C237.657 393.13 223.098 406.765 223.098 423.585ZM575.382 702.703H223.098H575.382ZM223.098 702.703V391.066V702.703ZM575.382 391.066V702.703V391.066Z" fill="white" mask="url(#path-17-inside-2_1565_9751)"/>
</g>
<g filter="url(#filter12_f_1565_9751)">
<path d="M222.941 525.11C222.941 507.151 237.5 492.592 255.46 492.592H543.003C560.963 492.592 575.522 507.151 575.522 525.11V669.747C575.522 687.707 560.963 702.266 543.003 702.266H255.46C237.5 702.266 222.941 687.707 222.941 669.747V525.11Z" fill="white"/>
</g>
<g filter="url(#filter13_bd_1565_9751)">
<path d="M584.868 721.671L197.355 471.007L196 469.652V689.153C196 707.112 210.559 721.671 228.519 721.671H584.868Z" fill="#FF862E" fill-opacity="0.28" shape-rendering="crispEdges"/>
</g>
<g filter="url(#filter14_bd_1565_9751)">
<path d="M221.739 721.671L602.477 471.007L603.832 469.652V689.153C603.832 707.112 589.273 721.671 571.313 721.671H221.739Z" fill="#FF862E" fill-opacity="0.28" shape-rendering="crispEdges"/>
</g>
<g filter="url(#filter15_f_1565_9751)">
<path d="M393.67 427.033C395.511 423.069 401.148 423.069 402.989 427.033L409.498 441.048C410.246 442.66 411.775 443.771 413.539 443.984L428.879 445.844C433.219 446.37 434.961 451.73 431.759 454.707L420.441 465.228C419.14 466.438 418.556 468.234 418.898 469.979L421.87 485.142C422.711 489.432 418.15 492.745 414.33 490.62L400.827 483.107C399.274 482.243 397.385 482.243 395.832 483.107L382.328 490.62C378.508 492.745 373.948 489.432 374.789 485.142L377.761 469.979C378.103 468.234 377.519 466.438 376.218 465.228L364.9 454.707C361.698 451.73 363.44 446.37 367.78 445.844L383.12 443.984C384.884 443.771 386.413 442.66 387.161 441.048L393.67 427.033Z" fill="white"/>
</g>
<path d="M393.67 427.033C395.511 423.069 401.148 423.069 402.989 427.033L409.498 441.048C410.246 442.66 411.775 443.771 413.539 443.984L428.879 445.844C433.219 446.37 434.961 451.73 431.759 454.707L420.441 465.228C419.14 466.438 418.556 468.234 418.898 469.979L421.87 485.142C422.711 489.432 418.15 492.745 414.33 490.62L400.827 483.107C399.274 482.243 397.385 482.243 395.832 483.107L382.328 490.62C378.508 492.745 373.948 489.432 374.789 485.142L377.761 469.979C378.103 468.234 377.519 466.438 376.218 465.228L364.9 454.707C361.698 451.73 363.44 446.37 367.78 445.844L383.12 443.984C384.884 443.771 386.413 442.66 387.161 441.048L393.67 427.033Z" fill="white"/>
<path d="M459.497 381.295C594.494 345.674 701.798 345.68 716.284 386.021C734.113 435.675 604.572 527.632 426.946 591.414C249.32 655.196 90.8714 666.649 73.0419 616.995C61.5395 584.962 111.372 535.322 195.881 487" stroke="url(#paint4_linear_1565_9751)" stroke-width="3"/>
<g filter="url(#filter16_f_1565_9751)">
<path d="M118.425 631.775C117.614 629.039 120.373 626.606 122.986 627.752L132.222 631.801C133.284 632.267 134.511 632.151 135.467 631.494L143.778 625.781C146.129 624.165 149.296 626.037 149.014 628.876L148.017 638.911C147.902 640.065 148.392 641.197 149.312 641.903L157.313 648.041C159.577 649.778 158.775 653.368 155.988 653.977L146.136 656.13C145.002 656.377 144.078 657.193 143.691 658.286L140.325 667.793C139.373 670.482 135.71 670.829 134.27 668.367L129.178 659.662C128.593 658.661 127.531 658.033 126.372 658.003L116.29 657.74C113.438 657.665 111.977 654.289 113.874 652.158L120.579 644.626C121.35 643.76 121.619 642.556 121.289 641.444L118.425 631.775Z" fill="white"/>
</g>
<path d="M118.425 631.775C117.614 629.039 120.373 626.606 122.986 627.752L132.222 631.801C133.284 632.267 134.511 632.151 135.467 631.494L143.778 625.781C146.129 624.165 149.296 626.037 149.014 628.876L148.017 638.911C147.902 640.065 148.392 641.197 149.312 641.903L157.313 648.041C159.577 649.778 158.775 653.368 155.988 653.977L146.136 656.13C145.002 656.377 144.078 657.193 143.691 658.286L140.325 667.793C139.373 670.482 135.71 670.829 134.27 668.367L129.178 659.662C128.593 658.661 127.531 658.033 126.372 658.003L116.29 657.74C113.438 657.665 111.977 654.289 113.874 652.158L120.579 644.626C121.35 643.76 121.619 642.556 121.289 641.444L118.425 631.775Z" fill="white"/>
</g>
<defs>
<filter id="filter0_f_1565_9751" x="-123" y="574" width="1037" height="647" filterUnits="userSpaceOnUse" color-interpolation-filters="sRGB">
<feFlood flood-opacity="0" result="BackgroundImageFix"/>
<feBlend mode="normal" in="SourceGraphic" in2="BackgroundImageFix" result="shape"/>
<feGaussianBlur stdDeviation="57" result="effect1_foregroundBlur_1565_9751"/>
</filter>
<filter id="filter1_b_1565_9751" x="185.16" y="458.813" width="428.16" height="273.698" filterUnits="userSpaceOnUse" color-interpolation-filters="sRGB">
<feFlood flood-opacity="0" result="BackgroundImageFix"/>
<feGaussianBlur in="BackgroundImageFix" stdDeviation="5.41976"/>
<feComposite in2="SourceAlpha" operator="in" result="effect1_backgroundBlur_1565_9751"/>
<feBlend mode="normal" in="SourceGraphic" in2="effect1_backgroundBlur_1565_9751" result="shape"/>
</filter>
<filter id="filter2_b_1565_9751" x="183.674" y="340.75" width="433.827" height="145.164" filterUnits="userSpaceOnUse" color-interpolation-filters="sRGB">
<feFlood flood-opacity="0" result="BackgroundImageFix"/>
<feGaussianBlur in="BackgroundImageFix" stdDeviation="8.12964"/>
<feComposite in2="SourceAlpha" operator="in" result="effect1_backgroundBlur_1565_9751"/>
<feBlend mode="normal" in="SourceGraphic" in2="effect1_backgroundBlur_1565_9751" result="shape"/>
</filter>
<filter id="filter3_b_1565_9751" x="187.869" y="355.838" width="422.742" height="382.094" filterUnits="userSpaceOnUse" color-interpolation-filters="sRGB">
<feFlood flood-opacity="0" result="BackgroundImageFix"/>
<feGaussianBlur in="BackgroundImageFix" stdDeviation="17.6142"/>
<feComposite in2="SourceAlpha" operator="in" result="effect1_backgroundBlur_1565_9751"/>
<feBlend mode="normal" in="SourceGraphic" in2="effect1_backgroundBlur_1565_9751" result="shape"/>
</filter>
<filter id="filter4_f_1565_9751" x="7.41046" y="277.061" width="783.644" height="640.736" filterUnits="userSpaceOnUse" color-interpolation-filters="sRGB">
<feFlood flood-opacity="0" result="BackgroundImageFix"/>
<feBlend mode="normal" in="SourceGraphic" in2="BackgroundImageFix" result="shape"/>
<feGaussianBlur stdDeviation="107.765" result="effect1_foregroundBlur_1565_9751"/>
</filter>
<filter id="filter5_bd_1565_9751" x="151.488" y="409.913" width="477.891" height="341.043" filterUnits="userSpaceOnUse" color-interpolation-filters="sRGB">
<feFlood flood-opacity="0" result="BackgroundImageFix"/>
<feGaussianBlur in="BackgroundImageFix" stdDeviation="6.7747"/>
<feComposite in2="SourceAlpha" operator="in" result="effect1_backgroundBlur_1565_9751"/>
<feColorMatrix in="SourceAlpha" type="matrix" values="0 0 0 0 0 0 0 0 0 0 0 0 0 0 0 0 0 0 127 0" result="hardAlpha"/>
<feOffset dy="-15.2277"/>
<feGaussianBlur stdDeviation="22.2559"/>
<feComposite in2="hardAlpha" operator="out"/>
<feColorMatrix type="matrix" values="0 0 0 0 1 0 0 0 0 1 0 0 0 0 1 0 0 0 0.25 0"/>
<feBlend mode="normal" in2="effect1_backgroundBlur_1565_9751" result="effect2_dropShadow_1565_9751"/>
<feBlend mode="normal" in="SourceGraphic" in2="effect2_dropShadow_1565_9751" result="shape"/>
</filter>
<filter id="filter6_bd_1565_9751" x="171.37" y="412.256" width="482.831" height="352.756" filterUnits="userSpaceOnUse" color-interpolation-filters="sRGB">
<feFlood flood-opacity="0" result="BackgroundImageFix"/>
<feGaussianBlur in="BackgroundImageFix" stdDeviation="6.7747"/>
<feComposite in2="SourceAlpha" operator="in" result="effect1_backgroundBlur_1565_9751"/>
<feColorMatrix in="SourceAlpha" type="matrix" values="0 0 0 0 0 0 0 0 0 0 0 0 0 0 0 0 0 0 127 0" result="hardAlpha"/>
<feOffset dy="-7.02818"/>
<feGaussianBlur stdDeviation="25.1843"/>
<feComposite in2="hardAlpha" operator="out"/>
<feColorMatrix type="matrix" values="0 0 0 0 1 0 0 0 0 1 0 0 0 0 1 0 0 0 0.25 0"/>
<feBlend mode="normal" in2="effect1_backgroundBlur_1565_9751" result="effect2_dropShadow_1565_9751"/>
<feBlend mode="normal" in="SourceGraphic" in2="effect2_dropShadow_1565_9751" result="shape"/>
</filter>
<filter id="filter7_f_1565_9751" x="336.827" y="397.632" width="123.007" height="120.076" filterUnits="userSpaceOnUse" color-interpolation-filters="sRGB">
<feFlood flood-opacity="0" result="BackgroundImageFix"/>
<feBlend mode="normal" in="SourceGraphic" in2="BackgroundImageFix" result="shape"/>
<feGaussianBlur stdDeviation="13.2136" result="effect1_foregroundBlur_1565_9751"/>
</filter>
<filter id="filter8_f_1565_9751" x="95.7723" y="607.936" width="80.1039" height="79.3383" filterUnits="userSpaceOnUse" color-interpolation-filters="sRGB">
<feFlood flood-opacity="0" result="BackgroundImageFix"/>
<feBlend mode="normal" in="SourceGraphic" in2="BackgroundImageFix" result="shape"/>
<feGaussianBlur stdDeviation="8.62364" result="effect1_foregroundBlur_1565_9751"/>
</filter>
<filter id="filter9_b_1565_9751" x="185.16" y="458.813" width="428.16" height="273.698" filterUnits="userSpaceOnUse" color-interpolation-filters="sRGB">
<feFlood flood-opacity="0" result="BackgroundImageFix"/>
<feGaussianBlur in="BackgroundImageFix" stdDeviation="5.41976"/>
<feComposite in2="SourceAlpha" operator="in" result="effect1_backgroundBlur_1565_9751"/>
<feBlend mode="normal" in="SourceGraphic" in2="effect1_backgroundBlur_1565_9751" result="shape"/>
</filter>
<filter id="filter10_b_1565_9751" x="183.674" y="340.75" width="433.827" height="145.164" filterUnits="userSpaceOnUse" color-interpolation-filters="sRGB">
<feFlood flood-opacity="0" result="BackgroundImageFix"/>
<feGaussianBlur in="BackgroundImageFix" stdDeviation="8.12964"/>
<feComposite in2="SourceAlpha" operator="in" result="effect1_backgroundBlur_1565_9751"/>
<feBlend mode="normal" in="SourceGraphic" in2="effect1_backgroundBlur_1565_9751" result="shape"/>
</filter>
<filter id="filter11_b_1565_9751" x="187.869" y="355.838" width="422.742" height="382.094" filterUnits="userSpaceOnUse" color-interpolation-filters="sRGB">
<feFlood flood-opacity="0" result="BackgroundImageFix"/>
<feGaussianBlur in="BackgroundImageFix" stdDeviation="17.6142"/>
<feComposite in2="SourceAlpha" operator="in" result="effect1_backgroundBlur_1565_9751"/>
<feBlend mode="normal" in="SourceGraphic" in2="effect1_backgroundBlur_1565_9751" result="shape"/>
</filter>
<filter id="filter12_f_1565_9751" x="7.41046" y="277.061" width="783.644" height="640.736" filterUnits="userSpaceOnUse" color-interpolation-filters="sRGB">
<feFlood flood-opacity="0" result="BackgroundImageFix"/>
<feBlend mode="normal" in="SourceGraphic" in2="BackgroundImageFix" result="shape"/>
<feGaussianBlur stdDeviation="107.765" result="effect1_foregroundBlur_1565_9751"/>
</filter>
<filter id="filter13_bd_1565_9751" x="151.488" y="409.913" width="477.891" height="341.043" filterUnits="userSpaceOnUse" color-interpolation-filters="sRGB">
<feFlood flood-opacity="0" result="BackgroundImageFix"/>
<feGaussianBlur in="BackgroundImageFix" stdDeviation="6.7747"/>
<feComposite in2="SourceAlpha" operator="in" result="effect1_backgroundBlur_1565_9751"/>
<feColorMatrix in="SourceAlpha" type="matrix" values="0 0 0 0 0 0 0 0 0 0 0 0 0 0 0 0 0 0 127 0" result="hardAlpha"/>
<feOffset dy="-15.2277"/>
<feGaussianBlur stdDeviation="22.2559"/>
<feComposite in2="hardAlpha" operator="out"/>
<feColorMatrix type="matrix" values="0 0 0 0 1 0 0 0 0 1 0 0 0 0 1 0 0 0 0.25 0"/>
<feBlend mode="normal" in2="effect1_backgroundBlur_1565_9751" result="effect2_dropShadow_1565_9751"/>
<feBlend mode="normal" in="SourceGraphic" in2="effect2_dropShadow_1565_9751" result="shape"/>
</filter>
<filter id="filter14_bd_1565_9751" x="171.37" y="412.256" width="482.831" height="352.756" filterUnits="userSpaceOnUse" color-interpolation-filters="sRGB">
<feFlood flood-opacity="0" result="BackgroundImageFix"/>
<feGaussianBlur in="BackgroundImageFix" stdDeviation="6.7747"/>
<feComposite in2="SourceAlpha" operator="in" result="effect1_backgroundBlur_1565_9751"/>
<feColorMatrix in="SourceAlpha" type="matrix" values="0 0 0 0 0 0 0 0 0 0 0 0 0 0 0 0 0 0 127 0" result="hardAlpha"/>
<feOffset dy="-7.02818"/>
<feGaussianBlur stdDeviation="25.1843"/>
<feComposite in2="hardAlpha" operator="out"/>
<feColorMatrix type="matrix" values="0 0 0 0 1 0 0 0 0 1 0 0 0 0 1 0 0 0 0.25 0"/>
<feBlend mode="normal" in2="effect1_backgroundBlur_1565_9751" result="effect2_dropShadow_1565_9751"/>
<feBlend mode="normal" in="SourceGraphic" in2="effect2_dropShadow_1565_9751" result="shape"/>
</filter>
<filter id="filter15_f_1565_9751" x="336.827" y="397.632" width="123.007" height="120.076" filterUnits="userSpaceOnUse" color-interpolation-filters="sRGB">
<feFlood flood-opacity="0" result="BackgroundImageFix"/>
<feBlend mode="normal" in="SourceGraphic" in2="BackgroundImageFix" result="shape"/>
<feGaussianBlur stdDeviation="13.2136" result="effect1_foregroundBlur_1565_9751"/>
</filter>
<filter id="filter16_f_1565_9751" x="95.7723" y="607.936" width="80.1039" height="79.3383" filterUnits="userSpaceOnUse" color-interpolation-filters="sRGB">
<feFlood flood-opacity="0" result="BackgroundImageFix"/>
<feBlend mode="normal" in="SourceGraphic" in2="BackgroundImageFix" result="shape"/>
<feGaussianBlur stdDeviation="8.62364" result="effect1_foregroundBlur_1565_9751"/>
</filter>
<linearGradient id="paint0_linear_1565_9751" x1="400" y1="0" x2="400" y2="1005" gradientUnits="userSpaceOnUse">
<stop stop-color="#FB7E23"/>
<stop offset="0.503596" stop-color="#FCAE76"/>
<stop offset="1" stop-color="white"/>
</linearGradient>
<linearGradient id="paint1_linear_1565_9751" x1="399.24" y1="391.066" x2="399.24" y2="702.703" gradientUnits="userSpaceOnUse">
<stop stop-color="white"/>
<stop offset="1" stop-color="white" stop-opacity="0"/>
</linearGradient>
<linearGradient id="paint2_linear_1565_9751" x1="229" y1="647" x2="207" y2="218.5" gradientUnits="userSpaceOnUse">
<stop stop-color="white"/>
<stop offset="0.843926" stop-color="white" stop-opacity="0"/>
</linearGradient>
<linearGradient id="paint3_linear_1565_9751" x1="399.24" y1="391.066" x2="399.24" y2="702.703" gradientUnits="userSpaceOnUse">
<stop stop-color="white"/>
<stop offset="1" stop-color="white" stop-opacity="0"/>
</linearGradient>
<linearGradient id="paint4_linear_1565_9751" x1="229" y1="647" x2="207" y2="218.5" gradientUnits="userSpaceOnUse">
<stop stop-color="white"/>
<stop offset="0.843926" stop-color="white" stop-opacity="0"/>
</linearGradient>
<clipPath id="clip0_1565_9751">
<rect width="800" height="800" fill="white"/>
</clipPath>
</defs>
</svg>
