<svg width="264" height="264" viewBox="0 0 264 264" fill="none" xmlns="http://www.w3.org/2000/svg">
<rect width="264" height="264" fill="url(#paint0_linear_3416_9633)"/>
<g opacity="0.92">
<path fill-rule="evenodd" clip-rule="evenodd" d="M103.569 71.0496L41.2114 87.7584C36.0939 89.1296 33.0569 94.3898 34.4282 99.5073L63.7841 209.065C65.1554 214.183 70.4155 217.22 75.5331 215.849L148.572 196.278C153.689 194.907 156.726 189.646 155.355 184.529L128.92 85.8715L128.919 85.8723L103.488 71.1897L103.569 71.0496Z" fill="url(#paint1_linear_3416_9633)" fill-opacity="0.3"/>
<path fill-rule="evenodd" clip-rule="evenodd" d="M103.569 71.0496L41.2114 87.7584C36.0939 89.1296 33.0569 94.3898 34.4282 99.5073L38.5175 114.769L130.088 90.2328L128.92 85.8715L128.919 85.8723L103.488 71.1897L103.569 71.0496Z" fill="url(#paint2_linear_3416_9633)"/>
<path fill-rule="evenodd" clip-rule="evenodd" d="M128.889 85.7621L128.808 85.9022L103.377 71.2196L103.458 71.0798L103.348 71.1094L107.437 86.3712C108.808 91.4887 114.068 94.5257 119.186 93.1544L130.087 90.2334L128.889 85.7621Z" fill="url(#paint3_linear_3416_9633)"/>
</g>
<g opacity="0.92">
<g filter="url(#filter0_b_3416_9633)">
<path fill-rule="evenodd" clip-rule="evenodd" d="M117.676 51.4952L54.1606 68.5142C49.0431 69.8855 46.0061 75.1456 47.3774 80.2632L75.857 186.551C77.2283 191.668 82.4885 194.705 87.606 193.334L162.122 173.367C167.24 171.996 170.277 166.736 168.905 161.619L143.208 65.7167L117.593 51.6337L117.676 51.4952Z" fill="url(#paint4_linear_3416_9633)" fill-opacity="0.6"/>
</g>
<path fill-rule="evenodd" clip-rule="evenodd" d="M119.078 51.1197L54.1606 68.5142C49.0431 69.8855 46.0061 75.1456 47.3774 80.2632L51.4668 95.525L146.308 70.1123L145.14 65.7518L118.993 51.2614L119.078 51.1197Z" fill="url(#paint5_linear_3416_9633)"/>
<rect width="47.4005" height="5.64292" rx="2.82146" transform="matrix(-0.965926 0.258819 0.258819 0.965926 137.086 140.351)" fill="url(#paint6_linear_3416_9633)"/>
<rect width="66.0222" height="5.64292" rx="2.82146" transform="matrix(-0.965926 0.258819 0.258819 0.965926 151.422 121.904)" fill="url(#paint7_linear_3416_9633)"/>
<rect width="66.0222" height="5.64292" rx="2.82146" transform="matrix(-0.965926 0.258819 0.258819 0.965926 147.773 108.277)" fill="url(#paint8_linear_3416_9633)"/>
<g filter="url(#filter1_b_3416_9633)">
<path fill-rule="evenodd" clip-rule="evenodd" d="M122.702 53.0701L60.3442 69.7789C55.2267 71.1501 52.1897 76.4103 53.561 81.5278L82.9169 191.086C84.2882 196.203 89.5484 199.24 94.6659 197.869L167.704 178.298C172.822 176.927 175.859 171.667 174.488 166.549L148.053 67.8922L148.052 67.8928L122.621 53.2102L122.702 53.0701Z" fill="url(#paint9_linear_3416_9633)" fill-opacity="0.6"/>
<path fill-rule="evenodd" clip-rule="evenodd" d="M122.702 53.0701L60.3442 69.7789C55.2267 71.1501 52.1897 76.4103 53.561 81.5278L57.6504 96.7896L149.221 72.2533L148.053 67.8922L148.052 67.8928L122.621 53.2102L122.702 53.0701Z" fill="url(#paint10_linear_3416_9633)"/>
<path fill-rule="evenodd" clip-rule="evenodd" d="M148.021 67.7802L147.939 67.9227L122.51 53.2414L126.57 68.3917C127.941 73.5092 133.201 76.5462 138.319 75.1749L149.22 72.2539L148.021 67.7802ZM122.509 53.2379L122.589 53.1009L122.48 53.1299L122.509 53.2379Z" fill="url(#paint11_linear_3416_9633)"/>
</g>
<rect width="66.5865" height="5.64292" rx="2.82146" transform="matrix(-0.965926 0.258819 0.258819 0.965926 143.227 106.574)" fill="url(#paint12_linear_3416_9633)"/>
<rect width="66.5865" height="5.64292" rx="2.82146" transform="matrix(-0.965926 0.258819 0.258819 0.965926 146.73 119.656)" fill="url(#paint13_linear_3416_9633)"/>
<rect width="47.4005" height="5.64292" rx="2.82146" transform="matrix(-0.965926 0.258819 0.258819 0.965926 131.703 137.703)" fill="url(#paint14_linear_3416_9633)"/>
<path d="M57.6497 96.7902L51.4689 95.5253L50.5195 91.9824L55.9702 90.5219L57.6497 96.7902Z" fill="#EC9C63"/>
</g>
<rect x="221.043" y="67.2891" width="1.62308" height="133.904" rx="0.81154" transform="rotate(45 221.043 67.2891)" fill="#FB7E23"/>
<g filter="url(#filter2_b_3416_9633)">
<path d="M128.688 158.645L137.262 139.594L149.886 152.218L130.835 160.792C129.473 161.405 128.076 160.008 128.688 158.645Z" fill="url(#paint15_linear_3416_9633)"/>
</g>
<g filter="url(#filter3_b_3416_9633)">
<path fill-rule="evenodd" clip-rule="evenodd" d="M229.187 72.9161C229.197 72.9065 229.207 72.8968 229.216 72.887C229.226 72.8772 229.236 72.8672 229.246 72.8572L229.519 72.5837L229.481 72.5456C230.497 70.8325 228.882 67.0952 225.633 63.8459C222.384 60.5965 218.646 58.982 216.933 59.9979L216.894 59.9591L138.062 138.792L138.076 138.806C135.923 141.393 136.786 146.004 140.13 149.349C143.475 152.693 148.086 153.556 150.673 151.403L150.686 151.416L150.935 151.168C150.953 151.15 150.972 151.131 150.991 151.113C151.009 151.094 151.028 151.076 151.046 151.057L229.187 72.9161Z" fill="url(#paint16_linear_3416_9633)" fill-opacity="0.7"/>
</g>
<path fill-rule="evenodd" clip-rule="evenodd" d="M224.206 55.5323C225.249 55.9078 227.401 57.5809 229.649 59.8288C231.897 62.0766 233.57 64.2284 233.946 65.2721L234.241 65.5671L227.928 71.8794L227.634 71.5854C226.257 71.5454 223.864 70.1113 221.615 67.8624C219.366 65.6134 217.932 63.221 217.892 61.8435L217.599 61.5502L218.151 60.9982C218.158 60.9907 218.165 60.9834 218.172 60.9762C218.179 60.969 218.187 60.9619 218.194 60.955L223.614 55.5349C223.617 55.5314 223.62 55.5281 223.624 55.5249C223.627 55.5217 223.63 55.5186 223.634 55.5156L223.911 55.2379L224.206 55.5323Z" fill="url(#paint17_linear_3416_9633)"/>
<path d="M228.789 72.1672C228.645 72.311 228.38 72.4403 227.899 72.4373C227.414 72.4343 226.775 72.294 226.002 71.9698C224.456 71.3215 222.663 70.0587 221.042 68.4372C219.42 66.8158 218.158 65.0234 217.509 63.4774C217.185 62.7043 217.045 62.0649 217.042 61.5801C217.039 61.0989 217.168 60.8341 217.312 60.6903" stroke="url(#paint18_linear_3416_9633)" stroke-width="1.62308"/>
<path d="M142.427 143.61L218.462 67.0021C216.74 64.1329 216.397 63.0245 216.453 62.6982L142.714 136.437L142.427 143.61Z" fill="url(#paint19_linear_3416_9633)" fill-opacity="0.5"/>
<defs>
<filter id="filter0_b_3416_9633" x="23.3466" y="27.7948" width="169.588" height="189.569" filterUnits="userSpaceOnUse" color-interpolation-filters="sRGB">
<feFlood flood-opacity="0" result="BackgroundImageFix"/>
<feGaussianBlur in="BackgroundImageFix" stdDeviation="11.8501"/>
<feComposite in2="SourceAlpha" operator="in" result="effect1_backgroundBlur_3416_9633"/>
<feBlend mode="normal" in="SourceGraphic" in2="effect1_backgroundBlur_3416_9633" result="shape"/>
</filter>
<filter id="filter1_b_3416_9633" x="45.3304" y="45.1702" width="137.386" height="160.928" filterUnits="userSpaceOnUse" color-interpolation-filters="sRGB">
<feFlood flood-opacity="0" result="BackgroundImageFix"/>
<feGaussianBlur in="BackgroundImageFix" stdDeviation="3.95004"/>
<feComposite in2="SourceAlpha" operator="in" result="effect1_backgroundBlur_3416_9633"/>
<feBlend mode="normal" in="SourceGraphic" in2="effect1_backgroundBlur_3416_9633" result="shape"/>
</filter>
<filter id="filter2_b_3416_9633" x="125.293" y="136.348" width="27.84" height="27.839" filterUnits="userSpaceOnUse" color-interpolation-filters="sRGB">
<feFlood flood-opacity="0" result="BackgroundImageFix"/>
<feGaussianBlur in="BackgroundImageFix" stdDeviation="1.62308"/>
<feComposite in2="SourceAlpha" operator="in" result="effect1_backgroundBlur_3416_9633"/>
<feBlend mode="normal" in="SourceGraphic" in2="effect1_backgroundBlur_3416_9633" result="shape"/>
</filter>
<filter id="filter3_b_3416_9633" x="133.652" y="56.4501" width="99.3751" height="99.3771" filterUnits="userSpaceOnUse" color-interpolation-filters="sRGB">
<feFlood flood-opacity="0" result="BackgroundImageFix"/>
<feGaussianBlur in="BackgroundImageFix" stdDeviation="1.62308"/>
<feComposite in2="SourceAlpha" operator="in" result="effect1_backgroundBlur_3416_9633"/>
<feBlend mode="normal" in="SourceGraphic" in2="effect1_backgroundBlur_3416_9633" result="shape"/>
</filter>
<linearGradient id="paint0_linear_3416_9633" x1="-1.14329e-05" y1="-55" x2="175" y2="456.5" gradientUnits="userSpaceOnUse">
<stop stop-color="#FF9950"/>
<stop offset="0.75987" stop-color="#FFF8F2"/>
</linearGradient>
<linearGradient id="paint1_linear_3416_9633" x1="-12.5623" y1="76.7544" x2="91.001" y2="232.151" gradientUnits="userSpaceOnUse">
<stop stop-color="#FB7E23"/>
<stop offset="1" stop-color="#FB7E23"/>
</linearGradient>
<linearGradient id="paint2_linear_3416_9633" x1="150.227" y1="91.2628" x2="122.516" y2="36.7104" gradientUnits="userSpaceOnUse">
<stop stop-color="white" stop-opacity="0"/>
<stop offset="1" stop-color="#FB7E23"/>
</linearGradient>
<linearGradient id="paint3_linear_3416_9633" x1="127.115" y1="59.4206" x2="98.2275" y2="91.4635" gradientUnits="userSpaceOnUse">
<stop stop-color="white" stop-opacity="0"/>
<stop offset="1" stop-color="#FB7E23"/>
</linearGradient>
<linearGradient id="paint4_linear_3416_9633" x1="42.6856" y1="78.0151" x2="184.806" y2="222.835" gradientUnits="userSpaceOnUse">
<stop stop-color="#FB7E23"/>
<stop offset="0.948453" stop-color="#FFC297"/>
</linearGradient>
<linearGradient id="paint5_linear_3416_9633" x1="167.109" y1="70.965" x2="139.739" y2="16.141" gradientUnits="userSpaceOnUse">
<stop stop-color="white" stop-opacity="0"/>
<stop offset="1" stop-color="#FB7E23"/>
</linearGradient>
<linearGradient id="paint6_linear_3416_9633" x1="53.2397" y1="31.6004" x2="-23.7311" y2="5.40762" gradientUnits="userSpaceOnUse">
<stop stop-color="white"/>
<stop offset="1" stop-color="white" stop-opacity="0"/>
</linearGradient>
<linearGradient id="paint7_linear_3416_9633" x1="74.1553" y1="31.6004" x2="-23.5243" y2="-14.698" gradientUnits="userSpaceOnUse">
<stop stop-color="white"/>
<stop offset="1" stop-color="white" stop-opacity="0"/>
</linearGradient>
<linearGradient id="paint8_linear_3416_9633" x1="74.1553" y1="31.6004" x2="-23.5243" y2="-14.698" gradientUnits="userSpaceOnUse">
<stop stop-color="white"/>
<stop offset="1" stop-color="white" stop-opacity="0"/>
</linearGradient>
<linearGradient id="paint9_linear_3416_9633" x1="26.9087" y1="59.4594" x2="271.411" y2="301.526" gradientUnits="userSpaceOnUse">
<stop stop-color="white" stop-opacity="0"/>
<stop offset="0.501186" stop-color="#FB7E23"/>
</linearGradient>
<linearGradient id="paint10_linear_3416_9633" x1="169.36" y1="73.2833" x2="141.648" y2="18.7309" gradientUnits="userSpaceOnUse">
<stop stop-color="white" stop-opacity="0"/>
<stop offset="0.9999" stop-color="#FB7E23"/>
<stop offset="1" stop-color="#18821D"/>
</linearGradient>
<linearGradient id="paint11_linear_3416_9633" x1="146.248" y1="41.4411" x2="117.36" y2="73.484" gradientUnits="userSpaceOnUse">
<stop stop-color="#EBC0A1"/>
<stop offset="1" stop-color="#FB7E23"/>
</linearGradient>
<linearGradient id="paint12_linear_3416_9633" x1="74.7892" y1="31.6004" x2="-23.4161" y2="-15.345" gradientUnits="userSpaceOnUse">
<stop stop-color="white"/>
<stop offset="1" stop-color="white" stop-opacity="0"/>
</linearGradient>
<linearGradient id="paint13_linear_3416_9633" x1="74.7892" y1="31.6004" x2="-23.4161" y2="-15.345" gradientUnits="userSpaceOnUse">
<stop stop-color="white"/>
<stop offset="1" stop-color="white" stop-opacity="0"/>
</linearGradient>
<linearGradient id="paint14_linear_3416_9633" x1="53.2397" y1="31.6004" x2="-23.7311" y2="5.40762" gradientUnits="userSpaceOnUse">
<stop stop-color="white"/>
<stop offset="1" stop-color="white" stop-opacity="0"/>
</linearGradient>
<linearGradient id="paint15_linear_3416_9633" x1="124.637" y1="158.531" x2="138.691" y2="157.605" gradientUnits="userSpaceOnUse">
<stop stop-color="#FFE4D0"/>
<stop offset="1" stop-color="white" stop-opacity="0.45"/>
</linearGradient>
<linearGradient id="paint16_linear_3416_9633" x1="214.442" y1="42.8998" x2="128.956" y2="174.174" gradientUnits="userSpaceOnUse">
<stop stop-color="#FB7E23"/>
<stop offset="1" stop-color="#FB7E23" stop-opacity="0.27"/>
</linearGradient>
<linearGradient id="paint17_linear_3416_9633" x1="203.774" y1="50.0203" x2="266.483" y2="54.8232" gradientUnits="userSpaceOnUse">
<stop stop-color="#FB7E23"/>
<stop offset="1" stop-color="#FFC59B"/>
</linearGradient>
<linearGradient id="paint18_linear_3416_9633" x1="213.582" y1="62.1249" x2="234.24" y2="79.3403" gradientUnits="userSpaceOnUse">
<stop stop-color="#FB7E23"/>
<stop offset="1" stop-color="#FFE4D1"/>
</linearGradient>
<linearGradient id="paint19_linear_3416_9633" x1="217.77" y1="64.0147" x2="140.3" y2="141.484" gradientUnits="userSpaceOnUse">
<stop stop-color="white"/>
<stop offset="1" stop-color="white" stop-opacity="0"/>
</linearGradient>
</defs>
</svg>
