<?xml version="1.0" encoding="UTF-8"?>
<svg id="_레이어_2" data-name="레이어 2" xmlns="http://www.w3.org/2000/svg" viewBox="0 0 648.84 220.23">
  <defs>
    <style>
      .cls-1 {
        fill: #fb7e23;
      }

      .cls-2 {
        fill: none;
        stroke: #fb7e23;
        stroke-miterlimit: 10;
        stroke-width: 22.25px;
      }
    </style>
  </defs>
  <g id="_레이어_1-2" data-name="레이어 1">
    <g>
      <path class="cls-1" d="m648.84,192.03h-28.2v28.2h28.2v-28.2Z"/>
      <path class="cls-1" d="m75.53,139.77h-22.79v60.78h22.79v-60.78Z"/>
      <path class="cls-1" d="m129.32,197.44H0v22.79h118.06c6.2,0,11.25-5.02,11.25-11.25v-11.54Z"/>
      <path class="cls-1" d="m218.2,22.25c12.08,0,21.9,9.82,21.9,21.9v131.8c0,12.08-9.82,21.9-21.9,21.9s-21.9-9.82-21.9-21.9V44.15c0-12.08,9.82-21.9,21.9-21.9Zm0-22.25c-24.38,0-44.15,19.77-44.15,44.15v131.8c0,24.38,19.77,44.15,44.15,44.15s44.15-19.77,44.15-44.15V44.15c0-24.38-19.77-44.15-44.15-44.15Z"/>
      <path class="cls-1" d="m90.82,22.57c8.39,0,15.23,6.83,15.23,15.23v76.13c0,8.3-6.77,15.07-15.07,15.07H22.25V22.57h68.57Zm0-22.25H0v150.93h90.98c20.6,0,37.32-16.72,37.32-37.32V37.79C128.3,17.1,111.51.32,90.82.32Z"/>
      <path class="cls-1" d="m296.94.32h-9.82v219.75h11.13c6.45,0,11.7-5.24,11.7-11.7V13.29c0-7.15-5.82-12.97-12.97-12.97h-.03Z"/>
      <path class="cls-1" d="m473.97.67h-10.93v149.6h22.79V12.55c0-6.55-5.31-11.86-11.86-11.86v-.03Z"/>
      <path class="cls-1" d="m381.62.67h-22.79v150.36h22.79V.67Z"/>
      <path class="cls-1" d="m429.69.67h-59.89v22.79h69.24v-13.48c0-5.15-4.16-9.31-9.31-9.31h-.03Z"/>
      <path class="cls-1" d="m439,128.24h-57.38v22.79h45.81c6.39,0,11.57-5.18,11.57-11.57v-11.22Z"/>
      <path class="cls-1" d="m520.41,128.24h-54.71v22.79h45.81c6.39,0,8.9-5.18,8.9-11.57v-11.22Z"/>
      <path class="cls-1" d="m599.44,220.07l-40.47-40.47v40.47h40.47Z"/>
      <path class="cls-2" d="m571.05,209.07h-106.36c-35.38-.35-37.13-23.14-37.13-23.14m0,0v-6.48m0,6.48s-.06.29-.19.79c-3.24,13.16-15.2,22.32-28.77,22.32h-39.77"/>
    </g>
  </g>
</svg>