<svg width="20" height="20" viewBox="0 0 20 20" fill="none" xmlns="http://www.w3.org/2000/svg">
<path fill-rule="evenodd" clip-rule="evenodd" d="M10 19.1671C10 19.1671 17.5 14.1671 17.5 8.33374C17.5 6.34462 16.7098 4.43696 15.3033 3.03044C13.8968 1.62392 11.9891 0.83374 10 0.83374C8.01088 0.83374 6.10322 1.62392 4.6967 3.03044C3.29018 4.43696 2.5 6.34462 2.5 8.33374C2.5 14.1671 10 19.1671 10 19.1671ZM12.5 8.33374C12.5 9.71445 11.3807 10.8337 10 10.8337C8.61929 10.8337 7.5 9.71445 7.5 8.33374C7.5 6.95303 8.61929 5.83374 10 5.83374C11.3807 5.83374 12.5 6.95303 12.5 8.33374Z" fill="#DEDEDE"/>
</svg>
