<svg width="20" height="20" viewBox="0 0 20 20" fill="none" xmlns="http://www.w3.org/2000/svg">
<path d="M9.10348 1.81435C9.47045 1.07168 10.5295 1.07168 10.8965 1.81435L12.8574 5.78276C13.0031 6.07746 13.2842 6.28177 13.6095 6.32927L17.9945 6.96952C18.8147 7.08929 19.1415 8.09769 18.5473 8.67576L15.3773 11.7601C15.1411 11.9899 15.0333 12.3213 15.0891 12.6461L15.8372 17.0033C15.9774 17.8202 15.1202 18.4433 14.3865 18.0578L10.4651 15.9977C10.1739 15.8448 9.82611 15.8448 9.53493 15.9977L5.61346 18.0578C4.87977 18.4433 4.02257 17.8202 4.16281 17.0033L4.91092 12.6461C4.96668 12.3213 4.85887 11.9899 4.6227 11.7601L1.45266 8.67576C0.858537 8.09769 1.18529 7.08929 2.00554 6.96952L6.39052 6.32927C6.71579 6.28177 6.99695 6.07746 7.14257 5.78276L9.10348 1.81435Z" fill="#DEDEDE"/>
</svg>
