<svg width="20" height="20" viewBox="0 0 20 20" fill="none" xmlns="http://www.w3.org/2000/svg">
<path fill-rule="evenodd" clip-rule="evenodd" d="M18.3327 10.0003C18.3327 14.6027 14.6017 18.3337 9.99935 18.3337C5.39698 18.3337 1.66602 14.6027 1.66602 10.0003C1.66602 5.39795 5.39698 1.66699 9.99935 1.66699C14.6017 1.66699 18.3327 5.39795 18.3327 10.0003ZM10 2C10.1405 2 10.2744 2.05908 10.3692 2.16279C12.3962 4.38195 13.634 6.51171 13.8129 9.5H17C17.2761 9.5 17.5 9.72386 17.5 10C17.5 10.2761 17.2761 10.5 17 10.5H13.813C13.6342 13.4886 12.3963 15.6179 10.3692 17.8372C10.2744 17.9409 10.1405 18 10 18C9.85954 18 9.72556 17.9409 9.63083 17.8372C7.60378 15.618 6.36468 13.4887 6.18574 10.5H3C2.72386 10.5 2.5 10.2761 2.5 10C2.5 9.72386 2.72386 9.5 3 9.5H6.18578C6.36485 6.51159 7.6039 4.38183 9.63083 2.16279C9.72556 2.05908 9.85954 2 10 2ZM9.99999 3.25104C11.6842 5.18717 12.6489 7.01679 12.811 9.5H7.18772C7.34994 7.01689 8.3156 5.18728 9.99999 3.25104ZM9.99999 16.749C8.31543 14.8126 7.34977 12.9833 7.18768 10.5H12.811C12.6491 12.9835 11.6843 14.8127 9.99999 16.749Z" fill="#DEDEDE"/>
</svg>
