<svg width="20" height="20" viewBox="0 0 20 20" fill="none" xmlns="http://www.w3.org/2000/svg">
<path fill-rule="evenodd" clip-rule="evenodd" d="M18.668 10.167C18.668 14.8614 14.8624 18.667 10.168 18.667C5.47355 18.667 1.66797 14.8614 1.66797 10.167C1.66797 5.47257 5.47355 1.66699 10.168 1.66699C14.8624 1.66699 18.668 5.47257 18.668 10.167ZM10.668 5.06703C10.668 4.79089 10.4441 4.56703 10.168 4.56703C9.89183 4.56703 9.66797 4.79089 9.66797 5.06703V10.167C9.66797 10.3564 9.77497 10.5296 9.94436 10.6142L13.3444 12.3142C13.5914 12.4377 13.8917 12.3376 14.0152 12.0906C14.1387 11.8437 14.0386 11.5433 13.7916 11.4198L10.668 9.85802V5.06703Z" fill="#DEDEDE"/>
</svg>
