<svg width="585" height="78" viewBox="0 0 585 78" fill="none" xmlns="http://www.w3.org/2000/svg">
<rect width="585" height="78" rx="16" fill="#FFDF36"/>
<path d="M195.993 20C185.505 20 177 26.9758 177 35.5842C177 41.15 180.553 46.0256 185.904 48.7936L183.978 55.9549C183.978 55.9549 183.942 56.2889 184.149 56.415C184.356 56.5412 184.606 56.4447 184.606 56.4447C185.205 56.3557 191.526 51.7324 192.632 50.9309C193.724 51.0942 194.858 51.1758 196.007 51.1758C206.495 51.1758 215 44.2 215 35.5916C215 26.9832 206.481 20 195.993 20Z" fill="black"/>
<path d="M185.491 41.0161C184.884 41.0161 184.392 40.5263 184.392 39.9252V33.1497H182.68C182.087 33.1497 181.609 32.6525 181.609 32.0366C181.609 31.4206 182.095 30.9234 182.68 30.9234H188.295C188.887 30.9234 189.365 31.4206 189.365 32.0366C189.365 32.6525 188.88 33.1497 188.295 33.1497H186.582V39.9252C186.582 40.5188 186.083 41.0161 185.484 41.0161H185.491ZM195.101 41.0012C194.645 41.0012 194.295 40.8083 194.188 40.4966L193.646 39.0124H190.307L189.764 40.4966C189.657 40.8083 189.308 41.0012 188.851 41.0012C188.609 41.0012 188.373 40.9493 188.152 40.8528C187.852 40.7044 187.56 40.3111 187.895 39.235L190.514 32.0589C190.699 31.5097 191.263 30.9457 191.976 30.9309C192.69 30.916 193.261 31.5097 193.439 32.0589L196.057 39.235C196.393 40.3111 196.1 40.7192 195.801 40.8528C195.586 40.9567 195.344 41.0012 195.101 41.0012ZM193.068 36.9938L191.976 33.7583L190.885 36.9938H193.068ZM197.82 40.8528C197.249 40.8528 196.771 40.3853 196.771 39.8138V32.0589C196.771 31.4281 197.27 30.916 197.891 30.916C198.512 30.916 199.011 31.4355 199.011 32.0589V38.7526H201.337C201.908 38.7526 202.386 39.2202 202.386 39.7916C202.386 40.363 201.915 40.8305 201.337 40.8305L197.82 40.8528ZM202.807 39.8584V32.0663C202.807 31.4355 203.306 30.9234 203.906 30.9234C204.505 30.9234 205.004 31.4429 205.004 32.0663V34.5152L208.072 31.3242C208.41 30.9729 209.049 31.0037 209.435 31.4058C209.798 31.7835 209.893 32.422 209.514 32.8232L207.002 35.4206L209.699 39.1311C210.062 39.6136 209.974 40.3651 209.485 40.7192C209.003 41.0903 208.296 40.9666 207.951 40.4966L205.383 36.9567L205.004 37.3501V39.8361C205.004 41.3169 202.807 41.3739 202.807 39.8584Z" fill="#FFE812"/>
<path d="M246.648 31.2422C246.637 37.2539 244.586 42.7617 237.086 46.4531L236.055 45.0469C239.969 43.1367 242.324 40.7227 243.59 37.9219L236.453 38.6016L236.148 36.9844L244.152 36.4453C244.527 35.2734 244.738 34.043 244.82 32.7656H237.203V31.2422H246.648ZM250.141 49.8984V29.0625H251.969V37.5469H255.344V39.0938H251.969V49.8984H250.141ZM267.391 31.2422C267.379 37.2539 265.328 42.7617 257.828 46.4531L256.797 45.0469C260.711 43.1367 263.066 40.7227 264.332 37.9219L257.195 38.6016L256.891 36.9844L264.895 36.4453C265.27 35.2734 265.48 34.043 265.562 32.7656H257.945V31.2422H267.391ZM270.883 49.8984V29.0625H272.711V37.5469H276.086V39.0938H272.711V49.8984H270.883ZM286.82 30.4219C291.25 30.4453 294.438 32.6016 294.438 35.8828C294.438 38.9883 291.672 41.0391 287.711 41.3086V45.6797H296.406V47.2266H277.328V45.6797H285.906V41.3086C281.969 41.0273 279.203 38.9766 279.203 35.8828C279.203 32.6016 282.402 30.4453 286.82 30.4219ZM280.984 35.8828C280.973 38.2852 283.445 39.8438 286.82 39.8672C290.195 39.8438 292.656 38.2852 292.656 35.8828C292.656 33.5273 290.195 31.9336 286.82 31.9453C283.445 31.9336 280.973 33.5273 280.984 35.8828ZM317.148 45.7734V47.3203H298.07V45.7734H306.648V41.8359H300.461V35.4141H312.93V32.1328H300.414V30.6094H314.734V36.9141H302.289V40.3125H315.227V41.8359H308.453V45.7734H317.148ZM332.242 34.6641C332.23 38.4727 334.82 42.293 337.891 43.6875L336.766 45.1406C334.387 43.9922 332.336 41.5195 331.34 38.5547C330.379 41.6953 328.328 44.332 325.891 45.5625L324.719 44.0156C327.824 42.5977 330.391 38.6133 330.414 34.6641V30.8672H332.242V34.6641ZM340.164 49.9453V29.0625H342.016V49.9453H340.164ZM352.633 32.9297C352.645 35.707 354.684 38.2383 357.766 39.3047L356.828 40.7344C354.449 39.8906 352.633 38.1914 351.742 36.0352C350.852 38.4023 348.941 40.2422 346.492 41.1328L345.508 39.7031C348.625 38.6016 350.805 35.918 350.828 32.9297V32.0391H346.07V30.5391H357.32V32.0391H352.633V32.9297ZM348.227 44.2266V42.7266H361.867V49.8984H360.039V44.2266H348.227ZM360.039 41.625V29.0625H361.867V34.5703H365.008V36.1406H361.867V41.625H360.039ZM382.445 29.0625V37.6641H385.938V39.1875H382.445V49.8984H380.617V29.0625H382.445ZM366.203 33.9375V32.4141H371.57V29.3203H373.398V32.4141H378.602V33.9375H366.203ZM367.398 40.4531C367.387 37.6406 369.543 35.6719 372.508 35.6719C375.449 35.6719 377.594 37.6406 377.617 40.4531C377.594 43.2773 375.449 45.2344 372.508 45.2344C369.543 45.2344 367.387 43.2773 367.398 40.4531ZM369.156 40.4531C369.145 42.3516 370.562 43.6875 372.508 43.6641C374.43 43.6875 375.836 42.3516 375.859 40.4531C375.836 38.5664 374.43 37.207 372.508 37.2188C370.562 37.207 369.145 38.5664 369.156 40.4531ZM404.289 29.0625V49.8984H402.438V29.0625H404.289ZM387.32 44.4844C392.957 41.8125 395.84 37.8164 396.25 32.8359H388.281V31.3359H398.125C398.102 37.3242 395.312 42.6328 388.328 45.9844L387.32 44.4844Z" fill="#393939"/>
</svg>
